<?xml version="1.0" encoding="utf-8"?>
<!-- Generator: Adobe Illustrator 15.1.0, SVG Export Plug-In . SVG Version: 6.00 Build 0)  -->
<!DOCTYPE svg PUBLIC "-//W3C//DTD SVG 1.1//EN" "http://www.w3.org/Graphics/SVG/1.1/DTD/svg11.dtd">
<svg version="1.1" id="Layer_1" xmlns="http://www.w3.org/2000/svg" xmlns:xlink="http://www.w3.org/1999/xlink" x="0px" y="0px"
	 width="128px" height="128px" viewBox="0 0 128 128" enable-background="new 0 0 128 128" xml:space="preserve">
<g>
	<circle fill="#C2D5D8" cx="64" cy="64" r="64"/>
	<path fill="#B7C9CC" d="M123.195,88.341c-0.071-0.184-0.145-0.368-0.221-0.544c-0.08-0.206-0.16-0.413-0.246-0.611
		c-0.082-0.207-0.162-0.416-0.25-0.617c-0.08-0.207-0.16-0.411-0.246-0.609c-0.082-0.208-0.162-0.417-0.25-0.617
		c-0.08-0.206-0.16-0.412-0.246-0.609c-0.082-0.209-0.162-0.418-0.25-0.617c-0.08-0.207-0.16-0.413-0.246-0.611
		c-0.081-0.208-0.162-0.417-0.249-0.617c-0.081-0.205-0.161-0.412-0.247-0.611c-0.081-0.207-0.162-0.414-0.248-0.612
		c-0.081-0.208-0.162-0.417-0.249-0.617c-0.081-0.207-0.161-0.413-0.247-0.61c-0.081-0.207-0.162-0.416-0.249-0.617
		c-0.081-0.205-0.161-0.412-0.247-0.61c-0.081-0.208-0.162-0.417-0.249-0.617c-0.081-0.207-0.161-0.413-0.247-0.61
		c-0.08-0.209-0.162-0.418-0.248-0.616c-0.082-0.207-0.162-0.413-0.248-0.611c-0.08-0.208-0.162-0.417-0.248-0.616
		c-0.082-0.207-0.162-0.414-0.248-0.611c-0.082-0.213-0.166-0.424-0.256-0.629c-0.078-0.203-0.156-0.404-0.24-0.6
		c-0.082-0.208-0.162-0.417-0.25-0.617c-0.08-0.207-0.16-0.412-0.246-0.609c-0.08-0.209-0.162-0.418-0.25-0.617
		c-0.08-0.206-0.16-0.413-0.246-0.611c-0.08-0.207-0.161-0.414-0.248-0.613c-0.08-0.209-0.161-0.418-0.248-0.616
		c-0.081-0.207-0.161-0.414-0.247-0.611c-0.081-0.208-0.162-0.417-0.249-0.617c-0.081-0.206-0.161-0.413-0.247-0.61
		c-0.081-0.207-0.162-0.416-0.249-0.617c-0.081-0.207-0.161-0.412-0.247-0.61c-0.081-0.208-0.162-0.417-0.249-0.616
		c-0.081-0.207-0.161-0.414-0.247-0.611c-0.08-0.209-0.162-0.418-0.248-0.616c-0.082-0.207-0.162-0.413-0.248-0.611
		c-0.08-0.208-0.161-0.417-0.248-0.617c-0.082-0.206-0.161-0.413-0.247-0.611c-0.08-0.208-0.162-0.417-0.248-0.617
		c-0.082-0.207-0.162-0.413-0.248-0.611c-0.08-0.207-0.162-0.415-0.248-0.614c-0.08-0.208-0.162-0.417-0.248-0.617
		c-0.082-0.206-0.162-0.413-0.248-0.611c-0.08-0.208-0.162-0.417-0.248-0.617c-0.084-0.211-0.166-0.421-0.254-0.625
		c-0.08-0.204-0.158-0.407-0.244-0.604c-0.08-0.206-0.16-0.413-0.246-0.611c-0.082-0.208-0.162-0.417-0.25-0.617
		c-0.08-0.207-0.16-0.413-0.246-0.611c-0.081-0.208-0.162-0.417-0.249-0.617c-0.081-0.206-0.161-0.413-0.247-0.611
		c-0.081-0.208-0.162-0.417-0.249-0.617c-0.081-0.207-0.161-0.413-0.247-0.611c-0.08-0.208-0.162-0.417-0.249-0.617
		c-0.081-0.206-0.161-0.413-0.247-0.611c-0.08-0.208-0.162-0.417-0.248-0.617c-0.082-0.207-0.162-0.413-0.248-0.611
		c-0.08-0.207-0.162-0.415-0.248-0.614c-0.08-0.208-0.162-0.417-0.248-0.617c-0.082-0.206-0.162-0.413-0.248-0.611
		c-0.08-0.208-0.162-0.417-0.248-0.617c-0.082-0.207-0.162-0.413-0.248-0.611c-0.08-0.208-0.16-0.417-0.248-0.617
		c-0.082-0.206-0.16-0.413-0.246-0.611c-0.082-0.208-0.162-0.417-0.25-0.617c-0.08-0.207-0.16-0.413-0.246-0.611
		c-0.082-0.208-0.162-0.417-0.25-0.617c-0.08-0.206-0.16-0.413-0.246-0.611c-0.081-0.208-0.162-0.417-0.25-0.617
		c-0.082-0.211-0.164-0.421-0.252-0.625c-0.08-0.204-0.159-0.407-0.244-0.604c-0.081-0.206-0.161-0.413-0.247-0.611
		c-0.081-0.208-0.162-0.417-0.249-0.617c-0.081-0.207-0.161-0.413-0.247-0.611c-0.081-0.207-0.162-0.415-0.248-0.614
		c-0.08-0.208-0.162-0.417-0.248-0.617c-0.082-0.206-0.162-0.413-0.248-0.611c-0.08-0.208-0.162-0.417-0.248-0.617
		c-0.082-0.207-0.162-0.413-0.248-0.611c-0.079-0.208-0.161-0.417-0.248-0.617c-0.088-0.224-0.177-0.446-0.271-0.661
		c-0.189-0.485-0.391-0.958-0.609-1.4c-0.021-0.039-0.041-0.05-0.064-0.046c-0.008,0.001-0.018,0.012-0.024,0.017
		c-0.017,0.011-0.035,0.028-0.056,0.058c-0.014,0.018-0.026,0.042-0.041,0.067c-0.02,0.032-0.037,0.069-0.059,0.112
		c-0.021,0.044-0.045,0.094-0.068,0.149c-0.006,0.01-0.01,0.022-0.016,0.033c-0.222,0.51-0.564,1.43-1.152,2.621l0,0
		c-2.311,4.671-8.352,13.325-25.09,16.097c-0.006-0.014-0.012-0.027-0.018-0.041c0.016-0.188,0.018-0.364,0.045-0.559
		c-0.089,0-0.173,0.016-0.26,0.022c-0.012-0.026-0.021-0.052-0.033-0.078c0.016-0.187,0.018-0.365,0.045-0.559
		c-0.089,0-0.173,0.016-0.26,0.022c-0.012-0.026-0.021-0.052-0.033-0.078c0.016-0.187,0.018-0.364,0.045-0.559
		c-0.088,0-0.173,0.016-0.26,0.022c-0.012-0.026-0.021-0.052-0.033-0.078c0.016-0.187,0.018-0.365,0.045-0.559
		c-0.088,0-0.172,0.016-0.26,0.022c-0.012-0.026-0.021-0.052-0.033-0.078c0.018-0.187,0.018-0.364,0.045-0.559
		c-0.088,0-0.172,0.016-0.26,0.022c-0.011-0.026-0.021-0.052-0.033-0.078c0.018-0.187,0.018-0.365,0.045-0.559
		c-0.103,0-0.199,0.018-0.299,0.026c0.016-0.212,0.02-0.417,0.051-0.64c-0.103,0-0.199,0.018-0.299,0.026
		c0.016-0.213,0.02-0.418,0.051-0.64c-0.103,0-0.199,0.018-0.299,0.026c0.016-0.212,0.02-0.417,0.051-0.64
		c-0.103,0-0.199,0.018-0.299,0.026c0.016-0.213,0.02-0.417,0.051-0.64c-0.103,0-0.199,0.018-0.299,0.026
		c0.016-0.212,0.021-0.417,0.053-0.64c-0.104,0-0.2,0.018-0.303,0.026c0.018-0.213,0.021-0.418,0.053-0.64
		c-0.104,0-0.199,0.018-0.301,0.026c0.018-0.212,0.021-0.417,0.053-0.64c-0.104,0-0.199,0.018-0.301,0.026
		c0.018-0.213,0.021-0.417,0.053-0.64c-0.104,0-0.199,0.018-0.301,0.026c0.018-0.212,0.021-0.417,0.053-0.64
		c-0.104,0-0.199,0.018-0.301,0.026c0.018-0.213,0.021-0.418,0.054-0.64c-0.104,0-0.2,0.018-0.3,0.026
		c0.016-0.213,0.02-0.418,0.052-0.64c-0.104,0-0.2,0.018-0.3,0.026c0.016-0.212,0.021-0.417,0.052-0.64
		c-0.104,0-0.199,0.018-0.3,0.026c0.016-0.213,0.021-0.417,0.052-0.64c-0.104,0-0.199,0.018-0.3,0.026
		c0.017-0.212,0.021-0.417,0.052-0.64c-0.104,0-0.199,0.018-0.3,0.026c0.017-0.213,0.021-0.418,0.052-0.64
		c-0.104,0-0.199,0.018-0.3,0.026c0.017-0.212,0.021-0.417,0.052-0.64c-0.103,0-0.198,0.018-0.3,0.026
		c0.018-0.213,0.021-0.417,0.052-0.64c-0.231,0-0.457,0.024-0.678,0.058c-0.058,0.009-0.109,0.02-0.166,0.031
		c-0.187,0.036-0.365,0.082-0.542,0.14c-0.03,0.01-0.063,0.018-0.092,0.028c-2.188,0.763-3.697,3.085-4.522,4.706
		c-0.068-0.136-0.145-0.278-0.224-0.423C61.852,41.935,59.932,41,58,41c0.96,6.719-5.428,8.841-4.176,14.306
		C30.746,51.135,26.768,35.932,26.059,35.95c-0.021,0-0.041,0.015-0.059,0.05c-0.207,0.414-0.395,0.853-0.574,1.305
		c-0.039,0.098-0.077,0.197-0.114,0.296c-2.769,7.327-2.059,19.182,2.049,29.156c0.082,0.207,0.166,0.414,0.25,0.619
		c0.081,0.204,0.163,0.407,0.246,0.608c0.082,0.209,0.166,0.414,0.25,0.619c0.098,0.248,0.199,0.494,0.3,0.737
		c0.051,0.127,0.103,0.255,0.154,0.384c0.094,0.238,0.19,0.479,0.288,0.717c0.081,0.205,0.164,0.41,0.248,0.613
		c0.082,0.209,0.166,0.413,0.25,0.618c0.081,0.204,0.163,0.407,0.246,0.609c0.082,0.207,0.166,0.414,0.25,0.618
		c0.081,0.203,0.163,0.406,0.246,0.608c0.082,0.208,0.166,0.414,0.25,0.619c0.081,0.204,0.163,0.407,0.246,0.609
		c0.082,0.206,0.166,0.413,0.25,0.618c0.081,0.205,0.163,0.408,0.246,0.608c0.082,0.208,0.166,0.414,0.25,0.619
		c0.098,0.248,0.199,0.493,0.3,0.738c0.067,0.167,0.136,0.333,0.205,0.5c0.064,0.163,0.129,0.327,0.196,0.489
		c0.096,0.244,0.192,0.485,0.292,0.729c0.081,0.204,0.163,0.407,0.246,0.607c0.082,0.207,0.166,0.414,0.25,0.619
		c0.081,0.205,0.163,0.407,0.246,0.609c0.081,0.206,0.164,0.41,0.248,0.614c0.082,0.208,0.166,0.413,0.25,0.618
		c0.081,0.205,0.163,0.408,0.246,0.608c0.082,0.207,0.166,0.414,0.25,0.619c0.081,0.204,0.163,0.407,0.246,0.608
		c0.082,0.209,0.166,0.414,0.25,0.619c0.098,0.248,0.199,0.492,0.3,0.738c0.067,0.166,0.136,0.332,0.205,0.5
		c0.064,0.163,0.129,0.327,0.196,0.489c0.096,0.244,0.192,0.485,0.292,0.728c0.081,0.205,0.163,0.408,0.246,0.609
		c0.082,0.207,0.166,0.414,0.25,0.619c0.081,0.204,0.163,0.406,0.246,0.609c0.082,0.207,0.166,0.414,0.25,0.619
		c0.081,0.203,0.163,0.405,0.246,0.607c0.082,0.207,0.166,0.414,0.25,0.619c0.081,0.204,0.163,0.406,0.246,0.607
		c0.081,0.207,0.164,0.41,0.248,0.615c0.099,0.25,0.201,0.5,0.305,0.747c0.065,0.164,0.133,0.327,0.2,0.49
		c0.082,0.208,0.165,0.414,0.25,0.619c0.081,0.204,0.163,0.407,0.246,0.608c0.066,0.168,0.132,0.334,0.2,0.5
		c0.094,0.239,0.189,0.479,0.288,0.719c0.082,0.207,0.166,0.414,0.25,0.619c0.081,0.203,0.163,0.405,0.246,0.607
		c0.082,0.208,0.166,0.414,0.25,0.619c0.081,0.204,0.163,0.406,0.246,0.607c0.082,0.207,0.166,0.414,0.25,0.619
		c0.081,0.205,0.163,0.408,0.246,0.609c0.082,0.208,0.166,0.414,0.25,0.619c0.098,0.248,0.199,0.492,0.3,0.738
		c0.066,0.166,0.135,0.33,0.202,0.494c0.082,0.207,0.165,0.412,0.249,0.614c0.081,0.207,0.164,0.41,0.248,0.614
		c0.082,0.207,0.166,0.414,0.25,0.619c0.065,0.164,0.13,0.328,0.196,0.49c0.097,0.246,0.194,0.49,0.295,0.734
		c0.08,0.201,0.161,0.4,0.243,0.602c0.082,0.207,0.166,0.414,0.25,0.617c0.081,0.205,0.163,0.408,0.246,0.609
		c0.082,0.207,0.166,0.414,0.25,0.619c0.081,0.204,0.163,0.406,0.246,0.609c0.099,0.248,0.2,0.496,0.303,0.742
		c0.066,0.166,0.134,0.329,0.202,0.495c0.082,0.207,0.165,0.414,0.25,0.619c0.081,0.203,0.163,0.406,0.246,0.608
		c0.082,0.207,0.165,0.414,0.25,0.619c0.081,0.205,0.163,0.406,0.246,0.607c0.065,0.166,0.131,0.332,0.198,0.496
		c0.096,0.244,0.192,0.486,0.292,0.729c0.081,0.203,0.163,0.406,0.246,0.609c0.082,0.207,0.166,0.414,0.25,0.618
		c0.081,0.204,0.163,0.407,0.246,0.608c0.082,0.207,0.166,0.414,0.25,0.619c0.081,0.205,0.163,0.407,0.246,0.608
		c0.098,0.25,0.2,0.498,0.302,0.743c0.066,0.166,0.135,0.33,0.202,0.495c0.082,0.208,0.166,0.413,0.25,0.618
		c0.081,0.205,0.163,0.406,0.246,0.609c0.082,0.207,0.166,0.414,0.25,0.619c0.081,0.203,0.163,0.406,0.246,0.607
		c0.083,0.211,0.168,0.421,0.254,0.63c0.063,0.159,0.127,0.319,0.192,0.479c0.096,0.243,0.191,0.485,0.291,0.729
		c0.082,0.203,0.164,0.406,0.246,0.609c0.082,0.207,0.166,0.414,0.25,0.618c0.082,0.203,0.164,0.406,0.246,0.608
		c0.082,0.206,0.164,0.41,0.248,0.613c0.1,0.25,0.2,0.496,0.303,0.744c0.065,0.166,0.135,0.328,0.203,0.494
		c0.082,0.207,0.164,0.414,0.25,0.619c0.08,0.203,0.162,0.406,0.246,0.608c0.082,0.208,0.164,0.413,0.25,0.62
		c0.061,0.154,0.123,0.307,0.186,0.459C55.628,127.578,59.764,128,64,128C90.727,128,113.615,111.611,123.195,88.341z"/>
	<path fill="#333333" d="M102,36c-0.552-1.103-2.529,15.681-27.824,19.306C75.428,49.841,69.04,47.719,70,41c-3,0-5,3-6,4.963
		C63,44,61,41,58,41c0.96,6.719-5.428,8.841-4.176,14.306C28.529,51.681,26.552,34.897,26,36c-5,10-2,31.535,8.732,42.268
		c0.977,0.979,2.559,0.979,3.535,0c1.252-1.25,2.695-1.885,4.292-1.885c2.441,0,4.956,1.516,6.412,3.865
		c0.848,1.375,2.014,4.191,0.293,7.634c-0.548,1.099-0.221,2.429,0.775,3.146c0.988,0.719,2.363,0.607,3.229-0.26
		c1.107-1.106,2.344-1.719,3.477-1.719C59.588,89.049,63,97,64,102c1-5,4.412-12.951,7.256-12.951c1.133,0,2.368,0.61,3.477,1.719
		c0.865,0.867,2.238,0.979,3.229,0.26c0.996-0.715,1.323-2.047,0.774-3.146c-1.721-3.442-0.555-6.26,0.293-7.634
		c1.455-2.35,3.972-3.865,6.412-3.865c1.598,0,3.039,0.635,4.291,1.885c0.979,0.979,2.561,0.979,3.535,0C104,67.535,107,46,102,36z"
		/>
	<g>
		<path fill="#242424" d="M61.352,45.963c0.648,1.037,2.1,0.731,2.648,0C62,42,60.007,41,58,41c0.044,0.311,0.059,0.602,0.072,0.894
			C59.598,42.933,60.693,44.67,61.352,45.963z"/>
		<path fill="#242424" d="M39.912,76.383c-1.597,0-3.04,0.635-4.292,1.885c-0.136,0.138-0.287,0.25-0.444,0.35
			c0.966,0.604,2.252,0.49,3.092-0.35c0.895-0.894,1.889-1.467,2.966-1.725C40.794,76.448,40.353,76.383,39.912,76.383z"/>
		<path fill="#242424" d="M67.279,41.894c-0.297,6.019,5.441,8.2,4.248,13.412c0.939-0.135,1.84-0.293,2.719-0.463
			C75.039,49.722,69.068,47.522,70,41C68.977,41,68.07,41.354,67.279,41.894z"/>
		<path fill="#242424" d="M53.824,55.306C30,51,26.531,34.938,26,36c-0.456,0.912-0.844,1.923-1.167,3.01
			C27.199,43.796,36,54,53.824,55.306z"/>
		<path fill="#242424" d="M82.793,76.383c-2.441,0-4.957,1.516-6.412,3.865c-0.848,1.375-2.014,4.191-0.293,7.634
			c0.547,1.099,0.221,2.429-0.775,3.146c-0.045,0.033-0.094,0.056-0.141,0.082c0.846,0.533,1.952,0.523,2.788-0.082
			c0.996-0.715,1.323-2.047,0.776-3.146c-1.721-3.442-0.555-6.26,0.293-7.634c1.191-1.924,3.098-3.273,5.089-3.705
			C83.689,76.439,83.248,76.383,82.793,76.383z"/>
		<path fill="#242424" d="M102,36c-0.166-0.331-0.466,0.957-1.48,3.011c3.219,10.831-0.146,29.505-9.898,39.257
			c-0.139,0.138-0.287,0.25-0.443,0.349c0.967,0.604,2.254,0.491,3.094-0.349C104,67.535,107,46,102,36z"/>
		<path fill="#242424" d="M68.607,89.049c-2.06,0-4.408,4.163-5.934,8.357c0.582,1.604,1.048,3.211,1.324,4.594
			c0.874-4.37,3.59-10.992,6.159-12.593C69.635,89.176,69.111,89.049,68.607,89.049z"/>
		<path fill="#242424" d="M54.096,89.049c-1.133,0-2.367,0.61-3.477,1.719c-0.135,0.135-0.283,0.244-0.439,0.342
			c0.978,0.615,2.264,0.486,3.088-0.342c0.615-0.615,1.271-1.069,1.926-1.358C54.822,89.176,54.454,89.049,54.096,89.049z"/>
	</g>
	<circle fill="#F5F5F5" cx="60" cy="52" r="3"/>
	<circle fill="#242424" cx="60" cy="52" r="2"/>
	<circle fill="#F5F5F5" cx="68" cy="52" r="3"/>
	<circle fill="#242424" cx="68" cy="52" r="2"/>
	<path fill="#CC584C" d="M61.287,58.861L62,61l0.68-2.036C62.202,58.94,61.734,58.908,61.287,58.861z"/>
	<path fill="#CC584C" d="M65.32,58.964L66,61l0.713-2.139C66.266,58.908,65.798,58.94,65.32,58.964z"/>
</g>
</svg>
