<?xml version="1.0" encoding="utf-8"?>
<!-- Generator: Adobe Illustrator 15.1.0, SVG Export Plug-In . SVG Version: 6.00 Build 0)  -->
<!DOCTYPE svg PUBLIC "-//W3C//DTD SVG 1.1//EN" "http://www.w3.org/Graphics/SVG/1.1/DTD/svg11.dtd">
<svg version="1.1" id="Layer_1" xmlns="http://www.w3.org/2000/svg" xmlns:xlink="http://www.w3.org/1999/xlink" x="0px" y="0px"
	 width="128px" height="128px" viewBox="0 0 128 128" enable-background="new 0 0 128 128" xml:space="preserve">
<g>
	<circle fill="#C2D5D8" cx="64" cy="64" r="64"/>
	<path fill="#B7C9CC" d="M114.209,103.661c-0.052-0.171-0.11-0.341-0.198-0.492c-0.053-0.219-0.139-0.423-0.248-0.612
		c-0.053-0.221-0.139-0.425-0.248-0.615c-0.053-0.219-0.139-0.424-0.248-0.613c-0.053-0.219-0.139-0.424-0.247-0.615
		c-0.054-0.219-0.14-0.423-0.248-0.613c-0.054-0.22-0.14-0.424-0.248-0.615c-0.054-0.219-0.14-0.422-0.248-0.612
		c-0.054-0.22-0.14-0.424-0.248-0.615c-0.053-0.219-0.14-0.423-0.248-0.612c-0.053-0.221-0.139-0.424-0.248-0.615
		c-0.053-0.219-0.139-0.424-0.248-0.613c-0.053-0.219-0.139-0.424-0.248-0.615c-0.053-0.219-0.139-0.423-0.248-0.613
		c-0.053-0.221-0.14-0.427-0.251-0.619c-0.053-0.217-0.138-0.42-0.246-0.608c-0.053-0.219-0.139-0.423-0.248-0.614
		c-0.053-0.219-0.139-0.424-0.248-0.615c-0.053-0.219-0.139-0.422-0.248-0.612c-0.053-0.22-0.139-0.425-0.248-0.615
		c-0.053-0.219-0.139-0.423-0.247-0.612c-0.054-0.22-0.14-0.425-0.248-0.615c-0.054-0.219-0.14-0.424-0.248-0.613
		c-0.054-0.221-0.14-0.424-0.248-0.615c-0.054-0.219-0.14-0.423-0.248-0.613c-0.053-0.219-0.14-0.424-0.248-0.615
		c-0.053-0.219-0.139-0.422-0.248-0.612c-0.053-0.22-0.139-0.424-0.248-0.615c-0.053-0.219-0.139-0.423-0.248-0.612
		c-0.053-0.22-0.139-0.425-0.248-0.615c-0.053-0.219-0.139-0.424-0.248-0.613c-0.053-0.221-0.139-0.424-0.248-0.615
		c-0.053-0.219-0.139-0.423-0.248-0.613c-0.053-0.219-0.139-0.424-0.248-0.615c-0.053-0.219-0.139-0.422-0.248-0.612
		c-0.053-0.22-0.139-0.424-0.248-0.614c-0.053-0.22-0.139-0.424-0.248-0.615c-0.053-0.219-0.139-0.422-0.247-0.612
		c-0.054-0.22-0.14-0.425-0.248-0.615c-0.054-0.219-0.14-0.423-0.248-0.613c-0.054-0.221-0.141-0.427-0.251-0.618
		c-0.054-0.218-0.139-0.42-0.246-0.609c-0.053-0.219-0.139-0.424-0.248-0.615c-0.053-0.219-0.139-0.423-0.248-0.613
		c-0.053-0.22-0.139-0.424-0.248-0.615c-0.053-0.219-0.139-0.422-0.248-0.612c-0.053-0.22-0.139-0.425-0.248-0.615
		c-0.053-0.219-0.139-0.423-0.248-0.612c-0.053-0.221-0.139-0.425-0.248-0.615c-0.053-0.219-0.139-0.424-0.248-0.613
		c-0.053-0.219-0.139-0.424-0.248-0.615c-0.053-0.219-0.139-0.423-0.248-0.613c-0.053-0.22-0.139-0.424-0.248-0.615
		c-0.053-0.219-0.139-0.422-0.247-0.612c-0.054-0.22-0.14-0.423-0.248-0.614c-0.054-0.219-0.14-0.424-0.248-0.615
		c-0.054-0.219-0.14-0.423-0.248-0.613c-0.054-0.219-0.14-0.424-0.248-0.614c-0.053-0.22-0.14-0.423-0.248-0.613
		c-0.053-0.219-0.139-0.424-0.248-0.614c-0.053-0.22-0.139-0.424-0.248-0.613c-0.053-0.221-0.139-0.424-0.248-0.615
		c-0.053-0.219-0.139-0.423-0.248-0.613c-0.053-0.219-0.139-0.424-0.248-0.615c-0.053-0.219-0.139-0.423-0.248-0.613
		c-0.053-0.221-0.14-0.427-0.251-0.619c-0.053-0.217-0.138-0.42-0.246-0.609c-0.053-0.219-0.139-0.424-0.248-0.615
		c-0.053-0.219-0.139-0.423-0.248-0.613c-0.053-0.22-0.139-0.424-0.247-0.615c-0.054-0.219-0.14-0.423-0.248-0.613
		c-0.054-0.219-0.14-0.423-0.248-0.614c-0.054-0.219-0.14-0.424-0.248-0.615c-0.054-0.219-0.14-0.423-0.248-0.613
		c-0.053-0.22-0.14-0.424-0.248-0.615c-0.053-0.219-0.139-0.423-0.248-0.613c-0.053-0.219-0.139-0.424-0.248-0.615
		c-0.053-0.219-0.139-0.423-0.248-0.613c-0.053-0.22-0.139-0.424-0.248-0.615c-0.053-0.219-0.139-0.423-0.248-0.613
		c-0.053-0.219-0.139-0.424-0.248-0.615c-0.053-0.219-0.139-0.423-0.248-0.613c-0.053-0.22-0.139-0.424-0.248-0.615
		c-0.053-0.219-0.139-0.423-0.248-0.613c-0.053-0.219-0.139-0.424-0.247-0.615c-0.054-0.219-0.14-0.423-0.248-0.613
		c-0.054-0.219-0.14-0.424-0.248-0.614c-0.054-0.22-0.14-0.424-0.248-0.615c-0.054-0.219-0.14-0.423-0.248-0.613
		c-0.053-0.219-0.14-0.424-0.248-0.615c-0.055-0.221-0.142-0.426-0.25-0.617c-0.053-0.218-0.139-0.421-0.247-0.611
		c-0.053-0.219-0.139-0.423-0.248-0.613c-0.053-0.219-0.139-0.424-0.248-0.615c-0.053-0.219-0.139-0.423-0.248-0.613
		c-0.053-0.22-0.139-0.424-0.248-0.615c-0.053-0.219-0.139-0.423-0.248-0.613c-0.053-0.219-0.139-0.424-0.248-0.615
		c-0.053-0.219-0.139-0.423-0.248-0.613c-0.053-0.22-0.139-0.424-0.248-0.615c-0.053-0.219-0.139-0.423-0.248-0.613
		c-0.053-0.219-0.139-0.424-0.247-0.615c-0.054-0.219-0.14-0.423-0.248-0.613c-0.054-0.219-0.14-0.424-0.248-0.614
		c-0.054-0.22-0.14-0.424-0.248-0.615c-0.054-0.219-0.14-0.423-0.248-0.613c-0.053-0.219-0.14-0.424-0.248-0.615
		c-0.053-0.219-0.139-0.423-0.248-0.613c-0.053-0.22-0.139-0.424-0.248-0.615c-0.053-0.219-0.139-0.423-0.248-0.613
		c-0.053-0.219-0.139-0.424-0.248-0.615c-0.053-0.219-0.139-0.423-0.248-0.613c-0.053-0.22-0.139-0.424-0.248-0.615
		c-0.053-0.219-0.139-0.423-0.248-0.613c-0.053-0.219-0.139-0.424-0.248-0.615c-0.054-0.221-0.14-0.426-0.25-0.617
		c-0.054-0.218-0.139-0.421-0.247-0.611c-0.053-0.219-0.139-0.423-0.248-0.613c-0.053-0.219-0.139-0.424-0.247-0.615
		c-0.054-0.219-0.14-0.423-0.248-0.613c-0.054-0.219-0.14-0.424-0.248-0.614c-0.054-0.22-0.14-0.424-0.248-0.615
		c-0.054-0.219-0.14-0.423-0.248-0.613c-0.053-0.219-0.14-0.424-0.248-0.615c-0.053-0.219-0.139-0.423-0.248-0.613
		c-0.053-0.22-0.139-0.424-0.248-0.615c-0.053-0.219-0.139-0.423-0.248-0.613c-0.248-1.033-1.171-1.802-2.281-1.802
		c-4.629,0-7.783,3.267-8.928,8.946c-1.908-1.166-4.365-1.887-7.543-1.887c-3.036,0-5.408,0.664-7.278,1.74
		c-0.011-0.025-0.021-0.05-0.033-0.075c-0.078-0.211-0.161-0.416-0.249-0.617c-0.077-0.209-0.16-0.412-0.246-0.612
		c-0.079-0.21-0.162-0.415-0.25-0.616c-0.077-0.209-0.16-0.412-0.246-0.611c-1.505-4.012-4.325-6.268-8.167-6.268
		c-1.301,0-2.354,1.052-2.354,2.353c0,0.426,0.122,0.819,0.319,1.164c0.053,0.219,0.139,0.424,0.248,0.615
		c0.053,0.219,0.139,0.423,0.248,0.613c0.053,0.219,0.139,0.424,0.248,0.615c0.053,0.219,0.139,0.423,0.247,0.613
		c0.054,0.219,0.14,0.424,0.248,0.615c0.054,0.219,0.14,0.423,0.248,0.613c0.054,0.219,0.14,0.424,0.248,0.614
		c0.054,0.219,0.14,0.424,0.248,0.615c0.053,0.219,0.14,0.423,0.248,0.613c0.053,0.219,0.139,0.424,0.248,0.615
		c0.054,0.221,0.14,0.426,0.25,0.617c0.053,0.218,0.139,0.421,0.247,0.611c0.053,0.219,0.139,0.423,0.248,0.613
		c0.053,0.219,0.139,0.424,0.248,0.615c0.053,0.219,0.139,0.423,0.248,0.613c0.053,0.219,0.139,0.424,0.248,0.615
		c0.053,0.219,0.139,0.423,0.248,0.613c0.053,0.219,0.139,0.424,0.248,0.615c0.053,0.219,0.139,0.423,0.248,0.613
		c0.053,0.219,0.139,0.424,0.248,0.615c0.053,0.219,0.139,0.423,0.247,0.613c0.041,0.172,0.104,0.334,0.182,0.49
		c-0.988,3.458-1.004,6.961-1.004,8.903c-8.022,7.776-14.118,20.22-14.118,28.218c0,2.107,0.396,3.887,1.062,5.389
		c0.077,0.205,0.157,0.406,0.244,0.603c0.078,0.209,0.159,0.414,0.247,0.612c0.078,0.21,0.16,0.416,0.249,0.615
		c0.078,0.209,0.159,0.414,0.247,0.612c0.078,0.21,0.16,0.416,0.249,0.616c0.078,0.209,0.159,0.414,0.247,0.611
		c0.078,0.209,0.16,0.416,0.248,0.615c0.078,0.209,0.16,0.416,0.249,0.615c0.078,0.209,0.159,0.414,0.247,0.612
		c0.078,0.21,0.16,0.416,0.249,0.616c0.079,0.211,0.162,0.418,0.251,0.619c0.077,0.209,0.158,0.412,0.246,0.608
		c0.078,0.209,0.159,0.414,0.247,0.612c0.078,0.21,0.16,0.416,0.249,0.615c0.078,0.209,0.159,0.414,0.247,0.612
		c0.078,0.21,0.159,0.416,0.249,0.616c0.078,0.209,0.158,0.414,0.247,0.611c0.077,0.211,0.159,0.416,0.249,0.617
		c0.078,0.209,0.158,0.414,0.247,0.611c0.077,0.21,0.159,0.416,0.249,0.616c0.077,0.209,0.158,0.414,0.246,0.612
		c0.078,0.209,0.16,0.416,0.25,0.615c0.077,0.209,0.158,0.414,0.246,0.612c0.078,0.209,0.16,0.415,0.248,0.614
		c0.078,0.21,0.16,0.416,0.249,0.615c0.078,0.209,0.159,0.414,0.247,0.613c0.078,0.209,0.16,0.415,0.249,0.615
		c0.078,0.209,0.159,0.414,0.247,0.612c0.078,0.21,0.16,0.416,0.249,0.616c0.078,0.209,0.159,0.414,0.247,0.611
		c0.078,0.21,0.16,0.416,0.249,0.616c0.078,0.209,0.159,0.414,0.247,0.612c0.078,0.21,0.16,0.416,0.249,0.615
		c0.078,0.209,0.159,0.414,0.247,0.612c0.078,0.21,0.16,0.416,0.249,0.616c0.079,0.212,0.162,0.419,0.251,0.62
		c0.077,0.208,0.158,0.411,0.246,0.608c0.078,0.209,0.159,0.414,0.247,0.611c0.078,0.21,0.16,0.416,0.249,0.616
		c0.078,0.209,0.159,0.414,0.247,0.612c0.078,0.209,0.16,0.414,0.248,0.613c0.078,0.211,0.16,0.416,0.249,0.616
		c0.078,0.209,0.159,0.414,0.247,0.612c0.078,0.21,0.159,0.416,0.249,0.615c0.078,0.209,0.158,0.414,0.247,0.612
		c0.077,0.21,0.159,0.416,0.249,0.616c0.078,0.209,0.158,0.414,0.247,0.612c0.077,0.21,0.159,0.415,0.249,0.616
		c0.077,0.209,0.158,0.414,0.246,0.611c0.078,0.21,0.16,0.416,0.25,0.616c0.077,0.209,0.158,0.414,0.246,0.612
		c0.078,0.209,0.16,0.416,0.249,0.615c0.078,0.209,0.159,0.414,0.247,0.612c0.078,0.21,0.16,0.416,0.249,0.616
		c0.078,0.209,0.159,0.414,0.247,0.611c0.078,0.209,0.16,0.416,0.248,0.615c0.078,0.209,0.16,0.416,0.249,0.615
		c0.078,0.209,0.159,0.414,0.247,0.612c0.078,0.21,0.16,0.416,0.249,0.616c0.078,0.209,0.159,0.414,0.247,0.611
		c0.079,0.213,0.163,0.422,0.253,0.624c0.077,0.206,0.157,0.408,0.244,0.604c0.078,0.21,0.16,0.416,0.249,0.615
		c0.078,0.209,0.159,0.414,0.247,0.612c0.078,0.21,0.16,0.416,0.249,0.616c0.078,0.209,0.159,0.414,0.247,0.611
		c0.078,0.211,0.16,0.416,0.249,0.617c0.078,0.209,0.159,0.414,0.247,0.611c0.078,0.21,0.16,0.416,0.249,0.616
		c0.078,0.209,0.159,0.414,0.247,0.612c0.078,0.209,0.16,0.416,0.249,0.615c0.039,0.105,0.083,0.205,0.124,0.308
		C57.642,127.757,60.792,128,64,128C84.361,128,102.487,118.48,114.209,103.661z"/>
	<path fill="#242424" d="M73.412,40.471c-1.301,0-2.354-1.053-2.354-2.353c0-8.84,3.52-14.118,9.412-14.118
		c1.302,0,2.354,1.052,2.354,2.353c0,1.3-1.052,2.353-2.354,2.353c-4.246,0-4.706,6.581-4.706,9.412
		C75.765,39.418,74.713,40.471,73.412,40.471z"/>
	<path fill="#242424" d="M54.589,40.471c-1.301,0-2.354-1.053-2.354-2.353c0-2.831-0.459-9.412-4.706-9.412
		c-1.301,0-2.354-1.053-2.354-2.353c0-1.301,1.053-2.353,2.354-2.353c5.895,0,9.412,5.278,9.412,14.118
		C56.941,39.418,55.889,40.471,54.589,40.471z"/>
	<path fill="#FFD464" d="M64,104c-8.311,0-16.471-8.157-16.471-16.471L64,52.235l16.471,35.294C80.471,95.843,72.313,104,64,104z"/>
	<path fill="#F2C95F" d="M64,52.235l-2.235,4.79L76,87.529c0,7.563-6.757,14.978-14.235,16.256c0.741,0.126,1.486,0.214,2.235,0.214
		c8.313,0,16.471-8.157,16.471-16.472L64,52.235z"/>
	<polygon fill="#242424" points="53.019,75.766 74.981,75.766 72.784,71.059 55.216,71.059 	"/>
	<polygon fill="#242424" points="49.727,82.824 78.274,82.824 76.08,78.118 51.921,78.118 	"/>
	<path fill="#242424" d="M47.529,87.529c0,0.791,0.095,1.574,0.233,2.353h32.474c0.141-0.778,0.233-1.563,0.233-2.353l-1.099-2.354
		H48.627L47.529,87.529z"/>
	<path fill="#242424" d="M50.972,96.941h26.058c1.104-1.448,1.999-3.036,2.595-4.707H48.379
		C48.973,93.906,49.869,95.494,50.972,96.941z"/>
	<path fill="#263740" d="M75.765,52.235c-1.301,0-22.229,0-23.528,0c-1.301,0-2.354-1.053-2.354-2.353
		c0-4.655,0-18.824,14.117-18.824c14.118,0,14.118,14.168,14.118,18.824C78.118,51.183,77.065,52.235,75.765,52.235z"/>
	<path fill="#1E2C33" d="M64,31.059c-0.618,0-1.199,0.036-1.765,0.089C73.996,32.645,74,45.443,74,49.824
		c0,1.3-1.053,2.353-2.354,2.353c-0.998,0-13.546,0-19.922,0c0.165,0.036,0.334,0.059,0.511,0.059c1.301,0,22.229,0,23.528,0
		c1.301,0,2.354-1.053,2.354-2.353C78.118,45.227,78.118,31.059,64,31.059z"/>
	<path fill="#FFC066" d="M64,42.728c-13.723,0-28.235,22.952-28.235,35.293C35.765,86.695,42.314,90,48,90
		c9.056,0,13.488-11.311,16-23c2.512,11.689,6.944,23,16,23c5.688,0,12.235-3.303,12.235-11.979
		C92.235,65.68,77.723,42.728,64,42.728z"/>
	<path fill="#F2B661" d="M64,42.728V67c2.512,11.689,6.944,23,16,23c5.688,0,12.235-3.303,12.235-11.979
		C92.235,65.68,77.723,42.728,64,42.728z"/>
	<path fill="#E6AD5C" d="M92.233,78.063C92.191,65.707,77.703,42.823,64,42.823c-0.704,0-1.411,0.075-2.117,0.191
		C74.939,45.166,88,66.408,88,78.118c0,6.989-5.291,10.606-9.982,11.684c0.637,0.126,1.295,0.199,1.982,0.199
		C85.679,90,92.212,86.706,92.233,78.063z"/>
	<path fill="#242424" d="M53.097,99.294C56.123,102.134,60.039,104,64,104c3.962,0,7.877-1.866,10.903-4.706H53.097z"/>
	<path fill="#E6AD5C" d="M45.107,89.703C46.073,89.898,47.047,90,48,90c9.056,0,13.488-11.311,16-23
		C61.141,73.673,52.681,87.193,45.107,89.703z"/>
	<path fill="#FFD599" d="M39.765,79.021c-0.553,0-1-0.447-1-1c0-7.601,6.117-19.521,13.636-26.576
		c0.403-0.377,1.035-0.356,1.414,0.045c0.378,0.403,0.356,1.036-0.045,1.414c-7.05,6.612-13.005,18.114-13.005,25.116
		C40.765,78.575,40.317,79.021,39.765,79.021z"/>
</g>
</svg>
