<?xml version="1.0" encoding="utf-8"?>
<!-- Generator: Adobe Illustrator 15.1.0, SVG Export Plug-In . SVG Version: 6.00 Build 0)  -->
<!DOCTYPE svg PUBLIC "-//W3C//DTD SVG 1.1//EN" "http://www.w3.org/Graphics/SVG/1.1/DTD/svg11.dtd">
<svg version="1.1" id="Layer_1" xmlns="http://www.w3.org/2000/svg" xmlns:xlink="http://www.w3.org/1999/xlink" x="0px" y="0px"
	 width="128px" height="128px" viewBox="0 0 128 128" enable-background="new 0 0 128 128" xml:space="preserve">
<g>
	<circle fill="#B2E3FF" cx="64" cy="64" r="64"/>
	<path fill="#A9D8F2" d="M123.785,86.845c-0.067-0.051-0.132-0.103-0.2-0.153c0.099-0.014,0.19-0.024,0.273-0.031
		c0.018-0.047,0.038-0.094,0.056-0.141c-0.189-0.147-0.381-0.295-0.576-0.442c0.194-0.026,0.364-0.042,0.494-0.042
		c-0.239-0.191-0.49-0.383-0.743-0.572c0.195-0.025,0.365-0.042,0.495-0.042c-0.239-0.19-0.49-0.382-0.743-0.571
		c0.195-0.026,0.364-0.043,0.494-0.043c-0.239-0.19-0.49-0.382-0.743-0.572c0.195-0.025,0.365-0.041,0.495-0.041
		c-0.239-0.191-0.49-0.383-0.743-0.572c0.195-0.026,0.365-0.042,0.495-0.042c-0.239-0.191-0.489-0.382-0.743-0.572
		c0.195-0.026,0.365-0.042,0.495-0.042c-0.238-0.191-0.489-0.382-0.743-0.572c0.195-0.025,0.365-0.041,0.495-0.041
		c-0.238-0.191-0.489-0.383-0.742-0.572c0.194-0.026,0.364-0.043,0.494-0.043c-0.238-0.19-0.489-0.381-0.742-0.571
		c0.194-0.026,0.364-0.042,0.495-0.042c-0.239-0.191-0.49-0.383-0.743-0.572c0.194-0.025,0.364-0.042,0.495-0.042
		c-0.239-0.19-0.49-0.382-0.743-0.571c0.194-0.026,0.364-0.043,0.495-0.043c-0.239-0.19-0.49-0.382-0.743-0.572
		c0.194-0.025,0.365-0.041,0.495-0.041c-0.239-0.191-0.49-0.383-0.743-0.572c0.195-0.026,0.365-0.042,0.495-0.042
		c-0.239-0.191-0.49-0.382-0.743-0.572c0.195-0.026,0.365-0.042,0.495-0.042c-0.239-0.191-0.49-0.382-0.743-0.572
		c0.195-0.025,0.365-0.041,0.495-0.041c-0.239-0.191-0.49-0.383-0.743-0.572c0.195-0.026,0.365-0.043,0.495-0.043
		c-0.239-0.19-0.49-0.381-0.743-0.571c0.195-0.026,0.365-0.042,0.495-0.042c-0.239-0.191-0.49-0.383-0.743-0.572
		c0.195-0.025,0.365-0.042,0.495-0.042c-0.239-0.19-0.49-0.382-0.743-0.571c0.195-0.026,0.365-0.043,0.495-0.043
		c-0.239-0.19-0.49-0.382-0.743-0.572c0.195-0.025,0.365-0.041,0.495-0.041c-0.239-0.191-0.49-0.383-0.743-0.572
		c0.195-0.026,0.365-0.042,0.495-0.042c-0.238-0.191-0.49-0.382-0.743-0.572c0.195-0.026,0.365-0.042,0.495-0.042
		c-0.238-0.191-0.489-0.382-0.742-0.572c0.194-0.025,0.364-0.041,0.494-0.041c-0.238-0.191-0.489-0.383-0.742-0.572
		c0.194-0.026,0.364-0.043,0.494-0.043c-0.238-0.19-0.489-0.381-0.742-0.571c0.194-0.026,0.364-0.042,0.494-0.042
		c-0.238-0.191-0.489-0.383-0.742-0.572c0.194-0.025,0.364-0.042,0.495-0.042c-0.239-0.19-0.49-0.382-0.743-0.571
		c0.194-0.026,0.365-0.043,0.495-0.043c-0.239-0.19-0.49-0.382-0.743-0.572c0.195-0.025,0.364-0.041,0.494-0.041
		c-0.239-0.191-0.49-0.383-0.743-0.572c0.195-0.026,0.365-0.042,0.495-0.042c-0.239-0.191-0.49-0.382-0.742-0.572
		c0.194-0.026,0.364-0.042,0.494-0.042c-0.239-0.191-0.49-0.382-0.743-0.572c0.195-0.025,0.365-0.041,0.495-0.041
		c-0.239-0.191-0.49-0.383-0.742-0.572c0.194-0.026,0.364-0.043,0.494-0.043c-0.239-0.19-0.49-0.381-0.743-0.571
		c0.195-0.026,0.365-0.042,0.495-0.042c-0.239-0.191-0.49-0.383-0.743-0.572c0.195-0.025,0.365-0.042,0.495-0.042
		c-0.239-0.19-0.49-0.382-0.742-0.571c0.194-0.026,0.364-0.043,0.494-0.043c-0.239-0.19-0.49-0.382-0.743-0.572
		c0.195-0.025,0.365-0.041,0.495-0.041c-0.239-0.191-0.49-0.382-0.742-0.572c0.194-0.026,0.364-0.042,0.494-0.042
		c-0.238-0.191-0.49-0.382-0.743-0.572c0.195-0.026,0.365-0.042,0.495-0.042c-0.238-0.191-0.489-0.382-0.742-0.572
		c0.194-0.026,0.364-0.042,0.494-0.042c-0.238-0.191-0.489-0.382-0.742-0.572c0.194-0.026,0.364-0.042,0.494-0.042
		c-0.238-0.191-0.489-0.382-0.741-0.572c0.193-0.026,0.363-0.042,0.493-0.042c-0.238-0.191-0.489-0.382-0.742-0.572
		c0.194-0.026,0.364-0.042,0.495-0.042c-0.239-0.191-0.49-0.382-0.742-0.572c0.193-0.026,0.364-0.042,0.494-0.042
		c-0.239-0.191-0.49-0.382-0.743-0.572c0.195-0.026,0.365-0.042,0.495-0.042c-0.239-0.191-0.49-0.382-0.742-0.572
		c0.194-0.026,0.364-0.042,0.494-0.042c-0.239-0.191-0.49-0.382-0.743-0.572c0.195-0.026,0.365-0.042,0.495-0.042
		c-0.239-0.191-0.49-0.382-0.742-0.572c0.194-0.026,0.364-0.042,0.494-0.042c-0.239-0.191-0.49-0.382-0.743-0.572
		c0.195-0.026,0.365-0.042,0.495-0.042c-0.239-0.191-0.49-0.382-0.743-0.572c0.195-0.026,0.365-0.042,0.495-0.042
		c-0.239-0.191-0.49-0.382-0.742-0.572c0.194-0.026,0.364-0.042,0.494-0.042c-0.239-0.191-0.49-0.382-0.743-0.572
		c0.195-0.026,0.365-0.042,0.495-0.042c-0.239-0.191-0.49-0.382-0.742-0.572c0.194-0.026,0.364-0.042,0.494-0.042
		c-0.239-0.191-0.49-0.382-0.743-0.573c0.194-0.026,0.364-0.042,0.494-0.042c-0.238-0.191-0.49-0.382-0.743-0.572
		c0.195-0.026,0.365-0.042,0.495-0.042c-0.238-0.191-0.489-0.382-0.742-0.572c0.194-0.026,0.364-0.042,0.494-0.042
		c-0.238-0.191-0.489-0.382-0.742-0.572c0.194-0.026,0.364-0.042,0.494-0.042c-0.238-0.191-0.489-0.382-0.742-0.572
		c0.194-0.026,0.364-0.042,0.494-0.042c-0.238-0.191-0.489-0.382-0.742-0.572c0.194-0.026,0.364-0.042,0.495-0.042
		c-0.239-0.191-0.49-0.382-0.743-0.572c0.194-0.026,0.365-0.042,0.495-0.042c-0.239-0.191-0.49-0.382-0.743-0.572
		c0.195-0.026,0.365-0.042,0.495-0.042c-0.239-0.191-0.49-0.382-0.743-0.572c0.195-0.026,0.365-0.042,0.495-0.042
		c-0.239-0.191-0.49-0.382-0.743-0.572c0.195-0.026,0.365-0.042,0.495-0.042c-0.239-0.191-0.49-0.382-0.743-0.572
		c0.195-0.026,0.365-0.042,0.495-0.042c-0.239-0.191-0.49-0.382-0.743-0.572c0.195-0.026,0.365-0.042,0.495-0.042
		c-0.239-0.191-0.49-0.382-0.743-0.572c0.195-0.026,0.365-0.042,0.495-0.042c-0.239-0.191-0.49-0.382-0.743-0.572
		c0.195-0.026,0.365-0.042,0.495-0.042c-0.239-0.191-0.49-0.382-0.743-0.572c0.195-0.026,0.365-0.042,0.495-0.042
		c-0.239-0.191-0.49-0.382-0.743-0.572c0.195-0.026,0.365-0.042,0.495-0.042c-0.239-0.191-0.49-0.382-0.743-0.572
		c0.195-0.026,0.365-0.042,0.495-0.042c-0.239-0.191-0.489-0.382-0.743-0.572c0.195-0.026,0.365-0.042,0.495-0.042
		c-0.238-0.191-0.489-0.382-0.743-0.572c0.195-0.026,0.365-0.042,0.495-0.042c-0.238-0.191-0.489-0.382-0.742-0.572
		c0.194-0.026,0.364-0.042,0.494-0.042c-0.238-0.191-0.489-0.382-0.742-0.572c0.194-0.026,0.364-0.042,0.495-0.042
		c-0.239-0.191-0.49-0.382-0.743-0.572c0.194-0.026,0.364-0.042,0.495-0.042c-0.239-0.191-0.49-0.382-0.743-0.572
		c0.194-0.026,0.364-0.042,0.495-0.042c-0.239-0.191-0.49-0.382-0.743-0.572c0.194-0.026,0.365-0.042,0.495-0.042
		c-0.239-0.191-0.49-0.382-0.743-0.572c0.195-0.026,0.365-0.042,0.495-0.042c-0.239-0.191-0.491-0.382-0.743-0.573
		c0.194-0.026,0.364-0.042,0.494-0.042c-0.239-0.191-0.49-0.382-0.742-0.572c0.194-0.026,0.364-0.042,0.494-0.042
		c-0.239-0.191-0.49-0.382-0.743-0.572c0.195-0.026,0.365-0.042,0.495-0.042c-0.239-0.191-0.49-0.382-0.742-0.572
		c0.194-0.026,0.364-0.042,0.494-0.042c-0.239-0.191-0.49-0.382-0.743-0.572c0.195-0.026,0.365-0.042,0.495-0.042
		c-0.239-0.191-0.49-0.382-0.743-0.572c0.195-0.026,0.365-0.042,0.495-0.042c-0.239-0.191-0.49-0.382-0.742-0.572
		c0.194-0.026,0.364-0.042,0.494-0.042c-0.239-0.191-0.49-0.382-0.743-0.572c0.195-0.026,0.365-0.042,0.495-0.042
		c-0.239-0.191-0.489-0.382-0.742-0.572c0.194-0.026,0.364-0.042,0.494-0.042c-0.238-0.191-0.489-0.382-0.743-0.572
		c0.195-0.026,0.365-0.042,0.495-0.042c-0.238-0.191-0.489-0.382-0.741-0.572c0.193-0.026,0.363-0.042,0.493-0.042
		c-0.238-0.191-0.489-0.382-0.742-0.572C101.7,32.016,101.87,32,102,32c-0.304-0.243-0.618-0.485-0.943-0.727
		c-0.178-0.133-0.363-0.264-0.548-0.396c-0.147-0.106-0.292-0.212-0.442-0.318c-0.266-0.184-0.537-0.365-0.813-0.545
		c-0.075-0.049-0.146-0.1-0.223-0.149c-0.322-0.209-0.652-0.416-0.988-0.621c-0.029-0.019-0.059-0.037-0.089-0.056
		c-0.364-0.222-0.736-0.439-1.114-0.653l-0.003-0.001c-1.147-0.651-2.354-1.261-3.595-1.813c-0.002,0-0.004-0.001-0.005-0.002
		C89.599,25.101,85.664,24,82,24c-13.638,0-19.597,13.447-25.185,26.449C50.66,64.775,44.295,79.59,27.825,79.59
		c-1.146,0-2.138,0.799-2.384,1.919c-0.134,0.607-0.021,1.218,0.271,1.729c0.055,0.216,0.139,0.421,0.249,0.613
		c0.054,0.217,0.138,0.422,0.247,0.614c0.055,0.216,0.139,0.421,0.249,0.614c0.054,0.216,0.138,0.421,0.247,0.613
		c0.055,0.217,0.139,0.422,0.249,0.615c0.054,0.215,0.138,0.42,0.247,0.613c0.055,0.217,0.139,0.421,0.248,0.614
		c0.055,0.216,0.139,0.421,0.249,0.614c0.054,0.216,0.138,0.421,0.247,0.613c0.055,0.217,0.139,0.422,0.249,0.614
		c0.055,0.217,0.139,0.423,0.249,0.616c0.055,0.215,0.138,0.42,0.248,0.611c0.055,0.217,0.138,0.422,0.248,0.614
		c0.054,0.216,0.138,0.421,0.248,0.614c0.055,0.216,0.138,0.421,0.248,0.614c0.054,0.216,0.138,0.421,0.247,0.614
		c0.056,0.215,0.139,0.42,0.248,0.613c0.055,0.217,0.139,0.422,0.248,0.614c0.056,0.216,0.139,0.421,0.248,0.614
		c0.055,0.216,0.139,0.421,0.248,0.613c0.056,0.217,0.139,0.422,0.248,0.614c0.055,0.216,0.139,0.421,0.248,0.614
		c0.055,0.216,0.138,0.421,0.248,0.613c0.054,0.217,0.138,0.422,0.248,0.615c0.054,0.215,0.138,0.42,0.248,0.613
		c0.055,0.216,0.138,0.421,0.248,0.614c0.054,0.216,0.138,0.421,0.248,0.614c0.055,0.216,0.138,0.42,0.248,0.613
		c0.054,0.217,0.138,0.422,0.248,0.614c0.055,0.216,0.138,0.421,0.248,0.614c0.054,0.216,0.138,0.421,0.248,0.613
		c0.055,0.217,0.138,0.422,0.248,0.614c0.054,0.216,0.138,0.421,0.247,0.614c0.056,0.216,0.139,0.421,0.248,0.613
		c0.055,0.217,0.139,0.422,0.248,0.615c0.056,0.217,0.14,0.422,0.249,0.615c0.056,0.215,0.139,0.42,0.248,0.612
		c0.055,0.216,0.139,0.421,0.247,0.614c0.056,0.216,0.14,0.421,0.249,0.613c0.055,0.217,0.139,0.422,0.247,0.614
		c0.055,0.216,0.139,0.421,0.248,0.614c0.055,0.216,0.139,0.421,0.249,0.613c0.054,0.217,0.138,0.422,0.247,0.615
		c0.055,0.215,0.139,0.42,0.249,0.613c0.054,0.216,0.138,0.421,0.247,0.614c0.055,0.216,0.139,0.421,0.249,0.614
		c0.054,0.215,0.138,0.42,0.247,0.613c0.055,0.217,0.139,0.422,0.249,0.614c0.054,0.216,0.138,0.421,0.247,0.614
		c0.055,0.216,0.139,0.421,0.249,0.613c0.054,0.217,0.138,0.422,0.247,0.614c0.055,0.216,0.139,0.421,0.249,0.614
		c0.054,0.216,0.138,0.421,0.247,0.613c0.055,0.217,0.139,0.422,0.249,0.615c0.054,0.215,0.138,0.42,0.247,0.613
		c0.055,0.217,0.139,0.421,0.248,0.614c0.055,0.216,0.139,0.421,0.249,0.614c0.054,0.216,0.138,0.42,0.246,0.613
		c0.056,0.217,0.14,0.422,0.25,0.614c0.054,0.216,0.138,0.421,0.246,0.614c0.057,0.217,0.141,0.423,0.25,0.617
		c0.056,0.215,0.139,0.418,0.248,0.61c0.055,0.216,0.139,0.421,0.248,0.614c0.056,0.216,0.139,0.421,0.248,0.614
		c0.055,0.216,0.139,0.421,0.248,0.614c0.055,0.215,0.139,0.42,0.248,0.613c0.039,0.157,0.11,0.301,0.18,0.446
		C49.054,126.659,56.369,128,64,128C91.295,128,114.585,110.906,123.785,86.845z"/>
	<g>
		<path fill="#E2854C" d="M54,101v-9.206c0-1.349-0.65-2.44-2-2.44s-2,1.092-2,2.44V101H54z"/>
		<path fill="#E2854C" d="M62,101v-9.206c0-1.349-0.65-2.44-2-2.44s-2,1.092-2,2.44V101H62z"/>
		<path fill="#356178" d="M61.46,93.244L61.46,93.244c-9.892,0-21.875-3.111-34.654-8.997c-1.042-0.479-1.608-1.621-1.363-2.739
			c0.245-1.121,1.236-1.919,2.384-1.919c16.471,0,22.835-14.813,28.99-29.141C62.403,37.447,68.362,24,82,24c7,0,15,4,20,8
			c-1,0-4.229,0.87-5.197,1.128c-4.632,1.23-5.163,9.471-5.777,19.014c-0.668,10.379-1.429,22.144-7.463,31.238
			C79.281,89.833,71.636,93.244,61.46,93.244z"/>
		<path fill="#2D5266" d="M96.803,33.128c0.078-0.021,0.142-0.067,0.214-0.096c-19.421-0.405-7.792,73.112-71.399,50.001
			c0.234,0.52,0.641,0.961,1.188,1.213c12.779,5.886,24.764,8.997,34.654,8.997c10.176,0,17.821-3.412,22.103-9.865
			c6.034-9.094,6.795-20.858,7.463-31.238C91.64,42.599,92.171,34.358,96.803,33.128z"/>
		<path fill="#4681A0" d="M90.578,51.012c-0.268-0.267-0.596-0.472-0.956-0.591c-1.995-0.663-4.091-1.001-6.224-1.001
			c-10.067,0-19.268,7.347-22.375,17.867c-2.436,8.248-1.017,16.818,3.891,23.512c0.116,0.157,0.255,0.305,0.405,0.43l1.888,1.573
			c7.313-1.077,12.928-4.253,16.355-9.421c6.033-9.094,6.794-20.858,7.462-31.238c0.014-0.215,0.027-0.427,0.043-0.644
			L90.578,51.012z"/>
		<path fill="#3D718C" d="M90.578,51.012c-0.268-0.267-0.596-0.472-0.956-0.591c-1.639-0.544-3.348-0.857-5.087-0.956
			c-4.439,12.494-9.359,28.598-22.979,35.122c0.826,2.19,1.941,4.281,3.356,6.212c0.116,0.157,0.255,0.305,0.405,0.43l1.888,1.573
			c5.473-0.807,9.993-2.788,13.358-5.901c0.012-0.01,0.022-0.021,0.034-0.03c0.519-0.481,1.003-0.996,1.466-1.53
			c0.08-0.095,0.159-0.191,0.238-0.287c0.444-0.533,0.869-1.086,1.258-1.672c6.034-9.094,6.795-20.858,7.463-31.238
			c0.014-0.217,0.027-0.429,0.042-0.645L90.578,51.012z"/>
		<path fill="#90B3C6" d="M63.69,70.602c3.108-10.518,12.309-17.865,22.375-17.865c1.661,0,3.286,0.265,4.872,0.67
			c0.028-0.419,0.061-0.849,0.087-1.266c0.014-0.215,0.027-0.427,0.043-0.644l-0.489-0.486c-0.268-0.267-0.596-0.472-0.956-0.591
			c-1.995-0.663-4.091-1.001-6.224-1.001c-10.067,0-19.268,7.347-22.375,17.867c-2.436,8.248-1.017,16.817,3.891,23.512
			c0.116,0.157,0.255,0.306,0.405,0.429l0.861,0.721C62.444,85.623,61.512,77.99,63.69,70.602z"/>
		<g>
			<path fill="#86A6B8" d="M64.914,90.798c0.116,0.157,0.255,0.306,0.405,0.429l0.861,0.721c-1.499-2.536-2.538-5.285-3.114-8.143
				c-0.49,0.274-0.994,0.534-1.51,0.781C62.384,86.775,63.499,88.867,64.914,90.798z"/>
			<path fill="#86A6B8" d="M90.578,51.012c-0.268-0.267-0.596-0.472-0.956-0.591c-1.639-0.544-3.348-0.857-5.087-0.956
				c-0.402,1.133-0.811,2.295-1.228,3.478c0.91-0.122,1.828-0.205,2.758-0.205c1.661,0,3.286,0.265,4.873,0.67
				c0.027-0.419,0.06-0.849,0.086-1.266c0.014-0.217,0.027-0.429,0.042-0.645L90.578,51.012z"/>
		</g>
		<path fill="#F5F5F5" d="M86.411,35.65c0,2.694-2.185,4.882-4.877,4.882c-2.699,0-4.888-2.188-4.888-4.882
			c0-2.696,2.188-4.882,4.888-4.882C84.229,30.768,86.411,32.954,86.411,35.65z"/>
		<circle fill="#242424" cx="81.529" cy="35.65" r="2.441"/>
		<path fill="#E78244" d="M92,32c0,1.818,0.416,3.535,1.14,5.079c0.804-2.081,1.952-3.497,3.663-3.951C97.771,32.87,101,32,102,32
			c-2.383-1.906-5.45-3.808-8.763-5.281C92.453,28.314,92,30.103,92,32z"/>
		<path fill="#D97A40" d="M92.316,34.704c0.192,0.827,0.471,1.622,0.822,2.375c0.004-0.01,0.008-0.018,0.013-0.027
			c0.104-0.266,0.213-0.521,0.327-0.764c0.061-0.126,0.125-0.244,0.188-0.365c0.082-0.155,0.166-0.305,0.253-0.449
			c0.066-0.109,0.134-0.217,0.203-0.319c0.114-0.169,0.236-0.327,0.36-0.478c0.049-0.058,0.094-0.124,0.144-0.179
			c0.174-0.195,0.36-0.367,0.555-0.527c0.064-0.053,0.135-0.1,0.201-0.149c0.151-0.111,0.31-0.212,0.472-0.302
			c0.07-0.039,0.141-0.078,0.212-0.113c0.234-0.112,0.478-0.21,0.735-0.279c0.078-0.021,0.142-0.067,0.214-0.096
			C95.209,32.995,93.672,33.599,92.316,34.704z"/>
	</g>
</g>
</svg>
