<?xml version="1.0" encoding="utf-8"?>
<!-- Generator: Adobe Illustrator 15.1.0, SVG Export Plug-In . SVG Version: 6.00 Build 0)  -->
<!DOCTYPE svg PUBLIC "-//W3C//DTD SVG 1.1//EN" "http://www.w3.org/Graphics/SVG/1.1/DTD/svg11.dtd">
<svg version="1.1" id="Layer_1" xmlns="http://www.w3.org/2000/svg" xmlns:xlink="http://www.w3.org/1999/xlink" x="0px" y="0px"
	 width="128px" height="128px" viewBox="0 0 128 128" enable-background="new 0 0 128 128" xml:space="preserve">
<g>
	<circle fill="#88C5CC" cx="64" cy="64" r="64"/>
	<path fill="#80B9BF" d="M123.563,87.406c-0.024-0.184-0.085-0.362-0.205-0.506c-0.024-0.187-0.085-0.366-0.207-0.512
		c-0.024-0.186-0.085-0.365-0.205-0.511c-0.025-0.188-0.086-0.368-0.208-0.515c-0.025-0.187-0.086-0.366-0.207-0.512
		c-0.024-0.187-0.085-0.367-0.207-0.513c-0.025-0.187-0.086-0.366-0.207-0.512c-0.024-0.187-0.085-0.366-0.207-0.513
		c-0.024-0.187-0.085-0.366-0.207-0.512c-0.024-0.187-0.085-0.367-0.207-0.513c-0.024-0.187-0.085-0.366-0.207-0.512
		c-0.024-0.187-0.085-0.367-0.207-0.513c-0.024-0.187-0.085-0.366-0.207-0.512c-0.024-0.187-0.085-0.367-0.207-0.513
		c-0.024-0.187-0.085-0.367-0.207-0.513c-0.025-0.187-0.086-0.366-0.207-0.512c-0.024-0.187-0.085-0.367-0.207-0.513
		c-0.024-0.186-0.085-0.364-0.205-0.51c-0.025-0.188-0.086-0.368-0.208-0.515c-0.024-0.187-0.085-0.366-0.207-0.512
		c-0.024-0.187-0.085-0.367-0.207-0.513c-0.024-0.187-0.085-0.366-0.207-0.512c-0.024-0.187-0.085-0.366-0.207-0.513
		c-0.024-0.187-0.085-0.367-0.207-0.513c-0.024-0.187-0.085-0.366-0.207-0.512c-0.024-0.187-0.085-0.366-0.207-0.513
		c-0.024-0.187-0.085-0.366-0.207-0.512c-0.024-0.187-0.085-0.367-0.207-0.513c-0.024-0.187-0.085-0.366-0.207-0.512
		c-0.024-0.187-0.085-0.367-0.207-0.513c-0.024-0.187-0.085-0.366-0.207-0.512c-0.024-0.187-0.085-0.367-0.207-0.513
		c-0.024-0.187-0.085-0.367-0.207-0.513c-0.024-0.186-0.085-0.364-0.205-0.51c-0.024-0.188-0.086-0.368-0.208-0.515
		c-0.024-0.187-0.085-0.366-0.207-0.512c-0.024-0.187-0.085-0.367-0.207-0.513c-0.024-0.187-0.085-0.366-0.207-0.512
		c-0.024-0.187-0.085-0.367-0.207-0.513c-0.024-0.187-0.085-0.366-0.207-0.512c-0.024-0.187-0.085-0.367-0.207-0.513
		c-0.024-0.187-0.085-0.366-0.207-0.512c-0.024-0.187-0.085-0.366-0.206-0.512c-0.025-0.188-0.086-0.369-0.208-0.516
		c-0.025-0.186-0.086-0.364-0.207-0.51c-0.024-0.187-0.085-0.366-0.207-0.512c-0.024-0.187-0.085-0.366-0.207-0.512
		c-0.024-0.187-0.085-0.367-0.207-0.513c-0.024-0.186-0.085-0.364-0.205-0.51c-0.025-0.188-0.086-0.368-0.208-0.515
		c-0.024-0.187-0.085-0.366-0.207-0.512c-0.024-0.187-0.085-0.366-0.207-0.512c-0.024-0.187-0.085-0.366-0.207-0.512
		c-0.024-0.187-0.085-0.366-0.207-0.512c-0.024-0.187-0.085-0.366-0.207-0.512c-0.024-0.187-0.085-0.366-0.207-0.512
		c-0.024-0.187-0.085-0.366-0.207-0.512c-0.024-0.187-0.085-0.367-0.207-0.513c-0.024-0.187-0.085-0.366-0.207-0.512
		c-0.024-0.187-0.085-0.366-0.207-0.512c-0.024-0.187-0.085-0.366-0.207-0.512c-0.024-0.187-0.085-0.366-0.207-0.512
		c-0.024-0.187-0.085-0.366-0.207-0.512c-0.024-0.186-0.085-0.364-0.206-0.51c-0.024-0.187-0.085-0.368-0.207-0.514
		c-0.024-0.187-0.085-0.366-0.207-0.512c-0.024-0.187-0.085-0.366-0.207-0.512c-0.024-0.187-0.085-0.366-0.207-0.512
		c-0.024-0.187-0.085-0.367-0.207-0.513c-0.024-0.187-0.085-0.366-0.207-0.512c-0.024-0.187-0.085-0.366-0.207-0.512
		c-0.024-0.187-0.085-0.366-0.207-0.512c-0.024-0.187-0.085-0.366-0.207-0.512c-0.024-0.187-0.085-0.366-0.207-0.512
		c-0.024-0.187-0.085-0.366-0.207-0.512c-0.024-0.187-0.085-0.366-0.207-0.512c-0.024-0.187-0.085-0.366-0.207-0.512
		c-0.024-0.187-0.085-0.366-0.207-0.512c-0.024-0.186-0.085-0.365-0.205-0.511c-0.025-0.187-0.086-0.368-0.208-0.514
		c-0.024-0.187-0.085-0.366-0.207-0.512c-0.024-0.187-0.085-0.366-0.207-0.512c-0.024-0.187-0.085-0.366-0.207-0.512
		c-0.024-0.187-0.085-0.366-0.207-0.512c-0.024-0.187-0.085-0.366-0.207-0.512c-0.042-0.318-0.218-0.613-0.524-0.766
		c-0.245-0.121-0.515-0.133-0.756-0.055c-0.029-0.163-0.091-0.314-0.194-0.445c-0.021-0.188-0.089-0.364-0.207-0.513
		c-0.021-0.188-0.09-0.363-0.207-0.512c-0.021-0.188-0.09-0.363-0.207-0.512c-0.021-0.188-0.09-0.363-0.207-0.512
		c-0.021-0.188-0.09-0.363-0.207-0.512c-0.021-0.188-0.09-0.363-0.207-0.512c-0.021-0.188-0.09-0.363-0.207-0.512
		c-0.021-0.188-0.09-0.363-0.207-0.512c-0.021-0.188-0.09-0.363-0.207-0.512c-0.021-0.188-0.09-0.363-0.207-0.512
		c-0.021-0.188-0.089-0.362-0.206-0.511c-0.02-0.188-0.089-0.365-0.207-0.515c-0.021-0.188-0.09-0.363-0.207-0.512
		c-0.021-0.188-0.09-0.363-0.207-0.512c-0.021-0.188-0.09-0.363-0.207-0.512c-0.021-0.188-0.09-0.363-0.207-0.512
		c-0.021-0.188-0.09-0.363-0.207-0.512c-0.037-0.345-0.238-0.664-0.58-0.814c-0.504-0.222-1.094,0.01-1.315,0.516l-6.847,15.646
		l-3.911,1.738c-0.002-0.016-0.003-0.03-0.006-0.045c-0.027-0.165-0.103-0.305-0.196-0.43c-0.004-0.028-0.006-0.054-0.011-0.083
		c-0.027-0.165-0.103-0.305-0.196-0.43c-0.004-0.028-0.006-0.054-0.011-0.083c-0.027-0.165-0.103-0.305-0.196-0.43
		c-0.004-0.028-0.006-0.054-0.011-0.083c-0.027-0.165-0.103-0.305-0.196-0.429c-0.004-0.029-0.006-0.055-0.011-0.083
		c-0.027-0.165-0.103-0.305-0.196-0.429c-0.004-0.028-0.006-0.055-0.011-0.083c-0.027-0.165-0.103-0.305-0.196-0.43
		c-0.004-0.028-0.006-0.054-0.011-0.083c-0.027-0.165-0.103-0.305-0.196-0.429c-0.004-0.028-0.006-0.055-0.011-0.083
		c-0.027-0.165-0.103-0.305-0.196-0.43c-0.004-0.028-0.006-0.054-0.011-0.083c-0.027-0.165-0.103-0.305-0.196-0.429
		c-0.004-0.028-0.006-0.055-0.011-0.083c-0.027-0.165-0.103-0.305-0.196-0.43c-0.004-0.028-0.006-0.054-0.011-0.083
		c-0.027-0.165-0.103-0.305-0.196-0.429c-0.004-0.028-0.006-0.055-0.011-0.083c-0.027-0.165-0.103-0.305-0.196-0.43
		c-0.004-0.028-0.006-0.054-0.011-0.083c-0.027-0.164-0.102-0.304-0.195-0.428c-0.004-0.029-0.006-0.056-0.011-0.084
		c-0.027-0.165-0.103-0.305-0.196-0.429c-0.005-0.028-0.006-0.055-0.011-0.083c-0.027-0.165-0.103-0.305-0.196-0.43
		c-0.005-0.028-0.006-0.054-0.011-0.083c-0.027-0.165-0.103-0.305-0.196-0.429c-0.005-0.028-0.006-0.055-0.011-0.083
		c-0.027-0.165-0.103-0.305-0.196-0.43c-0.005-0.028-0.006-0.054-0.011-0.083c-0.027-0.165-0.103-0.305-0.196-0.429
		c-0.005-0.028-0.006-0.055-0.011-0.083c-0.027-0.165-0.103-0.305-0.196-0.43c-0.005-0.028-0.006-0.054-0.011-0.083
		c-0.027-0.165-0.103-0.305-0.196-0.429c-0.005-0.028-0.006-0.055-0.011-0.083c-0.027-0.165-0.103-0.305-0.196-0.43
		c-0.005-0.028-0.006-0.054-0.011-0.083c-0.027-0.165-0.103-0.305-0.196-0.43c-0.005-0.028-0.006-0.054-0.011-0.083
		c-0.027-0.165-0.103-0.305-0.196-0.43c-0.004-0.028-0.006-0.055-0.011-0.083c-0.027-0.165-0.103-0.305-0.196-0.43
		c-0.005-0.028-0.006-0.054-0.011-0.083c-0.027-0.165-0.103-0.305-0.196-0.429c-0.005-0.028-0.006-0.055-0.011-0.083
		c-0.027-0.165-0.103-0.305-0.196-0.43c-0.005-0.028-0.006-0.054-0.011-0.083c-0.027-0.165-0.103-0.305-0.196-0.429
		c-0.005-0.028-0.006-0.055-0.011-0.083c-0.027-0.164-0.102-0.304-0.195-0.428c-0.004-0.029-0.006-0.055-0.011-0.084
		c-0.027-0.165-0.103-0.305-0.196-0.429c-0.004-0.028-0.006-0.055-0.011-0.083c-0.027-0.165-0.103-0.305-0.196-0.43
		c-0.004-0.028-0.006-0.054-0.011-0.083c-0.027-0.165-0.103-0.305-0.196-0.429c-0.004-0.028-0.006-0.055-0.011-0.083
		c-0.027-0.165-0.103-0.305-0.196-0.429c-0.004-0.029-0.006-0.055-0.011-0.083c-0.027-0.165-0.103-0.305-0.196-0.43
		c-0.004-0.028-0.006-0.054-0.011-0.083c-0.027-0.165-0.103-0.305-0.196-0.429c-0.004-0.028-0.006-0.055-0.011-0.083
		c-0.027-0.165-0.103-0.305-0.196-0.43c-0.004-0.028-0.006-0.054-0.011-0.083c-0.027-0.165-0.103-0.305-0.196-0.429
		c-0.004-0.028-0.006-0.055-0.011-0.083c-0.027-0.165-0.103-0.305-0.196-0.43c-0.004-0.028-0.006-0.054-0.011-0.083
		c-0.027-0.165-0.103-0.305-0.196-0.429c-0.004-0.028-0.006-0.055-0.011-0.083c-0.027-0.165-0.103-0.305-0.196-0.43
		c-0.004-0.028-0.006-0.054-0.011-0.083c-0.027-0.165-0.103-0.305-0.196-0.429c-0.004-0.028-0.006-0.055-0.011-0.083
		c-0.027-0.165-0.103-0.305-0.196-0.43c-0.004-0.028-0.006-0.054-0.011-0.083c-0.027-0.165-0.103-0.305-0.196-0.429
		c-0.004-0.029-0.006-0.055-0.011-0.083c-0.027-0.164-0.102-0.304-0.195-0.428c-0.004-0.029-0.006-0.055-0.011-0.084
		c-0.027-0.165-0.103-0.305-0.196-0.43c-0.005-0.028-0.006-0.054-0.011-0.083c-0.027-0.165-0.103-0.305-0.196-0.429
		c-0.005-0.028-0.006-0.055-0.011-0.083c-0.027-0.165-0.103-0.305-0.196-0.43c-0.005-0.028-0.006-0.054-0.011-0.083
		c-0.027-0.165-0.103-0.305-0.196-0.429c-0.005-0.028-0.006-0.055-0.011-0.083c-0.027-0.165-0.103-0.305-0.196-0.43
		c-0.005-0.028-0.006-0.054-0.011-0.083c-0.027-0.165-0.103-0.305-0.196-0.429c-0.005-0.028-0.006-0.055-0.011-0.083
		c-0.091-0.544-0.603-0.915-1.15-0.822c-0.545,0.091-0.912,0.606-0.821,1.15c0.403,2.428,0.13,4.225-0.813,5.34
		c-0.353,0.416-0.828,0.725-1.377,0.967c-2.58-2.2-6.021-3.472-10.018-3.472c-0.51,0-1.009,0.025-1.5,0.065c0.002,0,0.004,0,0.006,0
		c-3.632,0.298-6.736,1.687-9.053,3.884c-0.562-0.042-1.056-0.148-1.516-0.284c-0.024-0.041-0.048-0.079-0.077-0.115
		c-0.022-0.191-0.089-0.366-0.207-0.512c-0.022-0.191-0.089-0.366-0.207-0.512c-0.022-0.191-0.089-0.366-0.207-0.512
		c-0.022-0.191-0.089-0.367-0.207-0.513c-0.022-0.191-0.089-0.366-0.207-0.512c-0.022-0.191-0.089-0.366-0.207-0.512
		c-0.022-0.192-0.089-0.367-0.207-0.513c-0.022-0.191-0.089-0.366-0.207-0.512c-0.022-0.191-0.089-0.366-0.207-0.512
		c-0.022-0.191-0.089-0.366-0.207-0.512c-0.022-0.191-0.089-0.366-0.207-0.512c-0.022-0.191-0.089-0.367-0.207-0.513
		c-0.022-0.191-0.089-0.366-0.207-0.512c-0.049-0.432-0.363-0.801-0.813-0.876c-0.548-0.093-1.06,0.278-1.151,0.822
		c-0.388,2.328-0.224,4.243,0.478,5.727c0.064,0.174,0.129,0.348,0.207,0.512c0.064,0.173,0.128,0.346,0.206,0.509
		c0.064,0.175,0.13,0.35,0.208,0.515c0.064,0.174,0.129,0.348,0.207,0.512c0.064,0.174,0.129,0.348,0.207,0.512
		c0.064,0.174,0.129,0.348,0.207,0.512c0.064,0.174,0.129,0.347,0.207,0.511c0.064,0.175,0.13,0.349,0.208,0.514
		c0.064,0.174,0.129,0.348,0.207,0.512c0.064,0.173,0.128,0.346,0.206,0.509c0.064,0.175,0.13,0.35,0.208,0.515
		c0.064,0.174,0.129,0.348,0.207,0.512c0.008,0.021,0.016,0.042,0.024,0.063c-0.503,1.234-0.856,2.568-1.035,3.994
		c-2.026,1.041-3.755,2.366-5.157,3.988c-1.412,1.635-2.496,3.533-3.271,5.696l-4.967-2.207l-6.845-15.646
		c-0.221-0.506-0.811-0.738-1.317-0.516c-0.506,0.222-0.737,0.812-0.515,1.316l0.19,0.435c0.009,0.025,0.006,0.052,0.017,0.078
		l0.19,0.435c0.009,0.025,0.006,0.052,0.017,0.078l0.189,0.432c0.009,0.026,0.006,0.054,0.018,0.08l0.19,0.435
		c0.009,0.025,0.006,0.052,0.017,0.078l0.19,0.435c0.009,0.025,0.006,0.052,0.017,0.078l0.19,0.435
		c0.009,0.025,0.006,0.052,0.017,0.078l0.19,0.435c0.009,0.025,0.006,0.052,0.017,0.078l0.19,0.434
		c0.009,0.026,0.006,0.053,0.017,0.079l0.19,0.435c0.009,0.025,0.006,0.052,0.017,0.078l0.19,0.435
		c0.009,0.025,0.006,0.052,0.017,0.078l0.189,0.432c0.009,0.026,0.006,0.054,0.018,0.08l0.19,0.435
		c0.009,0.025,0.006,0.052,0.017,0.078l0.19,0.435c0.009,0.025,0.006,0.052,0.017,0.078l0.19,0.435
		c0.009,0.025,0.006,0.052,0.017,0.078l0.19,0.435c0.009,0.025,0.006,0.052,0.017,0.078l0.19,0.435
		c0.009,0.025,0.006,0.052,0.017,0.078l0.19,0.435c0.009,0.025,0.006,0.052,0.017,0.078l0.189,0.432
		c0.009,0.027,0.006,0.055,0.018,0.081l0.19,0.435c0.009,0.025,0.006,0.052,0.017,0.078l0.19,0.435
		c0.009,0.025,0.006,0.052,0.017,0.078l0.19,0.435c0.009,0.025,0.006,0.052,0.017,0.078l0.19,0.435
		c0.009,0.025,0.006,0.052,0.017,0.078l0.19,0.435c0.009,0.025,0.006,0.052,0.017,0.078l0.19,0.435
		c0.009,0.025,0.006,0.052,0.017,0.078l0.19,0.434c0.009,0.026,0.006,0.053,0.017,0.078l0.189,0.432
		c0.009,0.026,0.006,0.054,0.018,0.08l0.19,0.435c0.009,0.025,0.006,0.052,0.017,0.078l0.19,0.435
		c0.009,0.025,0.006,0.052,0.017,0.078l0.19,0.434c0.009,0.026,0.006,0.053,0.017,0.079l0.19,0.435
		c0.009,0.025,0.006,0.052,0.017,0.078l0.19,0.435c0.009,0.025,0.006,0.052,0.017,0.078l0.19,0.434
		c0.009,0.026,0.006,0.053,0.017,0.078l0.19,0.434c0.009,0.026,0.006,0.053,0.017,0.078l0.189,0.432
		c0.009,0.026,0.006,0.054,0.018,0.08l0.19,0.435c0.009,0.025,0.006,0.052,0.017,0.078l0.19,0.435
		c0.009,0.025,0.006,0.052,0.017,0.078l0.19,0.435c0.009,0.025,0.006,0.052,0.017,0.078l0.19,0.435
		c0.009,0.025,0.006,0.052,0.017,0.078l0.19,0.434c0.009,0.026,0.006,0.053,0.017,0.079l0.19,0.434
		c0.009,0.026,0.006,0.053,0.017,0.078l0.189,0.432c0.009,0.026,0.006,0.054,0.018,0.08l0.19,0.435
		c0.009,0.025,0.006,0.052,0.017,0.078l0.19,0.435c0.009,0.025,0.006,0.052,0.017,0.078l0.19,0.435
		c0.009,0.025,0.006,0.052,0.017,0.078l0.19,0.435c0.009,0.025,0.006,0.052,0.017,0.078l0.19,0.435
		c0.009,0.025,0.006,0.052,0.017,0.078l0.19,0.434c0.009,0.026,0.006,0.053,0.017,0.078l0.19,0.434
		c0.009,0.026,0.006,0.053,0.017,0.078l0.006,0.013l-5.406-0.001l-7.724-15.447c-0.247-0.494-0.847-0.691-1.342-0.446
		c-0.494,0.246-0.694,0.848-0.447,1.342l0.149,0.298c0.018,0.072,0.023,0.145,0.058,0.214l0.149,0.298
		c0.018,0.072,0.023,0.145,0.058,0.214l0.148,0.296c0.018,0.073,0.024,0.146,0.059,0.216l0.149,0.298
		c0.018,0.072,0.024,0.145,0.058,0.214l0.149,0.298c0.018,0.072,0.024,0.145,0.058,0.214l0.149,0.298
		c0.018,0.072,0.024,0.145,0.058,0.214l0.149,0.298c0.018,0.072,0.024,0.145,0.058,0.214l0.149,0.298
		c0.018,0.072,0.023,0.146,0.058,0.215l0.149,0.298c0.018,0.072,0.024,0.145,0.058,0.214l0.149,0.298
		c0.018,0.072,0.024,0.145,0.058,0.214l0.148,0.296c0.018,0.073,0.024,0.147,0.059,0.216l0.149,0.298
		c0.018,0.072,0.023,0.145,0.058,0.214l0.149,0.298c0.018,0.072,0.023,0.145,0.058,0.214l0.149,0.298
		c0.018,0.072,0.023,0.145,0.058,0.214l0.149,0.298c0.018,0.072,0.023,0.145,0.058,0.214l0.149,0.298
		c0.018,0.072,0.023,0.145,0.058,0.214l0.149,0.298c0.018,0.072,0.023,0.145,0.058,0.214l0.148,0.295
		c0.017,0.073,0.023,0.147,0.059,0.217l0.149,0.298c0.018,0.072,0.024,0.145,0.058,0.214l0.149,0.298
		c0.018,0.072,0.024,0.145,0.058,0.214l0.149,0.298c0.018,0.072,0.024,0.145,0.058,0.214l0.149,0.298
		c0.018,0.072,0.024,0.145,0.058,0.214l0.149,0.298c0.018,0.072,0.024,0.145,0.058,0.214l0.149,0.298
		c0.018,0.072,0.024,0.145,0.058,0.214l0.148,0.296c0.018,0.073,0.024,0.146,0.059,0.216l0.149,0.298
		c0.018,0.072,0.023,0.145,0.058,0.214l0.149,0.298c0.018,0.072,0.023,0.146,0.058,0.215l0.149,0.298
		c0.018,0.072,0.023,0.145,0.058,0.214l0.149,0.298c0.018,0.072,0.023,0.145,0.058,0.214l0.149,0.298
		c0.018,0.072,0.023,0.145,0.058,0.214l0.149,0.298c0.018,0.072,0.023,0.145,0.058,0.214l0.148,0.296
		c0.018,0.073,0.024,0.146,0.059,0.216l0.149,0.298c0.018,0.072,0.024,0.145,0.058,0.214l0.149,0.298
		c0.018,0.072,0.024,0.145,0.058,0.214l0.149,0.298c0.018,0.072,0.024,0.145,0.058,0.214l0.149,0.298
		c0.018,0.072,0.024,0.145,0.058,0.214l0.149,0.298c0.018,0.072,0.023,0.146,0.058,0.215l0.149,0.298
		c0.017,0.072,0.023,0.145,0.058,0.214l0.148,0.296c0.018,0.073,0.024,0.146,0.059,0.216l0.149,0.298
		c0.018,0.071,0.023,0.145,0.058,0.214l0.149,0.298c0.018,0.072,0.023,0.146,0.058,0.215l0.149,0.299
		c0.018,0.071,0.023,0.145,0.058,0.213l0.149,0.298c0.018,0.072,0.023,0.146,0.058,0.215l0.149,0.299
		c0.018,0.071,0.023,0.145,0.058,0.213l0.149,0.298c0.018,0.072,0.023,0.146,0.058,0.215l0.149,0.299
		c0.018,0.071,0.023,0.145,0.058,0.213l0.148,0.296c0.017,0.072,0.023,0.146,0.059,0.217l0.02,0.039l-1.235,0.515
		c-0.242,0.099-0.435,0.293-0.537,0.534l-8,19c-0.146,0.347-0.069,0.722,0.147,0.998c0.019,0.188,0.09,0.364,0.207,0.513
		c0.019,0.188,0.09,0.363,0.207,0.512c0.019,0.189,0.09,0.365,0.208,0.515c0.02,0.188,0.09,0.362,0.207,0.511
		c0.019,0.189,0.09,0.364,0.208,0.514c0.02,0.188,0.09,0.362,0.207,0.511c0.019,0.189,0.09,0.364,0.208,0.514
		c0.02,0.188,0.09,0.362,0.207,0.511c0.019,0.189,0.09,0.364,0.208,0.514c0.019,0.188,0.09,0.361,0.206,0.51
		c0.019,0.189,0.09,0.365,0.208,0.515c0.019,0.188,0.09,0.362,0.207,0.511c0.019,0.189,0.09,0.364,0.207,0.513
		c0.019,0.189,0.09,0.364,0.208,0.514c0.019,0.188,0.09,0.362,0.207,0.511c0.019,0.189,0.09,0.364,0.208,0.514
		c0.019,0.188,0.09,0.361,0.206,0.51c0.019,0.189,0.09,0.365,0.208,0.515c0.02,0.188,0.09,0.362,0.207,0.511
		c0.019,0.189,0.09,0.364,0.208,0.514c0.02,0.188,0.09,0.362,0.207,0.511c0.019,0.189,0.09,0.364,0.207,0.513
		c0.019,0.189,0.09,0.364,0.208,0.514c0.019,0.188,0.09,0.361,0.206,0.51c0.019,0.189,0.09,0.365,0.208,0.515
		c0.019,0.188,0.09,0.362,0.207,0.511c0.019,0.189,0.09,0.364,0.208,0.514c0.019,0.188,0.09,0.362,0.207,0.511
		c0.019,0.189,0.09,0.364,0.208,0.514c0.019,0.188,0.09,0.362,0.207,0.511c0.019,0.188,0.09,0.363,0.207,0.512
		c0.019,0.189,0.09,0.365,0.208,0.515c0.02,0.188,0.09,0.362,0.207,0.511c0.019,0.189,0.09,0.364,0.208,0.514
		c0.02,0.188,0.09,0.362,0.207,0.511c0.019,0.189,0.09,0.364,0.208,0.514c0.02,0.188,0.09,0.362,0.207,0.511
		c0.019,0.188,0.09,0.363,0.207,0.513c0.02,0.188,0.09,0.363,0.207,0.512c0.019,0.189,0.09,0.364,0.207,0.513
		c0.019,0.189,0.09,0.364,0.208,0.514c0.019,0.188,0.09,0.362,0.207,0.511c0.019,0.189,0.09,0.364,0.208,0.514
		c0.019,0.188,0.09,0.362,0.207,0.511c0.019,0.189,0.09,0.364,0.208,0.514c0.019,0.188,0.09,0.361,0.206,0.51
		c0.019,0.189,0.09,0.365,0.208,0.515c0.02,0.188,0.09,0.362,0.207,0.511c0.019,0.189,0.09,0.364,0.208,0.514
		c0.02,0.188,0.09,0.362,0.207,0.511c0.019,0.189,0.09,0.364,0.207,0.513c0.019,0.189,0.09,0.364,0.208,0.514
		c0.019,0.188,0.09,0.361,0.206,0.51c0.019,0.189,0.09,0.365,0.208,0.515c0.019,0.188,0.09,0.362,0.207,0.511
		c0.019,0.189,0.09,0.364,0.208,0.514c0.019,0.188,0.09,0.362,0.207,0.511c0.019,0.189,0.09,0.364,0.208,0.514
		c0.019,0.188,0.09,0.362,0.207,0.511c0.019,0.188,0.09,0.363,0.207,0.512c0.019,0.189,0.09,0.365,0.208,0.515
		c0.005,0.044,0.021,0.085,0.032,0.128C43.62,125.46,53.511,128,64,128C91.081,128,114.217,111.17,123.563,87.406z"/>
	<g>
		<g>
			<path fill="#242424" d="M54.193,35c-2.561,0-4.486-0.741-5.725-2.203c-1.343-1.585-1.768-3.927-1.262-6.961
				c0.091-0.544,0.603-0.915,1.151-0.822c0.544,0.091,0.913,0.606,0.822,1.15c-0.404,2.428-0.13,4.225,0.815,5.34
				C50.835,32.497,52.247,33,54.193,33c0.552,0,1,0.447,1,1S54.745,35,54.193,35z"/>
			<path fill="#242424" d="M71.193,35c2.561,0,4.486-0.741,5.725-2.203c1.344-1.585,1.768-3.927,1.262-6.961
				c-0.091-0.544-0.603-0.915-1.15-0.822c-0.545,0.091-0.912,0.606-0.821,1.15c0.403,2.428,0.13,4.225-0.813,5.34
				C74.551,32.497,73.139,33,71.193,33c-0.553,0-1,0.447-1,1S70.641,35,71.193,35z"/>
		</g>
		<path fill="#E78244" d="M78.997,43.996h-4.999c0-6.073-19.996-6.073-19.996,0h-4.999c0-8.831,6.166-14.997,14.997-14.997
			S78.997,35.165,78.997,43.996z"/>
		<path fill="#E79F74" d="M52.534,41.088c-0.092,0-0.186-0.013-0.279-0.039c-0.53-0.154-0.836-0.709-0.682-1.238
			c1.574-5.436,6.335-8.812,12.427-8.812c0.552,0,1,0.447,1,1c0,0.553-0.448,1-1,1c-5.243,0-9.17,2.754-10.506,7.367
			C53.368,40.804,52.968,41.088,52.534,41.088z"/>
		<path fill="#D97A40" d="M64,28.999c-0.51,0-1.009,0.025-1.5,0.065c8.021,0.659,13.497,6.609,13.497,14.932h3
			C78.997,35.165,72.832,28.999,64,28.999z"/>
		<g>
			<path fill="#242424" d="M84,55c-0.383,0-0.749-0.221-0.914-0.594c-0.225-0.505,0.003-1.096,0.507-1.32l8.646-3.842l6.847-15.646
				c0.222-0.506,0.812-0.738,1.315-0.516c0.508,0.222,0.738,0.812,0.517,1.316l-7,16c-0.101,0.229-0.282,0.411-0.51,0.514l-9,4
				C84.273,54.973,84.137,55,84,55z M85,59c-0.552,0-1,0.447-1,1s0.448,1,1,1h12c0.379,0,0.725-0.214,0.895-0.553l8-16
				c0.248-0.494,0.047-1.096-0.445-1.342c-0.495-0.245-1.096-0.048-1.344,0.446l-7.724,15.447L85,59L85,59z M105.922,88.611l-8-19
				c-0.102-0.241-0.295-0.436-0.537-0.534l-12-5c-0.511-0.213-1.096,0.029-1.308,0.538c-0.212,0.51,0.028,1.096,0.538,1.308
				l11.621,4.843l7.842,18.623C104.238,89.771,104.609,90,105,90c0.129,0,0.262-0.025,0.389-0.078
				C105.896,89.707,106.137,89.121,105.922,88.611z M94.707,80.293l-9-9c-0.391-0.391-1.023-0.391-1.414,0s-0.391,1.023,0,1.414
				l8.779,8.779l3.943,21.69c0.088,0.483,0.51,0.821,0.982,0.821c0.061,0,0.12-0.005,0.182-0.018c0.543-0.1,0.902-0.619,0.805-1.162
				l-4-22C94.947,80.621,94.852,80.438,94.707,80.293z"/>
			<path fill="#242424" d="M44,55c0.383,0,0.749-0.221,0.914-0.594c0.225-0.505-0.003-1.096-0.507-1.32l-8.646-3.842l-6.845-15.646
				c-0.221-0.506-0.811-0.738-1.317-0.516c-0.506,0.222-0.737,0.812-0.515,1.316l7,16c0.1,0.229,0.282,0.411,0.51,0.514l9,4
				C43.727,54.973,43.864,55,44,55z M43,59c0.552,0,1,0.447,1,1s-0.448,1-1,1H31c-0.379,0-0.725-0.214-0.895-0.553l-8-16
				c-0.247-0.494-0.047-1.096,0.447-1.342c0.495-0.245,1.095-0.048,1.342,0.446l7.724,15.447L43,59L43,59z M22.079,88.611l8-19
				c0.102-0.241,0.295-0.436,0.537-0.534l12-5c0.511-0.213,1.096,0.029,1.308,0.538c0.212,0.51-0.028,1.096-0.538,1.308
				l-11.622,4.843l-7.841,18.623C23.762,89.771,23.391,90,23.001,90c-0.129,0-0.261-0.025-0.388-0.078
				C22.104,89.707,21.865,89.121,22.079,88.611z M33.293,80.293l9-9c0.391-0.391,1.023-0.391,1.414,0s0.391,1.023,0,1.414
				l-8.779,8.779l-3.944,21.69c-0.088,0.483-0.509,0.821-0.983,0.821c-0.059,0-0.12-0.005-0.18-0.018
				c-0.543-0.1-0.904-0.619-0.805-1.162l4-22C33.053,80.621,33.149,80.438,33.293,80.293z"/>
		</g>
		<path fill="#CC803D" d="M64.479,104L64.479,104c-0.161,0-0.317-0.005-0.479-0.01c-10.54,0.453-21.258-15.557-24.136-36.137
			c-1.459-9.954-0.107-17.188,4.135-22.099c4.088-4.73,10.889-6.994,20.064-6.76c0.327-0.01,0.779-0.018,1.226-0.018
			c8.527,0,14.826,2.279,18.712,6.778c4.242,4.911,5.595,12.145,4.136,22.11C85.3,88.124,74.909,104,64.479,104z"/>
		<path fill="#E69045" d="M51.694,87.398c-0.363,0-0.712-0.197-0.89-0.543c-2.904-5.636-4.975-12.444-5.989-19.693
			c-1.24-8.456-0.27-14.391,2.967-18.137c2.893-3.349,7.94-5.045,15.004-5.045c0.552,0,1,0.446,1,1c0,0.553-0.448,1-1,1
			c-6.457,0-10.996,1.465-13.491,4.353c-2.834,3.28-3.653,8.692-2.501,16.545c0.984,7.036,2.985,13.625,5.787,19.063
			c0.253,0.49,0.061,1.094-0.431,1.347C52.005,87.363,51.849,87.398,51.694,87.398z"/>
		<path fill="#B37035" d="M84.001,45.759c-3.886-4.499-10.185-6.777-18.712-6.777c-0.447,0-0.898,0.007-1.226,0.017
			c-0.579-0.015-1.148-0.02-1.708-0.015c8.495,0.013,14.77,2.288,18.646,6.775c4.242,4.911,5.595,12.145,4.136,22.11
			c-2.738,19.555-12.52,35.023-22.578,36.07c0.48,0.047,0.961,0.069,1.441,0.051c0.161,0.005,0.317,0.01,0.479,0.01
			c10.43,0,20.821-15.876,23.658-36.131C89.596,57.902,88.244,50.67,84.001,45.759z"/>
	</g>
</g>
</svg>
