<?xml version="1.0" encoding="utf-8"?>
<!-- Generator: Adobe Illustrator 15.1.0, SVG Export Plug-In . SVG Version: 6.00 Build 0)  -->
<!DOCTYPE svg PUBLIC "-//W3C//DTD SVG 1.1//EN" "http://www.w3.org/Graphics/SVG/1.1/DTD/svg11.dtd">
<svg version="1.1" id="Layer_1" xmlns="http://www.w3.org/2000/svg" xmlns:xlink="http://www.w3.org/1999/xlink" x="0px" y="0px"
	 width="128px" height="128px" viewBox="0 0 128 128" enable-background="new 0 0 128 128" xml:space="preserve">
<g>
	<circle fill="#4AB8A1" cx="64" cy="64" r="64"/>
	<path fill="#43A691" d="M123.618,87.27c-0.035-0.085-0.066-0.172-0.104-0.256c-0.076-0.207-0.158-0.412-0.248-0.614
		c-0.076-0.209-0.16-0.416-0.25-0.621c-0.076-0.203-0.158-0.405-0.246-0.605c-0.076-0.207-0.158-0.412-0.248-0.614
		c-0.076-0.207-0.158-0.412-0.248-0.614c-0.076-0.209-0.16-0.416-0.25-0.62c-0.076-0.204-0.157-0.406-0.246-0.606
		c-0.076-0.207-0.158-0.412-0.248-0.614c-0.076-0.207-0.158-0.411-0.247-0.613c-0.077-0.209-0.161-0.416-0.25-0.621
		c-0.077-0.204-0.158-0.406-0.246-0.606c-0.079-0.213-0.164-0.424-0.255-0.632c-0.075-0.201-0.156-0.399-0.242-0.597
		c-0.077-0.207-0.159-0.412-0.248-0.614c-0.078-0.209-0.161-0.416-0.25-0.621c-0.077-0.204-0.158-0.406-0.246-0.605
		c-0.077-0.207-0.159-0.412-0.248-0.614c-0.077-0.207-0.158-0.412-0.248-0.614c-0.078-0.209-0.16-0.416-0.25-0.621
		c-0.076-0.204-0.158-0.405-0.246-0.605c-0.076-0.207-0.158-0.412-0.248-0.614c-0.076-0.207-0.158-0.412-0.248-0.614
		c-0.078-0.209-0.16-0.416-0.25-0.621c-0.076-0.204-0.158-0.405-0.246-0.605c-0.076-0.207-0.158-0.412-0.248-0.614
		c-0.076-0.207-0.158-0.412-0.248-0.614c-0.076-0.207-0.158-0.411-0.248-0.613c-0.078-0.209-0.16-0.416-0.25-0.621
		c-0.076-0.204-0.157-0.406-0.246-0.606c-0.076-0.207-0.158-0.412-0.248-0.613c-0.076-0.207-0.158-0.412-0.247-0.614
		c-0.078-0.209-0.161-0.416-0.25-0.621c-0.077-0.204-0.158-0.406-0.246-0.606c-0.077-0.207-0.159-0.412-0.248-0.613
		c-0.077-0.207-0.159-0.412-0.248-0.614c-0.078-0.209-0.161-0.416-0.25-0.621c-0.079-0.21-0.163-0.418-0.253-0.624
		c-0.075-0.201-0.155-0.4-0.242-0.597c-0.077-0.207-0.159-0.412-0.248-0.614c-0.077-0.207-0.158-0.412-0.248-0.614
		c-0.076-0.209-0.16-0.416-0.25-0.621c-0.076-0.204-0.158-0.405-0.246-0.605c-0.076-0.207-0.158-0.412-0.248-0.614
		c-0.076-0.207-0.158-0.412-0.248-0.614c-0.076-0.209-0.16-0.416-0.25-0.621c-0.076-0.204-0.158-0.405-0.246-0.605
		c-0.076-0.207-0.158-0.412-0.248-0.614c-0.076-0.207-0.158-0.412-0.248-0.614c-0.076-0.209-0.16-0.416-0.25-0.62
		c-0.076-0.204-0.158-0.406-0.246-0.606c-0.076-0.207-0.158-0.412-0.248-0.614c-0.076-0.207-0.158-0.412-0.248-0.613
		c-0.076-0.207-0.158-0.412-0.247-0.614c-0.077-0.209-0.161-0.416-0.25-0.621c-0.077-0.204-0.158-0.406-0.246-0.606
		c-0.077-0.207-0.159-0.412-0.248-0.613c-0.077-0.207-0.159-0.412-0.248-0.614c-0.077-0.209-0.161-0.416-0.25-0.621
		c-0.077-0.204-0.158-0.406-0.246-0.606c-0.077-0.207-0.159-0.411-0.248-0.613c-0.077-0.207-0.159-0.412-0.248-0.614
		c-0.08-0.215-0.165-0.428-0.258-0.639c-0.074-0.198-0.154-0.396-0.239-0.589c-0.076-0.207-0.158-0.412-0.248-0.614
		c-0.076-0.207-0.158-0.412-0.248-0.614c-0.078-0.209-0.16-0.416-0.25-0.621c-0.076-0.204-0.158-0.406-0.246-0.605
		c-0.076-0.207-0.158-0.412-0.248-0.614c-0.076-0.207-0.158-0.412-0.248-0.614c-0.076-0.207-0.158-0.412-0.248-0.614
		c-0.078-0.209-0.16-0.416-0.25-0.62c-0.076-0.204-0.158-0.406-0.246-0.606c-0.076-0.207-0.158-0.412-0.248-0.614
		c-1.145-3.065-3.483-5.745-8.283-5.745c-1.829,0-3.924,0.396-6.403,1.218c-2.571,0.848-5.432,2.341-8.301,4.272
		c-0.032-0.056-0.072-0.103-0.112-0.149c-0.003-0.138-0.029-0.273-0.093-0.405c-0.039-0.082-0.101-0.145-0.155-0.209
		c-0.003-0.138-0.029-0.274-0.093-0.405c-0.039-0.082-0.101-0.143-0.155-0.209c-0.002-0.137-0.029-0.273-0.093-0.405
		c-0.039-0.082-0.101-0.144-0.155-0.21c-0.004-0.136-0.031-0.271-0.094-0.402c-0.039-0.082-0.1-0.145-0.154-0.209
		c-0.004-0.138-0.031-0.274-0.094-0.405c-0.039-0.082-0.1-0.144-0.154-0.209c-0.004-0.137-0.03-0.273-0.094-0.405
		c-0.039-0.082-0.1-0.144-0.154-0.209c-0.004-0.137-0.03-0.273-0.094-0.405c-0.039-0.082-0.1-0.143-0.154-0.209
		c-0.004-0.136-0.03-0.272-0.094-0.403c-0.039-0.082-0.1-0.144-0.154-0.209c-0.004-0.138-0.03-0.273-0.094-0.405
		c-0.039-0.082-0.1-0.145-0.154-0.209c-0.004-0.137-0.03-0.274-0.094-0.405c-0.039-0.082-0.1-0.143-0.154-0.209
		c-0.004-0.137-0.03-0.272-0.094-0.405c-0.039-0.082-0.1-0.144-0.154-0.209c-0.004-0.137-0.03-0.273-0.094-0.404
		c-0.039-0.082-0.1-0.144-0.154-0.209c-0.004-0.137-0.03-0.273-0.094-0.404c-0.039-0.082-0.1-0.144-0.154-0.209
		c-0.003-0.137-0.03-0.273-0.094-0.405c-0.039-0.082-0.1-0.144-0.154-0.209c-0.003-0.137-0.03-0.273-0.094-0.405
		c-0.235-0.5-0.832-0.713-1.332-0.477c-4.475,2.12-8.117,7.022-9.12,11.897c-1.22-0.837-2.693-1.328-4.284-1.328
		c-0.339,0-0.671,0.03-0.998,0.073c-0.001,0-0.001,0-0.002,0c-1.121,0.147-2.159,0.544-3.07,1.126
		c-0.06-0.151-0.125-0.305-0.188-0.456c-0.079-0.207-0.162-0.414-0.25-0.619c-0.078-0.204-0.16-0.405-0.246-0.607
		c-0.078-0.205-0.161-0.41-0.248-0.614c-1.527-4.005-4.672-7.705-8.401-9.472c-0.5-0.236-1.096-0.023-1.332,0.477
		c-0.179,0.378-0.099,0.811,0.168,1.101c0.014,0.228,0.094,0.444,0.248,0.614c0.014,0.228,0.094,0.445,0.248,0.614
		c0.016,0.227,0.094,0.444,0.248,0.613c0.014,0.227,0.094,0.443,0.248,0.613c0.014,0.228,0.094,0.445,0.248,0.614
		c0.014,0.228,0.094,0.444,0.248,0.614c0.014,0.227,0.094,0.445,0.248,0.614c0.016,0.227,0.094,0.443,0.248,0.612
		c0.014,0.228,0.093,0.444,0.248,0.614c0.014,0.228,0.093,0.445,0.248,0.614c0.015,0.229,0.094,0.445,0.249,0.615
		c0.015,0.226,0.094,0.442,0.248,0.611c0.014,0.228,0.093,0.445,0.247,0.614c0.015,0.228,0.094,0.444,0.248,0.614
		c0.015,0.227,0.094,0.445,0.248,0.614c0.016,0.227,0.095,0.443,0.248,0.612c0.015,0.228,0.094,0.444,0.248,0.614
		c0.015,0.228,0.094,0.445,0.248,0.614c0.015,0.227,0.094,0.445,0.248,0.614c0.016,0.227,0.094,0.443,0.248,0.612
		c0.015,0.228,0.094,0.445,0.248,0.614c0.014,0.228,0.094,0.444,0.248,0.614c0.014,0.227,0.094,0.445,0.248,0.614
		c0.014,0.227,0.094,0.444,0.248,0.614c0.016,0.227,0.094,0.443,0.248,0.612c0.014,0.228,0.094,0.445,0.248,0.614
		c0.014,0.227,0.094,0.444,0.248,0.614c0.014,0.227,0.094,0.444,0.248,0.614c0.007,0.101,0.018,0.198,0.053,0.291
		c0,0.05,0.002,0.094,0.002,0.144c-0.619-0.709-1.268-1.404-1.931-2.087c-0.002-0.001-0.003-0.003-0.005-0.005
		c-5.334-5.487-11.888-10.005-17.213-11.759c-2.48-0.819-4.574-1.217-6.403-1.217c-9.38,0-9.38,10.229-9.38,13.59
		c0,4.485,0.697,8.012,1.861,10.791c0.08,0.211,0.164,0.412,0.248,0.614c0.08,0.212,0.165,0.415,0.25,0.618
		c0.079,0.208,0.163,0.409,0.247,0.609c0.08,0.212,0.165,0.416,0.25,0.618c0.079,0.209,0.162,0.409,0.246,0.609
		c0.08,0.211,0.164,0.412,0.248,0.614c0.08,0.212,0.165,0.415,0.25,0.618c0.079,0.208,0.163,0.409,0.247,0.608
		c0.08,0.211,0.164,0.412,0.248,0.614c0.08,0.21,0.164,0.413,0.248,0.614c0.08,0.211,0.165,0.415,0.25,0.618
		c0.079,0.208,0.163,0.409,0.247,0.608c0.08,0.21,0.164,0.413,0.248,0.614c0.08,0.211,0.164,0.412,0.248,0.614
		c0.08,0.212,0.165,0.415,0.25,0.618c0.079,0.208,0.163,0.409,0.247,0.608c0.08,0.212,0.165,0.416,0.25,0.619
		c0.079,0.209,0.163,0.409,0.247,0.609c0.08,0.211,0.165,0.415,0.25,0.618c0.079,0.208,0.163,0.409,0.247,0.608
		c0.08,0.21,0.164,0.413,0.248,0.614c0.08,0.211,0.164,0.412,0.248,0.614c0.08,0.21,0.164,0.413,0.248,0.613
		c0.08,0.212,0.165,0.416,0.25,0.618c0.079,0.208,0.163,0.409,0.247,0.609c0.08,0.21,0.164,0.413,0.248,0.614
		c0.08,0.211,0.164,0.412,0.248,0.613c0.08,0.213,0.165,0.416,0.25,0.618c0.011,0.029,0.021,0.063,0.032,0.093
		c-0.356,2.28-0.018,4.646,0.997,7.069c0.076,0.204,0.162,0.409,0.248,0.614c0.077,0.205,0.163,0.411,0.25,0.617
		c0.075,0.203,0.161,0.406,0.247,0.609c0.077,0.205,0.164,0.412,0.25,0.619c0.076,0.202,0.161,0.405,0.247,0.609
		c0.076,0.204,0.162,0.409,0.248,0.614c0.076,0.204,0.163,0.411,0.25,0.616c0.076,0.203,0.161,0.406,0.247,0.61
		c0.076,0.204,0.162,0.409,0.248,0.614c0.076,0.204,0.162,0.409,0.248,0.613c0.076,0.205,0.163,0.411,0.25,0.617
		c0.076,0.203,0.161,0.406,0.247,0.61c0.076,0.204,0.162,0.409,0.248,0.614c0.076,0.203,0.162,0.408,0.248,0.613
		c0.076,0.205,0.163,0.411,0.25,0.617c0.076,0.203,0.161,0.406,0.247,0.61c0.077,0.205,0.164,0.412,0.25,0.619
		c0.076,0.202,0.161,0.404,0.247,0.608c0.077,0.205,0.163,0.411,0.25,0.617c0.075,0.203,0.161,0.406,0.247,0.61
		c0.076,0.204,0.162,0.409,0.248,0.613c0.076,0.204,0.162,0.409,0.248,0.614c0.076,0.204,0.162,0.409,0.248,0.614
		c0.077,0.205,0.163,0.411,0.25,0.617c0.075,0.202,0.161,0.405,0.247,0.609c0.076,0.204,0.162,0.409,0.248,0.614
		c0.076,0.204,0.162,0.409,0.248,0.614c0.077,0.205,0.163,0.411,0.25,0.616c0.075,0.203,0.161,0.406,0.247,0.61
		c0.077,0.205,0.164,0.412,0.25,0.619c0.076,0.202,0.161,0.405,0.247,0.609c0.076,0.204,0.163,0.411,0.25,0.616
		c0.076,0.203,0.161,0.406,0.247,0.61c0.076,0.204,0.162,0.409,0.248,0.614c0.076,0.204,0.162,0.409,0.248,0.613
		c0.076,0.204,0.162,0.409,0.248,0.614c0.076,0.205,0.163,0.411,0.25,0.617c0.076,0.203,0.161,0.406,0.247,0.61
		c0.076,0.203,0.162,0.408,0.248,0.613c0.076,0.204,0.162,0.409,0.248,0.614c0.076,0.205,0.163,0.411,0.25,0.617
		c0.076,0.204,0.163,0.409,0.249,0.614c0.076,0.203,0.161,0.405,0.247,0.609c0.076,0.204,0.162,0.409,0.248,0.614
		c0.077,0.205,0.163,0.411,0.25,0.617c0.075,0.203,0.161,0.405,0.247,0.609c0.076,0.204,0.162,0.409,0.248,0.614
		c0.076,0.204,0.162,0.409,0.248,0.614c0.076,0.204,0.162,0.409,0.248,0.614c0.077,0.205,0.163,0.41,0.25,0.616
		c0.075,0.203,0.161,0.406,0.247,0.61c0.076,0.204,0.162,0.409,0.248,0.614c0.076,0.204,0.162,0.409,0.248,0.614
		c0.077,0.204,0.163,0.41,0.25,0.616c0.076,0.204,0.163,0.409,0.249,0.614c0.076,0.203,0.161,0.406,0.247,0.61
		c0.076,0.204,0.162,0.409,0.248,0.613c0.076,0.205,0.163,0.411,0.25,0.617c0.076,0.203,0.161,0.406,0.247,0.61
		c0.076,0.204,0.162,0.409,0.248,0.613c0.076,0.204,0.162,0.409,0.248,0.614c0.076,0.204,0.162,0.409,0.248,0.614
		c0.076,0.205,0.163,0.411,0.25,0.617c0.076,0.203,0.161,0.406,0.247,0.609c0.076,0.204,0.162,0.409,0.248,0.614
		c0.076,0.204,0.162,0.409,0.248,0.614c0.027,0.071,0.059,0.144,0.087,0.215c5.176,1.351,10.604,2.074,16.202,2.074
		C91.133,128,114.307,111.105,123.618,87.27z"/>
	<path fill="#FFD464" d="M106.5,50.034c0-3.361,0-13.59-9.38-13.59c-1.829,0-3.923,0.396-6.403,1.217
		C82.613,40.331,71.645,49.38,66.5,58.55v26.611c5.439,8.672,11.268,10.629,15.422,10.629c6.621,0,11.967-4.848,14.324-9.658
		c1.763-3.6,2.033-7.086,0.801-10.361c-0.781-2.073-2.166-3.998-4.105-5.731C99.848,68.798,106.5,63.979,106.5,50.034z"/>
	<path fill="#FFD464" d="M21.5,50.034c0-3.361,0-13.59,9.38-13.59c1.829,0,3.923,0.396,6.403,1.217
		C45.387,40.331,56.355,49.38,61.5,58.55v26.611C56.061,93.833,50.232,95.79,46.078,95.79c-6.621,0-11.966-4.848-14.324-9.658
		c-1.763-3.6-2.033-7.086-0.801-10.361c0.781-2.073,2.166-3.998,4.106-5.731C28.152,68.798,21.5,63.979,21.5,50.034z"/>
	<path fill="#F2C95F" d="M54.416,50.46c0,6.084,2.174,36.248,2.796,40c0,0.057,0.015,0.109,0.017,0.166
		c1.426-1.429,2.861-3.217,4.271-5.465V58.55c-1.764-3.145-4.221-6.268-7.004-9.131C54.449,49.76,54.416,50.105,54.416,50.46z"/>
	<path fill="#F2C95F" d="M106.5,50.034c0-3.361,0-13.59-9.38-13.59c-0.496,0-1.015,0.034-1.552,0.094
		c7.927,1.007,7.932,10.317,7.932,13.496c0,13.944-6.652,18.764-13.561,20.004c1.94,1.733,3.326,3.658,4.106,5.731
		c1.231,3.275,0.962,6.763-0.801,10.361c-2.181,4.445-6.911,8.914-12.843,9.567c0.525,0.061,1.035,0.091,1.519,0.091
		c6.621,0,11.966-4.849,14.324-9.658c1.763-3.6,2.032-7.086,0.801-10.361c-0.78-2.073-2.166-3.998-4.106-5.731
		C99.848,68.798,106.5,63.979,106.5,50.034z"/>
	<path fill="#C23527" d="M97.047,75.771c-0.781-2.074-2.166-3.998-4.105-5.731c0.111-0.021,0.222-0.05,0.332-0.07
		c-7.094-4.607-16.461-7.434-26.772-7.434v22.627c5.438,8.672,11.269,10.629,15.422,10.629c6.621,0,11.966-4.849,14.324-9.658
		C98.009,82.532,98.279,79.046,97.047,75.771z"/>
	<path fill="#B33124" d="M92.939,70.038c0.11-0.021,0.222-0.049,0.332-0.07c-0.285-0.186-0.58-0.363-0.873-0.543
		c-0.809,0.262-1.631,0.465-2.459,0.613c1.94,1.734,3.326,3.658,4.106,5.732c1.231,3.274,0.962,6.762-0.801,10.36
		c-2.181,4.445-6.911,8.914-12.843,9.567c0.525,0.061,1.035,0.091,1.519,0.091c6.621,0,11.966-4.849,14.324-9.658
		c1.763-3.6,2.032-7.086,0.801-10.36C96.266,73.696,94.881,71.772,92.939,70.038z"/>
	<path fill="#C23527" d="M30.953,75.771c0.781-2.074,2.166-3.998,4.106-5.731c-0.112-0.021-0.222-0.05-0.332-0.07
		c7.093-4.607,16.46-7.434,26.772-7.434v22.627c-5.438,8.672-11.269,10.629-15.422,10.629c-6.621,0-11.966-4.849-14.324-9.658
		C29.991,82.532,29.721,79.046,30.953,75.771z"/>
	<path fill="#B33124" d="M57.212,90.46c0,0.057,0.015,0.109,0.017,0.166c0.002-0.002,0.004-0.003,0.006-0.005
		c0.353-0.354,0.705-0.729,1.06-1.129c0.002-0.003,0.005-0.005,0.007-0.009c0.336-0.378,0.67-0.781,1.004-1.203
		c0.024-0.03,0.049-0.06,0.074-0.091c0.309-0.392,0.614-0.811,0.921-1.239c0.05-0.07,0.101-0.133,0.149-0.202
		c0.352-0.502,0.701-1.03,1.052-1.587V62.534c-2.21,0-4.373,0.137-6.483,0.387C55.708,73.908,56.8,87.976,57.212,90.46z"/>
	<circle fill="#F5F5F5" cx="81.5" cy="80.034" r="5"/>
	<circle fill="#F5F5F5" cx="44" cy="80.034" r="5"/>
	<circle fill="#C23527" cx="34" cy="52.534" r="7.5"/>
	<circle fill="#C23527" cx="94" cy="52.534" r="7.5"/>
	<path fill="#406A80" d="M64,42.876c-4.188,0-7.584,3.395-7.584,7.584c0,6.084,2.174,36.248,2.796,40
		c0,2.645,2.144,4.787,4.788,4.787s4.788-2.144,4.788-4.787c0.622-3.752,2.796-33.916,2.796-40
		C71.584,46.271,68.188,42.876,64,42.876z"/>
	<path fill="#395F73" d="M64,42.876c-0.34,0-0.672,0.03-1,0.073c3.715,0.49,6.584,3.661,6.584,7.511c0,6.084-2.174,36.248-2.796,40
		c0,2.301-1.624,4.219-3.788,4.679c0.323,0.069,0.656,0.108,1,0.108c2.645,0,4.788-2.144,4.788-4.787
		c0.622-3.752,2.796-33.916,2.796-40C71.584,46.271,68.188,42.876,64,42.876z"/>
	<g>
		<path fill="#242424" d="M59,47.794c-0.553,0-1-0.447-1-1c0-4.834-3.706-10.523-8.262-12.682c-0.5-0.236-0.713-0.832-0.477-1.33
			c0.236-0.5,0.832-0.713,1.332-0.478c5.273,2.498,9.405,8.861,9.405,14.488C60,47.347,59.553,47.794,59,47.794z"/>
		<path fill="#242424" d="M69,47.794c0.553,0,1-0.447,1-1c0-4.834,3.706-10.523,8.262-12.682c0.5-0.236,0.713-0.832,0.477-1.33
			c-0.236-0.5-0.832-0.713-1.332-0.478c-5.273,2.498-9.405,8.861-9.405,14.488C68,47.347,68.447,47.794,69,47.794z"/>
	</g>
	<g>
		<path fill="#70CCBD" d="M64,84.015c-2.1,0-3.955-0.256-5.499-0.67c0.03,0.363,0.062,0.711,0.09,1.055
			c1.599,0.394,3.437,0.615,5.409,0.615s3.813-0.223,5.409-0.615c0.028-0.344,0.06-0.69,0.09-1.055
			C67.955,83.759,66.1,84.015,64,84.015z"/>
		<path fill="#70CCBD" d="M69.162,87.134c0.031-0.334,0.064-0.686,0.098-1.055c-1.473,0.396-3.248,0.645-5.26,0.645
			s-3.787-0.248-5.26-0.645c0.033,0.369,0.064,0.721,0.098,1.055c1.523,0.377,3.279,0.59,5.162,0.59S67.639,87.511,69.162,87.134z"
			/>
		<path fill="#70CCBD" d="M64,65.046c-2.492,0-4.848-0.293-6.898-0.789c0.022,0.352,0.047,0.705,0.069,1.061
			c2.037,0.466,4.351,0.729,6.829,0.729s4.792-0.264,6.829-0.729c0.022-0.354,0.047-0.709,0.069-1.061
			C68.848,64.753,66.492,65.046,64,65.046z"/>
		<path fill="#70CCBD" d="M64,81.304c-2.18,0-4.109-0.264-5.723-0.688c0.029,0.358,0.057,0.707,0.084,1.053
			c1.668,0.408,3.584,0.637,5.639,0.637s3.971-0.229,5.639-0.637c0.027-0.346,0.055-0.693,0.084-1.053
			C68.109,81.04,66.18,81.304,64,81.304z"/>
		<path fill="#70CCBD" d="M64,62.337c-2.55,0-4.963-0.295-7.068-0.797c0.021,0.348,0.043,0.703,0.065,1.059
			c2.092,0.471,4.464,0.738,7.003,0.738c2.54,0,4.911-0.268,7.003-0.738c0.022-0.354,0.045-0.711,0.065-1.059
			C68.963,62.042,66.55,62.337,64,62.337z"/>
		<path fill="#70CCBD" d="M57.279,66.978c0.025,0.354,0.049,0.707,0.072,1.063c1.979,0.457,4.232,0.715,6.647,0.715
			s4.669-0.258,6.647-0.715c0.023-0.355,0.047-0.709,0.071-1.063c-1.991,0.49-4.288,0.777-6.72,0.777S59.271,67.468,57.279,66.978z"
			/>
		<path fill="#70CCBD" d="M64,75.884c-2.232,0-4.336-0.273-6.143-0.734c0.025,0.355,0.053,0.711,0.078,1.063
			c1.799,0.428,3.855,0.672,6.063,0.672s4.267-0.244,6.063-0.672c0.025-0.353,0.053-0.707,0.078-1.063
			C68.336,75.61,66.232,75.884,64,75.884z"/>
		<path fill="#70CCBD" d="M64,78.595c-2.16,0-4.195-0.268-5.938-0.717c0.027,0.357,0.056,0.709,0.082,1.061
			c1.732,0.418,3.723,0.656,5.854,0.656s4.122-0.238,5.854-0.656c0.026-0.352,0.055-0.703,0.082-1.061
			C68.195,78.327,66.16,78.595,64,78.595z"/>
		<path fill="#70CCBD" d="M68.87,89.88c0.037-0.295,0.078-0.646,0.123-1.059c-1.397,0.377-3.083,0.61-4.993,0.61
			s-3.596-0.233-4.993-0.61c0.045,0.413,0.086,0.764,0.123,1.059c1.44,0.354,3.095,0.553,4.87,0.553S67.43,90.233,68.87,89.88z"/>
		<path fill="#70CCBD" d="M64,59.626c-2.602,0-5.068-0.293-7.23-0.799c0.021,0.344,0.041,0.697,0.063,1.053
			c2.146,0.477,4.572,0.746,7.169,0.746s5.022-0.271,7.169-0.746c0.021-0.355,0.041-0.709,0.063-1.053
			C69.068,59.333,66.602,59.626,64,59.626z"/>
		<path fill="#70CCBD" d="M64,73.175c-2.301,0-4.473-0.277-6.341-0.75c0.024,0.355,0.051,0.709,0.075,1.061
			c1.861,0.439,3.986,0.689,6.266,0.689s4.404-0.25,6.266-0.689c0.024-0.352,0.051-0.704,0.076-1.061
			C68.473,72.896,66.301,73.175,64,73.175z"/>
		<path fill="#70CCBD" d="M64,70.466c-2.367,0-4.602-0.285-6.534-0.764c0.024,0.354,0.05,0.707,0.075,1.059
			c1.921,0.449,4.111,0.705,6.459,0.705s4.538-0.256,6.459-0.705c0.025-0.354,0.051-0.705,0.075-1.061
			C68.602,70.181,66.367,70.466,64,70.466z"/>
	</g>
</g>
</svg>
