<?xml version="1.0" encoding="utf-8"?>
<!-- Generator: Adobe Illustrator 15.1.0, SVG Export Plug-In . SVG Version: 6.00 Build 0)  -->
<!DOCTYPE svg PUBLIC "-//W3C//DTD SVG 1.1//EN" "http://www.w3.org/Graphics/SVG/1.1/DTD/svg11.dtd">
<svg version="1.1" id="Layer_1" xmlns="http://www.w3.org/2000/svg" xmlns:xlink="http://www.w3.org/1999/xlink" x="0px" y="0px"
	 width="128px" height="128px" viewBox="0 0 128 128" enable-background="new 0 0 128 128" xml:space="preserve">
<g>
	<circle fill="#4AB8A1" cx="64" cy="64" r="64"/>
	<path fill="#43A691" d="M125.6,81.351c-0.005-0.011-0.008-0.022-0.013-0.033c-0.018-0.04-0.041-0.074-0.06-0.113
		c-0.06-0.17-0.117-0.34-0.188-0.501c-0.019-0.042-0.044-0.078-0.063-0.12c-0.059-0.168-0.116-0.335-0.188-0.494
		c-0.018-0.04-0.041-0.074-0.06-0.112c-0.059-0.171-0.117-0.341-0.188-0.502c-0.018-0.041-0.042-0.075-0.061-0.115
		c-0.06-0.168-0.117-0.337-0.188-0.497c-0.018-0.04-0.041-0.074-0.06-0.113c-0.059-0.17-0.117-0.34-0.188-0.501
		c-0.018-0.04-0.041-0.074-0.06-0.113c-0.058-0.17-0.117-0.34-0.188-0.501c-0.018-0.04-0.041-0.073-0.06-0.112
		c-0.058-0.17-0.117-0.34-0.188-0.501c-0.018-0.041-0.042-0.076-0.061-0.116c-0.059-0.169-0.117-0.337-0.188-0.497
		c-0.019-0.04-0.041-0.074-0.061-0.113c-0.058-0.17-0.117-0.34-0.188-0.501c-0.019-0.04-0.041-0.074-0.061-0.112
		c-0.058-0.171-0.117-0.341-0.188-0.501c-0.019-0.04-0.041-0.074-0.061-0.113c-0.058-0.17-0.117-0.34-0.188-0.501
		c-0.019-0.041-0.042-0.076-0.062-0.116c-0.059-0.168-0.117-0.337-0.188-0.497c-0.019-0.04-0.041-0.074-0.061-0.113
		c-0.058-0.17-0.116-0.34-0.188-0.501c-0.019-0.039-0.041-0.073-0.061-0.112c-0.058-0.17-0.116-0.34-0.188-0.501
		c-0.019-0.04-0.041-0.074-0.061-0.113c-0.058-0.17-0.116-0.34-0.188-0.501c-0.019-0.04-0.041-0.074-0.06-0.113
		c-0.059-0.17-0.117-0.34-0.188-0.501c-0.018-0.041-0.042-0.075-0.061-0.115c-0.06-0.168-0.117-0.338-0.188-0.497
		c-0.018-0.04-0.041-0.074-0.06-0.113c-0.059-0.17-0.117-0.34-0.188-0.501c-0.018-0.04-0.041-0.074-0.06-0.113
		c-0.059-0.17-0.117-0.34-0.188-0.501c-0.018-0.04-0.041-0.073-0.06-0.112c-0.059-0.17-0.117-0.341-0.188-0.501
		c-0.018-0.041-0.042-0.076-0.061-0.116c-0.06-0.169-0.117-0.337-0.188-0.497c-0.018-0.04-0.041-0.074-0.06-0.113
		c-0.059-0.17-0.117-0.34-0.188-0.501c-0.018-0.04-0.041-0.074-0.06-0.113c-0.058-0.17-0.117-0.34-0.188-0.501
		c-0.018-0.04-0.041-0.073-0.06-0.112c-0.058-0.17-0.117-0.34-0.188-0.501c-0.019-0.041-0.043-0.076-0.062-0.116
		c-0.059-0.168-0.117-0.337-0.188-0.497c-0.019-0.04-0.041-0.074-0.061-0.113c-0.058-0.17-0.117-0.34-0.188-0.501
		c-0.02-0.042-0.043-0.078-0.063-0.12c-0.059-0.168-0.116-0.335-0.187-0.493c-0.019-0.04-0.041-0.074-0.061-0.113
		c-0.059-0.17-0.117-0.34-0.188-0.501c-0.019-0.04-0.041-0.074-0.061-0.113c-0.059-0.17-0.117-0.34-0.188-0.501
		c-0.02-0.041-0.042-0.076-0.062-0.116c-0.058-0.168-0.117-0.337-0.188-0.497c-0.019-0.039-0.041-0.073-0.061-0.112
		c-0.059-0.17-0.116-0.34-0.188-0.501c-0.019-0.04-0.041-0.074-0.061-0.113c-0.059-0.17-0.116-0.34-0.188-0.501
		c-0.018-0.04-0.041-0.074-0.061-0.113c-0.059-0.17-0.116-0.34-0.188-0.501c-0.019-0.041-0.042-0.075-0.061-0.115
		c-0.059-0.17-0.117-0.338-0.188-0.497c-0.018-0.04-0.041-0.074-0.06-0.113c-0.06-0.17-0.117-0.34-0.188-0.501
		c-0.018-0.04-0.041-0.074-0.06-0.113c-0.06-0.17-0.117-0.34-0.188-0.501c-0.018-0.04-0.041-0.073-0.06-0.112
		c-0.06-0.17-0.117-0.341-0.188-0.501c-0.019-0.041-0.042-0.076-0.061-0.116c-0.059-0.168-0.117-0.337-0.188-0.497
		c-0.018-0.04-0.041-0.074-0.06-0.113c-0.06-0.17-0.117-0.34-0.188-0.501c-0.018-0.04-0.041-0.074-0.06-0.113
		c-0.06-0.17-0.117-0.34-0.188-0.501c-0.018-0.04-0.041-0.073-0.06-0.112c-0.059-0.17-0.117-0.34-0.188-0.501
		c-0.018-0.04-0.041-0.074-0.06-0.113c-0.059-0.17-0.117-0.34-0.188-0.501c-0.02-0.041-0.042-0.076-0.062-0.116
		c-0.058-0.168-0.117-0.337-0.188-0.497c-0.019-0.04-0.041-0.073-0.061-0.112c-0.059-0.17-0.117-0.341-0.188-0.501
		c-0.019-0.04-0.041-0.074-0.061-0.113c-0.059-0.17-0.117-0.34-0.188-0.501c-0.019-0.04-0.041-0.074-0.061-0.113
		c-0.059-0.17-0.117-0.34-0.188-0.501c-0.02-0.041-0.042-0.076-0.062-0.116c-0.058-0.169-0.116-0.337-0.188-0.497
		c-0.019-0.039-0.041-0.073-0.061-0.112c-0.059-0.17-0.116-0.34-0.188-0.501c-0.019-0.04-0.041-0.074-0.06-0.113
		c-0.06-0.17-0.117-0.34-0.188-0.501c-0.018-0.04-0.041-0.074-0.06-0.113c-0.06-0.17-0.117-0.34-0.188-0.501
		c-0.019-0.041-0.042-0.075-0.061-0.115c-0.059-0.168-0.117-0.337-0.188-0.497c-0.019-0.042-0.044-0.078-0.063-0.12
		c-0.059-0.168-0.116-0.335-0.188-0.494c-0.018-0.04-0.041-0.074-0.06-0.113c-0.059-0.17-0.117-0.34-0.188-0.501
		c-0.018-0.04-0.041-0.073-0.06-0.112c-0.059-0.17-0.117-0.341-0.188-0.501c-0.018-0.04-0.041-0.074-0.06-0.113
		c-0.059-0.17-0.117-0.34-0.188-0.501c-0.018-0.041-0.042-0.076-0.061-0.116c-0.06-0.168-0.117-0.337-0.188-0.497
		c-0.018-0.04-0.041-0.074-0.06-0.113c-0.058-0.17-0.117-0.34-0.188-0.501c-0.018-0.04-0.041-0.073-0.06-0.112
		c-0.058-0.17-0.117-0.34-0.188-0.501c-0.019-0.04-0.041-0.074-0.061-0.113c-0.058-0.17-0.117-0.34-0.188-0.501
		c-0.019-0.041-0.042-0.076-0.062-0.116c-0.059-0.169-0.117-0.337-0.188-0.497c-0.019-0.04-0.041-0.073-0.061-0.112
		c-0.058-0.17-0.117-0.341-0.188-0.501c-0.019-0.04-0.041-0.074-0.061-0.113c-0.058-0.17-0.117-0.34-0.188-0.501
		c-0.019-0.04-0.041-0.074-0.061-0.113c-0.058-0.17-0.116-0.34-0.188-0.501c-0.019-0.041-0.042-0.076-0.062-0.116
		c-0.059-0.168-0.116-0.337-0.188-0.497c-0.019-0.039-0.041-0.073-0.061-0.112c-0.058-0.17-0.116-0.34-0.188-0.501
		c-0.018-0.04-0.041-0.074-0.061-0.113c-0.058-0.17-0.116-0.34-0.188-0.501c-0.018-0.04-0.041-0.074-0.06-0.113
		c-0.059-0.17-0.117-0.34-0.188-0.501c-0.018-0.039-0.041-0.073-0.06-0.112c-0.059-0.17-0.117-0.34-0.188-0.501
		c-0.018-0.041-0.042-0.076-0.061-0.116c-0.06-0.168-0.117-0.337-0.188-0.497c-0.018-0.04-0.041-0.074-0.06-0.113
		c-0.059-0.17-0.117-0.34-0.188-0.501c-0.018-0.04-0.041-0.073-0.06-0.112c-0.059-0.17-0.117-0.341-0.188-0.501
		c-0.018-0.04-0.041-0.074-0.06-0.113c-0.059-0.17-0.117-0.34-0.188-0.501c-0.018-0.041-0.042-0.076-0.061-0.116
		c-0.06-0.169-0.117-0.337-0.188-0.497c-0.018-0.04-0.041-0.074-0.06-0.113c-0.058-0.17-0.117-0.34-0.188-0.5
		c-0.018-0.04-0.041-0.074-0.06-0.113c-0.058-0.17-0.117-0.34-0.188-0.501c-0.019-0.04-0.041-0.074-0.061-0.113
		c-0.058-0.17-0.117-0.34-0.188-0.501c-0.021-0.043-0.045-0.08-0.064-0.123c-0.057-0.166-0.115-0.332-0.185-0.49
		c-0.019-0.039-0.041-0.073-0.061-0.112c-0.059-0.17-0.117-0.34-0.188-0.501c-0.019-0.04-0.041-0.074-0.061-0.113
		c-0.059-0.17-0.117-0.34-0.188-0.501c-0.019-0.04-0.041-0.074-0.061-0.113c-0.059-0.17-0.117-0.34-0.188-0.501
		c-0.02-0.041-0.042-0.075-0.062-0.115c-0.058-0.17-0.116-0.338-0.188-0.497c-0.019-0.04-0.041-0.074-0.061-0.113
		c-0.059-0.17-0.116-0.34-0.188-0.501c-0.019-0.04-0.041-0.074-0.06-0.113c-0.06-0.17-0.117-0.34-0.188-0.501
		c-0.018-0.04-0.041-0.073-0.06-0.112c-0.06-0.17-0.117-0.341-0.188-0.501c-0.018-0.04-0.041-0.074-0.06-0.113
		c-0.06-0.17-0.117-0.34-0.188-0.501c-0.019-0.041-0.042-0.076-0.061-0.116c-0.059-0.169-0.117-0.337-0.188-0.497
		c-0.018-0.04-0.041-0.074-0.06-0.113c-0.06-0.17-0.117-0.34-0.188-0.501c-0.018-0.04-0.041-0.073-0.06-0.112
		c-0.06-0.17-0.117-0.34-0.188-0.501c-0.917-2.083-2.771-3.281-5.089-3.281c-5.289,0-10.58,1.859-13.899,4.761
		c-0.552-0.258-1.131-0.515-1.725-0.769c-0.2-0.087-0.406-0.171-0.611-0.256c-0.416-0.175-0.845-0.345-1.281-0.514
		c-0.245-0.095-0.486-0.188-0.738-0.28c-0.633-0.232-1.281-0.461-1.956-0.679c-0.003-0.001-0.006-0.002-0.009-0.003
		c-0.295-0.095-0.611-0.179-0.914-0.27c-0.296-0.084-0.584-0.172-0.883-0.255c-0.005-0.001-0.01-0.003-0.014-0.004
		c-0.539-0.149-1.094-0.29-1.658-0.426c-0.158-0.034-0.313-0.07-0.472-0.106c-0.005-0.001-0.01-0.002-0.016-0.003
		c-0.586-0.134-1.176-0.264-1.789-0.378c-0.002,0-0.004-0.001-0.007-0.001c-0.227-0.042-0.463-0.075-0.692-0.114
		c-0.003,0-0.005-0.001-0.008-0.001c-0.963-0.165-1.96-0.301-2.991-0.409c-0.023-0.003-0.049-0.005-0.072-0.008
		c-0.003,0-0.004,0-0.006,0c-0.621-0.065-1.235-0.135-1.884-0.177h-0.002c-0.988-0.063-2-0.106-3.05-0.11
		c-8.992,0.036-15.727,2.411-20.755,4.761c-0.912-0.797-1.982-1.505-3.15-2.128c-0.098-0.052-0.2-0.099-0.3-0.148
		c-0.004-0.002-0.007-0.003-0.011-0.005c-0.895-0.457-1.832-0.869-2.826-1.209c-0.002,0-0.003-0.001-0.003-0.001
		c-0.574-0.195-1.16-0.373-1.758-0.525h-0.001c-0.262-0.067-0.531-0.111-0.797-0.17c-0.362-0.079-0.723-0.168-1.091-0.231
		c-0.003,0-0.006-0.001-0.009-0.002c-1.299-0.222-2.628-0.34-3.957-0.34c-2.316,0-4.172,1.198-5.089,3.281
		c-0.974,2.217-0.734,5.27,0.438,8.028c0.075,0.206,0.161,0.41,0.248,0.613c0.076,0.208,0.163,0.414,0.25,0.619
		c0.075,0.204,0.16,0.406,0.245,0.608c0.076,0.207,0.162,0.411,0.248,0.613c0.076,0.207,0.162,0.411,0.248,0.614
		c0.076,0.207,0.162,0.411,0.248,0.614c0.077,0.208,0.163,0.414,0.25,0.619c0.076,0.204,0.161,0.406,0.246,0.607
		c0.076,0.207,0.162,0.411,0.248,0.614c0.076,0.207,0.162,0.411,0.248,0.614c0.079,0.213,0.167,0.424,0.256,0.634
		c0.074,0.199,0.158,0.396,0.242,0.594c0.076,0.207,0.161,0.411,0.248,0.614c0.076,0.207,0.161,0.411,0.248,0.614
		c0.076,0.208,0.162,0.414,0.25,0.619c0.075,0.204,0.16,0.405,0.246,0.607c0.076,0.207,0.161,0.411,0.248,0.614
		c0.075,0.207,0.16,0.411,0.248,0.614c0.075,0.208,0.161,0.414,0.25,0.619c0.074,0.203,0.159,0.405,0.245,0.607
		c0.076,0.207,0.161,0.411,0.248,0.614c0.076,0.207,0.161,0.411,0.248,0.614c0.076,0.207,0.161,0.411,0.248,0.613
		c0.076,0.208,0.162,0.414,0.25,0.619c0.075,0.204,0.16,0.406,0.246,0.608c0.076,0.207,0.161,0.411,0.248,0.614
		c0.076,0.207,0.161,0.41,0.248,0.613c0.076,0.208,0.162,0.414,0.25,0.619c0.075,0.204,0.16,0.406,0.246,0.608
		c0.076,0.207,0.161,0.411,0.248,0.614c0.076,0.207,0.161,0.41,0.248,0.613c0.076,0.208,0.162,0.414,0.25,0.619
		c0.075,0.204,0.16,0.406,0.246,0.608c0.044,0.119,0.095,0.236,0.143,0.354c-0.305,9.379,1.148,18.457,4.188,26.174
		c0.078,0.208,0.167,0.408,0.248,0.614c0.079,0.21,0.169,0.412,0.25,0.62c0.078,0.206,0.165,0.403,0.245,0.607
		c0.079,0.208,0.167,0.407,0.248,0.613c0.079,0.208,0.167,0.408,0.248,0.614c0.079,0.208,0.167,0.408,0.248,0.614
		c0.08,0.21,0.169,0.412,0.251,0.62c0.078,0.206,0.165,0.402,0.245,0.606c0.079,0.208,0.167,0.408,0.248,0.614
		c0.079,0.208,0.167,0.408,0.248,0.614c0.082,0.215,0.174,0.422,0.258,0.636c0.076,0.2,0.161,0.394,0.24,0.592
		c0.078,0.208,0.166,0.408,0.248,0.614c0.078,0.208,0.166,0.408,0.248,0.614c0.079,0.21,0.168,0.412,0.25,0.62
		c0.078,0.206,0.165,0.402,0.246,0.606c0.077,0.208,0.166,0.408,0.248,0.614c0.077,0.208,0.166,0.408,0.247,0.614
		c0.079,0.21,0.169,0.412,0.25,0.62c0.078,0.205,0.165,0.402,0.246,0.606c0.078,0.208,0.166,0.408,0.248,0.614
		c0.078,0.208,0.166,0.408,0.248,0.614c0.078,0.208,0.166,0.407,0.248,0.613c0.079,0.21,0.168,0.412,0.25,0.62
		c0.078,0.206,0.165,0.403,0.246,0.607c0.078,0.208,0.166,0.408,0.248,0.614c0.078,0.208,0.166,0.407,0.248,0.613
		c0.079,0.21,0.168,0.412,0.25,0.62c0.078,0.206,0.165,0.403,0.246,0.607c0.078,0.208,0.166,0.408,0.248,0.613
		c0.078,0.209,0.166,0.408,0.248,0.614c0.079,0.21,0.168,0.412,0.25,0.62c0.078,0.206,0.165,0.403,0.246,0.607
		c0.077,0.208,0.166,0.408,0.248,0.613c0.077,0.208,0.166,0.408,0.247,0.614c0.08,0.214,0.172,0.419,0.255,0.63
		c0.077,0.205,0.164,0.401,0.244,0.604c0.078,0.206,0.165,0.403,0.245,0.606c0.079,0.208,0.167,0.408,0.248,0.614
		c0.079,0.208,0.167,0.408,0.248,0.614c0.08,0.21,0.169,0.412,0.251,0.62c0.078,0.206,0.165,0.402,0.245,0.606
		c0.079,0.208,0.167,0.408,0.248,0.614c0.079,0.208,0.167,0.408,0.248,0.614c0.08,0.21,0.169,0.412,0.251,0.62
		c0.078,0.206,0.165,0.402,0.245,0.606c0.079,0.208,0.167,0.408,0.248,0.614c0.079,0.208,0.167,0.408,0.248,0.614
		c0.079,0.208,0.167,0.408,0.248,0.613c0.08,0.211,0.169,0.412,0.251,0.62c0.078,0.206,0.165,0.403,0.244,0.607
		c0.079,0.208,0.168,0.408,0.248,0.614c0.079,0.208,0.167,0.408,0.248,0.613c0.08,0.211,0.169,0.412,0.251,0.62
		c0.078,0.206,0.165,0.403,0.245,0.607c0.079,0.208,0.167,0.408,0.248,0.614c0.079,0.208,0.167,0.407,0.248,0.613
		c0.08,0.21,0.169,0.412,0.251,0.62c0.078,0.206,0.165,0.403,0.245,0.607c0.079,0.208,0.167,0.408,0.248,0.614
		c0.082,0.214,0.172,0.419,0.255,0.63c0.077,0.203,0.163,0.396,0.243,0.599c0.079,0.21,0.168,0.412,0.25,0.62
		c0.078,0.206,0.165,0.403,0.246,0.606c0.078,0.209,0.166,0.408,0.248,0.614c0.078,0.208,0.166,0.408,0.248,0.614
		c0.078,0.21,0.168,0.412,0.25,0.62c0.078,0.206,0.165,0.403,0.246,0.606c0.077,0.208,0.166,0.408,0.247,0.614
		c0.078,0.208,0.166,0.408,0.248,0.614c0.079,0.21,0.168,0.412,0.25,0.62c0.078,0.206,0.165,0.403,0.246,0.606
		c0.078,0.208,0.166,0.408,0.248,0.614c0.063,0.168,0.133,0.331,0.2,0.496C58.29,127.791,61.12,128,64,128
		C93.33,128,118.033,108.263,125.6,81.351z"/>
	<g>
		<path fill="#B39547" d="M64,104c-7.787,0-14.831-3.644-20.37-10.536c-9.237-11.498-12.833-30.487-9.394-48.948
			c-2.353-1-4.731-2.822-7.213-5.521c-3.007-3.276-4.228-8.42-2.779-11.714C25.161,25.198,27.015,24,29.333,24
			c5.289,0,10.581,1.859,13.901,4.761c5.027-2.35,11.763-4.725,20.755-4.761c9.011,0.036,15.747,2.411,20.775,4.761
			c3.32-2.9,8.611-4.761,13.9-4.761c2.318,0,4.172,1.198,5.089,3.281c1.448,3.294,0.228,8.438-2.778,11.714
			c-2.481,2.697-4.861,4.521-7.214,5.521c3.44,18.461-0.155,37.45-9.394,48.948C78.83,100.356,71.786,104,64,104z"/>
		<path fill="#A68A42" d="M83.521,29.813c0.34-0.298,0.864-0.777,1.244-1.053c-1.858-0.869-3.957-1.738-6.312-2.496
			c-0.047-0.015-0.092-0.029-0.138-0.045c-0.536-0.171-1.104-0.324-1.668-0.481c-0.381-0.104-0.757-0.212-1.145-0.309
			c-0.324-0.082-0.666-0.151-0.999-0.229c-0.599-0.135-1.198-0.269-1.812-0.382c-0.227-0.042-0.464-0.075-0.692-0.114
			c-0.693-0.118-1.391-0.23-2.103-0.319c-0.314-0.04-0.646-0.063-0.971-0.099c-0.626-0.066-1.252-0.134-1.891-0.177
			c-0.988-0.063-2-0.106-3.05-0.11c-0.517,0.002-0.998,0.037-1.499,0.055C70.74,24.334,79.146,27.418,83.521,29.813z"/>
		<path fill="#A68A42" d="M103.755,27.281C102.838,25.198,100.984,24,98.666,24c-0.667,0-1.334,0.03-1.997,0.088
			c1.845,0.299,3.306,1.422,4.086,3.193c1.448,3.294,0.228,8.438-2.778,11.714c-2.481,2.697-4.861,4.521-7.214,5.521
			c3.44,18.461-0.155,37.45-9.394,48.948c-5.182,6.447-11.679,10.05-18.869,10.489c0.497,0.03,0.997,0.047,1.5,0.047
			c7.786,0,14.83-3.644,20.369-10.536c9.237-11.498,12.834-30.487,9.394-48.948c2.353-1,4.731-2.822,7.214-5.521
			C103.981,35.719,105.203,30.575,103.755,27.281z"/>
		<path fill="#A68A42" d="M41.667,29.938c0.451-0.453,1.039-0.906,1.567-1.177c-0.988-0.823-2.047-1.528-3.15-2.128
			c-0.098-0.052-0.2-0.099-0.3-0.148c-0.403-0.21-0.813-0.406-1.229-0.588c-0.403-0.176-0.817-0.337-1.239-0.487
			c-0.125-0.046-0.248-0.097-0.373-0.141c-0.573-0.194-1.159-0.372-1.758-0.524c-0.003-0.001-0.005-0.002-0.008-0.002
			c-0.617-0.157-1.245-0.29-1.88-0.399c-0.013-0.002-0.024-0.005-0.038-0.007c-0.58-0.099-1.168-0.169-1.757-0.225
			c-0.077-0.008-0.154-0.021-0.229-0.026c-0.646-0.055-1.293-0.084-1.94-0.084c-0.347,0-0.679,0.035-1.003,0.088
			C32.926,24.486,38.766,27.402,41.667,29.938z"/>
		<path fill="#D9B456" d="M64,73.875c-11.381,0-20.903,5.366-23.371,15.248c0.924,1.538,1.92,2.995,3.001,4.341
			C49.169,100.356,56.213,104,64,104c7.786,0,14.83-3.644,20.369-10.536c1.081-1.346,2.078-2.803,3.002-4.342
			C84.903,79.24,75.38,73.875,64,73.875z"/>
		<path fill="#CCA951" d="M87.371,89.122c-0.295-1.182-0.697-2.295-1.187-3.346c-1.379,2.813-2.98,5.402-4.815,7.688
			c-5.182,6.447-11.679,10.05-18.869,10.489c0.001,0,0.001,0,0.001,0C62.998,103.983,63.498,104,64,104
			c7.786,0,14.83-3.644,20.369-10.536c0.543-0.676,1.063-1.382,1.564-2.106C86.433,90.635,86.911,89.889,87.371,89.122z"/>
		<g>
			<path fill="#806A33" d="M45.334,45h-2.668C41.193,45,40,43.975,40,42.5s1.193-2.5,2.666-2.5h2.668C46.807,40,48,41.025,48,42.5
				S46.807,45,45.334,45z"/>
			<path fill="#806A33" d="M55,40h-2.666c-1.475,0-2.668-1.025-2.668-2.5s1.193-2.5,2.668-2.5H55c1.475,0,2.666,1.025,2.666,2.5
				S56.475,40,55,40z"/>
			<path fill="#806A33" d="M66.666,45h-5.332c-1.475,0-2.668-1.025-2.668-2.5s1.193-2.5,2.668-2.5h5.332
				c1.475,0,2.668,1.025,2.668,2.5S68.141,45,66.666,45z"/>
			<path fill="#806A33" d="M82.666,45h2.668C86.807,45,88,43.975,88,42.5S86.807,40,85.334,40h-2.668C81.193,40,80,41.025,80,42.5
				S81.193,45,82.666,45z"/>
			<path fill="#806A33" d="M73,40h2.666c1.475,0,2.668-1.025,2.668-2.5S77.141,35,75.666,35H73c-1.475,0-2.666,1.025-2.666,2.5
				S71.525,40,73,40z"/>
		</g>
		<g>
			<circle fill="#F5F5F5" cx="50.5" cy="61" r="4"/>
			<circle fill="#242424" cx="50.5" cy="61" r="2"/>
		</g>
		<g>
			<circle fill="#F5F5F5" cx="77.5" cy="61" r="4"/>
			<circle fill="#242424" cx="77.5" cy="61" r="2"/>
		</g>
		<path fill="#7A6631" d="M40.324,31.559C37.676,29.393,33.418,28,29.333,28c-0.735,0-1.148,0.259-1.427,0.891
			c-0.724,1.645,0.007,5.158,2.061,7.396c1.942,2.109,3.787,3.578,5.492,4.386C36.646,37.461,38.372,34.03,40.324,31.559z"/>
		<path fill="#7A6631" d="M87.324,31.559C89.972,29.393,94.23,28,98.315,28c0.734,0,1.147,0.259,1.427,0.891
			c0.723,1.645-0.007,5.158-2.062,7.396c-1.941,2.109-3.786,3.578-5.491,4.386C91.003,37.461,89.276,34.03,87.324,31.559z"/>
		<path fill="#242424" d="M64,87.25c-0.553,0-1-0.447-1-1v-4.813c0-0.554,0.447-1,1-1s1,0.446,1,1v4.813
			C65,86.803,64.553,87.25,64,87.25z"/>
		<path fill="#242424" d="M74.211,91.208c-0.313,0-0.622-0.146-0.816-0.422c-1.5-2.115-5.275-3.536-9.395-3.536
			s-7.894,1.421-9.395,3.536c-0.319,0.451-0.945,0.558-1.395,0.237c-0.451-0.319-0.557-0.943-0.237-1.395
			c1.888-2.661,6.216-4.38,11.025-4.38s9.139,1.719,11.025,4.38c0.318,0.45,0.214,1.074-0.237,1.395
			C74.613,91.148,74.411,91.208,74.211,91.208z"/>
		<path fill="#242424" d="M73.688,71.969c-0.897-1.024-2.422-1.136-3.521-1.136H64h-6.166c-1.1,0-2.623,0.11-3.521,1.136
			c-0.526,0.603-0.547,1.64-0.022,2.242c3.172,3.661,5.176,5.65,5.176,5.65c0.781,0.774,2.104,1.992,2.941,2.707l0.071,0.063
			c0.419,0.357,0.971,0.535,1.521,0.535s1.104-0.178,1.521-0.535l0.071-0.063c0.837-0.715,2.16-1.933,2.941-2.707
			c0,0,2.004-1.989,5.176-5.65C74.234,73.607,74.215,72.57,73.688,71.969z"/>
	</g>
</g>
</svg>
