<?xml version="1.0" encoding="utf-8"?>
<!-- Generator: Adobe Illustrator 15.1.0, SVG Export Plug-In . SVG Version: 6.00 Build 0)  -->
<!DOCTYPE svg PUBLIC "-//W3C//DTD SVG 1.1//EN" "http://www.w3.org/Graphics/SVG/1.1/DTD/svg11.dtd">
<svg version="1.1" id="Layer_1" xmlns="http://www.w3.org/2000/svg" xmlns:xlink="http://www.w3.org/1999/xlink" x="0px" y="0px"
	 width="128px" height="128px" viewBox="0 0 128 128" enable-background="new 0 0 128 128" xml:space="preserve">
<g>
	<circle fill="#C2D5D8" cx="64" cy="64" r="64"/>
	<path fill="#B7C9CC" d="M119.07,96.601c-0.055-0.146-0.108-0.295-0.18-0.445c-0.07-0.202-0.15-0.406-0.248-0.614
		c-0.07-0.203-0.151-0.408-0.25-0.618c-0.068-0.199-0.149-0.402-0.246-0.609c-0.07-0.204-0.152-0.411-0.254-0.624
		c-0.067-0.197-0.147-0.398-0.244-0.604c-0.068-0.202-0.149-0.406-0.248-0.614c-0.069-0.203-0.15-0.408-0.25-0.618
		c-0.067-0.199-0.148-0.401-0.246-0.608c-0.068-0.202-0.149-0.406-0.248-0.614c-0.068-0.202-0.149-0.406-0.248-0.614
		c-0.069-0.203-0.15-0.408-0.249-0.617c-0.067-0.2-0.149-0.403-0.247-0.609c-0.068-0.202-0.148-0.406-0.248-0.614
		c-0.068-0.202-0.148-0.406-0.248-0.614c-0.068-0.203-0.15-0.407-0.249-0.618c-0.067-0.198-0.149-0.401-0.247-0.608
		c-0.068-0.202-0.148-0.406-0.248-0.614c-0.068-0.202-0.148-0.406-0.248-0.614c-0.068-0.202-0.148-0.405-0.248-0.614
		c-0.068-0.202-0.149-0.407-0.248-0.617c-0.068-0.199-0.149-0.402-0.248-0.609c-0.067-0.202-0.148-0.406-0.248-0.614
		c-0.067-0.202-0.148-0.405-0.248-0.614c-0.068-0.202-0.149-0.407-0.248-0.616c-0.068-0.201-0.149-0.404-0.248-0.61
		c-0.067-0.202-0.148-0.406-0.247-0.614c-0.068-0.202-0.149-0.405-0.248-0.613c-0.069-0.203-0.15-0.408-0.249-0.618
		c-0.07-0.203-0.151-0.409-0.251-0.619c-0.068-0.198-0.148-0.4-0.244-0.604c-0.069-0.202-0.149-0.405-0.248-0.613
		c-0.069-0.202-0.149-0.406-0.248-0.614c-0.069-0.203-0.151-0.408-0.25-0.618c-0.067-0.199-0.149-0.402-0.246-0.609
		c-0.069-0.202-0.149-0.405-0.248-0.613c-0.069-0.202-0.149-0.406-0.247-0.614c-0.07-0.203-0.152-0.408-0.25-0.617
		c-0.068-0.201-0.149-0.404-0.246-0.609c-0.069-0.202-0.15-0.406-0.248-0.614c-0.069-0.202-0.15-0.406-0.248-0.614
		c-0.07-0.203-0.151-0.408-0.25-0.618c-0.068-0.199-0.149-0.401-0.246-0.608c-0.069-0.202-0.15-0.406-0.248-0.614
		c-0.069-0.202-0.15-0.406-0.248-0.614c-0.069-0.202-0.15-0.406-0.248-0.614c-0.07-0.203-0.151-0.407-0.25-0.618
		c-0.068-0.198-0.149-0.401-0.246-0.608c-0.069-0.202-0.15-0.406-0.248-0.614c-0.068-0.202-0.15-0.406-0.248-0.614
		c-0.07-0.203-0.15-0.407-0.25-0.616c-0.068-0.201-0.148-0.404-0.246-0.61c-0.068-0.202-0.15-0.406-0.248-0.614
		c-0.068-0.202-0.15-0.406-0.248-0.614c-0.07-0.206-0.152-0.415-0.254-0.627c-0.068-0.196-0.148-0.396-0.244-0.601
		c-0.068-0.202-0.148-0.406-0.248-0.614c-0.067-0.202-0.148-0.405-0.248-0.614c-0.068-0.202-0.149-0.407-0.248-0.616
		c-0.068-0.201-0.149-0.404-0.248-0.61c-0.067-0.202-0.148-0.406-0.248-0.614c-0.067-0.202-0.148-0.405-0.248-0.613
		c-0.067-0.202-0.148-0.406-0.248-0.614c-0.068-0.203-0.149-0.408-0.248-0.617c-0.068-0.201-0.149-0.404-0.247-0.609
		c-0.068-0.202-0.149-0.406-0.248-0.614c-0.487-1.422-1.634-3.037-4.138-4.431c-1.408-0.78-2.95-1.177-4.59-1.177
		c-0.269,0-0.537,0.015-0.808,0.038c-5.041,0.381-10.235,4.237-16.209,8.678c-0.687,0.51-1.37,1.025-2.075,1.545
		c-0.402-0.23-0.828-0.432-1.27-0.609c-0.107-0.043-0.223-0.075-0.334-0.115c-0.338-0.126-0.68-0.246-1.036-0.346
		c-0.163-0.046-0.333-0.08-0.499-0.121c-0.301-0.073-0.6-0.147-0.909-0.206c-0.276-0.053-0.558-0.094-0.838-0.136
		c-0.188-0.027-0.372-0.061-0.563-0.083c-0.444-0.058-0.89-0.101-1.334-0.136c-0.019-0.002-0.037-0.004-0.056-0.005
		c-1.657-0.129-3.285-0.137-4.68-0.14c-0.017,0-0.03,0-0.046,0c-1.725-1.639-3.357-3.641-4.858-5.783
		c-0.006-0.014-0.012-0.027-0.019-0.041c-0.073-0.213-0.164-0.414-0.25-0.618c-0.072-0.209-0.16-0.407-0.246-0.606
		c-0.072-0.211-0.161-0.411-0.247-0.614c-0.073-0.211-0.162-0.411-0.248-0.614c-0.074-0.212-0.163-0.413-0.249-0.616
		c-0.073-0.21-0.162-0.409-0.247-0.61c-0.073-0.211-0.162-0.411-0.248-0.614c-0.073-0.211-0.162-0.411-0.248-0.614
		c-0.074-0.212-0.163-0.412-0.249-0.615c-0.072-0.211-0.162-0.409-0.247-0.611c-0.073-0.211-0.162-0.411-0.248-0.614
		c-0.073-0.211-0.161-0.411-0.248-0.614c-0.073-0.212-0.163-0.412-0.249-0.615c-0.072-0.21-0.162-0.409-0.246-0.611
		c-0.074-0.211-0.162-0.411-0.248-0.614c-0.074-0.211-0.162-0.411-0.248-0.614c-0.074-0.211-0.162-0.41-0.248-0.613
		c-0.074-0.212-0.164-0.413-0.25-0.616c-0.072-0.21-0.162-0.409-0.246-0.611c-0.073-0.211-0.162-0.411-0.248-0.613
		c-0.073-0.212-0.162-0.411-0.248-0.614c-0.074-0.212-0.163-0.412-0.249-0.616c-0.073-0.21-0.162-0.409-0.247-0.61
		c-0.073-0.212-0.162-0.411-0.248-0.614c-0.073-0.211-0.162-0.411-0.248-0.614c-0.074-0.214-0.165-0.418-0.253-0.624
		c-0.071-0.207-0.16-0.404-0.244-0.604c-0.073-0.211-0.163-0.41-0.248-0.613c-0.073-0.211-0.163-0.411-0.248-0.614
		c-0.073-0.212-0.163-0.412-0.249-0.616c-0.072-0.21-0.162-0.409-0.246-0.61c-0.074-0.212-0.164-0.411-0.248-0.614
		c-0.074-0.211-0.164-0.411-0.248-0.614c-0.074-0.211-0.164-0.411-0.248-0.614c-0.074-0.212-0.164-0.412-0.25-0.615
		c-0.072-0.21-0.162-0.409-0.246-0.611c-0.073-0.211-0.164-0.411-0.248-0.614c-0.381-1.095-0.938-2.082-1.643-2.938
		c-0.042-0.107-0.095-0.199-0.146-0.295c-0.064-0.225-0.147-0.429-0.246-0.611c-0.066-0.226-0.149-0.43-0.248-0.614
		c-0.066-0.226-0.148-0.43-0.248-0.613c-0.066-0.227-0.148-0.431-0.248-0.614c-0.066-0.228-0.148-0.432-0.249-0.616
		c-0.065-0.224-0.147-0.428-0.247-0.611c-0.066-0.226-0.148-0.43-0.248-0.613c-0.209-0.715-0.57-1.268-1.115-1.431
		c-0.211-0.063-0.408-0.088-0.601-0.098c-0.063-0.004-0.122-0.002-0.183-0.001c-0.131,0.003-0.256,0.015-0.377,0.036
		c-0.063,0.011-0.125,0.018-0.185,0.032c-0.149,0.036-0.294,0.082-0.435,0.137c-0.904,0.354-1.608,1.003-2.285,0.804
		c-0.241-0.071-0.436-0.206-0.619-0.365c-0.321-0.276-0.607-0.64-1.032-0.92c-0.003-0.003-0.008-0.005-0.011-0.007
		c-0.116-0.076-0.246-0.145-0.387-0.204c-0.041-0.018-0.082-0.032-0.125-0.048c-0.118-0.044-0.248-0.079-0.389-0.107
		c-0.053-0.011-0.104-0.022-0.16-0.03c-0.196-0.029-0.408-0.048-0.652-0.04c-0.21,0.006-0.385,0.037-0.549,0.078
		c-1.533,0.34-1.485,1.84-2.557,2.233c-0.623,0.23-1.234-0.196-1.949-0.354c-0.017-0.005-0.033-0.009-0.049-0.012
		c-0.402-0.081-0.839-0.065-1.328,0.196c0,0-0.002,0-0.004,0.001h0.002c-0.283,0.151-0.584,0.38-0.906,0.729
		c-0.729,0.789-0.702,1.553-0.28,2.285c0.048,0.207,0.131,0.411,0.248,0.613c0.048,0.207,0.132,0.412,0.248,0.615
		c0.049,0.206,0.132,0.411,0.247,0.612c0.049,0.207,0.132,0.412,0.248,0.614c0.049,0.207,0.132,0.411,0.248,0.613
		c0.029,0.126,0.069,0.25,0.125,0.374c-0.601,1.207-0.972,2.571-1.056,4.059l-4.766,9.531c-0.376,0.753-0.321,1.624,0.085,2.341
		c0.055,0.215,0.137,0.418,0.248,0.613c0.055,0.215,0.137,0.418,0.248,0.615c0.055,0.214,0.137,0.416,0.248,0.612
		c0.055,0.215,0.137,0.418,0.248,0.614c0.055,0.215,0.137,0.418,0.248,0.613c0.055,0.215,0.137,0.418,0.248,0.614
		c0.055,0.215,0.137,0.418,0.248,0.615c0.055,0.214,0.137,0.416,0.248,0.612c0.055,0.215,0.137,0.418,0.248,0.613
		c0.055,0.215,0.137,0.418,0.248,0.614c0.055,0.216,0.137,0.421,0.25,0.618c0.055,0.213,0.137,0.414,0.246,0.609
		c0.055,0.215,0.137,0.418,0.248,0.613c0.055,0.215,0.137,0.418,0.248,0.614c0.055,0.215,0.137,0.418,0.248,0.615
		c0.055,0.214,0.137,0.416,0.248,0.612c0.055,0.215,0.137,0.418,0.248,0.613c0.055,0.215,0.137,0.418,0.248,0.614
		c0.055,0.215,0.137,0.419,0.248,0.614c0.055,0.215,0.137,0.418,0.248,0.613c0.055,0.215,0.137,0.418,0.248,0.613
		c0.055,0.215,0.137,0.418,0.248,0.614c0.055,0.215,0.137,0.418,0.248,0.614c0.055,0.215,0.137,0.419,0.248,0.613
		c0.055,0.216,0.137,0.418,0.248,0.613c0.055,0.215,0.137,0.418,0.248,0.614c0.055,0.215,0.137,0.418,0.248,0.614
		c0.055,0.215,0.137,0.418,0.247,0.615c0.056,0.214,0.138,0.416,0.248,0.611c0.056,0.215,0.138,0.418,0.248,0.614
		c0.056,0.215,0.138,0.418,0.248,0.614c0.056,0.215,0.138,0.419,0.248,0.613c0.056,0.216,0.137,0.418,0.248,0.613
		c0.055,0.215,0.137,0.418,0.248,0.614c0.055,0.215,0.137,0.418,0.248,0.614c0.055,0.216,0.138,0.42,0.25,0.617
		c0.055,0.214,0.137,0.416,0.247,0.61c0.055,0.215,0.137,0.418,0.248,0.613c0.055,0.215,0.137,0.418,0.248,0.614
		c0.055,0.215,0.137,0.418,0.248,0.613c0.055,0.215,0.137,0.418,0.248,0.615c0.055,0.214,0.137,0.416,0.248,0.612
		c0.055,0.215,0.137,0.418,0.248,0.614c0.055,0.215,0.137,0.418,0.248,0.613c0.055,0.215,0.137,0.419,0.247,0.614
		c0.056,0.215,0.138,0.418,0.248,0.613c0.056,0.215,0.138,0.418,0.248,0.614c0.056,0.215,0.138,0.418,0.248,0.613
		c0.056,0.215,0.138,0.418,0.248,0.614c0.056,0.215,0.137,0.419,0.248,0.614c0.055,0.215,0.137,0.418,0.248,0.613
		c0.055,0.215,0.137,0.418,0.248,0.613c0.055,0.215,0.137,0.418,0.247,0.614c0.056,0.215,0.138,0.418,0.248,0.615
		c0.056,0.214,0.138,0.416,0.248,0.612c0.056,0.215,0.138,0.418,0.248,0.613c0.056,0.215,0.138,0.418,0.248,0.614
		c0.056,0.215,0.138,0.419,0.248,0.614c0.055,0.215,0.137,0.418,0.248,0.613c0.055,0.215,0.137,0.418,0.248,0.613
		c0.055,0.217,0.139,0.42,0.25,0.617c0.055,0.214,0.137,0.416,0.247,0.611c0.056,0.215,0.138,0.419,0.248,0.613
		c0.056,0.216,0.138,0.418,0.248,0.613c0.056,0.215,0.138,0.418,0.248,0.614c0.056,0.215,0.138,0.418,0.248,0.614
		c0.056,0.215,0.137,0.418,0.248,0.615c0.055,0.214,0.137,0.416,0.248,0.611c0.055,0.215,0.137,0.418,0.248,0.614
		c0.055,0.215,0.137,0.418,0.247,0.614c0.056,0.215,0.138,0.419,0.248,0.613c0.056,0.216,0.138,0.418,0.248,0.613
		c0.056,0.215,0.138,0.418,0.248,0.614c0.056,0.215,0.138,0.418,0.248,0.614c0.056,0.215,0.138,0.418,0.248,0.613
		c0.055,0.216,0.137,0.42,0.248,0.614c0.055,0.215,0.137,0.418,0.248,0.613c0.055,0.215,0.137,0.418,0.248,0.614
		c0.055,0.215,0.137,0.418,0.248,0.613c0.055,0.216,0.137,0.418,0.248,0.615c0.055,0.214,0.137,0.416,0.248,0.612
		c0.055,0.215,0.137,0.418,0.248,0.614c0.055,0.215,0.137,0.418,0.248,0.613c0.055,0.216,0.137,0.42,0.248,0.614
		c0.055,0.215,0.137,0.418,0.248,0.613c0.055,0.216,0.138,0.42,0.25,0.617c0.055,0.214,0.137,0.416,0.246,0.61
		c0.056,0.215,0.138,0.418,0.248,0.614c0.056,0.215,0.138,0.419,0.248,0.614c0.056,0.215,0.138,0.418,0.248,0.613
		c0.056,0.215,0.138,0.418,0.248,0.613c0.056,0.215,0.138,0.418,0.248,0.614c0.055,0.215,0.137,0.418,0.248,0.615
		c0.055,0.214,0.137,0.416,0.248,0.612c0.055,0.215,0.137,0.418,0.248,0.613c0.055,0.215,0.137,0.418,0.248,0.614
		c0.055,0.215,0.137,0.419,0.248,0.614c0.055,0.215,0.137,0.418,0.248,0.613c0.055,0.215,0.137,0.418,0.248,0.613
		c0.055,0.215,0.137,0.418,0.248,0.614c0.055,0.215,0.137,0.418,0.248,0.615c0.055,0.214,0.137,0.416,0.248,0.612
		c0.055,0.215,0.137,0.418,0.248,0.613c0.055,0.215,0.137,0.418,0.248,0.614c0.055,0.215,0.137,0.418,0.248,0.614
		c0.055,0.215,0.137,0.418,0.248,0.615c0.055,0.214,0.137,0.416,0.248,0.611c0.055,0.215,0.137,0.418,0.248,0.614
		c0.055,0.215,0.137,0.418,0.248,0.614c0.055,0.215,0.137,0.419,0.248,0.614c0.055,0.215,0.137,0.418,0.247,0.612
		c0.056,0.217,0.138,0.42,0.25,0.617c0.054,0.214,0.136,0.416,0.247,0.611c0.055,0.215,0.137,0.418,0.248,0.615
		c0.055,0.214,0.137,0.416,0.248,0.611c0.055,0.215,0.137,0.418,0.248,0.614c0.055,0.215,0.137,0.418,0.248,0.614
		c0.055,0.215,0.137,0.419,0.248,0.613c0.055,0.216,0.137,0.418,0.248,0.613c0.055,0.215,0.137,0.418,0.248,0.614
		c0.055,0.215,0.137,0.418,0.248,0.614c0.055,0.215,0.137,0.418,0.248,0.613c0.055,0.216,0.137,0.42,0.248,0.614
		c0.055,0.215,0.137,0.418,0.248,0.613c0.055,0.215,0.137,0.418,0.248,0.614c0.055,0.215,0.137,0.418,0.248,0.613
		c0.055,0.216,0.137,0.418,0.248,0.615c0.055,0.214,0.137,0.416,0.247,0.612c0.056,0.215,0.138,0.418,0.248,0.614
		c0.056,0.215,0.138,0.418,0.248,0.613c0.056,0.216,0.138,0.42,0.248,0.614c0.056,0.215,0.138,0.418,0.248,0.613
		c0.056,0.215,0.137,0.418,0.248,0.614c0.055,0.215,0.137,0.418,0.248,0.613c0.022,0.09,0.069,0.171,0.103,0.256
		c1.781,0.147,3.577,0.242,5.396,0.242C87.438,128,107.921,115.395,119.07,96.601z"/>
	<path fill="#FFD464" d="M27.41,46.5c-0.746,0-1.469-0.337-1.95-0.938c-0.61-0.761-0.724-1.808-0.286-2.682l5-10
		c0.621-1.234,2.119-1.738,3.355-1.118c1.234,0.617,1.734,2.119,1.117,3.354l2.158,3.955c1.338-0.343,2.694,0.482,3.029,1.82
		c0.337,1.338-0.479,2.695-1.818,3.032l-10,2.5C27.816,46.476,27.613,46.5,27.41,46.5z"/>
	<path fill="#FFE399" d="M27.636,43.428c-0.149,0-0.303-0.034-0.446-0.104c-0.494-0.247-0.693-0.849-0.446-1.343l1.632-3.263
		c0.248-0.495,0.85-0.691,1.342-0.446c0.494,0.246,0.694,0.848,0.447,1.342l-1.632,3.263C28.355,43.226,28.003,43.428,27.636,43.428
		z"/>
	<path fill="#F2C95F" d="M39.835,40.895c-0.335-1.338-1.692-2.162-3.03-1.82l-2.158-3.955c0.619-1.235,0.117-2.737-1.117-3.354
		c-1.104-0.553-2.409-0.208-3.12,0.749c0.544,0.733,0.675,1.733,0.237,2.605l2.158,3.955c1.338-0.342,2.695,0.482,3.03,1.82
		c0.337,1.339-0.479,2.695-1.819,3.032l-8.148,2.037c0.439,0.347,0.984,0.536,1.544,0.536c0.203,0,0.405-0.024,0.604-0.073l10-2.5
		C39.355,43.59,40.172,42.232,39.835,40.895z"/>
	<path fill="#FFD464" d="M67.41,99V89c0-1.382-1.117-2.5-2.5-2.5c-1.381,0-2.5,1.118-2.5,2.5v10c-1.381,0-2.5,1.118-2.5,2.5
		s1.119,2.5,2.5,2.5h5c1.383,0,2.5-1.118,2.5-2.5S68.793,99,67.41,99z"/>
	<path fill="#FFD599" d="M63.428,59c4.229,0.01,8.453,0.137,11.518,1.896c0.705-0.521,1.391-1.035,2.076-1.546
		c6.291-4.678,11.722-8.716,17.017-8.716c1.64,0,3.181,0.396,4.59,1.178c4.774,2.655,4.632,6.128,4.349,7.5
		c-0.549,2.671-2.929,4.955-6.217,6.216c0.54,1.104,0.813,2.378,0.406,3.753c-0.757,2.553-3.434,4.287-8.614,5.539
		c0.013,0.21,0.019,0.418,0.019,0.625c0,8.853-10.613,16.055-23.658,16.055c-10.982,0-19.533-4.271-22.111-10.962L63.428,59z"/>
	<path fill="#F2CA91" d="M73.855,61.751c0.377-0.277,0.722-0.579,1.09-0.854c-3.299-1.896-8.1-1.889-11.519-1.896l-0.046,0.048
		C66.57,59.161,71.509,60.403,73.855,61.751z"/>
	<path fill="#F2CA91" d="M98.627,51.813c-1.409-0.78-2.951-1.177-4.59-1.177c-0.512,0-1.025,0.049-1.541,0.121
		c1.1,0.166,2.148,0.511,3.131,1.056c4.775,2.656,4.632,6.129,4.35,7.5c-0.549,2.672-2.93,4.957-6.218,6.217
		c0.54,1.104,0.813,2.378,0.406,3.753c-0.757,2.553-3.435,4.287-8.614,5.539c0.012,0.21,0.018,0.418,0.018,0.625
		c0,8.508-9.803,15.485-22.146,16.019c0.493,0.018,0.984,0.036,1.487,0.036c13.045,0,23.658-7.202,23.658-16.055
		c0-0.207-0.006-0.415-0.019-0.625c5.181-1.252,7.857-2.986,8.614-5.539c0.404-1.375,0.134-2.649-0.406-3.753
		c3.288-1.261,5.668-3.545,6.217-6.217C103.259,57.939,103.402,54.469,98.627,51.813z"/>
	<path fill="#C23527" d="M33.125,29.021c-2-1.582-5.083-3.438-3.215-5.459c1.916-2.071,3.048-0.125,4.234-0.563
		c1.188-0.438,0.979-2.25,3.104-2.313c2.125-0.063,2.313,1.409,3.375,1.723c1.062,0.313,2.188-1.473,4.063-0.91s1.688,5.625,0,6.625
		C42.999,29.125,33.125,29.021,33.125,29.021z"/>
	<g>
		<path fill="#B33124" d="M38.625,22.41c0.434,0.127,0.881-0.096,1.381-0.365c-0.626-0.541-1.113-1.406-2.756-1.357
			c-0.343,0.011-0.609,0.077-0.848,0.166C37.491,21.232,37.8,22.168,38.625,22.41z"/>
		<path fill="#B33124" d="M44.688,21.5c-0.681-0.204-1.261-0.096-1.775,0.105c1.628,0.893,1.393,5.563-0.225,6.52
			c-1.205,0.715-6.588,0.865-9.565,0.893c0.002,0.001,0.003,0.002,0.004,0.004c0,0,9.875,0.104,11.563-0.896
			C46.377,27.125,46.563,22.063,44.688,21.5z"/>
		<path fill="#B33124" d="M32.146,23c0.162-0.061,0.297-0.15,0.416-0.254c-0.516-0.17-1.08-0.271-1.746,0.087
			C31.279,22.999,31.709,23.161,32.146,23z"/>
	</g>
	<path fill="#F2CA91" d="M59.91,81.5c-1.381,0-2.5-1.118-2.5-2.5s1.119-2.5,2.5-2.5c13.841,0,15-3.872,15-7.5
		c0-1.382,1.119-2.5,2.5-2.5c1.383,0,2.5,1.118,2.5,2.5C79.91,81.5,65.895,81.5,59.91,81.5z"/>
	<path fill="#CC803D" d="M63.383,59c-6.751-6.414-12.137-18.354-13.473-22.852V34c0-5.796-4.206-10-10-10c-5.793,0-10,4.204-10,10
		c0,4.199,2.093,7.689,5.537,9.385c0.049,0.117,0.101,0.234,0.154,0.361c0.848,1.973,2.268,5.277,1.813,12.598l-0.226,3.364
		c-0.666,9.668-1.076,15.615,5.607,20.83c0.027,0.071,0.076,0.132,0.105,0.2c2.377-0.879,4.346-2.459,5.58-4.458
		c4.391-0.82,7.832-3.911,8.707-7.832c4.467-1.318,7.711-5.022,7.719-9.438C64.402,59.005,63.893,59.002,63.383,59z"/>
	<path fill="#BF7839" d="M63.383,59c-6.751-6.414-12.137-18.354-13.473-22.852V34c0-5.796-4.206-10-10-10
		c-0.516,0-1.012,0.045-1.5,0.109c5.003,0.662,8.5,4.608,8.5,9.891v2.148c1.336,4.496,9.121,19.569,15,22.862
		c-0.008,4.414-3.252,8.118-7.719,9.438c-0.875,3.921-4.316,7.012-8.707,7.832c-0.869,1.407-2.108,2.601-3.592,3.494
		c0.291,0.256,0.582,0.512,0.905,0.764c0.027,0.071,0.076,0.132,0.104,0.2c2.378-0.879,4.347-2.459,5.58-4.458
		c4.392-0.82,7.832-3.911,8.707-7.832c4.468-1.318,7.713-5.022,7.72-9.438C64.402,59.005,63.893,59.002,63.383,59z"/>
	<circle fill="#F5F5F5" cx="39.25" cy="33.498" r="4"/>
	<circle fill="#242424" cx="39.25" cy="33.498" r="2"/>
</g>
</svg>
