<?xml version="1.0" encoding="utf-8"?>
<!-- Generator: Adobe Illustrator 15.1.0, SVG Export Plug-In . SVG Version: 6.00 Build 0)  -->
<!DOCTYPE svg PUBLIC "-//W3C//DTD SVG 1.1//EN" "http://www.w3.org/Graphics/SVG/1.1/DTD/svg11.dtd">
<svg version="1.1" id="Layer_1" xmlns="http://www.w3.org/2000/svg" xmlns:xlink="http://www.w3.org/1999/xlink" x="0px" y="0px"
	 width="128px" height="128px" viewBox="0 0 128 128" enable-background="new 0 0 128 128" xml:space="preserve">
<g>
	<circle fill="#F2CF61" cx="64" cy="64" r="64"/>
	<path fill="#E6C45C" d="M123.864,86.646c-0.068-0.187-0.141-0.369-0.223-0.549c-0.073-0.211-0.156-0.416-0.249-0.616
		c-0.073-0.208-0.155-0.412-0.246-0.61c-0.074-0.21-0.156-0.414-0.248-0.614c-0.074-0.21-0.156-0.414-0.248-0.614
		c-0.074-0.211-0.157-0.416-0.249-0.616c-0.074-0.208-0.156-0.412-0.247-0.61c-0.074-0.21-0.156-0.414-0.248-0.614
		c-0.074-0.21-0.156-0.414-0.248-0.614c-0.074-0.21-0.156-0.413-0.248-0.613c-0.074-0.211-0.157-0.416-0.249-0.617
		c-0.074-0.208-0.156-0.412-0.247-0.61c-0.074-0.21-0.156-0.414-0.248-0.613c-0.074-0.21-0.156-0.414-0.248-0.614
		c-0.074-0.211-0.157-0.416-0.249-0.617c-0.074-0.208-0.156-0.412-0.247-0.61c-0.074-0.21-0.156-0.414-0.248-0.613
		c-0.074-0.21-0.156-0.414-0.248-0.614c-0.074-0.211-0.156-0.416-0.249-0.617c-0.073-0.208-0.155-0.412-0.247-0.61
		c-0.074-0.213-0.158-0.42-0.252-0.622c-0.072-0.206-0.153-0.408-0.245-0.605c-0.072-0.21-0.155-0.414-0.248-0.614
		c-0.073-0.211-0.156-0.416-0.249-0.617c-0.073-0.208-0.155-0.411-0.246-0.609c-0.073-0.21-0.156-0.414-0.248-0.614
		c-0.073-0.21-0.156-0.414-0.248-0.614c-0.074-0.211-0.157-0.416-0.249-0.616c-0.074-0.209-0.156-0.412-0.247-0.61
		c-0.073-0.21-0.156-0.414-0.248-0.614c-0.073-0.21-0.156-0.414-0.248-0.614c-0.074-0.211-0.157-0.416-0.249-0.616
		c-0.074-0.208-0.156-0.412-0.247-0.61c-0.073-0.21-0.156-0.414-0.248-0.614c-0.073-0.21-0.156-0.414-0.248-0.614
		c-0.073-0.21-0.156-0.413-0.248-0.613c-0.074-0.211-0.157-0.416-0.249-0.617c-0.074-0.208-0.156-0.412-0.247-0.61
		c-0.073-0.21-0.156-0.414-0.248-0.613c-0.073-0.211-0.156-0.414-0.248-0.614c-0.074-0.211-0.156-0.416-0.249-0.617
		c-0.073-0.208-0.155-0.412-0.247-0.61c-0.072-0.21-0.155-0.414-0.248-0.613c-0.072-0.211-0.155-0.414-0.248-0.614
		c-0.073-0.211-0.156-0.416-0.249-0.617c-0.074-0.211-0.157-0.418-0.251-0.618c-0.072-0.207-0.153-0.409-0.244-0.605
		c-0.074-0.21-0.156-0.414-0.248-0.614c-0.074-0.21-0.156-0.414-0.248-0.614c-0.074-0.211-0.157-0.416-0.249-0.617
		c-0.074-0.208-0.156-0.412-0.247-0.609c-0.074-0.21-0.156-0.414-0.248-0.614c-0.074-0.21-0.156-0.414-0.248-0.614
		c-0.074-0.211-0.157-0.416-0.249-0.617c-0.074-0.208-0.156-0.412-0.247-0.609c-0.074-0.21-0.156-0.414-0.248-0.614
		c-0.074-0.21-0.156-0.414-0.248-0.614c-0.074-0.211-0.157-0.416-0.249-0.617c-0.074-0.208-0.156-0.411-0.247-0.609
		c-0.074-0.21-0.156-0.414-0.248-0.614c-0.074-0.21-0.156-0.414-0.248-0.614c-0.074-0.21-0.156-0.414-0.248-0.613
		c-0.073-0.211-0.156-0.416-0.249-0.617c-0.073-0.208-0.155-0.412-0.247-0.61c-0.073-0.21-0.155-0.414-0.248-0.614
		c-0.073-0.21-0.155-0.414-0.248-0.613c-0.073-0.211-0.156-0.416-0.248-0.617c-0.074-0.208-0.156-0.412-0.247-0.61
		c-0.074-0.21-0.156-0.414-0.248-0.614c-0.074-0.21-0.156-0.414-0.248-0.613c-0.075-0.214-0.159-0.422-0.253-0.626
		c-0.073-0.205-0.154-0.405-0.244-0.603c-0.073-0.21-0.156-0.414-0.248-0.613c-0.073-0.211-0.156-0.414-0.248-0.614
		c-0.074-0.211-0.157-0.416-0.249-0.617c-0.074-0.208-0.156-0.412-0.247-0.61c-0.073-0.21-0.156-0.414-0.248-0.613
		c-0.073-0.211-0.156-0.414-0.248-0.614c-0.073-0.21-0.156-0.414-0.248-0.614c-0.074-0.211-0.157-0.416-0.249-0.617
		c-0.074-0.208-0.156-0.412-0.247-0.609c-0.073-0.21-0.156-0.414-0.248-0.614c-1.022-2.896-3.712-4.861-7.048-4.861
		c-0.628,0-1.232,0.037-1.829,0.091c-0.002,0-0.004,0-0.006,0c-6.341,0.569-10.862,4.031-13.525,7.854
		c-0.27-0.25-0.549-0.49-0.839-0.722C75.334,34.677,68.839,34,64,34c-5.916,0-12.905,1.494-17.139,5.444
		c-0.217-0.312-0.449-0.617-0.689-0.923c-0.028-0.035-0.059-0.069-0.087-0.104c-0.178-0.222-0.36-0.441-0.551-0.658
		c-0.146-0.168-0.296-0.33-0.446-0.491c-0.049-0.052-0.097-0.104-0.146-0.155c-3.182-3.346-7.234-5.244-12.005-5.561
		c-0.039-0.002-0.078-0.007-0.118-0.01c-0.436-0.025-0.873-0.042-1.318-0.042c-0.396,0-0.78,0.036-1.157,0.09
		c-0.002,0.001-0.005,0.001-0.007,0.001c0.001,0,0.001,0,0.001,0c-3.682,0.528-6.337,3.53-6.337,7.409v17.388
		c0,1.282,0.26,2.448,0.724,3.468c0.074,0.212,0.157,0.415,0.248,0.614c0.074,0.212,0.158,0.417,0.249,0.617
		c0.074,0.209,0.157,0.412,0.247,0.61c0.074,0.211,0.157,0.415,0.248,0.613c0.074,0.211,0.157,0.415,0.248,0.614
		c0.074,0.211,0.157,0.415,0.248,0.614c0.074,0.212,0.158,0.417,0.249,0.617c0.074,0.209,0.157,0.412,0.247,0.609
		c0.074,0.211,0.157,0.415,0.248,0.614c0.074,0.211,0.157,0.415,0.248,0.614c0.075,0.215,0.16,0.423,0.253,0.626
		c0.073,0.206,0.155,0.406,0.244,0.602c0.074,0.211,0.157,0.415,0.248,0.614c0.073,0.211,0.157,0.415,0.248,0.614
		c0.073,0.212,0.157,0.417,0.249,0.617c0.073,0.209,0.156,0.411,0.247,0.609c0.073,0.211,0.156,0.415,0.248,0.614
		c0.073,0.211,0.156,0.415,0.247,0.614c0.074,0.212,0.158,0.417,0.25,0.617c0.073,0.209,0.156,0.411,0.246,0.609
		c0.074,0.211,0.157,0.415,0.248,0.614c0.074,0.211,0.157,0.415,0.248,0.614c0.074,0.211,0.157,0.415,0.248,0.613
		c0.074,0.212,0.158,0.417,0.249,0.617c0.074,0.209,0.157,0.412,0.247,0.61c0.074,0.211,0.157,0.415,0.248,0.614
		c0.074,0.211,0.157,0.415,0.248,0.613c0.074,0.212,0.158,0.417,0.249,0.617c0.074,0.209,0.157,0.412,0.247,0.61
		c0.074,0.211,0.157,0.415,0.248,0.614c0.074,0.211,0.157,0.415,0.248,0.613c0.074,0.212,0.158,0.417,0.249,0.617
		c0.074,0.209,0.157,0.412,0.247,0.61c0.074,0.211,0.157,0.415,0.248,0.613c0.074,0.212,0.156,0.415,0.248,0.614
		c0.074,0.214,0.158,0.421,0.252,0.623c0.072,0.209,0.156,0.411,0.246,0.608c0.073,0.209,0.156,0.412,0.247,0.609
		c0.073,0.211,0.156,0.415,0.247,0.614c0.074,0.211,0.157,0.415,0.248,0.614c0.074,0.212,0.158,0.417,0.249,0.617
		c0.074,0.209,0.157,0.412,0.247,0.609c0.074,0.211,0.157,0.415,0.248,0.614c0.074,0.211,0.157,0.415,0.248,0.614
		c0.074,0.212,0.158,0.417,0.249,0.617c0.074,0.209,0.157,0.412,0.247,0.609c0.074,0.211,0.157,0.415,0.248,0.614
		c0.074,0.211,0.157,0.415,0.248,0.614c0.074,0.211,0.157,0.415,0.248,0.613c0.074,0.213,0.158,0.418,0.249,0.617
		c0.074,0.209,0.157,0.412,0.247,0.61c0.074,0.211,0.157,0.415,0.248,0.614c0.074,0.211,0.157,0.415,0.248,0.613
		c0.074,0.213,0.158,0.417,0.249,0.617c0.074,0.209,0.157,0.412,0.247,0.61c0.074,0.211,0.156,0.415,0.248,0.614
		c0.073,0.211,0.156,0.415,0.248,0.613c0.073,0.212,0.157,0.417,0.249,0.617c0.073,0.209,0.156,0.412,0.247,0.61
		c0.073,0.211,0.156,0.415,0.248,0.614c0.074,0.214,0.158,0.421,0.252,0.623c0.072,0.207,0.154,0.408,0.244,0.604
		c0.074,0.212,0.158,0.417,0.249,0.617c0.074,0.209,0.157,0.412,0.247,0.609c0.074,0.212,0.157,0.415,0.248,0.614
		c0.074,0.211,0.157,0.415,0.248,0.614c0.074,0.212,0.158,0.417,0.249,0.617c0.074,0.209,0.157,0.412,0.247,0.609
		c0.074,0.211,0.157,0.415,0.248,0.614c0.074,0.211,0.157,0.415,0.248,0.614c0.074,0.212,0.158,0.417,0.249,0.617
		c0.074,0.209,0.157,0.412,0.247,0.609c0.074,0.211,0.157,0.415,0.248,0.614c0.074,0.211,0.157,0.415,0.248,0.614
		c0.074,0.211,0.157,0.415,0.248,0.614c0.074,0.212,0.158,0.417,0.249,0.616c0.074,0.209,0.157,0.412,0.247,0.61
		c0.074,0.211,0.156,0.415,0.248,0.614c0.073,0.211,0.156,0.415,0.248,0.614c0.073,0.212,0.157,0.416,0.249,0.616
		c0.073,0.209,0.156,0.412,0.247,0.61c0.073,0.211,0.156,0.415,0.248,0.614c0.073,0.211,0.156,0.415,0.247,0.613
		c0.074,0.212,0.158,0.417,0.249,0.617c0.074,0.209,0.157,0.412,0.247,0.61c0.075,0.214,0.159,0.421,0.252,0.623
		c0.073,0.208,0.155,0.409,0.245,0.604c0.074,0.211,0.157,0.415,0.248,0.614c0.074,0.212,0.158,0.417,0.249,0.617
		c0.074,0.209,0.157,0.412,0.247,0.609c0.074,0.212,0.157,0.415,0.248,0.614c0.074,0.211,0.157,0.415,0.248,0.614
		c0.074,0.212,0.158,0.417,0.249,0.617c0.074,0.209,0.157,0.412,0.247,0.609c0.074,0.211,0.157,0.415,0.248,0.614
		c0.074,0.211,0.157,0.415,0.248,0.614c0.074,0.212,0.158,0.417,0.249,0.617c0.074,0.209,0.157,0.412,0.247,0.609
		c0.074,0.211,0.157,0.415,0.248,0.614c0.074,0.211,0.156,0.415,0.248,0.614c0.073,0.212,0.158,0.417,0.249,0.617
		c0.073,0.209,0.156,0.412,0.247,0.609c0.073,0.211,0.156,0.415,0.248,0.614c0.073,0.211,0.156,0.415,0.248,0.614
		c0.073,0.211,0.156,0.415,0.247,0.614c0.074,0.212,0.158,0.417,0.249,0.616c0.074,0.209,0.157,0.412,0.247,0.61
		c0.074,0.211,0.157,0.415,0.248,0.614c0.074,0.211,0.157,0.415,0.248,0.613c0.004,0.013,0.011,0.023,0.016,0.035
		c3.957,0.767,8.04,1.181,12.221,1.181C91.37,128,114.717,110.813,123.864,86.646z"/>
	<path fill="#333333" d="M80.126,40.833c0.347-0.497,0.604-0.908,1.013-1.389C76.084,34.75,69.115,34,64,34
		c-0.492,0-0.995,0.015-1.5,0.036C68.063,34.27,76.245,37.212,80.126,40.833z"/>
	<path fill="#333333" d="M45.25,41c0.573-0.534,0.947-1.108,1.611-1.556C43.188,34.25,37.945,31.5,31.5,31.5
		c-0.398,0-0.785,0.037-1.164,0.091C36.677,32.161,42.586,37.178,45.25,41z"/>
	<path fill="#333333" d="M96.5,31.5c-0.631,0-1.238,0.037-1.836,0.091C98.346,32.119,101,35.122,101,39v17.388
		C101,60.87,97.916,64,93.5,64h3c4.416,0,7.5-3.13,7.5-7.612V39C104,34.723,100.775,31.5,96.5,31.5z"/>
	<path fill="#404040" d="M96.5,31.5c-7.314,0-12.446,3.762-15.361,7.944C76.905,35.494,69.916,34,64,34s-12.905,1.494-17.139,5.444
		C43.946,35.261,38.814,31.5,31.5,31.5c-4.275,0-7.5,3.223-7.5,7.5v17.388C24,60.87,27.084,64,31.5,64h3.096
		C34,65.865,34,67.633,34,69c0,15.346,7.141,24.327,21.251,26.797v-1.63c0-4.741,4.008-8.749,8.749-8.749s8.749,4.008,8.749,8.749
		v1.63C86.859,93.327,94,84.346,94,69c0-1.367,0-3.135-0.596-5H96.5c4.416,0,7.5-3.13,7.5-7.612V39
		C104,34.723,100.775,31.5,96.5,31.5z"/>
	<path fill="#B3B3B3" d="M64,96.5c3.166,0,6.081-0.236,8.749-0.703v-9.63c0-4.741-4.008-8.749-8.749-8.749s-8.749,4.008-8.749,8.749
		v9.63C57.919,96.264,60.834,96.5,64,96.5z"/>
	<g>
		<path fill="#333333" d="M72.895,95.77C86.908,93.264,94,84.292,94,69c0-1.367,0-3.135-0.596-5h-3C91,65.865,91,67.633,91,69
			c0,14.209-6.142,22.944-18.251,26.122v0.675L72.895,95.77z"/>
	</g>
	<ellipse fill="#1A1A1A" cx="64" cy="87" rx="6" ry="1.167"/>
	<path fill="#1A1A1A" d="M64,86.5c-4.136,0-7.5-3.254-7.5-7.254V69c0-4.064,3.436-7.5,7.5-7.5s7.5,3.436,7.5,7.5v10.246
		C71.5,83.246,68.136,86.5,64,86.5z"/>
	<path fill="#0D0D0D" d="M64,61.5c-0.512,0-1.014,0.055-1.5,0.158c3.375,0.718,6,3.789,6,7.342v10.246c0,3.503-2.581,6.434-6,7.106
		c0.484,0.097,0.986,0.146,1.5,0.146c4.136,0,7.5-3.254,7.5-7.254V69C71.5,64.936,68.064,61.5,64,61.5z"/>
	<path fill="#F5F5F5" d="M51.5,64c-4.136,0-7.5-3.364-7.5-7.5s3.364-7.5,7.5-7.5s7.5,3.364,7.5,7.5S55.636,64,51.5,64z"/>
	<path fill="#242424" d="M51.5,54c-1.379,0-2.5,1.123-2.5,2.5s1.121,2.5,2.5,2.5s2.5-1.123,2.5-2.5S52.879,54,51.5,54z"/>
	<path fill="#F5F5F5" d="M76.5,64c-4.136,0-7.5-3.364-7.5-7.5s3.364-7.5,7.5-7.5s7.5,3.364,7.5,7.5S80.636,64,76.5,64z"/>
	<path fill="#242424" d="M76.5,54c-1.379,0-2.5,1.123-2.5,2.5s1.121,2.5,2.5,2.5s2.5-1.123,2.5-2.5S77.879,54,76.5,54z"/>
	<path fill="#B3B3B3" d="M44.213,42.64l-0.633-0.907c-1.622-2.327-5.349-6.231-12.08-6.231c-2.061,0-3.5,1.439-3.5,3.5v17.388
		c0,2.263,1.309,3.612,3.5,3.612h3.896C37.288,53.976,40.892,47.155,44.213,42.64z"/>
	<path fill="#B3B3B3" d="M83.787,42.64l0.633-0.907c1.622-2.327,5.349-6.231,12.08-6.231c2.061,0,3.5,1.439,3.5,3.5v17.388
		c0,2.263-1.309,3.612-3.5,3.612h-3.896C90.712,53.976,87.108,47.155,83.787,42.64z"/>
</g>
</svg>
