<?xml version="1.0" encoding="utf-8"?>
<!-- Generator: Adobe Illustrator 15.1.0, SVG Export Plug-In . SVG Version: 6.00 Build 0)  -->
<!DOCTYPE svg PUBLIC "-//W3C//DTD SVG 1.1//EN" "http://www.w3.org/Graphics/SVG/1.1/DTD/svg11.dtd">
<svg version="1.1" id="Layer_1" xmlns="http://www.w3.org/2000/svg" xmlns:xlink="http://www.w3.org/1999/xlink" x="0px" y="0px"
	 width="128px" height="128px" viewBox="0 0 128 128" enable-background="new 0 0 128 128" xml:space="preserve">
<g>
	<circle fill="#88C5CC" cx="64" cy="63.972" r="64"/>
	<path fill="#80B9BF" d="M124.082,86.063c-0.004-0.016-0.007-0.029-0.013-0.045c-0.048-0.122-0.112-0.243-0.163-0.365
		c-0.018-0.049-0.024-0.099-0.044-0.146c-0.048-0.122-0.112-0.244-0.164-0.366c-0.017-0.049-0.024-0.098-0.043-0.146
		c-0.048-0.122-0.112-0.243-0.163-0.364c-0.018-0.05-0.024-0.101-0.044-0.148c-0.048-0.123-0.112-0.243-0.164-0.365
		c-0.017-0.05-0.024-0.099-0.043-0.146c-0.048-0.122-0.112-0.243-0.163-0.365c-0.018-0.049-0.024-0.099-0.044-0.146
		c-0.048-0.122-0.112-0.244-0.164-0.366c-0.017-0.049-0.024-0.098-0.043-0.146c-0.048-0.122-0.112-0.243-0.163-0.364
		c-0.018-0.05-0.024-0.1-0.044-0.148c-0.048-0.121-0.112-0.242-0.163-0.364c-0.018-0.05-0.024-0.1-0.044-0.147
		c-0.048-0.122-0.112-0.244-0.164-0.366c-0.017-0.049-0.024-0.098-0.043-0.146c-0.048-0.122-0.112-0.243-0.163-0.364
		c-0.018-0.05-0.024-0.1-0.044-0.147c-0.048-0.123-0.112-0.244-0.164-0.366c-0.017-0.049-0.024-0.099-0.043-0.146
		c-0.048-0.122-0.112-0.243-0.163-0.364c-0.018-0.049-0.024-0.1-0.044-0.147c-0.048-0.122-0.112-0.244-0.164-0.366
		c-0.017-0.049-0.024-0.098-0.043-0.146c-0.048-0.122-0.112-0.243-0.163-0.364c-0.018-0.05-0.024-0.1-0.044-0.147
		c-0.048-0.123-0.112-0.244-0.164-0.366c-0.017-0.049-0.024-0.098-0.043-0.146c-0.048-0.119-0.11-0.237-0.16-0.357
		c-0.018-0.053-0.026-0.104-0.046-0.154c-0.048-0.122-0.112-0.243-0.163-0.364c-0.018-0.05-0.024-0.1-0.044-0.147
		c-0.048-0.123-0.112-0.244-0.164-0.366c-0.017-0.049-0.024-0.098-0.043-0.146c-0.048-0.122-0.112-0.243-0.163-0.365
		c-0.018-0.049-0.024-0.1-0.044-0.147c-0.048-0.122-0.112-0.244-0.164-0.366c-0.017-0.049-0.024-0.098-0.043-0.146
		c-0.048-0.122-0.112-0.243-0.163-0.364c-0.018-0.05-0.024-0.1-0.044-0.147c-0.048-0.123-0.112-0.244-0.164-0.366
		c-0.017-0.049-0.024-0.098-0.043-0.146c-0.048-0.121-0.112-0.242-0.163-0.364c-0.018-0.049-0.024-0.1-0.044-0.147
		c-0.048-0.122-0.112-0.244-0.164-0.365c-0.017-0.05-0.024-0.099-0.043-0.146c-0.048-0.122-0.112-0.243-0.163-0.364
		c-0.018-0.05-0.024-0.1-0.044-0.147c-0.048-0.123-0.112-0.244-0.164-0.366c-0.017-0.049-0.024-0.098-0.043-0.146
		c-0.048-0.122-0.112-0.243-0.163-0.365c-0.018-0.049-0.024-0.1-0.044-0.147c-0.048-0.122-0.112-0.243-0.163-0.364
		c-0.018-0.05-0.024-0.1-0.044-0.147c-0.048-0.123-0.112-0.244-0.164-0.366c-0.017-0.049-0.024-0.098-0.043-0.146
		c-0.048-0.122-0.112-0.243-0.163-0.365c-0.018-0.049-0.024-0.099-0.044-0.147c-0.047-0.119-0.111-0.239-0.161-0.359
		c-0.018-0.05-0.025-0.103-0.045-0.151c-0.048-0.122-0.112-0.243-0.163-0.364c-0.018-0.05-0.024-0.1-0.044-0.147
		c-0.048-0.123-0.112-0.244-0.164-0.366c-0.017-0.049-0.024-0.098-0.043-0.146c-0.048-0.122-0.112-0.243-0.163-0.365
		c-0.018-0.049-0.024-0.099-0.044-0.147c-0.048-0.121-0.112-0.243-0.164-0.365c-0.017-0.049-0.024-0.099-0.043-0.146
		c-0.048-0.122-0.112-0.243-0.163-0.363c-0.018-0.051-0.024-0.101-0.044-0.148c-0.048-0.122-0.112-0.243-0.163-0.365
		c-0.018-0.049-0.024-0.099-0.044-0.146c-0.048-0.122-0.112-0.244-0.164-0.366c-0.017-0.049-0.024-0.098-0.043-0.146
		c-0.048-0.122-0.112-0.243-0.163-0.364c-0.018-0.05-0.024-0.101-0.044-0.148c-0.048-0.123-0.112-0.244-0.164-0.366
		c-0.017-0.049-0.024-0.098-0.043-0.146c-0.048-0.122-0.112-0.243-0.163-0.365c-0.018-0.049-0.024-0.099-0.044-0.146
		c-0.048-0.122-0.112-0.244-0.164-0.366c-0.017-0.049-0.024-0.098-0.043-0.146c-0.048-0.121-0.112-0.242-0.163-0.363
		c-0.018-0.051-0.024-0.101-0.044-0.148c-0.048-0.123-0.112-0.244-0.164-0.365c-0.017-0.05-0.024-0.099-0.043-0.146
		c-0.048-0.122-0.112-0.243-0.163-0.365c-0.018-0.049-0.024-0.099-0.044-0.146c-0.047-0.12-0.11-0.238-0.16-0.358
		c-0.017-0.051-0.026-0.104-0.046-0.154c-0.048-0.123-0.112-0.243-0.164-0.365c-0.016-0.05-0.024-0.099-0.043-0.146
		c-0.048-0.122-0.112-0.243-0.163-0.365c-0.018-0.049-0.024-0.099-0.044-0.146c-0.048-0.122-0.112-0.244-0.164-0.366
		c-0.016-0.049-0.024-0.098-0.043-0.146c-0.048-0.122-0.112-0.243-0.163-0.364c-0.018-0.05-0.024-0.1-0.044-0.148
		c-0.048-0.123-0.112-0.244-0.164-0.365c-0.016-0.049-0.024-0.099-0.043-0.146c-0.048-0.122-0.112-0.243-0.163-0.365
		c-0.018-0.049-0.024-0.099-0.044-0.146c-0.048-0.122-0.112-0.244-0.164-0.366c-0.016-0.049-0.024-0.098-0.043-0.146
		c-0.048-0.122-0.112-0.243-0.163-0.364c-0.018-0.05-0.024-0.101-0.044-0.148c-0.048-0.122-0.112-0.243-0.163-0.364
		c-0.018-0.049-0.024-0.1-0.044-0.147c-0.048-0.122-0.112-0.244-0.164-0.366c-0.016-0.049-0.024-0.098-0.043-0.146
		c-0.048-0.122-0.112-0.243-0.163-0.364c-0.018-0.05-0.024-0.1-0.044-0.147c-0.048-0.123-0.112-0.244-0.164-0.366
		c-0.016-0.049-0.024-0.098-0.043-0.146c-0.048-0.121-0.112-0.242-0.163-0.364c-0.018-0.05-0.024-0.1-0.044-0.147
		c-0.048-0.122-0.112-0.244-0.164-0.366c-0.016-0.049-0.024-0.098-0.043-0.146c-0.047-0.12-0.11-0.238-0.16-0.358
		c-0.017-0.051-0.025-0.104-0.046-0.153c-0.048-0.123-0.112-0.244-0.164-0.366c-0.016-0.049-0.024-0.099-0.043-0.146
		c-0.048-0.122-0.112-0.243-0.163-0.364c-0.018-0.05-0.024-0.1-0.044-0.147c-0.048-0.122-0.112-0.244-0.164-0.366
		c-0.016-0.049-0.024-0.098-0.043-0.146c-0.048-0.122-0.112-0.243-0.163-0.364c-0.018-0.05-0.024-0.1-0.044-0.148
		c-0.048-0.121-0.112-0.242-0.163-0.364c-0.018-0.049-0.024-0.1-0.044-0.147c-0.048-0.122-0.112-0.244-0.164-0.365
		c-0.016-0.05-0.024-0.099-0.043-0.146c-0.193-0.494-0.416-0.987-0.662-1.479c-0.081-0.162-0.181-0.322-0.268-0.484
		c-0.176-0.325-0.35-0.651-0.547-0.973c-0.129-0.211-0.275-0.416-0.415-0.623c-0.178-0.269-0.351-0.536-0.545-0.801
		c-0.175-0.238-0.369-0.472-0.558-0.707c-0.18-0.224-0.353-0.447-0.542-0.668c-0.224-0.259-0.466-0.509-0.705-0.761
		c-0.177-0.187-0.348-0.374-0.532-0.558c-0.272-0.271-0.563-0.53-0.855-0.791c-0.17-0.153-0.336-0.309-0.513-0.457
		c-0.325-0.275-0.668-0.539-1.014-0.804c-0.161-0.122-0.318-0.245-0.484-0.364c-0.379-0.273-0.771-0.535-1.174-0.792
		c-0.148-0.097-0.297-0.192-0.448-0.286c-0.433-0.266-0.878-0.517-1.335-0.762c-0.137-0.071-0.271-0.146-0.409-0.217
		c-0.485-0.249-0.986-0.483-1.498-0.708c-0.121-0.053-0.241-0.104-0.363-0.157c-0.54-0.228-1.095-0.438-1.662-0.636
		c-0.104-0.037-0.21-0.071-0.315-0.106c-0.273-0.093-0.563-0.166-0.841-0.251c-0.035-0.148-0.095-0.282-0.182-0.402
		c-0.025-0.192-0.1-0.363-0.207-0.514c-0.025-0.191-0.1-0.361-0.207-0.512c-0.025-0.192-0.1-0.362-0.207-0.514
		c-0.025-0.191-0.1-0.361-0.207-0.511c-0.025-0.192-0.1-0.362-0.206-0.514c-0.026-0.192-0.101-0.362-0.207-0.514
		c-0.026-0.191-0.101-0.361-0.207-0.511c-0.026-0.192-0.101-0.363-0.207-0.515c-0.026-0.19-0.101-0.36-0.207-0.511
		c-0.026-0.192-0.101-0.362-0.207-0.514c-0.026-0.191-0.101-0.361-0.207-0.511c-0.026-0.192-0.1-0.363-0.207-0.515
		c-0.026-0.19-0.1-0.36-0.207-0.511c-0.026-0.191-0.099-0.361-0.206-0.511c-0.025-0.193-0.1-0.364-0.207-0.517
		c-0.026-0.19-0.1-0.36-0.207-0.511c-0.025-0.192-0.1-0.363-0.207-0.514c-0.025-0.191-0.1-0.361-0.207-0.511
		c-0.025-0.192-0.1-0.363-0.207-0.515c-0.025-0.19-0.1-0.36-0.207-0.511c-0.025-0.193-0.1-0.363-0.206-0.514
		c-0.026-0.191-0.101-0.361-0.207-0.512c-0.026-0.191-0.101-0.361-0.207-0.513c-0.026-0.193-0.101-0.363-0.207-0.514
		c-0.026-0.191-0.101-0.361-0.207-0.512c-0.026-0.191-0.101-0.362-0.207-0.514c-0.026-0.191-0.101-0.361-0.207-0.511
		c-0.026-0.193-0.1-0.363-0.207-0.515c-0.026-0.189-0.099-0.358-0.206-0.509c-0.025-0.193-0.099-0.364-0.207-0.516
		c-0.026-0.191-0.1-0.361-0.207-0.512c-0.026-0.192-0.1-0.362-0.207-0.514c-0.025-0.191-0.1-0.361-0.207-0.511
		c-0.025-0.192-0.1-0.362-0.207-0.513c-0.025-0.193-0.1-0.363-0.207-0.515c-0.079-0.58-0.568-1.026-1.17-1.009
		c-0.569,0.02-1.034,0.448-1.109,0.997L84.8,20.063c-0.188,1.331-0.813,2.838-1.502,4.178c-0.709,1.356-1.559,2.63-2.526,3.723
		c-0.969,1.092-2.062,2-3.188,2.548c-1.082,0.536-2.148,0.709-3.179,0.597c-2.938-0.817-6.377-1.266-10.402-1.266
		c-0.593,0-1.172,0.012-1.738,0.028c0.002,0,0.003,0,0.005,0c-3.291,0.109-6.161,0.539-8.668,1.236
		c-1.028,0.112-2.099-0.062-3.182-0.597c-1.128-0.549-2.222-1.456-3.188-2.547c-0.658-0.744-1.259-1.576-1.802-2.457
		c-0.032-0.14-0.09-0.265-0.168-0.379l-0.005-0.027c-0.023-0.182-0.104-0.34-0.203-0.485l-0.004-0.026
		c-0.023-0.181-0.104-0.34-0.202-0.483l-0.005-0.028c-0.023-0.182-0.104-0.34-0.203-0.483l-0.004-0.027
		c-0.023-0.181-0.103-0.339-0.201-0.483l-0.005-0.028c-0.023-0.182-0.104-0.341-0.203-0.485l-0.004-0.026
		c-0.023-0.181-0.104-0.34-0.202-0.483l-0.005-0.028c-0.023-0.182-0.104-0.34-0.203-0.483l-0.004-0.027
		c-0.023-0.182-0.104-0.34-0.202-0.484l-0.005-0.027c-0.023-0.182-0.104-0.34-0.202-0.484l-0.005-0.028
		c-0.023-0.182-0.104-0.34-0.203-0.483l-0.004-0.027c-0.074-0.549-0.537-0.979-1.109-0.997c-0.642-0.02-1.176,0.483-1.194,1.122
		c-0.062,1.962,0.362,3.633,0.867,5.338c0.173,0.551,0.373,1.094,0.587,1.635c0.075,0.207,0.16,0.412,0.242,0.617
		c0.063,0.173,0.139,0.342,0.207,0.514c0.063,0.174,0.14,0.345,0.209,0.518c0.063,0.171,0.138,0.338,0.205,0.507
		c0.063,0.174,0.14,0.345,0.209,0.518c0.062,0.166,0.134,0.328,0.198,0.493c0.066,0.18,0.145,0.354,0.214,0.531
		c0.063,0.171,0.139,0.338,0.205,0.507c0.064,0.174,0.141,0.345,0.209,0.519c0.063,0.17,0.139,0.338,0.205,0.507
		c0.064,0.174,0.141,0.345,0.209,0.518c0.063,0.171,0.139,0.338,0.205,0.507c0.064,0.173,0.14,0.342,0.207,0.513
		c0.064,0.175,0.141,0.346,0.209,0.519c0.063,0.171,0.139,0.338,0.205,0.507c0.035,0.096,0.077,0.188,0.113,0.283
		c-0.705,0.588-1.357,1.212-1.945,1.881c-13.607-0.449-22.857,7.063-25.847,14.677c-0.287,0.73-0.217,1.523,0.138,2.175
		c0.053,0.177,0.119,0.35,0.207,0.513c0.052,0.177,0.118,0.35,0.207,0.512c0.052,0.178,0.119,0.351,0.207,0.514
		c0.053,0.177,0.119,0.35,0.207,0.512c0.052,0.178,0.119,0.351,0.207,0.514c0.052,0.176,0.118,0.347,0.205,0.509
		c0.053,0.179,0.119,0.352,0.209,0.516c0.051,0.177,0.118,0.35,0.206,0.513c0.052,0.177,0.118,0.35,0.208,0.513
		c0.051,0.177,0.118,0.349,0.206,0.511c0.052,0.178,0.118,0.351,0.208,0.514c0.051,0.178,0.117,0.35,0.206,0.513
		c0.052,0.177,0.117,0.35,0.207,0.512c0.052,0.178,0.117,0.351,0.208,0.514c0.051,0.177,0.117,0.35,0.205,0.513
		c0.053,0.177,0.118,0.35,0.209,0.513c0.051,0.177,0.117,0.349,0.205,0.511c0.053,0.178,0.118,0.351,0.208,0.514
		c0.052,0.178,0.118,0.35,0.206,0.513c0.053,0.177,0.118,0.35,0.208,0.513c0.052,0.176,0.117,0.347,0.205,0.509
		c0.053,0.178,0.118,0.353,0.207,0.517c0.052,0.177,0.119,0.35,0.207,0.513c0.053,0.177,0.119,0.349,0.207,0.511
		c0.052,0.178,0.119,0.351,0.207,0.514c0.053,0.178,0.119,0.35,0.207,0.513c0.052,0.177,0.119,0.35,0.207,0.513
		c0.053,0.177,0.119,0.349,0.207,0.511c0.052,0.178,0.119,0.351,0.207,0.515c0.053,0.177,0.119,0.349,0.207,0.512
		c0.052,0.177,0.118,0.35,0.207,0.512c0.052,0.178,0.119,0.351,0.207,0.514c0.053,0.178,0.118,0.35,0.207,0.513
		c0.052,0.177,0.118,0.35,0.206,0.513c0.054,0.177,0.119,0.349,0.207,0.511c0.053,0.178,0.118,0.349,0.206,0.512
		c0.053,0.179,0.118,0.351,0.207,0.515c0.053,0.177,0.118,0.35,0.208,0.513c0.052,0.177,0.118,0.349,0.206,0.511
		c0.052,0.178,0.118,0.352,0.207,0.515c0.052,0.177,0.118,0.35,0.208,0.513c0.051,0.177,0.118,0.349,0.206,0.511
		c0.052,0.178,0.118,0.351,0.208,0.515c0.051,0.177,0.118,0.349,0.206,0.512c0.052,0.177,0.118,0.35,0.208,0.513
		c0.051,0.177,0.118,0.349,0.206,0.511c0.052,0.178,0.118,0.352,0.208,0.515c0.051,0.177,0.118,0.349,0.206,0.512
		c0.052,0.177,0.118,0.35,0.208,0.513c0.051,0.177,0.118,0.35,0.206,0.511c0.052,0.178,0.117,0.35,0.206,0.512
		c0.052,0.179,0.118,0.352,0.207,0.516c0.053,0.177,0.119,0.349,0.207,0.511c0.052,0.178,0.119,0.352,0.207,0.515
		c0.053,0.177,0.119,0.349,0.207,0.512c0.052,0.177,0.118,0.35,0.207,0.513c0.053,0.177,0.118,0.35,0.206,0.511
		c0.053,0.179,0.119,0.352,0.207,0.515c0.054,0.177,0.119,0.349,0.207,0.512c0.053,0.177,0.118,0.35,0.207,0.512
		c0.052,0.178,0.119,0.352,0.207,0.515c0.053,0.177,0.119,0.349,0.207,0.512c0.052,0.177,0.119,0.35,0.207,0.513
		c0.053,0.177,0.119,0.35,0.207,0.511c0.052,0.179,0.119,0.352,0.207,0.515c0.053,0.177,0.119,0.349,0.207,0.512
		c0.052,0.176,0.118,0.348,0.206,0.51c0.052,0.178,0.118,0.353,0.207,0.515c0.052,0.178,0.118,0.351,0.207,0.514
		c0.052,0.177,0.117,0.35,0.208,0.513c0.051,0.178,0.118,0.35,0.206,0.512c0.052,0.178,0.117,0.351,0.208,0.514
		c0.051,0.177,0.117,0.349,0.206,0.512c0.052,0.177,0.117,0.35,0.208,0.513c0.051,0.178,0.117,0.35,0.206,0.512
		c0.052,0.178,0.117,0.351,0.207,0.514c0.052,0.177,0.118,0.349,0.206,0.512c0.053,0.177,0.118,0.351,0.207,0.513
		c0.053,0.178,0.118,0.351,0.208,0.514c0.052,0.177,0.118,0.349,0.206,0.512c0.053,0.177,0.118,0.35,0.208,0.513
		c0.052,0.177,0.117,0.348,0.205,0.51c0.053,0.179,0.118,0.352,0.207,0.516c0.053,0.177,0.119,0.349,0.207,0.512
		c0.052,0.177,0.119,0.351,0.207,0.513c0.053,0.178,0.119,0.35,0.207,0.512c0.052,0.178,0.118,0.351,0.207,0.514
		c0.052,0.177,0.119,0.35,0.207,0.513c0.053,0.178,0.119,0.35,0.207,0.512c0.052,0.178,0.119,0.351,0.207,0.514
		c0.053,0.177,0.119,0.349,0.207,0.512c0.052,0.177,0.119,0.351,0.207,0.513c0.053,0.178,0.119,0.35,0.207,0.512
		c0.052,0.178,0.118,0.351,0.207,0.514c0.053,0.177,0.118,0.35,0.206,0.512c0.053,0.178,0.119,0.351,0.207,0.514
		c0.053,0.176,0.118,0.347,0.205,0.509c0.054,0.178,0.119,0.352,0.208,0.516c0.053,0.177,0.118,0.351,0.208,0.513
		c0.052,0.178,0.118,0.35,0.206,0.512c0.053,0.178,0.118,0.351,0.208,0.514c0.052,0.177,0.118,0.35,0.206,0.512
		c0.052,0.178,0.118,0.351,0.208,0.514c0.051,0.177,0.118,0.349,0.206,0.511c0.052,0.178,0.118,0.351,0.208,0.514
		c0.051,0.177,0.118,0.35,0.206,0.513c0.052,0.177,0.118,0.35,0.207,0.512c0.052,0.178,0.118,0.351,0.208,0.514
		c0.051,0.177,0.118,0.35,0.206,0.512c0.052,0.178,0.118,0.351,0.208,0.514c0.051,0.177,0.118,0.349,0.206,0.511
		c0.052,0.178,0.118,0.349,0.206,0.512c0.052,0.178,0.118,0.351,0.207,0.515c0.052,0.177,0.119,0.35,0.207,0.513
		c0.053,0.177,0.119,0.349,0.207,0.511c0.052,0.178,0.117,0.351,0.207,0.514c0.052,0.178,0.118,0.351,0.206,0.514
		c0.054,0.177,0.119,0.349,0.207,0.511c0.053,0.178,0.119,0.351,0.207,0.514c0.054,0.177,0.119,0.35,0.207,0.513
		c0.053,0.177,0.119,0.35,0.207,0.513c0.053,0.177,0.119,0.349,0.207,0.511c0.052,0.178,0.119,0.351,0.207,0.514
		c0.053,0.178,0.119,0.35,0.207,0.513c0.052,0.177,0.118,0.35,0.207,0.512c0.052,0.178,0.119,0.351,0.207,0.514
		c0.052,0.177,0.118,0.349,0.205,0.509c0.053,0.18,0.119,0.353,0.209,0.517c0.051,0.177,0.118,0.349,0.206,0.511
		c0.052,0.178,0.118,0.352,0.208,0.514c0.051,0.178,0.118,0.35,0.206,0.513c0.052,0.177,0.118,0.35,0.208,0.513
		c0.051,0.177,0.118,0.349,0.206,0.511c0.052,0.179,0.118,0.352,0.207,0.515c0.052,0.177,0.117,0.35,0.208,0.513
		c0.051,0.177,0.117,0.349,0.206,0.511c0.052,0.178,0.117,0.352,0.208,0.514c0.051,0.178,0.117,0.35,0.205,0.513
		c0.053,0.177,0.118,0.35,0.209,0.513c0.051,0.177,0.117,0.349,0.205,0.511c0.008,0.023,0.021,0.043,0.026,0.066
		c5.437,1.5,11.152,2.317,17.064,2.317C91.581,127.972,115.086,110.522,124.082,86.063z"/>
	<g>
		<g>
			<path fill="#CC803D" d="M43.199,20.055c0.188,1.331,0.813,2.838,1.503,4.178c0.707,1.356,1.56,2.63,2.525,3.724
				c0.968,1.091,2.062,1.999,3.188,2.547c1.129,0.56,2.244,0.731,3.313,0.589c1.601-0.216,3.069,0.907,3.284,2.505
				c0.217,1.6-0.907,3.069-2.505,3.284c-0.185,0.024-0.366,0.031-0.546,0.022l-0.233-0.016c-2.222-0.131-4.36-1.004-5.98-2.24
				c-1.644-1.232-2.852-2.751-3.811-4.313c-0.951-1.575-1.661-3.216-2.19-4.901c-0.505-1.705-0.929-3.376-0.867-5.338
				c0.021-0.639,0.554-1.142,1.194-1.122c0.572,0.02,1.035,0.448,1.109,0.997L43.199,20.055z"/>
			<path fill="#CC803D" d="M84.798,20.055c-0.188,1.331-0.813,2.838-1.502,4.178c-0.709,1.356-1.559,2.63-2.527,3.724
				c-0.968,1.091-2.061,1.999-3.188,2.547c-1.129,0.56-2.243,0.731-3.313,0.589c-1.6-0.216-3.068,0.907-3.283,2.505
				c-0.217,1.6,0.904,3.069,2.505,3.284c0.184,0.024,0.366,0.031,0.546,0.022l0.232-0.016c2.223-0.131,4.362-1.004,5.981-2.24
				c1.641-1.232,2.851-2.751,3.808-4.313c0.954-1.575,1.663-3.216,2.192-4.901c0.506-1.705,0.929-3.376,0.868-5.338
				c-0.021-0.639-0.557-1.142-1.196-1.122c-0.57,0.02-1.035,0.448-1.11,0.997L84.798,20.055z"/>
		</g>
		<g>
			<path fill="#99602E" d="M93.445,58.862c-2.63,0-5.152-0.376-7.264-1.275c-1.312-0.561-1.921-2.07-1.362-3.382
				c0.418-0.979-2.694-11.875-2.783-11.875c-1.353-0.007-2.423-0.979-2.563-2.309c-0.146-1.414,0.88-2.683,2.294-2.829
				c15.024-1.563,25.261,6.418,28.435,14.506c0.456,1.154,0.02,2.472-1.033,3.127C105.719,56.977,99.324,58.862,93.445,58.862z"/>
			<path fill="#4D3017" d="M93.445,54.226c-1.517,0-2.896-0.152-4.061-0.448c-0.083-3.541-1.776-9.197-2.773-12.123
				c9.266,0.344,15.694,5.02,18.492,10.081C102.2,53.056,97.691,54.226,93.445,54.226z"/>
		</g>
		<path fill="#8C582A" d="M110.202,51.697c-3.021-7.7-12.456-15.284-26.318-14.645c11.962,0.655,20.077,7.605,22.84,14.645
			c0.456,1.155,0.021,2.473-1.032,3.127c-3.099,1.934-8.566,3.646-13.906,3.978c0.548,0.035,1.101,0.062,1.661,0.062
			c5.879,0,12.272-1.886,15.724-4.038C110.222,54.169,110.658,52.853,110.202,51.697z"/>
		<path fill="#99602E" d="M34.553,58.862c2.63,0,5.154-0.376,7.266-1.275c1.312-0.561,1.921-2.07,1.36-3.382
			c-0.417-0.979,2.696-11.875,2.783-11.875c1.353-0.007,2.423-0.979,2.563-2.309c0.147-1.414-0.878-2.683-2.293-2.829
			C31.207,35.63,20.97,43.61,17.796,51.698c-0.454,1.154-0.019,2.472,1.035,3.127C22.28,56.977,28.674,58.862,34.553,58.862z"/>
		<path fill="#8C582A" d="M46.231,37.192c-1.704-0.178-3.34-0.217-4.915-0.161c-3.789,4.317-5.215,10.247-5.215,16.887
			c0,1.457,0.161,3.104,0.444,4.866c1.902-0.15,3.701-0.528,5.271-1.197c1.312-0.561,1.921-2.07,1.36-3.383
			c-0.417-0.979,2.696-11.875,2.783-11.875c1.353-0.007,2.423-0.979,2.563-2.308C48.673,38.607,47.646,37.339,46.231,37.192z"/>
		<path fill="#4D3017" d="M34.553,54.226c1.519,0,2.896-0.152,4.061-0.448c0.085-3.541,1.778-9.197,2.773-12.123
			c-9.264,0.344-15.692,5.02-18.491,10.081C25.798,53.056,30.309,54.226,34.553,54.226z"/>
		<path fill="#FFEACC" d="M48.541,80.983c-0.903,0-1.778-0.473-2.25-1.319c-4.56-8.138-7.87-18.966-7.87-25.746
			c0-13.494,5.866-24.084,25.579-24.084s25.576,10.59,25.576,24.084c0,6.788-3.31,17.619-7.867,25.75
			c-0.699,1.243-2.266,1.681-3.509,0.983c-1.241-0.694-27.159-0.692-28.4,0.004C49.4,80.877,48.968,80.983,48.541,80.983z"/>
		<g>
			<path fill="#F2DEC2" d="M47.075,80.502c0.433,0.303,0.939,0.48,1.466,0.48c0.427,0,0.859-0.105,1.259-0.328
				c0.567-0.318,6.316-0.491,12.497-0.52C56.036,80.107,49.327,80.23,47.075,80.502z"/>
			<path fill="#F2DEC2" d="M64,29.833c-0.593,0-1.172,0.012-1.739,0.028c18.317,0.611,23.837,10.968,23.837,24.056
				c0,6.788-3.309,17.619-7.869,25.75c-0.192,0.346-0.459,0.62-0.763,0.835c0.375,0.047,0.636,0.097,0.734,0.148
				c1.243,0.696,2.81,0.26,3.509-0.983c4.559-8.131,7.867-18.962,7.867-25.75C89.576,40.423,83.713,29.833,64,29.833z"/>
		</g>
		<path fill="#F5F5F5" d="M56.268,60.368c-2.843,0-5.152-2.313-5.152-5.154c0-2.844,2.311-5.152,5.152-5.152
			c2.843,0,5.154,2.311,5.154,5.152C61.422,58.055,59.11,60.368,56.268,60.368z"/>
		<path fill="#242424" d="M56.27,57.792c-1.422,0-2.576-1.158-2.576-2.578c0-1.421,1.154-2.576,2.576-2.576
			c1.42,0,2.576,1.155,2.576,2.576C58.846,56.634,57.688,57.792,56.27,57.792z"/>
		<path fill="#F5F5F5" d="M71.729,60.368c-2.842,0-5.151-2.313-5.151-5.154c0-2.844,2.311-5.152,5.151-5.152
			c2.843,0,5.155,2.311,5.155,5.152C76.884,58.055,74.57,60.368,71.729,60.368z"/>
		<path fill="#242424" d="M71.73,57.792c-1.424,0-2.578-1.158-2.578-2.578c0-1.421,1.154-2.576,2.578-2.576
			c1.418,0,2.576,1.155,2.576,2.576C74.308,56.634,73.148,57.792,71.73,57.792z"/>
		<path fill="#FFE1D9" d="M64,108.973c-4.266,0-8.573-1.074-12.807-3.188c-0.189-0.098-0.42-0.222-0.57-0.371
			c-2.314-2.316-2.623-3.469-2.623-5.377v-5.96c0-3.063,3.007-6.104,6.068-6.104H73.93c3.063,0,6.069,3.041,6.069,6.104v5.96
			c0,1.908-0.31,3.061-2.623,5.377c-0.15,0.149-0.354,0.273-0.544,0.371C72.601,107.898,68.266,108.973,64,108.973z"/>
		<path fill="#F2D6CE" d="M73.931,87.812h-3.478c3.061,0,6.303,3.201,6.303,6.264v5.961c0,1.908-0.427,3.061-2.741,5.377
			c-0.149,0.149-0.411,0.273-0.602,0.37c-3.659,1.829-7.438,2.875-11.15,3.126c0.579,0.038,1.158,0.063,1.737,0.063
			c4.266,0,8.659-1.074,12.892-3.189c0.19-0.097,0.451-0.221,0.603-0.37c2.313-2.316,2.741-3.469,2.741-5.377v-5.961
			C80.234,91.013,76.992,87.812,73.931,87.812z"/>
		<path fill="#F2D6CE" d="M73.931,87.812H54.069c-3.063,0-6.304,3.201-6.304,6.264v5.961c0,0.451,0.027,0.859,0.095,1.253
			c5.339,2.592,10.765,3.913,16.141,3.913c5.354,0,10.813-1.313,16.134-3.883c0.072-0.401,0.102-0.819,0.102-1.284v-5.96
			C80.234,91.013,76.992,87.812,73.931,87.812z"/>
		<path fill="#FFE1D9" d="M64,102.884c-5.534,0-11.122-1.391-16.613-4.136c-0.246-0.126-0.166-0.286-0.361-0.482
			c-3.002-3.004-3.024-4.5-3.024-6.976v-7.73c0-3.975,3.144-8.588,7.115-8.588h25.77c3.973,0,7.115,4.613,7.115,8.588v7.73
			c0,2.476-0.021,3.972-3.024,6.976c-0.194,0.196-0.269,0.356-0.517,0.482C74.969,101.493,69.534,102.884,64,102.884z"/>
		<path fill="#F2D6CE" d="M76.884,75.057h-3.479c3.973,0,7.986,4.528,7.986,8.503v7.73c0,2.476-0.458,3.972-3.46,6.976
			c-0.196,0.196-0.485,0.356-0.733,0.482c-4.917,2.457-9.963,3.82-14.938,4.081c0.581,0.03,1.16,0.055,1.739,0.055
			c5.534,0,11.186-1.391,16.677-4.136c0.248-0.126,0.539-0.286,0.733-0.482c3.003-3.004,3.461-4.5,3.461-6.976v-7.73
			C84.871,79.585,80.856,75.057,76.884,75.057z"/>
		<path fill="#B3746F" d="M57,93.866c-1.425,0-3-1.151-3-2.575v-5.154c0-1.425,1.575-2.576,3-2.576s3,1.151,3,2.576v5.154
			C60,92.714,58.425,93.866,57,93.866z"/>
		<path fill="#99635F" d="M71,93.866c-1.425,0-3-1.151-3-2.575v-5.154c0-1.425,1.575-2.576,3-2.576s3,1.151,3,2.576v5.154
			C74,92.714,72.425,93.866,71,93.866z"/>
	</g>
</g>
</svg>
