<?xml version="1.0" encoding="utf-8"?>
<!-- Generator: Adobe Illustrator 15.1.0, SVG Export Plug-In . SVG Version: 6.00 Build 0)  -->
<!DOCTYPE svg PUBLIC "-//W3C//DTD SVG 1.1//EN" "http://www.w3.org/Graphics/SVG/1.1/DTD/svg11.dtd">
<svg version="1.1" id="Layer_1" xmlns="http://www.w3.org/2000/svg" xmlns:xlink="http://www.w3.org/1999/xlink" x="0px" y="0px"
	 width="128px" height="128px" viewBox="0 0 128 128" enable-background="new 0 0 128 128" xml:space="preserve">
<g>
	<circle fill="#2D4452" cx="64" cy="64" r="64"/>
	<path fill="#233540" d="M120.516,94.039c-0.021-0.042-0.031-0.096-0.055-0.135c-0.064-0.227-0.145-0.435-0.248-0.613
		c-0.064-0.227-0.145-0.436-0.248-0.615c-0.064-0.226-0.145-0.434-0.248-0.613c-0.064-0.227-0.144-0.435-0.248-0.614
		c-0.064-0.226-0.144-0.435-0.248-0.613c-0.063-0.228-0.144-0.435-0.248-0.615c-0.063-0.227-0.144-0.436-0.248-0.616
		c-0.064-0.226-0.145-0.434-0.248-0.611c-0.064-0.227-0.145-0.434-0.248-0.613c-0.064-0.227-0.145-0.436-0.248-0.615
		c-0.064-0.226-0.145-0.434-0.248-0.613c-0.064-0.227-0.145-0.435-0.248-0.613c-0.064-0.227-0.145-0.436-0.248-0.615
		c-0.064-0.227-0.145-0.434-0.248-0.613c-0.064-0.227-0.145-0.435-0.248-0.615c-0.064-0.226-0.145-0.434-0.248-0.612
		c-0.064-0.228-0.145-0.435-0.248-0.615c-0.064-0.226-0.145-0.435-0.248-0.612c-0.064-0.228-0.145-0.436-0.248-0.615
		c-0.064-0.227-0.145-0.435-0.248-0.613c-0.064-0.229-0.145-0.438-0.249-0.617c-0.063-0.225-0.144-0.432-0.248-0.611
		c-0.063-0.227-0.144-0.435-0.248-0.615c-0.063-0.226-0.144-0.434-0.248-0.612c-0.063-0.228-0.144-0.435-0.248-0.615
		c-0.063-0.226-0.144-0.434-0.248-0.612c-0.063-0.228-0.144-0.436-0.247-0.614c-0.064-0.228-0.145-0.435-0.248-0.615
		c-0.064-0.226-0.145-0.435-0.248-0.613c-0.064-0.227-0.145-0.435-0.248-0.614c-0.064-0.227-0.145-0.435-0.248-0.613
		c-0.064-0.227-0.145-0.436-0.248-0.615c-0.064-0.227-0.145-0.434-0.248-0.613c-0.064-0.227-0.145-0.435-0.248-0.615
		c-0.064-0.227-0.145-0.436-0.25-0.615c-0.063-0.227-0.144-0.434-0.248-0.612c-0.063-0.226-0.144-0.435-0.248-0.612
		c-0.063-0.228-0.143-0.436-0.247-0.615c-0.064-0.227-0.144-0.435-0.248-0.613c-0.063-0.227-0.144-0.436-0.248-0.615
		c-0.063-0.227-0.144-0.434-0.248-0.613c-0.063-0.227-0.144-0.435-0.248-0.615c-0.063-0.226-0.144-0.434-0.248-0.612
		c-0.063-0.228-0.144-0.435-0.248-0.614c-0.063-0.227-0.144-0.436-0.248-0.615c-0.063-0.226-0.144-0.434-0.248-0.613
		c-0.063-0.227-0.144-0.435-0.248-0.614c-0.063-0.228-0.146-0.437-0.249-0.616c-0.064-0.226-0.144-0.433-0.248-0.612
		c-0.063-0.226-0.144-0.434-0.248-0.613c-0.063-0.227-0.144-0.435-0.248-0.615c-0.063-0.226-0.144-0.434-0.248-0.613
		c-0.063-0.227-0.144-0.435-0.248-0.615c-0.063-0.226-0.144-0.434-0.248-0.613c-0.063-0.228-0.144-0.435-0.248-0.615
		c-0.063-0.226-0.144-0.434-0.248-0.613c-0.063-0.227-0.144-0.435-0.248-0.615c-0.063-0.226-0.144-0.434-0.248-0.613
		c-0.063-0.227-0.144-0.435-0.247-0.615c-0.064-0.226-0.144-0.434-0.248-0.613c-0.063-0.227-0.144-0.435-0.248-0.614
		c-0.063-0.228-0.144-0.437-0.249-0.617c-0.064-0.225-0.145-0.432-0.248-0.611c-0.064-0.227-0.145-0.435-0.248-0.615
		c-0.064-0.226-0.145-0.434-0.248-0.613c-0.064-0.227-0.145-0.435-0.248-0.615c-0.064-0.226-0.145-0.434-0.248-0.613
		c-0.316-1.119-1.129-1.65-2.426-1.741c-0.064-0.184-0.141-0.366-0.227-0.548c-0.069-0.206-0.151-0.412-0.248-0.616
		c-0.07-0.205-0.152-0.409-0.248-0.612c-0.727-2.122-2.795-4.248-6.691-4.248c-5,0-7,3-7,6H48.785
		c-0.029-0.071-0.065-0.137-0.096-0.207c-0.074-0.209-0.158-0.411-0.246-0.609c-0.075-0.211-0.16-0.415-0.249-0.615
		c-0.075-0.21-0.159-0.413-0.248-0.613c-0.075-0.211-0.16-0.415-0.249-0.615c-0.075-0.21-0.159-0.413-0.248-0.613
		C45.792,43.06,40.615,41,36,41c-8,0-12,5.104-12,10c0,0,0,31.703,0,33c0,0.551,0.163,1.098,0.425,1.607
		c0.066,0.209,0.146,0.414,0.249,0.615c0.066,0.209,0.145,0.413,0.248,0.612c0.066,0.21,0.146,0.416,0.249,0.615
		c0.066,0.209,0.145,0.414,0.248,0.612c0.066,0.211,0.146,0.418,0.25,0.617c0.066,0.209,0.145,0.413,0.247,0.611
		c0.066,0.209,0.146,0.415,0.248,0.614c0.066,0.21,0.146,0.416,0.249,0.614c0.066,0.209,0.145,0.414,0.248,0.613
		c0.066,0.21,0.146,0.415,0.249,0.615c0.066,0.209,0.145,0.414,0.248,0.613c0.066,0.21,0.146,0.416,0.249,0.615
		c0.066,0.209,0.145,0.414,0.248,0.612c0.066,0.21,0.146,0.415,0.249,0.615c0.066,0.209,0.145,0.414,0.248,0.612
		c0.066,0.211,0.146,0.416,0.249,0.615c0.066,0.209,0.145,0.414,0.248,0.613c0.066,0.21,0.146,0.415,0.249,0.615
		c0.066,0.21,0.146,0.416,0.249,0.615c0.066,0.209,0.146,0.414,0.248,0.613c0.066,0.209,0.145,0.414,0.248,0.612
		c0.066,0.21,0.146,0.415,0.249,0.615c0.066,0.209,0.145,0.414,0.248,0.612c0.066,0.209,0.146,0.416,0.248,0.614
		c0.066,0.21,0.146,0.416,0.249,0.615c0.066,0.209,0.145,0.414,0.248,0.613c0.066,0.21,0.146,0.415,0.249,0.614
		c0.066,0.209,0.145,0.414,0.248,0.613c0.066,0.21,0.146,0.416,0.249,0.615c0.066,0.209,0.145,0.414,0.248,0.613
		c0.066,0.21,0.146,0.414,0.249,0.615c0.066,0.209,0.146,0.416,0.249,0.614c0.066,0.209,0.146,0.414,0.248,0.613
		c0.066,0.209,0.145,0.414,0.248,0.612c0.066,0.211,0.146,0.416,0.249,0.615c0.066,0.209,0.145,0.414,0.248,0.613
		c0.066,0.21,0.146,0.416,0.249,0.615c0.066,0.209,0.145,0.414,0.248,0.613c0.066,0.209,0.146,0.414,0.249,0.615
		c0.066,0.209,0.145,0.413,0.248,0.612c0.066,0.209,0.146,0.415,0.248,0.614c0.066,0.21,0.146,0.416,0.249,0.615
		c0.066,0.209,0.145,0.414,0.248,0.612c0.066,0.21,0.146,0.415,0.249,0.615c0.066,0.209,0.145,0.414,0.248,0.612
		c0.066,0.211,0.146,0.418,0.25,0.617c0.066,0.209,0.145,0.414,0.247,0.611c0.066,0.21,0.146,0.415,0.249,0.615
		c0.066,0.209,0.145,0.414,0.248,0.613c0.066,0.209,0.146,0.416,0.249,0.615c0.066,0.209,0.145,0.414,0.248,0.612
		c0.066,0.21,0.146,0.415,0.249,0.615c0.066,0.209,0.145,0.414,0.248,0.612c0.066,0.211,0.146,0.416,0.249,0.615
		c0.066,0.209,0.145,0.414,0.248,0.613c0.066,0.209,0.146,0.415,0.248,0.614c0.066,0.21,0.146,0.415,0.249,0.614
		c0.066,0.209,0.145,0.414,0.248,0.613c0.066,0.211,0.146,0.416,0.249,0.615c0.066,0.21,0.146,0.416,0.249,0.615
		c0.066,0.209,0.146,0.414,0.248,0.613c0.012,0.037,0.032,0.071,0.044,0.108C47.123,126.277,55.359,128,64,128
		C88.486,128,109.754,114.242,120.516,94.039z"/>
	<path fill="#E6E6E6" d="M91.5,70.25c-1.382,0-2.5-1.118-2.5-2.5v-5c0-1.382,1.118-2.5,2.5-2.5s2.5,1.118,2.5,2.5v5
		C94,69.132,92.882,70.25,91.5,70.25z"/>
	<path fill="#E6E6E6" d="M83.5,77.75c-1.382,0-2.5-1.118-2.5-2.5v-5c0-1.382,1.118-2.5,2.5-2.5s2.5,1.118,2.5,2.5v5
		C86,76.632,84.882,77.75,83.5,77.75z"/>
	<path fill="#48B3A0" d="M24,51c0-4.896,4-10,12-10c5.581,0,12,3,12,10h39c0-3,2-6,7-6s7,3.5,7,6c2,0,3,0.87,3,3.032
		C104,61.532,98.792,66,92,66H61l-7,7h32.5C92.926,73,99,79.074,99,85.5c0,1.382-1.118,2.5-2.5,2.5H28c-2,0-4-2-4-4
		C24,82.703,24,51,24,51z"/>
	<g>
		<path fill="#3E9989" d="M45,51h3c0-7-6.419-10-12-10c-0.543,0-1.064,0.028-1.57,0.073C39.621,41.544,45,44.592,45,51z"/>
		<polygon fill="#3E9989" points="51,73 54,73 61,66 58,66 		"/>
		<path fill="#3E9989" d="M101,51c0-2.5-2-6-7-6c-0.561,0-1.077,0.043-1.563,0.114C96.381,45.716,98,48.757,98,51
			c2,0,3,0.87,3,3.032C101,61.532,95.792,66,89,66h3c6.792,0,12-4.468,12-11.968C104,51.87,103,51,101,51z"/>
		<path fill="#3E9989" d="M86.5,73h-3C89.926,73,96,79.074,96,85.5c0,1.382-1.118,2.5-2.5,2.5h3c1.382,0,2.5-1.118,2.5-2.5
			C99,79.074,92.926,73,86.5,73z"/>
	</g>
	<circle fill="#E6E6E6" cx="36" cy="53" r="5"/>
	<circle fill="#263740" cx="36" cy="53" r="3"/>
	<circle fill="#3E9989" cx="94" cy="53" r="3"/>
</g>
</svg>
