<?xml version="1.0" encoding="utf-8"?>
<!-- Generator: Adobe Illustrator 15.1.0, SVG Export Plug-In . SVG Version: 6.00 Build 0)  -->
<!DOCTYPE svg PUBLIC "-//W3C//DTD SVG 1.1//EN" "http://www.w3.org/Graphics/SVG/1.1/DTD/svg11.dtd">
<svg version="1.1" id="Layer_1" xmlns="http://www.w3.org/2000/svg" xmlns:xlink="http://www.w3.org/1999/xlink" x="0px" y="0px"
	 width="128px" height="128px" viewBox="0 0 128 128" enable-background="new 0 0 128 128" xml:space="preserve">
<g>
	<circle fill="#2D4452" cx="64" cy="64" r="64"/>
	<path fill="#233540" d="M122.159,90.675c-0.077-0.204-0.161-0.411-0.251-0.62c-0.076-0.201-0.157-0.402-0.245-0.605
		c-0.077-0.203-0.159-0.407-0.248-0.614c-0.077-0.203-0.159-0.407-0.248-0.612c-0.077-0.205-0.161-0.412-0.251-0.621
		c-0.076-0.201-0.157-0.402-0.245-0.606c-0.077-0.203-0.159-0.407-0.248-0.614c-0.077-0.203-0.159-0.406-0.248-0.613
		c-0.077-0.205-0.161-0.412-0.251-0.621c-0.076-0.201-0.156-0.401-0.244-0.605c-0.076-0.203-0.158-0.407-0.248-0.614
		c-0.076-0.202-0.158-0.405-0.248-0.612c-0.076-0.203-0.158-0.408-0.248-0.615c-0.076-0.204-0.16-0.411-0.25-0.62
		c-0.076-0.2-0.158-0.402-0.246-0.606c-0.076-0.203-0.158-0.406-0.248-0.613c-0.076-0.202-0.158-0.406-0.248-0.613
		c-0.076-0.205-0.16-0.412-0.25-0.621c-0.076-0.2-0.157-0.402-0.246-0.605c-0.076-0.203-0.158-0.406-0.247-0.613
		c-0.079-0.209-0.164-0.42-0.257-0.633c-0.074-0.199-0.156-0.399-0.243-0.604c-0.076-0.2-0.157-0.401-0.245-0.604
		c-0.077-0.203-0.159-0.408-0.248-0.615c-0.077-0.202-0.159-0.406-0.248-0.613c-0.077-0.203-0.159-0.406-0.248-0.613
		c-0.077-0.205-0.161-0.412-0.251-0.621c-0.075-0.201-0.155-0.401-0.244-0.605c-0.077-0.203-0.159-0.407-0.248-0.614
		c-0.077-0.203-0.159-0.407-0.248-0.614c-0.077-0.203-0.161-0.41-0.251-0.619c-0.076-0.201-0.156-0.402-0.244-0.606
		c-0.078-0.203-0.16-0.407-0.248-0.614c-0.078-0.203-0.16-0.406-0.248-0.613c-0.078-0.205-0.162-0.412-0.252-0.621
		c-0.076-0.2-0.156-0.401-0.244-0.605c-0.078-0.203-0.16-0.406-0.248-0.613c-0.078-0.203-0.159-0.406-0.248-0.613
		c-0.078-0.205-0.161-0.412-0.252-0.621c-0.075-0.201-0.156-0.402-0.244-0.606c-0.077-0.202-0.159-0.407-0.248-0.614
		c-0.077-0.203-0.158-0.405-0.248-0.612c-0.076-0.203-0.158-0.407-0.248-0.614c-0.077-0.205-0.16-0.412-0.251-0.621
		c-0.075-0.2-0.156-0.402-0.244-0.606c-0.079-0.207-0.164-0.419-0.257-0.632c-0.074-0.196-0.154-0.396-0.24-0.597
		c-0.077-0.205-0.161-0.412-0.251-0.621c-0.076-0.2-0.157-0.402-0.245-0.605c-0.076-0.203-0.158-0.408-0.248-0.615
		c-0.076-0.202-0.158-0.406-0.248-0.613c-0.076-0.205-0.16-0.412-0.251-0.621c-0.075-0.2-0.157-0.402-0.245-0.604
		c-0.076-0.203-0.158-0.408-0.248-0.615c-0.076-0.202-0.158-0.406-0.248-0.613c-0.076-0.205-0.16-0.412-0.25-0.621
		c-0.076-0.2-0.158-0.402-0.246-0.605c-0.076-0.203-0.158-0.407-0.248-0.614c-0.076-0.203-0.157-0.407-0.248-0.614
		c-0.075-0.203-0.158-0.408-0.248-0.616c-0.077-0.202-0.158-0.407-0.248-0.614c-0.076-0.203-0.158-0.406-0.248-0.612
		c-0.075-0.202-0.157-0.406-0.246-0.612c-0.077-0.203-0.16-0.408-0.249-0.615c-0.077-0.203-0.159-0.408-0.248-0.615
		c-0.077-0.202-0.159-0.406-0.248-0.613c-0.076-0.201-0.158-0.405-0.247-0.612c-0.077-0.203-0.16-0.408-0.249-0.616
		c-0.077-0.202-0.159-0.407-0.248-0.615c-0.077-0.202-0.159-0.406-0.248-0.613c-0.079-0.208-0.164-0.417-0.255-0.63
		c-0.075-0.197-0.154-0.396-0.242-0.599c-0.076-0.202-0.158-0.406-0.248-0.614c-0.076-0.203-0.158-0.407-0.248-0.615
		c-0.076-0.201-0.158-0.405-0.246-0.611c-0.078-0.202-0.16-0.407-0.248-0.614c-0.078-0.203-0.16-0.409-0.25-0.617
		c-0.076-0.202-0.158-0.405-0.246-0.611c-0.078-0.203-0.16-0.409-0.25-0.617c-0.076-0.201-0.158-0.405-0.246-0.611
		c-0.076-0.203-0.159-0.409-0.25-0.617c-0.075-0.201-0.157-0.405-0.246-0.611c-0.582-1.53-1.489-3.201-2.832-5.032
		c-0.381-0.519-1.002-0.236-0.936,0.399c0.057,0.539,0.086,1.053,0.092,1.545c0,0.031-0.002,0.059-0.002,0.09
		c0.002,0.467-0.014,0.917-0.05,1.346c-0.448,5.394-3.96,7.638-7.056,6.586c0.001,0,0.001,0,0.001,0
		c-0.117-0.04-0.235-0.071-0.354-0.12c-0.242-0.104-0.447-0.24-0.666-0.365c0-0.001-0.002-0.002-0.002-0.004
		c-0.053-0.22-0.141-0.423-0.248-0.615c-0.053-0.219-0.142-0.422-0.248-0.613c-0.053-0.22-0.141-0.423-0.248-0.614
		c-0.053-0.221-0.142-0.424-0.25-0.616c-0.053-0.219-0.141-0.421-0.248-0.612c-0.051-0.219-0.141-0.422-0.246-0.613
		c-0.053-0.22-0.143-0.423-0.248-0.614c-0.053-0.22-0.143-0.422-0.247-0.614c-0.054-0.22-0.144-0.423-0.248-0.614
		c-0.054-0.22-0.144-0.423-0.249-0.615c-0.053-0.219-0.143-0.422-0.247-0.613c-0.054-0.22-0.144-0.423-0.249-0.614
		c-0.053-0.22-0.143-0.422-0.247-0.614c-0.054-0.22-0.144-0.423-0.249-0.615c-0.053-0.219-0.143-0.422-0.247-0.613
		c-0.257-1.073-1.218-1.862-2.356-1.862c-8.752,0-19.583,2.02-26.096,17.531c-10.484,5.505-16.944,15.762-22.64,24.848
		c-3.675,5.862-7.184,11.406-10.797,13.646c-0.92,0.57-1.421,1.682-1.126,2.723c0.058,0.197,0.145,0.373,0.235,0.545
		c0.006,0.021,0.006,0.047,0.013,0.069c0.058,0.196,0.145,0.373,0.235,0.544c0.006,0.023,0.006,0.047,0.013,0.07
		c0.058,0.195,0.145,0.373,0.235,0.545c0.006,0.021,0.006,0.045,0.013,0.066c0.058,0.197,0.145,0.373,0.235,0.545
		c0.006,0.022,0.006,0.047,0.013,0.07c0.058,0.196,0.145,0.373,0.235,0.543c0.006,0.022,0.006,0.047,0.013,0.069
		c0.057,0.197,0.145,0.373,0.235,0.545c0.006,0.022,0.006,0.047,0.013,0.07c0.057,0.196,0.145,0.373,0.235,0.543
		c0.006,0.022,0.006,0.047,0.013,0.069c0.057,0.197,0.144,0.375,0.235,0.545c0.006,0.022,0.006,0.047,0.013,0.068
		c0.057,0.197,0.144,0.373,0.235,0.545c0.006,0.021,0.006,0.047,0.013,0.068c0.057,0.197,0.144,0.373,0.234,0.545
		c0.007,0.021,0.007,0.047,0.014,0.07c0.057,0.195,0.144,0.373,0.234,0.543c0.007,0.023,0.007,0.047,0.014,0.07
		c0.057,0.198,0.145,0.377,0.236,0.549c0.006,0.021,0.007,0.043,0.013,0.063c0.057,0.197,0.144,0.373,0.233,0.544
		c0.006,0.021,0.008,0.047,0.015,0.069c0.057,0.196,0.144,0.373,0.233,0.545c0.006,0.022,0.008,0.047,0.015,0.069
		c0.057,0.197,0.144,0.373,0.233,0.543c0.006,0.023,0.007,0.048,0.015,0.07c0.057,0.197,0.144,0.375,0.234,0.545
		c0.006,0.021,0.007,0.047,0.013,0.068c0.058,0.197,0.145,0.373,0.234,0.544c0.006,0.022,0.007,0.047,0.014,0.069
		c0.058,0.197,0.145,0.373,0.234,0.545c0.006,0.021,0.007,0.047,0.014,0.068c0.058,0.197,0.145,0.373,0.234,0.545
		c0.006,0.022,0.007,0.047,0.014,0.069c0.058,0.197,0.145,0.374,0.235,0.546c0.006,0.021,0.007,0.045,0.013,0.067
		c0.058,0.196,0.145,0.373,0.234,0.543c0.006,0.022,0.007,0.048,0.014,0.069c0.058,0.197,0.145,0.373,0.234,0.545
		c0.006,0.022,0.007,0.048,0.014,0.07c0.057,0.196,0.145,0.373,0.234,0.543c0.006,0.023,0.007,0.047,0.014,0.07
		c0.057,0.197,0.145,0.373,0.234,0.544c0.006,0.022,0.007,0.047,0.014,0.069c0.057,0.197,0.144,0.375,0.235,0.545
		c0.006,0.021,0.007,0.047,0.013,0.068c0.057,0.196,0.144,0.373,0.234,0.545c0.006,0.021,0.007,0.047,0.014,0.068
		c0.057,0.197,0.144,0.373,0.234,0.545c0.006,0.022,0.007,0.047,0.014,0.069c0.057,0.196,0.144,0.373,0.233,0.544
		c0.007,0.021,0.008,0.047,0.015,0.068c0.057,0.197,0.144,0.375,0.234,0.546c0.006,0.022,0.008,0.047,0.014,0.067
		c0.057,0.197,0.144,0.373,0.233,0.545c0.006,0.022,0.007,0.047,0.015,0.069c0.057,0.196,0.144,0.373,0.233,0.544
		c0.006,0.023,0.007,0.047,0.015,0.07c0.057,0.197,0.144,0.373,0.233,0.543c0.006,0.023,0.007,0.048,0.015,0.07
		c0.057,0.197,0.144,0.375,0.234,0.545c0.006,0.021,0.007,0.047,0.013,0.068c0.058,0.196,0.145,0.372,0.234,0.543
		c0.006,0.022,0.007,0.049,0.014,0.07c0.058,0.195,0.145,0.373,0.234,0.544c0.006,0.022,0.007,0.047,0.014,0.07
		c0.058,0.196,0.145,0.372,0.234,0.543c0.006,0.022,0.007,0.048,0.014,0.069c0.058,0.199,0.146,0.377,0.236,0.549
		c0.006,0.021,0.007,0.045,0.013,0.065c0.058,0.197,0.145,0.374,0.235,0.546c0.006,0.021,0.006,0.045,0.013,0.067
		c0.058,0.196,0.145,0.373,0.235,0.544c0.006,0.023,0.006,0.047,0.013,0.07c0.057,0.197,0.145,0.373,0.235,0.543
		c0.006,0.022,0.006,0.048,0.013,0.07c0.057,0.196,0.145,0.373,0.235,0.545c0.006,0.021,0.006,0.047,0.013,0.068
		c0.057,0.197,0.144,0.374,0.235,0.545c0.006,0.021,0.006,0.047,0.013,0.068c0.057,0.195,0.144,0.372,0.235,0.544
		c0.006,0.022,0.006,0.047,0.013,0.069c0.057,0.196,0.144,0.373,0.234,0.543c0.007,0.023,0.007,0.047,0.014,0.07
		c0.057,0.197,0.144,0.373,0.234,0.545c0.007,0.022,0.007,0.047,0.014,0.069c0.057,0.196,0.144,0.374,0.234,0.545
		c0.006,0.022,0.006,0.046,0.014,0.067c0.025,0.094,0.072,0.172,0.109,0.257C43.558,125.443,53.479,128,64,128
		c25.814,0,48.047-15.295,58.166-37.309C122.163,90.686,122.162,90.682,122.159,90.675z"/>
	<g>
		<path fill="#45998B" d="M82.594,75.066c1.199,0.601,1.686,2.057,1.086,3.254c-2.166,4.332-1.814,10.386-0.455,11.746
			c0.693,0.693,0.902,1.633,0.525,2.541C83.375,93.511,82.49,94,81.51,94H69.389C68.049,94,67,93.122,67,91.781V87h-5v4.781
			C62,93.122,61.031,94,59.691,94h-9.695C48.656,94,47,93.122,47,91.781v-3.252c-4,2.261-12.885,5.677-21.533,5.677
			c-1.084,0-1.89-0.72-2.188-1.763c-0.295-1.041,0.206-2.15,1.126-2.724c3.612-2.239,7.122-7.782,10.796-13.646
			c5.834-9.307,12.458-19.856,23.4-25.254c1.205-0.592,2.663-0.101,3.256,1.101L82.594,75.066z"/>
		<path fill="#3A8074" d="M82.594,75.164L61.862,52.018c-0.593-1.199-2.045-1.69-3.25-1.1c-0.797,0.393-1.564,0.82-2.316,1.266
			c-0.293,0.65-0.58,1.316-0.856,2.019C51.052,65.35,66.939,81.76,79.512,81.76c1.036,0,2.075-0.127,3.104-0.34
			c0.247-1.037,0.594-2.063,1.063-3C84.277,77.221,83.793,75.764,82.594,75.164z"/>
		<path fill="#3A8074" d="M46.592,87.348c-3.633,2.053-13.717,6.332-21.598,6.865c0.199,0.055,0.404,0.09,0.623,0.09
			c6.901,0,14.809-2.123,21.684-5.676L46.592,87.348z"/>
		<path fill="#3A8074" d="M59.301,91.879c0,1.34-1.27,2.219-2.608,2.219h3c1.34,0,2.608-0.879,2.608-2.219v-4.781h-3V91.879z"/>
		<path fill="#3A8074" d="M83.68,78.418c0.6-1.197,0.113-2.654-1.086-3.254L61.862,52.018c-0.593-1.199-2.045-1.69-3.25-1.1
			c-0.16,0.078-0.31,0.168-0.468,0.248c0.294,0.221,0.544,0.502,0.718,0.852l20.731,23.146c1.199,0.6,1.685,2.057,1.087,3.254
			c-2.166,4.332-1.816,10.385-0.455,11.746c0.692,0.695,0.901,1.633,0.524,2.541c-0.375,0.904-1.261,1.393-2.24,1.393h3
			c0.979,0,1.865-0.488,2.24-1.393c0.377-0.908,0.168-1.846-0.524-2.541C81.863,88.803,81.514,82.75,83.68,78.418z"/>
		<path fill="#45998B" d="M98.996,52.551c2.887-3.087,6.563-8.283-0.012-17.258c-0.383-0.519-1.002-0.236-0.938,0.399
			c0.824,7.779-3.678,11.019-7.367,9.447c-3.186-1.357-4.105-4.661-4.322-9.136c-0.064-1.292-1.133-2.306-2.424-2.306
			c-8.934,0-20.036,2.094-26.497,18.504c-4.388,11.146,11.5,27.557,24.071,27.557c1.916,0,3.846-0.404,5.699-1.064c0,0,0,0,0,0.002
			c0.037-0.012,0.08-0.027,0.117-0.041c0.014-0.006,0.027-0.01,0.043-0.016c2.666-0.889,6.52-3.02,9.611-5.195
			c-2.398-3.406-2.932-8.975-3.057-9.938c1.188-2.094,4.031-4.655,7.396-8.01C100.66,54.498,99.889,53.516,98.996,52.551z"/>
		<g>
			<path fill="#3A8074" d="M83.357,36.002c0.217,4.475,1.139,7.778,4.322,9.136c1.104,0.469,2.271,0.5,3.354,0.12
				c-0.117-0.04-0.236-0.071-0.354-0.12c-3.186-1.357-4.105-4.661-4.322-9.136c-0.064-1.292-1.133-2.306-2.424-2.306
				c-0.809,0-1.637,0.018-2.477,0.062C82.504,33.989,83.301,34.891,83.357,36.002z"/>
			<path fill="#3A8074" d="M98.984,35.292c-0.381-0.519-1.002-0.236-0.938,0.399c0.115,1.09,0.117,2.081,0.041,2.991
				c3.498,6.931,0.408,11.192-2.094,13.868c0.893,0.966,2.029,2.55,2.689,3.545c-3.363,3.354-4.697,4.158-5.887,6.253
				c0.125,0.965,0.045,6.753,2.443,10.161c-3.092,2.177-8.209,5.24-10.875,6.13c-0.014,0.006-0.029,0.01-0.043,0.017
				c-0.037,0.012-0.08,0.028-0.117,0.04c0-0.002,0-0.002,0-0.002c-1.371,0.486-2.779,0.832-4.195,0.979
				c0.504,0.05,1.004,0.084,1.496,0.084c1.916,0,3.844-0.403,5.699-1.063c0,0,0,0,0,0.002c0.037-0.012,0.08-0.028,0.117-0.041
				c0.014-0.006,0.027-0.01,0.043-0.016c2.666-0.89,6.52-3.021,9.609-5.195c-2.396-3.407-2.93-8.976-3.055-9.938
				c1.188-2.094,4.031-4.656,7.396-8.01c-0.662-0.996-1.436-1.979-2.326-2.943C101.883,49.463,105.561,44.268,98.984,35.292z"/>
		</g>
		<path fill="#EDEDED" d="M86.359,53.09c0,2.682-2.17,4.85-4.852,4.85c-2.674,0-4.848-2.168-4.848-4.85
			c0-2.674,2.174-4.847,4.848-4.847C84.189,48.243,86.359,50.416,86.359,53.09z"/>
		<path fill="#10141C" d="M83.936,53.09c0,1.342-1.086,2.426-2.426,2.426c-1.338,0-2.424-1.084-2.424-2.426
			c0-1.334,1.086-2.424,2.424-2.424C82.85,50.666,83.936,51.756,83.936,53.09z"/>
		<path fill="#F2B255" d="M100.957,70.129c0.229-0.252,0.189-0.684-0.047-0.711c-1.146-0.139-2.789-0.973-4.16-2.137
			c-0.914-0.998-1.627-1.902-2.139-2.643c4.863-0.366,7.209,1.949,9.467,4.23c0.178,0.18,0.594-0.141,0.613-0.479
			c0.258-4.367-0.615-8.753-3.371-12.896c-3.334-0.09-6.693,1.791-8.48,5.117c-2.457,4.578-1.002,10.139,3.25,12.422
			c0.289,0.155,0.586,0.289,0.885,0.405C98.609,72.291,100.037,71.127,100.957,70.129z"/>
		<g>
			<path fill="#E6A951" d="M100.91,69.418c-1.146-0.139-2.789-0.973-4.16-2.137c-0.848-0.926-1.516-1.764-2.016-2.473
				c-0.898-0.186-1.906-0.254-3.057-0.174c-0.002,0.029-0.006,0.061-0.008,0.088c0.508,0.727,1.197,1.598,2.078,2.559
				c1.371,1.164,3.016,1.998,4.16,2.137c0.234,0.027,0.275,0.459,0.047,0.711c-0.672,0.729-1.617,1.545-2.713,2.381
				c0.27,0.189,0.549,0.369,0.846,0.527c0.289,0.156,0.586,0.289,0.885,0.406c1.637-1.152,3.063-2.316,3.982-3.314
				C101.188,69.877,101.146,69.445,100.91,69.418z"/>
			<path fill="#E6A951" d="M101.32,55.498c-0.934-0.025-1.861,0.119-2.766,0.391c2.219,3.492,3.137,7.148,3.178,10.816
				c0.848,0.662,1.602,1.414,2.346,2.166c0.178,0.18,0.594-0.139,0.613-0.477C104.949,64.027,104.076,59.641,101.32,55.498z"/>
		</g>
	</g>
</g>
</svg>
