<?xml version="1.0" encoding="utf-8"?>
<!-- Generator: Adobe Illustrator 15.1.0, SVG Export Plug-In . SVG Version: 6.00 Build 0)  -->
<!DOCTYPE svg PUBLIC "-//W3C//DTD SVG 1.1//EN" "http://www.w3.org/Graphics/SVG/1.1/DTD/svg11.dtd">
<svg version="1.1" id="Layer_1" xmlns="http://www.w3.org/2000/svg" xmlns:xlink="http://www.w3.org/1999/xlink" x="0px" y="0px"
	 width="128px" height="128px" viewBox="0 0 128 128" enable-background="new 0 0 128 128" xml:space="preserve">
<g>
	<path fill="#2D4452" d="M128,64c0,15.464-5.484,29.646-14.613,40.71c-4.471,5.416-18.469,17.002-33.332,18.961
		c-24.172,3.188-52.477-6.168-59.546-12.719C7.895,99.264,0,82.553,0,64C0,28.655,28.654,0,64,0C99.346,0,128,28.655,128,64z"/>
	<path fill="#2179A6" d="M122.564,20.619c0-7.248,0-12.687-10.871-18.121c-10.873-5.437-48.922-1.813-65.229,9.06
		c-10.871-1.813-14.496,0-18.12,5.438c5.436,0,5.436,3.624,1.812,9.06C27.078,30.671,9.63,47.067,4.441,87.422
		c2.272,5.773,5.358,11.137,9.12,15.949c2.953-8.938,9.772-20.207,16.596-28.396c7.704-6.822,32.278-24.86,54.276-36.188
		c18.729-9.646,39.93-12.072,42.517-14.051C126.057,23.218,124.596,21.633,122.564,20.619z"/>
	<path fill="#1E7099" d="M32.539,12.581c4.973-0.452,9.109,0.188,11.08,1.386c0.737-0.719,2.535-2.217,2.846-2.409
		C39.456,10.389,35.465,10.735,32.539,12.581z"/>
	<path fill="#1E7099" d="M128,27.866c0-1.813-1.813-5.436-5.436-7.247c0-7.248,0-12.687-10.871-18.121
		c-3.813-1.904-10.965-2.692-19.346-2.45c5.926,0.184,10.842,0.984,13.772,2.45c10.871,5.437,10.871,10.873,10.871,18.121
		c3.624,1.812,5.436,5.437,5.436,7.247H128z"/>
	<path fill="#E6E6E6" d="M126.922,24.719c-10.507,4.129-20.845-7.725-26.102-7.725c-5.438,0-12.684,12.683-19.93,14.494
		c-5.438,7.248-28.993,25.367-38.052,27.179c0-3.624,7.248-7.247,12.683-18.119c-7.248,3.624-21.744,12.685-28.991,28.991
		c-1.389,5.561,0.985,6.775,3.624,5.436c21.743-10.872,50.736-27.178,56.169-30.802c5.436,7.248,7.246,12.685,5.436,21.742
		c16.309-5.436,14.495-23.553,9.061-28.989c7.248-3.624,19.932-5.437,21.744-5.437c1.812,0,5.436-1.813,5.436-3.623
		C128,27.065,127.626,25.912,126.922,24.719z"/>
	<circle fill="#242424" cx="103.855" cy="11.623" r="1.812"/>
	<g>
		<path fill="#2995CC" d="M94.65,114.178c-0.391,2.201-0.631,4.338-0.762,6.408c6.375-3.375,12.118-7.777,16.987-13.014
			c0.481,0.037,1.433,0.191,2.295,0.748c0.547-0.832,1.106-1.502,1.626-1.965C110.049,102.311,101.998,100.902,94.65,114.178z"/>
		<path fill="#F5F5F5" d="M101.379,115.949l-2.699-6.748l-14.453,15.527C90.419,122.668,96.191,119.689,101.379,115.949z"/>
		<path fill="#91D2F2" d="M101.464,98.176c-7.512,2.32-15.139,16.088-23.19,28.211c6.119-1.395,11.904-3.656,17.218-6.666
			c5.804-7.043,10.798-12.625,15.384-12.145c0.001,0,0.002-0.002,0.002-0.002c0.578,0.043,1.829,0.246,2.798,1.125
			c1.474,1.059,2.909,2.881,4.324,5.654C124.754,101.02,113.553,94.441,101.464,98.176z"/>
	</g>
	<g>
		<path fill="#F5F5F5" d="M21.868,108.596l-1.832,1.891c6.57,6.218,14.452,11.052,23.193,14.05h12.299L40.95,88.094L21.868,108.596z
			"/>
		<path fill="#2995CC" d="M68.566,121.396c-23.23-14.104-15.882-32.236-11.5-36.148c-4.749-4.045-12.801-5.453-20.148,7.822
			c-2.725,15.408,1.065,28.09,9.007,31.465c0.83,0.354,1.367,0.088,2.135,0.652c2.303,0.586,4.293,0.998,6.688,1.326
			C57.706,125.908,62.386,125.072,68.566,121.396z"/>
		<path fill="#91D2F2" d="M43.734,77.066c-8.231,2.543-16.601,18.83-25.516,31.637c1.858,1.902,3.835,3.688,5.917,5.348
			c16.036-15.248,26.563-39.572,36.133-20.805C67.023,79.912,55.824,73.332,43.734,77.066z"/>
	</g>
	<g>
		<path fill="#2995CC" d="M82.298,98.605c-4.749-4.045-12.801-5.453-20.148,7.821c-1.193,6.746-1.128,12.959-0.019,18.104
			c0.261,1.211,9.291,2.723,13.182,1.98c0.178-0.033,1.054,0.288,1.229,0.254c2.084-0.416,4.132-0.933,6.14-1.543
			C73.609,113.473,78.861,101.672,82.298,98.605z"/>
		<path fill="#F5F5F5" d="M66.18,101.451l-19.083,20.502l-2.837,2.93C50.479,126.9,57.11,128,64,128
			c4.216,0,8.333-0.418,12.32-1.197L66.18,101.451z"/>
		<path fill="#91D2F2" d="M68.964,90.426c-8.679,2.682-17.51,20.641-26.973,33.689c2.686,0.982,5.461,1.777,8.301,2.396
			c15.519-15.276,25.821-38.313,35.207-19.907C92.254,93.27,81.053,86.691,68.964,90.426z"/>
	</g>
	<path fill="#1E7099" d="M13.561,103.369c2.953-8.938,9.772-20.207,16.596-28.396c-1.644,0.836-3.181,0.676-3.774-0.902
		c-0.603,0.306-1.204,0.605-1.797,0.902c-6.134,7.361-11.113,15.994-13.695,24.746C11.733,100.973,12.633,102.182,13.561,103.369z"
		/>
</g>
</svg>
