<?xml version="1.0" encoding="utf-8"?>
<!-- Generator: Adobe Illustrator 15.1.0, SVG Export Plug-In . SVG Version: 6.00 Build 0)  -->
<!DOCTYPE svg PUBLIC "-//W3C//DTD SVG 1.1//EN" "http://www.w3.org/Graphics/SVG/1.1/DTD/svg11.dtd">
<svg version="1.1" id="Layer_1" xmlns="http://www.w3.org/2000/svg" xmlns:xlink="http://www.w3.org/1999/xlink" x="0px" y="0px"
	 width="128px" height="128px" viewBox="0 0 128 128" enable-background="new 0 0 128 128" xml:space="preserve">
<g>
	<circle fill="#B2E3FF" cx="64" cy="64" r="64"/>
	<path fill="#A9D7F2" d="M47.267,125.775C52.604,127.217,58.208,128,64,128c23.832,0,44.607-13.037,55.623-32.359
		c-0.012-0.024-0.021-0.053-0.032-0.078c-0.082-0.207-0.165-0.412-0.25-0.619c-0.079-0.203-0.161-0.405-0.245-0.607
		c-0.082-0.206-0.164-0.41-0.248-0.613c-0.082-0.207-0.164-0.41-0.248-0.613c-0.082-0.207-0.166-0.414-0.25-0.619
		c-0.08-0.204-0.162-0.406-0.246-0.608c-0.082-0.206-0.164-0.409-0.248-0.614c-0.082-0.205-0.164-0.41-0.248-0.612
		c-0.082-0.207-0.166-0.413-0.25-0.619c-0.08-0.204-0.162-0.406-0.246-0.608c-0.082-0.205-0.162-0.41-0.248-0.613
		c-0.08-0.207-0.162-0.409-0.247-0.613c-0.082-0.207-0.165-0.413-0.25-0.619c-0.08-0.204-0.162-0.406-0.246-0.607
		c-0.081-0.207-0.163-0.41-0.248-0.615c-0.083-0.209-0.167-0.418-0.254-0.627c-0.079-0.199-0.16-0.399-0.243-0.602
		c-0.082-0.207-0.165-0.413-0.25-0.619c-0.08-0.203-0.162-0.406-0.246-0.607c-0.081-0.205-0.164-0.409-0.248-0.613
		c-0.081-0.206-0.164-0.41-0.248-0.614c-0.082-0.207-0.165-0.413-0.25-0.618c-0.08-0.205-0.16-0.406-0.246-0.607
		c-0.08-0.206-0.162-0.41-0.246-0.614c-0.082-0.206-0.164-0.41-0.248-0.614c-0.082-0.207-0.166-0.412-0.25-0.619
		c-0.08-0.203-0.162-0.405-0.246-0.606c-0.082-0.206-0.164-0.41-0.248-0.614c-0.082-0.206-0.164-0.41-0.248-0.613
		c-0.082-0.207-0.164-0.41-0.248-0.615c-0.082-0.206-0.166-0.412-0.25-0.617c-0.08-0.204-0.162-0.406-0.246-0.607
		c-0.082-0.207-0.164-0.41-0.248-0.615c-0.081-0.205-0.164-0.41-0.248-0.613c-0.082-0.206-0.165-0.412-0.25-0.618
		c-0.08-0.204-0.162-0.406-0.246-0.608c-0.081-0.205-0.164-0.41-0.248-0.613c-0.081-0.206-0.164-0.41-0.248-0.613
		c-0.082-0.207-0.165-0.413-0.25-0.619c-0.08-0.204-0.162-0.406-0.246-0.607c-0.083-0.211-0.167-0.42-0.254-0.627
		c-0.079-0.201-0.16-0.401-0.243-0.603c-0.081-0.206-0.163-0.41-0.248-0.614c-0.082-0.207-0.165-0.412-0.25-0.619
		c-0.079-0.203-0.161-0.406-0.245-0.607c-0.082-0.206-0.164-0.409-0.248-0.613c-0.082-0.206-0.164-0.41-0.248-0.613
		c-0.082-0.207-0.166-0.414-0.25-0.619c-0.08-0.205-0.162-0.406-0.246-0.608c-0.082-0.205-0.164-0.409-0.248-0.613
		c-0.082-0.206-0.164-0.41-0.248-0.614c-0.082-0.207-0.166-0.413-0.25-0.619c-0.08-0.204-0.162-0.406-0.246-0.607
		c-0.082-0.206-0.163-0.41-0.247-0.614c-0.082-0.206-0.163-0.41-0.248-0.614c-0.081-0.206-0.163-0.41-0.248-0.614
		c-0.082-0.207-0.165-0.413-0.25-0.619c-0.08-0.203-0.162-0.405-0.246-0.607c-0.081-0.206-0.163-0.41-0.248-0.614
		c-0.081-0.206-0.163-0.41-0.248-0.614c-0.082-0.207-0.165-0.413-0.25-0.618c-0.08-0.204-0.162-0.406-0.246-0.608
		c-0.081-0.206-0.163-0.41-0.248-0.614c-0.081-0.206-0.163-0.41-0.248-0.614c-0.081-0.207-0.165-0.413-0.25-0.618
		c-0.081-0.208-0.166-0.415-0.252-0.621c-0.079-0.201-0.159-0.401-0.241-0.603c-0.082-0.206-0.164-0.41-0.248-0.614
		c-0.082-0.205-0.164-0.409-0.248-0.613c-0.082-0.207-0.166-0.413-0.25-0.619c-0.08-0.204-0.162-0.406-0.246-0.608
		c-0.082-0.206-0.164-0.41-0.248-0.613c-0.082-0.206-0.164-0.41-0.248-0.614c-0.082-0.207-0.166-0.413-0.25-0.619
		c-0.08-0.204-0.162-0.406-0.246-0.608c-0.082-0.206-0.164-0.409-0.248-0.613c-0.081-0.206-0.164-0.41-0.248-0.614
		c-0.082-0.207-0.165-0.413-0.25-0.619c-0.08-0.204-0.162-0.406-0.246-0.608c-0.081-0.206-0.164-0.409-0.248-0.613
		c-0.081-0.206-0.164-0.41-0.248-0.614c-0.081-0.206-0.164-0.41-0.248-0.614c-0.082-0.207-0.165-0.413-0.25-0.619
		c-0.08-0.204-0.162-0.405-0.246-0.607c-0.081-0.206-0.164-0.41-0.248-0.614c-0.08-0.206-0.164-0.41-0.248-0.614
		c-0.082-0.207-0.164-0.413-0.25-0.619c-0.08-0.204-0.162-0.405-0.246-0.607c-0.08-0.206-0.164-0.41-0.248-0.614
		c-0.08-0.206-0.164-0.41-0.248-0.614c-0.082-0.212-0.168-0.422-0.256-0.632c-0.078-0.199-0.158-0.396-0.24-0.596
		c-0.082-0.206-0.164-0.41-0.248-0.614c-0.082-0.206-0.164-0.41-0.248-0.614c-0.082-0.207-0.166-0.413-0.25-0.619
		c-0.08-0.203-0.161-0.405-0.246-0.607c-0.081-0.206-0.163-0.41-0.247-0.614c-0.082-0.206-0.163-0.41-0.248-0.614
		c-0.081-0.206-0.163-0.41-0.248-0.613c-0.082-0.207-0.165-0.414-0.25-0.619c-0.08-0.204-0.162-0.406-0.246-0.608
		c-0.081-0.206-0.163-0.409-0.248-0.614c-0.337-0.856-0.696-1.701-1.099-2.523c-0.393-0.811-1.191-1.348-2.098-1.401
		c-0.193-0.018-0.383,0-0.566,0.031c-0.074,0.013-0.147,0.028-0.223,0.049c-0.089,0.024-0.173,0.056-0.257,0.091
		c-0.483,0.188-0.911,0.514-1.204,0.965C83.5,38.414,78.396,43.611,71.934,50.19l-0.871,0.893c-0.06-0.151-0.121-0.294-0.182-0.441
		c-0.08-0.211-0.165-0.41-0.248-0.614c-0.081-0.214-0.167-0.415-0.251-0.622c-0.079-0.208-0.163-0.403-0.245-0.604
		c-0.08-0.211-0.164-0.41-0.248-0.614c-0.08-0.211-0.164-0.41-0.248-0.614c-0.08-0.214-0.166-0.415-0.25-0.622
		c-0.08-0.208-0.164-0.403-0.246-0.604c-0.08-0.211-0.164-0.41-0.248-0.614c-0.08-0.211-0.164-0.41-0.248-0.614
		c-0.08-0.211-0.164-0.41-0.248-0.613c-0.08-0.215-0.166-0.415-0.25-0.622c-0.08-0.208-0.164-0.404-0.246-0.604
		c-0.079-0.211-0.163-0.41-0.247-0.614c-0.079-0.211-0.164-0.41-0.248-0.613c-0.08-0.215-0.166-0.415-0.25-0.622
		c-0.079-0.208-0.163-0.404-0.245-0.605c-0.08-0.211-0.165-0.41-0.248-0.614c-0.08-0.211-0.165-0.41-0.248-0.613
		c-0.084-0.223-0.173-0.431-0.262-0.645c-0.075-0.201-0.156-0.39-0.235-0.584c-0.08-0.211-0.165-0.41-0.248-0.614
		c-0.08-0.211-0.165-0.409-0.248-0.613c-0.081-0.215-0.167-0.415-0.251-0.622c-0.08-0.208-0.163-0.404-0.244-0.605
		c-0.08-0.211-0.166-0.41-0.248-0.614c-0.08-0.211-0.166-0.409-0.249-0.614c-0.08-0.211-0.164-0.409-0.248-0.613
		c-0.08-0.214-0.166-0.415-0.25-0.622c-0.08-0.208-0.164-0.404-0.246-0.604c-0.08-0.211-0.164-0.41-0.248-0.615
		c-0.324-0.85-0.666-1.646-1.023-2.375c-1.889-3.862-4.066-5.82-6.469-5.82c-0.221,0-0.43,0.037-0.631,0.09
		c-0.031,0.01-0.063,0.02-0.092,0.028c-1.027,0.312-1.777,1.253-1.777,2.382c0,0.111-0.508,11.65-11.792,23.257
		c-4.795,4.93-5.13,10.418-3.675,14.837c-3.2,0.385-5.682,3.104-5.682,6.407c0,0.431,0.044,0.849,0.124,1.255c0,0-0.001,0-0.002,0
		l-5.727,5.041L47.267,125.775z"/>
	<path fill="#E6E6E6" d="M43.441,71.5c-0.649,0-1.302-0.254-1.792-0.757c-4.104-4.22-7.49-13.286,0-20.986
		C52.934,38.151,53.441,26.611,53.441,26.5c0-1.382,1.117-2.5,2.5-2.5c2.401,0,4.58,1.958,6.469,5.82
		c4.316,8.828,6.666,27.075-1.996,38.213c-0.85,1.089-2.422,1.283-3.506,0.438c-1.092-0.848-10.733,1.357-11.724,2.319
		C44.698,71.266,44.071,71.5,43.441,71.5z"/>
	<g>
		<path fill="#D9D9D9" d="M42.184,70.792c-0.076,0.074-0.161,0.132-0.244,0.194c0.444,0.336,0.971,0.514,1.5,0.514
			c0.63,0,1.257-0.234,1.743-0.708c0.678-0.658,5.4-1.896,8.667-2.343C52.576,67.682,43.164,69.842,42.184,70.792z"/>
		<path fill="#D9D9D9" d="M62.41,29.82C60.521,25.958,58.344,24,55.941,24c-0.467,0-0.897,0.136-1.271,0.357
			c1.727,0.724,3.314,2.55,4.739,5.463c4.315,8.828,6.666,27.074-1.996,38.213c-0.142,0.18-0.306,0.326-0.479,0.456
			c1.084,0.821,2.637,0.624,3.479-0.456C69.076,56.896,66.727,38.648,62.41,29.82z"/>
	</g>
	<path fill="#D9D9D9" d="M60.414,68.033c3.048-3.919,4.729-8.718,5.443-13.677C60.866,59.334,52.616,67,48.441,67
		c-0.789,0-1.719-0.814-2.703-1.682c-1.359-1.194-3.654-2.775-6.988-2.775c-0.437,0-0.863,0.045-1.275,0.127
		c0.63,3.295,2.328,6.176,4.174,8.073c0.49,0.503,1.143,0.757,1.792,0.757c0.63,0,1.257-0.234,1.743-0.708
		c0.991-0.962,10.632-3.167,11.724-2.319C57.992,69.316,59.564,69.122,60.414,68.033z"/>
	<path fill="#EDEDED" d="M91.891,67.677c6.375-10.41,6.906-25.734,1.299-37.271c-0.393-0.812-1.191-1.348-2.098-1.401
		c-0.912-0.081-1.76,0.378-2.25,1.136C83.496,38.39,78.393,43.588,71.93,50.167l-3.166,3.237C65.014,57.262,53.607,69,48.441,69
		c-0.789,0-1.719-0.814-2.703-1.682c-1.359-1.194-3.654-2.775-6.988-2.775c-3.566,0-6.458,2.893-6.458,6.458
		s2.892,6.458,6.458,6.458c0.579,0,1.137-0.083,1.671-0.227c0.94,1.429,1.17,3.365,1.97,5.246c1.523,3.58,3.579,8.404,11.9,8.967
		c0.127,0.309,0.248,0.621,0.371,0.934C57.182,98.736,60.521,104,75.941,104c4.025,0,7.197-0.711,9.418-2.114
		c2.271-1.433,3.523-3.569,3.523-6.021c0-4.902-4.979-9.365-10.441-9.365c-4.955,0-8.479-1.958-9.609-5.15
		C81.57,80.232,88.377,73.414,91.891,67.677z"/>
	<path fill="#D9D9D9" d="M37.479,77.332c-0.021-0.032-0.037-0.066-0.058-0.1c-0.063,0.017-0.128,0.022-0.191,0.039
		C37.313,77.292,37.394,77.314,37.479,77.332z"/>
	<path fill="#D9D9D9" d="M42.738,67.318C45,69.688,47.746,69.255,48.441,69c-1.274-0.249-2.145-1.189-2.703-1.682
		c-1.359-1.194-3.654-2.775-6.988-2.775c-0.468,0-0.924,0.053-1.363,0.146C39.843,65.096,41.706,66.236,42.738,67.318z"/>
	<path fill="#D9D9D9" d="M91.891,67.677c6.375-10.41,6.906-25.734,1.299-37.271c-0.393-0.812-1.191-1.348-2.098-1.401
		c-0.613-0.055-1.188,0.149-1.652,0.511c0.312,0.234,0.576,0.529,0.75,0.892c5.607,11.535,5.076,26.859-1.299,37.271
		c-3.514,5.736-10.32,12.557-23.059,13.672c1.133,3.192,4.654,5.15,9.609,5.15c5.463,0,10.441,4.463,10.441,9.365
		c0,2.449-1.252,4.588-3.523,6.021c-1.989,1.256-4.748,1.953-8.194,2.086c0.575,0.018,1.163,0.027,1.776,0.027
		c4.025,0,7.197-0.711,9.418-2.113c2.271-1.434,3.523-3.57,3.523-6.021c0-4.902-4.979-9.365-10.441-9.365
		c-4.955,0-8.479-1.958-9.609-5.15C81.57,80.232,88.377,73.414,91.891,67.677z"/>
	<path fill="#E78244" d="M32.414,72.256l-5.727,5.041c0,0,6.31-1.746,7.185-1.965C34.953,74.063,33.594,72.256,32.414,72.256z"/>
	<circle fill="#2D4452" cx="36.75" cy="70.063" r="1"/>
</g>
</svg>
