<?xml version="1.0" encoding="utf-8"?>
<!-- Generator: Adobe Illustrator 15.1.0, SVG Export Plug-In . SVG Version: 6.00 Build 0)  -->
<!DOCTYPE svg PUBLIC "-//W3C//DTD SVG 1.1//EN" "http://www.w3.org/Graphics/SVG/1.1/DTD/svg11.dtd">
<svg version="1.1" id="Layer_1" xmlns="http://www.w3.org/2000/svg" xmlns:xlink="http://www.w3.org/1999/xlink" x="0px" y="0px"
	 width="128px" height="128px" viewBox="0 0 128 128" enable-background="new 0 0 128 128" xml:space="preserve">
<g>
	<circle fill="#2D4452" cx="64" cy="64" r="64"/>
	<path fill="#233540" d="M123.343,87.967c-0.065-0.197-0.137-0.388-0.225-0.558c-0.071-0.22-0.152-0.429-0.249-0.615
		c-0.07-0.22-0.151-0.425-0.247-0.612c-0.07-0.22-0.151-0.427-0.248-0.613c-0.069-0.221-0.151-0.428-0.248-0.613
		c-0.071-0.221-0.151-0.428-0.249-0.615c-0.07-0.22-0.15-0.426-0.247-0.611c-0.069-0.221-0.151-0.428-0.248-0.613
		c-0.069-0.221-0.151-0.428-0.248-0.614c-0.071-0.22-0.151-0.428-0.249-0.615c-0.07-0.22-0.15-0.425-0.246-0.612
		c-0.072-0.222-0.154-0.431-0.252-0.618c-0.07-0.22-0.15-0.425-0.246-0.608c-0.07-0.22-0.149-0.427-0.248-0.613
		c-0.068-0.221-0.15-0.429-0.248-0.615c-0.069-0.221-0.15-0.426-0.248-0.611c-0.068-0.221-0.149-0.427-0.248-0.614
		c-0.068-0.22-0.149-0.427-0.248-0.614c-0.068-0.22-0.15-0.428-0.248-0.613c-0.069-0.221-0.15-0.428-0.246-0.612
		c-0.07-0.22-0.151-0.427-0.248-0.614c-0.07-0.22-0.151-0.427-0.248-0.613c-0.07-0.221-0.152-0.428-0.249-0.614
		c-0.07-0.222-0.15-0.427-0.247-0.612c-0.068-0.22-0.15-0.427-0.248-0.613c-0.068-0.221-0.15-0.428-0.248-0.614
		c-0.068-0.22-0.15-0.427-0.248-0.613c-0.068-0.221-0.15-0.429-0.249-0.615c-0.069-0.22-0.149-0.425-0.246-0.612
		c-0.069-0.219-0.151-0.426-0.248-0.612c-0.069-0.222-0.151-0.429-0.247-0.614c-0.07-0.221-0.152-0.428-0.25-0.615
		c-0.07-0.22-0.15-0.426-0.246-0.611c-0.07-0.221-0.152-0.428-0.248-0.613c-0.07-0.221-0.151-0.428-0.248-0.614
		c-0.07-0.22-0.152-0.428-0.25-0.614c-0.07-0.223-0.151-0.431-0.25-0.619c-0.069-0.217-0.149-0.422-0.246-0.606
		c-0.069-0.221-0.15-0.428-0.248-0.614c-0.069-0.22-0.15-0.427-0.248-0.614c-0.07-0.22-0.151-0.428-0.248-0.615
		c-0.07-0.22-0.15-0.425-0.247-0.611c-0.069-0.221-0.151-0.428-0.248-0.614c-0.069-0.22-0.151-0.427-0.248-0.614
		c-0.071-0.22-0.151-0.428-0.249-0.615c-0.07-0.22-0.15-0.426-0.247-0.611c-0.069-0.22-0.151-0.427-0.248-0.614
		c-0.069-0.22-0.151-0.427-0.247-0.614c-0.072-0.22-0.152-0.428-0.25-0.614c-0.07-0.221-0.15-0.426-0.246-0.612
		c-0.07-0.22-0.15-0.427-0.248-0.614c-0.07-0.22-0.15-0.427-0.248-0.614c-0.07-0.22-0.15-0.427-0.248-0.613
		c-0.07-0.221-0.152-0.429-0.25-0.615c-0.068-0.22-0.15-0.425-0.246-0.612c-0.07-0.22-0.15-0.427-0.248-0.614
		c-0.069-0.22-0.15-0.427-0.248-0.613c-0.07-0.221-0.151-0.429-0.248-0.615c-0.07-0.22-0.151-0.426-0.248-0.612
		c-0.069-0.22-0.149-0.427-0.248-0.614c-0.069-0.22-0.149-0.427-0.248-0.613c-0.069-0.224-0.151-0.434-0.252-0.622
		c-0.067-0.217-0.149-0.42-0.244-0.605c-0.069-0.22-0.151-0.427-0.248-0.613c-0.069-0.221-0.151-0.428-0.248-0.614
		c-0.069-0.221-0.151-0.429-0.249-0.615c-0.07-0.22-0.149-0.426-0.246-0.612c-0.069-0.22-0.151-0.427-0.248-0.613
		c-0.069-0.221-0.151-0.428-0.248-0.614c-0.069-0.22-0.151-0.427-0.248-0.614c-0.069-0.22-0.151-0.428-0.25-0.615
		c-0.069-0.22-0.149-0.426-0.246-0.611c-0.069-0.221-0.151-0.428-0.248-0.614c-0.329-1.028-0.946-1.751-1.78-1.751
		c-0.234,0-0.459,0.03-0.676,0.077c-1.832,0.355-3.156,2.023-5.24,2.173c-0.453,0.032-0.863-0.021-1.246-0.132
		c-0.219-0.063-0.426-0.148-0.623-0.249c-0.01-0.005-0.021-0.011-0.029-0.017c-0.6-0.309-1.107-0.766-1.553-1.267
		c-0.008-0.007-0.014-0.015-0.021-0.021c-0.291-0.329-0.555-0.677-0.797-1.013c-0.012-0.015-0.021-0.029-0.03-0.044
		c-0.125-0.172-0.244-0.34-0.359-0.501c-0.055-0.076-0.105-0.146-0.158-0.219c-0.004-0.008-0.007-0.016-0.01-0.022
		c-0.074-0.207-0.163-0.407-0.247-0.609c-0.075-0.208-0.164-0.41-0.248-0.614c-2.03-5.66-7.733-9.745-14.476-9.745
		c-8.443,0-15.288,6.396-15.288,14.287c0,1.813,0.391,3.537,1.054,5.132c0.075,0.208,0.163,0.41,0.248,0.614
		c0.075,0.209,0.163,0.412,0.249,0.616c0.074,0.208,0.162,0.407,0.247,0.61c0.075,0.208,0.163,0.41,0.248,0.614
		c0.076,0.208,0.164,0.41,0.248,0.614c0.076,0.208,0.164,0.41,0.248,0.613c0.076,0.209,0.164,0.412,0.25,0.616
		c0.074,0.208,0.162,0.408,0.246,0.611c0.075,0.208,0.164,0.41,0.248,0.614c0.075,0.208,0.164,0.41,0.248,0.613
		c0.075,0.213,0.166,0.417,0.252,0.624c0.073,0.205,0.161,0.403,0.245,0.604c0.074,0.208,0.162,0.41,0.248,0.614
		c0.074,0.208,0.162,0.409,0.248,0.613c0.074,0.209,0.162,0.412,0.248,0.616c0.074,0.208,0.162,0.408,0.248,0.611
		c0.074,0.208,0.162,0.41,0.248,0.614c0.074,0.208,0.162,0.409,0.247,0.613c0.074,0.209,0.163,0.412,0.249,0.616
		c0.055,0.149,0.112,0.295,0.172,0.441c-0.071,3.054-1.53,5.044-2.692,6.251c-0.59,0.61-1.215,0.881-2.035,0.881V68H24.902
		c-1.34,0-2.424,0.705-2.424,2.045c0,1.396,0.293,2.71,0.842,3.93c0.077,0.207,0.157,0.412,0.248,0.614
		c0.077,0.208,0.158,0.415,0.25,0.618c0.076,0.205,0.156,0.409,0.246,0.609c0.076,0.207,0.156,0.412,0.248,0.613
		c0.07,0.189,0.143,0.381,0.226,0.566c0.086,1.671,0.364,3.449,0.364,4.786c0,1.37,0.307,2.95,0.996,4.577
		c0.074,0.205,0.16,0.41,0.248,0.613c0.074,0.205,0.162,0.411,0.25,0.618c0.074,0.202,0.16,0.405,0.246,0.609
		c0.074,0.204,0.16,0.409,0.248,0.614c0.074,0.203,0.16,0.408,0.248,0.612c0.074,0.204,0.16,0.409,0.248,0.614
		c0.074,0.205,0.162,0.411,0.25,0.618c0.074,0.202,0.16,0.405,0.246,0.608c0.074,0.205,0.16,0.408,0.248,0.613
		c0.074,0.204,0.16,0.409,0.248,0.614c0.075,0.208,0.163,0.417,0.254,0.627c0.072,0.198,0.157,0.399,0.242,0.603
		c0.075,0.203,0.161,0.407,0.248,0.612c0.075,0.204,0.161,0.409,0.248,0.614c0.075,0.205,0.162,0.41,0.25,0.617
		c0.074,0.203,0.159,0.406,0.246,0.609c0.075,0.204,0.161,0.408,0.248,0.613c0.075,0.204,0.161,0.409,0.248,0.613
		c0.074,0.205,0.162,0.412,0.25,0.619c0.074,0.201,0.158,0.404,0.246,0.608c0.074,0.204,0.16,0.408,0.248,0.613
		c0.074,0.204,0.16,0.409,0.248,0.614c0.074,0.203,0.16,0.408,0.248,0.613c0.074,0.205,0.162,0.411,0.25,0.618
		c0.074,0.202,0.158,0.404,0.246,0.608c0.074,0.203,0.16,0.408,0.248,0.613c0.074,0.205,0.16,0.41,0.248,0.614
		c0.074,0.205,0.161,0.411,0.25,0.618c0.073,0.201,0.158,0.404,0.246,0.607c0.074,0.205,0.16,0.41,0.247,0.615
		c0.075,0.203,0.161,0.408,0.248,0.613c0.075,0.205,0.162,0.411,0.25,0.618c0.074,0.201,0.159,0.403,0.246,0.608
		c0.075,0.203,0.161,0.408,0.248,0.613c0.075,0.204,0.161,0.409,0.248,0.614c0.076,0.207,0.164,0.415,0.253,0.624
		c0.073,0.202,0.159,0.402,0.246,0.607c0.074,0.201,0.16,0.404,0.246,0.608c0.074,0.204,0.16,0.409,0.248,0.614
		c0.074,0.204,0.16,0.408,0.248,0.613c0.074,0.205,0.162,0.41,0.25,0.617c0.074,0.203,0.16,0.405,0.246,0.609
		c0.074,0.204,0.16,0.409,0.248,0.614c0.074,0.204,0.16,0.407,0.248,0.612c0.074,0.205,0.162,0.412,0.25,0.619
		c0.073,0.201,0.16,0.404,0.246,0.608c0.074,0.204,0.16,0.409,0.248,0.614c0.074,0.203,0.16,0.408,0.247,0.613
		c0.075,0.203,0.161,0.408,0.248,0.613c0.075,0.205,0.162,0.411,0.25,0.618c0.074,0.202,0.16,0.405,0.246,0.608
		c0.075,0.205,0.161,0.408,0.248,0.613c0.075,0.204,0.161,0.409,0.248,0.614c0.075,0.205,0.162,0.411,0.25,0.618
		c0.074,0.201,0.16,0.404,0.246,0.609c0.075,0.203,0.161,0.407,0.248,0.612c0.075,0.204,0.161,0.409,0.248,0.614
		c0.075,0.205,0.161,0.411,0.25,0.617c0.073,0.203,0.159,0.406,0.245,0.609c0.076,0.203,0.162,0.408,0.248,0.613
		c0.063,0.171,0.137,0.344,0.209,0.516C48.131,126.475,55.885,128,64,128C90.868,128,113.855,111.436,123.343,87.967z"/>
	<path fill="#FFD464" d="M85.486,54.817l-4.813,0.602c0.014,0.092-7.105-2.141-7.264-6.623c-0.018-0.426-0.028-0.752-0.028-0.951
		h-4.849c0,0.236-4.862,1.451-4.565,1.856c7.28,9.924,3.966,15.029,1.751,17.324c-0.59,0.61-1.215,0.882-2.034,0.882v4.18H27.322
		c-4.272,0-2.424,6.293-2.424,9.697c0,6.303,6.127,16.971,29.092,16.971c20.617,0,33.938-6.662,33.938-16.971
		C87.93,74.445,85.585,55.614,85.486,54.817z"/>
	<path fill="#F2C95F" d="M85.486,54.817l-4.489,0.561c0.683,5.754,2.084,18.299,2.084,23.981c0,10.308-13.322,16.97-33.938,16.97
		c-7.094,0-12.569-1.021-16.768-2.613c4.496,2.912,11.373,5.039,21.615,5.039c20.617,0,33.938-6.662,33.938-16.971
		C87.93,74.445,85.585,55.614,85.486,54.817z"/>
	<path fill="#FFC066" d="M46.883,83.684c-14.369,0-24.408-5.385-24.408-13.639c0-1.34,1.084-2.045,2.424-2.045h43.638
		c1.34,0,2.424,0.705,2.424,2.045C70.959,78.43,61.284,83.684,46.883,83.684z"/>
	<path fill="#F2B661" d="M68.535,68h-3c1.34,0,2.424,0.705,2.424,2.045c0,8.131-9.113,13.303-22.797,13.607
		c0.566,0.019,1.139,0.029,1.721,0.029c14.401,0,24.076-5.254,24.076-13.639C70.959,68.705,69.875,68,68.535,68z"/>
	<ellipse fill="#FFD464" cx="77.762" cy="43.532" rx="15.287" ry="14.287"/>
	<path fill="#F2C95F" d="M77.762,29.245c-0.507,0-1.006,0.024-1.5,0.071c7.739,0.703,13.787,6.799,13.787,14.216
		s-6.048,13.512-13.787,14.216c0.494,0.046,0.993,0.071,1.5,0.071c8.443,0,15.287-6.396,15.287-14.287
		C93.049,35.641,86.205,29.245,77.762,29.245z"/>
	<path fill="#E78244" d="M92.583,40.02c-0.254,3.765-7.19,7.284-1.78,10.973c1.006,0.394,4.297,1.3,7.198,0.967
		c5.083-0.583,7.524-3.541,7.524-6.958c0-1.895-0.782-3.552-2.051-3.552c-2.207,0-3.584,2.084-5.916,2.25
		C94.98,43.882,93.631,41.407,92.583,40.02z"/>
	<g>
		<path fill="#D97A40" d="M95.559,43.698c0.268-0.021,0.517-0.068,0.758-0.131c-1.797-0.521-2.867-2.402-3.731-3.549
			c-0.042,0.631-0.272,1.253-0.604,1.871C92.854,42.918,93.973,43.813,95.559,43.698z"/>
		<path fill="#D97A40" d="M103.477,41.448c-0.444,0-0.853,0.1-1.244,0.235c0.813,0.515,1.293,1.838,1.293,3.315
			c0,3.417-2.439,6.375-7.522,6.958c-0.135,0.016-0.271,0.016-0.407,0.026c0.797,0.058,1.614,0.063,2.407-0.026
			c5.083-0.583,7.522-3.541,7.522-6.958C105.525,43.105,104.743,41.448,103.477,41.448z"/>
	</g>
	<circle fill="#F5F5F5" cx="80.334" cy="40.532" r="3"/>
	<circle fill="#242424" cx="80.334" cy="40.532" r="2"/>
</g>
</svg>
