<?xml version="1.0" encoding="utf-8"?>
<!-- Generator: Adobe Illustrator 15.1.0, SVG Export Plug-In . SVG Version: 6.00 Build 0)  -->
<!DOCTYPE svg PUBLIC "-//W3C//DTD SVG 1.1//EN" "http://www.w3.org/Graphics/SVG/1.1/DTD/svg11.dtd">
<svg version="1.1" id="Layer_1" xmlns="http://www.w3.org/2000/svg" xmlns:xlink="http://www.w3.org/1999/xlink" x="0px" y="0px"
	 width="128px" height="128px" viewBox="0 0 128 128" enable-background="new 0 0 128 128" xml:space="preserve">
<g>
	<circle fill="#2D4452" cx="64" cy="63.998" r="64"/>
	<path fill="#233540" d="M122.826,89.229c-0.064-0.166-0.135-0.328-0.199-0.494c-0.074-0.211-0.167-0.407-0.248-0.612
		c-0.074-0.213-0.168-0.41-0.249-0.617c-0.073-0.211-0.167-0.406-0.247-0.61c-0.074-0.211-0.167-0.406-0.248-0.613
		c-0.074-0.211-0.167-0.408-0.248-0.613c-0.074-0.213-0.168-0.41-0.248-0.617c-0.074-0.211-0.168-0.406-0.248-0.609
		c-0.072-0.213-0.166-0.407-0.248-0.614c-0.072-0.212-0.166-0.408-0.248-0.613c-0.072-0.211-0.166-0.408-0.246-0.614
		c-0.076-0.212-0.17-0.41-0.25-0.617c-0.073-0.209-0.166-0.404-0.246-0.609c-0.074-0.211-0.168-0.408-0.248-0.613
		c-0.074-0.211-0.168-0.408-0.248-0.615c-0.075-0.211-0.168-0.408-0.249-0.615c-0.074-0.211-0.167-0.405-0.247-0.61
		c-0.074-0.211-0.167-0.408-0.248-0.613c-0.074-0.211-0.167-0.407-0.248-0.614c-0.075-0.211-0.168-0.408-0.249-0.615
		c-0.074-0.211-0.167-0.406-0.247-0.611c-0.076-0.213-0.17-0.414-0.252-0.625c-0.073-0.207-0.165-0.4-0.245-0.604
		c-0.073-0.211-0.167-0.408-0.248-0.613c-0.075-0.213-0.168-0.41-0.249-0.617c-0.074-0.211-0.167-0.406-0.247-0.611
		c-0.073-0.211-0.167-0.406-0.247-0.613c-0.074-0.211-0.168-0.407-0.248-0.612c-0.074-0.213-0.168-0.41-0.25-0.617
		c-0.072-0.211-0.166-0.405-0.246-0.61c-0.074-0.211-0.168-0.406-0.248-0.613c-0.074-0.211-0.168-0.408-0.248-0.613
		c-0.074-0.213-0.168-0.41-0.248-0.617c-0.074-0.211-0.168-0.406-0.248-0.611c-0.073-0.211-0.166-0.405-0.248-0.612
		c-0.073-0.211-0.166-0.408-0.248-0.613c-0.073-0.211-0.166-0.407-0.247-0.614c-0.075-0.211-0.169-0.41-0.249-0.617
		c-0.074-0.209-0.167-0.404-0.247-0.609c-0.074-0.211-0.167-0.408-0.248-0.613c-0.074-0.211-0.167-0.409-0.248-0.615
		c-0.075-0.212-0.168-0.41-0.249-0.617c-0.074-0.21-0.167-0.404-0.247-0.609c-0.073-0.211-0.167-0.408-0.248-0.614
		c-0.073-0.211-0.167-0.408-0.248-0.614c-0.075-0.212-0.168-0.41-0.249-0.617c-0.076-0.213-0.169-0.411-0.251-0.62
		c-0.073-0.207-0.165-0.4-0.245-0.604c-0.074-0.211-0.167-0.408-0.248-0.614c-0.072-0.211-0.166-0.407-0.248-0.613
		c-0.074-0.212-0.168-0.41-0.248-0.617c-0.074-0.21-0.168-0.405-0.248-0.61c-0.072-0.211-0.166-0.408-0.248-0.614
		c-0.072-0.211-0.166-0.407-0.246-0.613c-0.075-0.212-0.17-0.41-0.25-0.617c-0.073-0.21-0.166-0.405-0.246-0.61
		c-0.074-0.211-0.168-0.408-0.248-0.614c-0.074-0.211-0.168-0.407-0.248-0.613c-0.075-0.212-0.168-0.41-0.249-0.617
		c-0.074-0.21-0.167-0.405-0.247-0.61c-0.074-0.211-0.167-0.408-0.248-0.613c-0.074-0.212-0.167-0.408-0.248-0.614
		c-0.074-0.211-0.167-0.408-0.248-0.614c-0.075-0.212-0.168-0.41-0.249-0.617c-0.074-0.21-0.167-0.404-0.247-0.609
		c-0.074-0.211-0.167-0.408-0.248-0.614c-0.074-0.211-0.167-0.408-0.248-0.614c-0.074-0.212-0.168-0.41-0.249-0.617
		c-0.073-0.21-0.167-0.404-0.247-0.609c-0.072-0.211-0.167-0.408-0.248-0.614c-0.072-0.211-0.166-0.408-0.248-0.614
		c-0.147-0.423-0.324-0.826-0.498-1.23c-0.072-0.209-0.166-0.405-0.246-0.61c-0.074-0.211-0.166-0.408-0.248-0.614
		c-0.074-0.212-0.168-0.41-0.248-0.617c-0.074-0.21-0.168-0.404-0.248-0.609c-0.073-0.211-0.166-0.408-0.248-0.614
		c-0.073-0.211-0.166-0.408-0.248-0.614c-0.073-0.211-0.166-0.407-0.247-0.613c-0.075-0.213-0.169-0.41-0.249-0.617
		c-0.074-0.21-0.167-0.405-0.247-0.61c-0.074-0.211-0.167-0.408-0.248-0.614c-0.634-1.782-1.47-3.414-2.506-4.892
		c-0.261-0.37-0.534-0.729-0.819-1.078c-0.125-0.151-0.26-0.297-0.389-0.444c-0.163-0.188-0.324-0.377-0.495-0.559
		c-0.183-0.193-0.374-0.377-0.563-0.563c-0.125-0.123-0.246-0.246-0.375-0.364c-0.234-0.218-0.479-0.427-0.729-0.634
		c-0.087-0.071-0.171-0.146-0.26-0.217c-0.295-0.238-0.6-0.467-0.908-0.688c-0.038-0.027-0.076-0.056-0.115-0.083
		c-4.51-3.194-10.684-4.864-18.229-4.864H39.4c-8.831,0-15.396,6.167-15.396,15v32.536c-0.003,0-0.006,0-0.009,0l-0.191,0.01v22.387
		c0,0.023,0.021,1.605,0.872,3.553c0.073,0.199,0.156,0.404,0.248,0.613c0.074,0.201,0.158,0.408,0.25,0.621
		c0.073,0.197,0.155,0.398,0.246,0.605c0.073,0.201,0.156,0.404,0.248,0.615c0.073,0.198,0.156,0.403,0.248,0.612
		c0.073,0.201,0.156,0.404,0.248,0.615c0.074,0.198,0.158,0.405,0.25,0.618c0.073,0.197,0.155,0.4,0.246,0.607
		c0.073,0.199,0.156,0.404,0.248,0.613c0.073,0.201,0.156,0.404,0.248,0.615c0.075,0.205,0.162,0.418,0.257,0.635
		c0.071,0.191,0.151,0.391,0.24,0.592c0.072,0.201,0.155,0.404,0.248,0.615c0.072,0.199,0.155,0.402,0.248,0.613
		c0.073,0.201,0.156,0.408,0.25,0.619c0.072,0.196,0.154,0.399,0.245,0.606c0.073,0.201,0.156,0.404,0.248,0.615
		c0.073,0.198,0.156,0.401,0.248,0.612c0.074,0.201,0.157,0.408,0.25,0.619c0.073,0.197,0.155,0.4,0.246,0.607
		c0.073,0.201,0.156,0.404,0.248,0.615c0.073,0.199,0.156,0.402,0.248,0.613c0.073,0.198,0.156,0.403,0.248,0.612
		c0.074,0.201,0.157,0.408,0.25,0.621c0.073,0.197,0.155,0.399,0.246,0.606c0.073,0.199,0.156,0.402,0.248,0.613
		c0.073,0.199,0.156,0.404,0.248,0.613c0.074,0.201,0.156,0.408,0.25,0.621c0.072,0.197,0.154,0.4,0.246,0.607
		c0.072,0.199,0.155,0.401,0.248,0.612c0.072,0.199,0.155,0.404,0.248,0.613c0.073,0.201,0.156,0.408,0.25,0.621
		c0.072,0.196,0.154,0.397,0.245,0.604c0.073,0.201,0.156,0.404,0.248,0.615c0.073,0.199,0.156,0.404,0.248,0.613
		c0.075,0.205,0.16,0.416,0.255,0.631c0.072,0.195,0.154,0.398,0.244,0.604c0.035,0.095,0.078,0.191,0.117,0.289
		c8.956,4.771,19.175,7.48,30.029,7.48C90.385,127.998,113.035,112.027,122.826,89.229z"/>
	<g>
		<path fill="#FFEACC" d="M86.896,103.998h-50c-4.22,0-7.687-1.152-9.919-3.422C24.21,97.754,24,94.332,24,93.951V38.999
			c0-8.833,6.564-15,15.396-15h37.5c10.606,0,18.521,3.283,22.883,9.494c5.519,7.861,5.341,20.094-0.531,36.354
			c-0.376,1.039-1.398,1.729-2.5,1.646c-1.105-0.066-2.038-0.854-2.287-1.936c-2.023-8.765-5.586-16.917-17.436-17.949
			c0.955,10.063,6.963,23.541,11.576,33.119c6.299,13.075,0.17,18.459-0.095,18.68C88.059,103.789,87.486,103.998,86.896,103.998z"
			/>
		<path fill="#F2DEC2" d="M77.084,52.094c-0.96-0.212-1.963-0.388-3.061-0.482C74.979,61.675,80.986,75.152,85.6,84.73
			c6.299,13.074,0.17,18.459-0.095,18.678c-0.448,0.382-1.021,0.593-1.61,0.593h3c0.592,0,1.162-0.211,1.61-0.593
			c0.265-0.219,6.394-5.604,0.095-18.678C84.061,75.301,78.18,62.102,77.084,52.094z"/>
		<path fill="#242424" d="M54.395,46.259c-4.004,0-7.261-3.257-7.261-7.262c0-4.004,3.257-7.261,7.261-7.261
			c4.006,0,7.263,3.257,7.263,7.261C61.656,43.003,58.399,46.259,54.395,46.259z"/>
		<path fill="#FFD464" d="M54.396,44.999c-3.313,0-6-2.69-6-6c0-3.308,2.688-6,6-6s6,2.692,6,6
			C60.396,42.308,57.707,44.999,54.396,44.999z"/>
		<path fill="#242424" d="M54.396,41.999c-1.656,0-3-1.348-3-3c0-1.652,1.344-3,3-3c1.653,0,3,1.348,3,3
			C57.396,40.651,56.05,41.999,54.396,41.999z"/>
		<path fill="#FFC066" d="M79.459,24.102c-4.941,11.128-2.666,24.904-2.436,27.51c11.85,1.031,15.41,9.185,17.436,17.949
			c0.249,1.08,1.182,1.867,2.287,1.935c1.102,0.084,2.124-0.605,2.5-1.646c5.872-16.261,6.05-28.493,0.531-36.354
			C95.779,27.799,88.768,24.6,79.459,24.102z"/>
		<path fill="#FFD599" d="M99.779,50.415c-0.016,0-0.028,0-0.043-0.001c-0.553-0.022-0.979-0.488-0.957-1.04
			c0.222-5.391-0.819-9.767-3.094-13.008c-2.688-3.825-7.299-6.188-13.703-7.02c-0.549-0.07-0.936-0.572-0.862-1.119
			c0.071-0.549,0.567-0.94,1.12-0.862c6.888,0.894,12.104,3.608,15.083,7.852c2.532,3.609,3.692,8.4,3.454,14.239
			C100.755,49.994,100.313,50.415,99.779,50.415z"/>
		<path fill="#F2B661" d="M99.777,33.493C95.779,27.8,88.766,24.598,79.459,24.1c-0.038,0.086-0.07,0.172-0.107,0.258
			c7.871,0.957,13.854,4.048,17.428,9.135c5.519,7.861,5.341,20.094-0.531,36.354c-0.169,0.467-0.473,0.855-0.85,1.143
			c0.384,0.289,0.847,0.474,1.35,0.505c1.102,0.082,2.124-0.605,2.5-1.646C105.118,53.587,105.296,41.354,99.777,33.493z"/>
		<path fill="#99602E" d="M36.896,104.199c-4.343,0-7.82-1.205-10.062-3.482c-3-3.061-3.035-6.729-3.035-6.766V71.564l0.191-0.01
			c0.25-0.01,0.502-0.016,0.754-0.016c1.479,0,2.795,0.176,3.521,0.471c2.703,0.896,4.527,3.443,4.527,6.334
			c0,0.604,0.459,1.094,1.023,1.094c0.562,0,1.019-0.49,1.019-1.094c0-3.672,2.95-6.66,6.575-6.66c3.622,0,6.568,2.988,6.568,6.66
			c0,0.604,0.459,1.094,1.023,1.094c0.563,0,1.02-0.49,1.02-1.094c0-3.672,2.947-6.66,6.571-6.66c3.623,0,6.571,2.988,6.571,6.66
			c0,0.604,0.459,1.094,1.021,1.094c0.563,0,1.021-0.49,1.021-1.094c0-3.672,2.948-6.66,6.571-6.66s6.567,2.988,6.567,6.66
			c0,0.604,0.459,1.094,1.024,1.094c0.354,0,0.596-0.19,0.708-0.307c0.202-0.211,0.313-0.49,0.313-0.787
			c0-0.822,0.373-1.582,1.049-2.135c0.481-0.611,1.297-0.896,2.438-0.896c0.164,0,0.331,0.006,0.501,0.019l0.122,0.008l0.049,0.11
			c1.227,2.822,2.607,5.828,4.229,9.191c6.387,13.264,0.123,18.695-0.146,18.92c-0.482,0.41-1.104,0.639-1.738,0.639H36.896
			L36.896,104.199z"/>
		<path fill="#8C582A" d="M88.782,84.643c-0.351-0.727-0.712-1.486-1.079-2.262c-0.066-0.145-0.135-0.287-0.202-0.432
			c-0.308-0.652-0.618-1.32-0.933-2.002c-0.025-0.055-0.053-0.109-0.076-0.164c-0.659-1.435-1.327-2.918-1.989-4.445l-0.121-0.008
			c-0.17-0.012-0.337-0.018-0.501-0.018c-1.139,0-1.951,0.284-2.434,0.895c1.352,3.086,2.724,6.014,3.974,8.609
			c6.253,12.981,0.218,18.221-0.043,18.438c-0.414,0.352-0.94,0.543-1.481,0.543v0.4h3c0.638,0,1.256-0.228,1.738-0.639
			C88.904,103.336,95.168,97.904,88.782,84.643z"/>
	</g>
</g>
</svg>
