<?xml version="1.0" encoding="utf-8"?>
<!-- Generator: Adobe Illustrator 15.1.0, SVG Export Plug-In . SVG Version: 6.00 Build 0)  -->
<!DOCTYPE svg PUBLIC "-//W3C//DTD SVG 1.1//EN" "http://www.w3.org/Graphics/SVG/1.1/DTD/svg11.dtd">
<svg version="1.1" id="Layer_1" xmlns="http://www.w3.org/2000/svg" xmlns:xlink="http://www.w3.org/1999/xlink" x="0px" y="0px"
	 width="128px" height="128px" viewBox="0 0 128 128" enable-background="new 0 0 128 128" xml:space="preserve">
<g>
	<circle fill="#2D4452" cx="64" cy="64" r="64"/>
	<path fill="#233540" d="M114.82,102.883c-0.026-0.02-0.049-0.046-0.078-0.061c0.031-0.088,0.048-0.182,0.027-0.276
		c-0.033-0.157-0.142-0.272-0.275-0.338c0.031-0.087,0.048-0.181,0.027-0.276c-0.033-0.156-0.142-0.271-0.275-0.338
		c0.031-0.086,0.048-0.179,0.027-0.273c-0.033-0.157-0.142-0.273-0.275-0.34c0.031-0.086,0.048-0.18,0.027-0.274
		c-0.033-0.157-0.142-0.272-0.275-0.338c0.032-0.087,0.048-0.181,0.027-0.276c-0.033-0.156-0.141-0.271-0.275-0.338
		c0.032-0.087,0.048-0.18,0.027-0.275c-0.033-0.156-0.141-0.272-0.275-0.338c0.032-0.088,0.048-0.181,0.028-0.275
		c-0.034-0.157-0.142-0.273-0.276-0.338c0.032-0.088,0.049-0.182,0.028-0.275c-0.034-0.156-0.142-0.273-0.276-0.338
		c0.033-0.087,0.049-0.182,0.028-0.275c-0.034-0.158-0.142-0.272-0.276-0.339c0.033-0.087,0.049-0.18,0.028-0.276
		c-0.034-0.155-0.142-0.271-0.276-0.338c0.033-0.086,0.049-0.18,0.028-0.274c-0.034-0.157-0.142-0.272-0.276-0.338
		c0.032-0.087,0.049-0.181,0.028-0.275c-0.034-0.157-0.142-0.272-0.276-0.338c0.033-0.087,0.049-0.181,0.028-0.276
		c-0.034-0.156-0.142-0.271-0.276-0.338c0.033-0.087,0.049-0.18,0.028-0.275c-0.034-0.156-0.142-0.272-0.276-0.338
		c0.033-0.088,0.049-0.18,0.028-0.275c-0.034-0.157-0.141-0.273-0.276-0.338c0.033-0.087,0.049-0.18,0.028-0.275
		c-0.034-0.156-0.142-0.272-0.276-0.338c0.033-0.087,0.049-0.181,0.028-0.275c-0.034-0.157-0.142-0.272-0.276-0.338
		c0.033-0.088,0.051-0.181,0.029-0.276c-0.035-0.156-0.143-0.272-0.277-0.339c0.033-0.086,0.051-0.18,0.029-0.274
		c-0.035-0.157-0.143-0.272-0.277-0.338c0.033-0.088,0.051-0.181,0.029-0.276c-0.035-0.156-0.143-0.272-0.275-0.338
		c0.031-0.087,0.048-0.181,0.027-0.275c-0.035-0.156-0.142-0.271-0.275-0.338c0.031-0.086,0.048-0.18,0.027-0.275
		c-0.035-0.156-0.142-0.271-0.275-0.338c0.031-0.087,0.048-0.18,0.027-0.275c-0.035-0.156-0.142-0.273-0.275-0.338
		c0.031-0.088,0.048-0.181,0.027-0.275c-0.033-0.158-0.142-0.273-0.275-0.338c0.031-0.086,0.048-0.181,0.027-0.275
		c-0.033-0.157-0.142-0.272-0.275-0.338c0.032-0.088,0.048-0.18,0.027-0.276c-0.033-0.155-0.141-0.272-0.275-0.338
		c0.032-0.087,0.048-0.181,0.027-0.274c-0.033-0.158-0.141-0.273-0.275-0.339c0.032-0.088,0.048-0.181,0.028-0.276
		c-0.034-0.156-0.142-0.272-0.276-0.338c0.032-0.086,0.049-0.18,0.028-0.274c-0.034-0.157-0.142-0.272-0.276-0.338
		c0.032-0.087,0.049-0.181,0.028-0.276c-0.034-0.156-0.142-0.271-0.276-0.338c0.032-0.087,0.049-0.18,0.028-0.275
		c-0.034-0.156-0.142-0.272-0.274-0.338c0.03-0.088,0.047-0.181,0.026-0.275c-0.034-0.157-0.142-0.273-0.274-0.338
		c0.03-0.086,0.047-0.181,0.026-0.275c-0.034-0.157-0.142-0.271-0.274-0.338c0.03-0.087,0.047-0.18,0.026-0.276
		c-0.034-0.155-0.144-0.271-0.274-0.338c0.03-0.087,0.047-0.18,0.026-0.274c-0.032-0.157-0.144-0.273-0.274-0.338
		c0.031-0.088,0.049-0.182,0.026-0.276c-0.032-0.157-0.144-0.273-0.274-0.339c0.033-0.086,0.049-0.18,0.026-0.275
		c-0.032-0.156-0.141-0.271-0.274-0.338c0.031-0.086,0.047-0.18,0.026-0.275c-0.032-0.156-0.142-0.271-0.274-0.338
		c0.033-0.087,0.049-0.18,0.027-0.275c-0.033-0.156-0.143-0.272-0.275-0.338c0.033-0.088,0.049-0.181,0.027-0.275
		c-0.059-0.271-0.324-0.441-0.596-0.385l-0.005,0.002c-0.122,0.025-0.245,0.044-0.367,0.066c-0.071-0.18-0.146-0.355-0.218-0.535
		c-0.084-0.211-0.169-0.418-0.254-0.627c-0.08-0.201-0.161-0.399-0.242-0.602c-0.082-0.206-0.165-0.409-0.248-0.614
		c-0.082-0.206-0.165-0.409-0.248-0.614c-0.084-0.209-0.169-0.418-0.254-0.627c-0.08-0.201-0.161-0.398-0.242-0.601
		c-0.082-0.206-0.165-0.409-0.248-0.614c-0.082-0.205-0.164-0.408-0.248-0.613c-0.08-0.207-0.164-0.408-0.246-0.613
		c-0.088-0.217-0.176-0.432-0.263-0.646c-0.078-0.195-0.157-0.389-0.235-0.582c-0.082-0.207-0.164-0.41-0.248-0.615
		c-0.082-0.204-0.164-0.407-0.248-0.612c-0.084-0.21-0.168-0.418-0.254-0.627c-0.08-0.201-0.16-0.4-0.242-0.603
		c-0.082-0.205-0.164-0.408-0.248-0.613c-0.082-0.206-0.164-0.408-0.248-0.613c-0.084-0.21-0.168-0.419-0.254-0.627
		c-0.08-0.202-0.16-0.4-0.242-0.602c-0.081-0.207-0.164-0.41-0.247-0.614c-0.082-0.205-0.165-0.408-0.248-0.613
		c-0.082-0.206-0.165-0.409-0.248-0.614c-0.086-0.216-0.175-0.43-0.261-0.646c-0.078-0.194-0.157-0.389-0.236-0.583
		c-0.082-0.206-0.165-0.408-0.248-0.613c-0.082-0.206-0.165-0.409-0.248-0.614c-0.084-0.21-0.169-0.418-0.254-0.627
		c-0.08-0.201-0.161-0.4-0.242-0.602c-0.082-0.205-0.164-0.408-0.248-0.613c-0.082-0.206-0.164-0.409-0.248-0.614
		c-0.084-0.21-0.168-0.419-0.254-0.627c-0.08-0.202-0.16-0.4-0.242-0.602c-0.082-0.206-0.164-0.408-0.248-0.613
		c-0.082-0.206-0.164-0.409-0.248-0.614c-0.084-0.21-0.168-0.418-0.254-0.627c-0.08-0.201-0.16-0.4-0.242-0.602
		c-0.084-0.212-0.17-0.421-0.254-0.631c-0.08-0.199-0.162-0.397-0.242-0.598c-0.082-0.206-0.163-0.409-0.247-0.614
		c-0.085-0.21-0.169-0.418-0.255-0.627c-0.08-0.201-0.159-0.399-0.24-0.601c-0.082-0.206-0.165-0.409-0.248-0.614
		C88.261,38.789,80.761,29.199,71.62,25.324c-0.448-0.125-0.903-0.229-1.36-0.323c-0.101-0.021-0.201-0.04-0.302-0.06
		c-2.526-0.481-5.155-0.443-7.677,0.566c-0.008,0-0.016-0.001-0.024-0.001c-14.166,0-25.971,12.893-32.61,33.813
		c-1.507,0.167-3.086,0.657-4.368,1.661c-1.438,1.095-2.315,2.896-2.363,4.627c-0.061,0.848,0.096,1.759,0.237,2.476
		c0.136,0.754,0.262,1.511,0.36,2.261c0.177,1.484,0.347,3.041-0.269,4.235c-0.118,0.231-0.041,0.522,0.185,0.659
		c0.015,0.009,0.031,0.009,0.046,0.018c-0.079,0.221-0.004,0.473,0.202,0.598c0.015,0.01,0.031,0.011,0.046,0.018
		c-0.079,0.221-0.004,0.475,0.202,0.6c0.014,0.008,0.031,0.008,0.045,0.017c-0.078,0.219-0.003,0.473,0.203,0.598
		c0.015,0.009,0.031,0.009,0.046,0.017c-0.079,0.221-0.004,0.474,0.202,0.599c0.015,0.009,0.031,0.011,0.046,0.019
		c-0.079,0.219-0.004,0.473,0.202,0.598c0.015,0.009,0.031,0.01,0.046,0.018c-0.078,0.221-0.004,0.473,0.203,0.598
		c0.014,0.01,0.031,0.01,0.045,0.018c-0.078,0.221-0.004,0.474,0.203,0.599c0.014,0.009,0.031,0.009,0.045,0.017
		c-0.03,0.084-0.038,0.172-0.022,0.257c-0.876,6.606-1.341,13.667-1.341,21.098c0,0.433,0.124,0.834,0.323,1.188
		c0.053,0.219,0.14,0.423,0.248,0.613c0.053,0.221,0.141,0.424,0.249,0.616c0.053,0.218,0.14,0.42,0.247,0.61
		c0.053,0.22,0.14,0.423,0.248,0.613c0.054,0.221,0.141,0.424,0.25,0.617c0.053,0.217,0.14,0.42,0.247,0.611
		c0.054,0.221,0.141,0.424,0.249,0.615c0.053,0.218,0.14,0.42,0.247,0.611c0.053,0.219,0.14,0.422,0.248,0.613
		c0.053,0.219,0.14,0.424,0.248,0.614c0.054,0.22,0.141,0.424,0.249,0.614c0.053,0.22,0.14,0.42,0.247,0.611
		c0.053,0.219,0.14,0.424,0.248,0.614c0.053,0.22,0.14,0.423,0.248,0.614c0.054,0.22,0.141,0.424,0.249,0.615
		c0.053,0.218,0.14,0.42,0.247,0.61c0.053,0.22,0.14,0.423,0.248,0.614c0.053,0.219,0.14,0.423,0.248,0.613
		c0.054,0.221,0.141,0.426,0.25,0.617c0.053,0.219,0.14,0.42,0.247,0.609c0.053,0.219,0.14,0.423,0.248,0.614
		c0.053,0.219,0.14,0.423,0.248,0.614c0.053,0.219,0.14,0.422,0.248,0.613c0.053,0.221,0.141,0.424,0.249,0.615
		c0.053,0.219,0.14,0.42,0.247,0.611c0.053,0.219,0.14,0.423,0.248,0.613c0.053,0.219,0.14,0.424,0.248,0.613
		c0.012,0.051,0.041,0.092,0.056,0.141C40.571,124.636,51.892,128,64,128C84.717,128,103.125,118.146,114.82,102.883z"/>
	<g>
		<path fill="#6B7777" d="M64,63.388L64,63.388L64,63.388L64,63.388L64,63.388L64,63.388L64,63.388L64,63.388L64,63.388L64,63.388
			L64,63.388L64,63.388L64,63.388L64,63.388L64,63.388L64,63.388L64,63.388L64,63.388z"/>
		<path fill="#B3B3B3" d="M83.1,35.5c-6.146-6.398-13.279-10.013-20.851-10.013c-14.166,0-25.971,12.893-32.61,33.813
			c-1.507,0.167-3.086,0.657-4.368,1.661c-1.438,1.095-2.315,2.896-2.363,4.628c-0.061,0.847,0.096,1.759,0.237,2.476
			c0.136,0.754,0.262,1.51,0.36,2.26c0.177,1.484,0.347,3.041-0.269,4.236c-0.118,0.23-0.041,0.521,0.185,0.658
			c0.236,0.145,0.544,0.067,0.688-0.169c0.458-0.757,0.635-1.635,0.694-2.446c0.061-0.819,0.026-1.617-0.027-2.406
			c-0.057-0.788-0.139-1.566-0.232-2.344c-0.108-0.808-0.172-1.441-0.088-2.143c0.135-1.363,0.832-2.549,1.909-3.283
			c0.76-0.519,1.655-0.82,2.612-0.965c-3.285,11.223-5.137,24.586-5.137,39.424c0,1.383,1.153,2.5,2.579,2.5h12.504h1.7
			c0.347-6,4.781-10.75,10.217-10.75c5.435,0,9.87,4.75,10.216,10.75h4.284h10.08c1.426,0,2.579-1.117,2.579-2.5
			c0-18.521,2.244-25.693,5.42-30.85L83.1,35.5z"/>
		<g>
			<path fill="#A6A6A6" d="M47.26,92.639c-5.435,0-9.87,4.75-10.216,10.75h1.879h1.7c0.308-5.326,3.838-9.656,8.427-10.565
				C48.468,92.706,47.872,92.639,47.26,92.639z"/>
			<path fill="#A6A6A6" d="M83.1,35.5c-6.146-6.398-13.279-10.013-20.851-10.013c-0.598,0-1.189,0.03-1.778,0.077
				c6.899,0.524,13.392,4.048,19.048,9.936l0.319,34.538c-3.177,5.155-5.42,12.329-5.42,30.851c0,1.381-1.153,2.5-2.579,2.5h3.579
				c1.427,0,2.579-1.119,2.579-2.5c0-18.521,2.244-25.693,5.42-30.851L83.1,35.5z"/>
		</g>
		<path fill="#A6A6A6" d="M69.611,27.305c-5.585-1.553-11.938-1-16.605,7c-3.846,6.595-8.379,25.85-1.083,34.583
			c5.917,7.082,16.333,8,29.496,3.149c0.175,0.226,0.356,0.464,0.537,0.703c0.46-0.979,0.948-1.869,1.463-2.703l-0.292-31.467
			C79.188,33.319,74.65,29.44,69.611,27.305z"/>
		<path fill="#B3B3B3" d="M95.475,103.389h3.735c0.017,0,0.035-0.003,0.052,0c1.426,0,2.578-1.119,2.578-2.5
			c0-0.172-0.018-0.343-0.051-0.504c-0.123-36.647-11.865-67.317-30.178-75.08c-5.586-1.553-11.938-1-16.605,7
			c-3.846,6.595-8.379,25.85-1.083,34.583c5.917,7.082,16.333,8,29.496,3.149c3.826,4.92,9.476,13.286,9.476,30.851
			C92.895,102.27,94.048,103.389,95.475,103.389z"/>
		<g>
			<path fill="#A6A6A6" d="M101.789,100.385c-0.123-36.647-11.865-67.317-30.178-75.08c-1.985-0.553-4.069-0.828-6.141-0.606
				c1.063,0.109,2.113,0.321,3.141,0.606c18.313,7.763,30.055,38.433,30.178,75.08c0.033,0.161,0.051,0.332,0.051,0.504
				c0,1.381-1.152,2.5-2.578,2.5h2.948c0.017,0,0.035-0.003,0.052,0c1.426,0,2.578-1.119,2.578-2.5
				C101.84,100.717,101.822,100.546,101.789,100.385z"/>
		</g>
		<circle fill="#F5F5F5" cx="72.965" cy="46.763" r="2"/>
		<circle fill="#242424" cx="72.965" cy="46.763" r="1"/>
		<path fill="#F5F5F5" d="M76.802,66.415c0.8,2.255,2.497,4.213,4.556,5.862c2.063,1.643,4.467,2.961,6.992,3.983
			c2.531,1.02,5.205,1.749,7.934,2.128c2.723,0.37,5.521,0.406,8.214-0.175l0.005-0.001c0.271-0.058,0.537,0.114,0.596,0.385
			c0.055,0.254-0.098,0.508-0.342,0.584c-2.788,0.864-5.73,1.088-8.634,0.953c-2.906-0.144-5.794-0.662-8.603-1.51
			c-2.805-0.857-5.541-2.042-8.07-3.709c-1.264-0.837-2.473-1.8-3.564-2.938c-1.084-1.117-2.078-2.502-2.755-3.953l-0.044-0.094
			c-0.468-1.007-0.031-2.201,0.977-2.671c1.006-0.469,2.201-0.03,2.67,0.976C76.756,66.295,76.781,66.355,76.802,66.415z"/>
	</g>
</g>
</svg>
