<?xml version="1.0" encoding="utf-8"?>
<!-- Generator: Adobe Illustrator 15.1.0, SVG Export Plug-In . SVG Version: 6.00 Build 0)  -->
<!DOCTYPE svg PUBLIC "-//W3C//DTD SVG 1.1//EN" "http://www.w3.org/Graphics/SVG/1.1/DTD/svg11.dtd">
<svg version="1.1" id="Layer_1" xmlns="http://www.w3.org/2000/svg" xmlns:xlink="http://www.w3.org/1999/xlink" x="0px" y="0px"
	 width="128px" height="128px" viewBox="0 0 128 128" enable-background="new 0 0 128 128" xml:space="preserve">
<g>
	<circle fill="#F2CF61" cx="64" cy="64" r="64"/>
	<path fill="#E6C45C" d="M118.012,98.314c-0.053-0.172-0.109-0.342-0.201-0.496c-0.054-0.217-0.136-0.422-0.248-0.614
		c-0.055-0.215-0.136-0.421-0.248-0.615c-0.055-0.214-0.135-0.419-0.248-0.612c-0.053-0.215-0.135-0.42-0.248-0.612
		c-0.053-0.216-0.135-0.421-0.248-0.614c-0.055-0.215-0.135-0.422-0.247-0.615c-0.056-0.214-0.136-0.419-0.248-0.611
		c-0.054-0.215-0.136-0.422-0.248-0.613c-0.054-0.215-0.136-0.421-0.248-0.614c-0.054-0.215-0.136-0.421-0.248-0.614
		c-0.056-0.215-0.136-0.422-0.248-0.615c-0.056-0.213-0.136-0.418-0.248-0.61c-0.053-0.215-0.135-0.421-0.248-0.614
		c-0.053-0.215-0.135-0.421-0.248-0.613c-0.054-0.215-0.135-0.422-0.248-0.614c-0.054-0.216-0.135-0.419-0.248-0.612
		c-0.053-0.215-0.135-0.421-0.247-0.613c-0.054-0.216-0.136-0.422-0.248-0.615c-0.055-0.215-0.136-0.422-0.248-0.613
		c-0.055-0.217-0.137-0.423-0.25-0.616c-0.055-0.213-0.136-0.418-0.246-0.61c-0.055-0.215-0.137-0.42-0.248-0.613
		c-0.055-0.215-0.137-0.422-0.248-0.613c-0.056-0.215-0.137-0.422-0.248-0.615c-0.055-0.214-0.135-0.419-0.248-0.611
		c-0.053-0.215-0.135-0.422-0.248-0.614c-0.053-0.216-0.135-0.421-0.248-0.613c-0.055-0.215-0.135-0.421-0.248-0.614
		c-0.055-0.215-0.135-0.42-0.248-0.613c-0.053-0.215-0.135-0.42-0.248-0.612c-0.053-0.216-0.135-0.422-0.248-0.614
		c-0.055-0.215-0.135-0.422-0.248-0.615c-0.055-0.213-0.135-0.418-0.248-0.611c-0.053-0.215-0.135-0.422-0.248-0.613
		c-0.053-0.216-0.135-0.421-0.248-0.613c-0.053-0.216-0.135-0.422-0.248-0.615c-0.054-0.215-0.135-0.422-0.248-0.614
		c-0.054-0.214-0.135-0.419-0.248-0.611c-0.053-0.216-0.135-0.421-0.248-0.614c-0.053-0.215-0.135-0.42-0.248-0.613
		c-0.054-0.215-0.135-0.422-0.248-0.615c-0.054-0.214-0.135-0.419-0.248-0.611c-0.053-0.215-0.135-0.421-0.248-0.613
		c-0.053-0.215-0.135-0.422-0.248-0.614c-0.054-0.218-0.135-0.425-0.25-0.619c-0.054-0.213-0.135-0.417-0.246-0.606
		c-0.053-0.216-0.135-0.422-0.248-0.615c-0.053-0.215-0.135-0.42-0.248-0.613c-0.055-0.215-0.135-0.421-0.247-0.614
		c-0.056-0.215-0.136-0.42-0.248-0.612c-0.054-0.215-0.136-0.42-0.248-0.613c-0.054-0.215-0.136-0.422-0.248-0.614
		c-0.054-0.215-0.136-0.421-0.248-0.612c-0.056-0.217-0.136-0.422-0.248-0.615c-0.056-0.214-0.135-0.419-0.248-0.612
		c-0.053-0.215-0.135-0.421-0.248-0.614c-0.063-0.258-0.16-0.508-0.312-0.732c-0.524-0.794-1.068-1.562-1.623-2.311
		c-0.172-0.231-0.348-0.453-0.521-0.682c-0.396-0.52-0.797-1.027-1.206-1.521c-0.197-0.24-0.398-0.479-0.603-0.714
		c-0.419-0.486-0.847-0.96-1.276-1.422c-0.184-0.194-0.361-0.395-0.547-0.586c-0.613-0.634-1.234-1.248-1.873-1.83
		c-0.002-0.001-0.003-0.002-0.004-0.003c-0.65-0.595-1.316-1.153-1.994-1.69c-0.17-0.136-0.343-0.261-0.516-0.393
		c-0.51-0.391-1.022-0.767-1.547-1.124c-0.211-0.145-0.422-0.284-0.635-0.423c-0.52-0.339-1.045-0.659-1.578-0.965
		c-0.189-0.109-0.381-0.225-0.576-0.331c-0.709-0.388-1.428-0.753-2.155-1.08c-0.011-0.004-0.019-0.009-0.026-0.013
		c-3.902-1.744-8.099-2.608-12.525-2.423c-0.037,0.002-0.073,0.005-0.111,0.007c-0.18-0.2-0.361-0.397-0.543-0.594
		c-0.023-0.025-0.047-0.052-0.07-0.076c-0.162-0.175-0.324-0.346-0.488-0.516c-0.034-0.038-0.07-0.075-0.106-0.112
		c-0.159-0.164-0.321-0.324-0.481-0.482c-0.041-0.04-0.08-0.08-0.121-0.12c-0.162-0.154-0.324-0.307-0.488-0.455
		c-0.041-0.037-0.082-0.076-0.125-0.112c-0.163-0.146-0.33-0.287-0.497-0.426c-0.044-0.033-0.085-0.069-0.128-0.104
		c-0.17-0.136-0.34-0.265-0.512-0.39c-0.043-0.03-0.086-0.063-0.129-0.094c-0.176-0.122-0.353-0.237-0.529-0.349
		c-0.043-0.026-0.086-0.053-0.129-0.079c-0.182-0.107-0.363-0.208-0.549-0.302c-0.043-0.022-0.086-0.043-0.129-0.063
		c-0.188-0.092-0.379-0.175-0.57-0.251c-0.043-0.016-0.086-0.03-0.127-0.047c-0.197-0.072-0.396-0.137-0.6-0.19
		c-0.041-0.012-0.082-0.021-0.123-0.03c-0.207-0.051-0.418-0.095-0.632-0.125c-0.036-0.006-0.073-0.009-0.112-0.014
		c-0.221-0.028-0.441-0.048-0.67-0.054c-0.031,0-0.064,0.002-0.1,0.002c-0.234-0.002-0.475,0.006-0.718,0.031
		c-0.022,0.002-0.048,0.007-0.068,0.009c-0.256,0.028-0.519,0.069-0.782,0.129c-0.002,0-0.002,0-0.002,0
		c-0.248,0.057-0.497,0.115-0.756,0.199c-5,1.625-14.083,7.163-14.416,8.583c-0.026,1.246-0.055,2.228-0.178,3.514
		c-2.997,1.857-5.979,4.062-7.991,5.449c-1.301-2.347-6.725-11.693-14.518-10.417c-0.006,0.001-0.011,0.001-0.017,0.002h0.001
		c-0.072,0.013-0.143,0.02-0.215,0.032c-4.334,0.824-4.522,2.779-3.559,4.881c0.07,0.203,0.154,0.408,0.248,0.614
		c0.07,0.204,0.154,0.409,0.249,0.617c0.069,0.201,0.153,0.405,0.247,0.609c0.07,0.204,0.155,0.41,0.25,0.618
		c0.069,0.201,0.153,0.405,0.247,0.61c0.069,0.203,0.153,0.408,0.248,0.614c0.07,0.203,0.154,0.408,0.249,0.616
		c0.069,0.201,0.153,0.405,0.247,0.61c0.069,0.203,0.153,0.408,0.248,0.614c0.069,0.203,0.153,0.408,0.248,0.614
		c0.07,0.202,0.154,0.408,0.249,0.616c0.069,0.201,0.153,0.405,0.247,0.61c0.069,0.203,0.153,0.408,0.248,0.614
		c0.069,0.203,0.153,0.408,0.248,0.614c0.07,0.203,0.154,0.408,0.249,0.616c0.069,0.201,0.153,0.405,0.247,0.61
		c0.07,0.204,0.154,0.41,0.25,0.618c0.069,0.201,0.153,0.405,0.247,0.609c0.07,0.203,0.154,0.409,0.249,0.617
		c0.049,0.144,0.103,0.286,0.165,0.431c0.409,4.935-0.525,9.969-1.573,12.882c-0.621,1.725-0.621,2.518-0.255,2.792
		c0.01,0.312,0.101,0.506,0.249,0.619c0.011,0.31,0.102,0.502,0.248,0.612c0.011,0.31,0.102,0.502,0.248,0.613
		c0.011,0.31,0.102,0.502,0.248,0.614c0.011,0.31,0.102,0.501,0.249,0.611c0.01,0.312,0.101,0.503,0.248,0.616
		c0.011,0.31,0.102,0.502,0.248,0.613c0.011,0.309,0.102,0.502,0.248,0.613c0.011,0.309,0.102,0.501,0.248,0.613
		c0.011,0.31,0.102,0.501,0.248,0.613c0.011,0.311,0.102,0.502,0.248,0.614c0.011,0.31,0.102,0.501,0.248,0.613
		c0.011,0.31,0.102,0.501,0.248,0.612c0.011,0.311,0.102,0.502,0.248,0.615c0.011,0.31,0.102,0.502,0.248,0.613
		c0.011,0.309,0.102,0.501,0.248,0.613c0.011,0.309,0.102,0.502,0.249,0.613c0.011,0.309,0.101,0.5,0.248,0.611
		c0.011,0.311,0.101,0.504,0.249,0.614c0.011,0.31,0.102,0.502,0.248,0.614c0.011,0.31,0.102,0.502,0.248,0.613
		c0.011,0.311,0.102,0.502,0.248,0.614c0.011,0.31,0.102,0.501,0.248,0.614c0.011,0.309,0.102,0.502,0.248,0.613
		c0.011,0.31,0.102,0.5,0.248,0.613c0.011,0.31,0.102,0.5,0.248,0.613c0.011,0.309,0.102,0.501,0.248,0.614
		c0.011,0.309,0.102,0.502,0.248,0.612c0.011,0.31,0.102,0.502,0.248,0.613c0.011,0.311,0.102,0.502,0.248,0.614
		c0.011,0.308,0.102,0.5,0.248,0.612c0.011,0.31,0.102,0.502,0.249,0.613c0.011,0.311,0.102,0.502,0.248,0.614
		c0.011,0.31,0.102,0.501,0.248,0.614c0.011,0.309,0.102,0.501,0.248,0.613c0.011,0.31,0.102,0.502,0.248,0.613
		c0.011,0.311,0.102,0.502,0.248,0.614c0.011,0.31,0.102,0.501,0.248,0.612c0.011,0.31,0.102,0.502,0.248,0.613
		c0.011,0.311,0.102,0.502,0.248,0.614c0.011,0.31,0.102,0.502,0.248,0.614c0.011,0.309,0.102,0.501,0.249,0.613
		c0.011,0.308,0.101,0.5,0.248,0.611c0.011,0.311,0.101,0.502,0.248,0.613c0.011,0.311,0.101,0.502,0.248,0.614
		c0.011,0.309,0.102,0.502,0.249,0.612c0.01,0.312,0.101,0.504,0.248,0.615c0.011,0.311,0.102,0.501,0.248,0.614
		c0.011,0.31,0.102,0.501,0.248,0.614c0.011,0.309,0.102,0.502,0.248,0.613c0.011,0.31,0.102,0.502,0.248,0.612
		c0.011,0.31,0.102,0.501,0.248,0.614c0.011,0.311,0.102,0.501,0.248,0.613c0.011,0.31,0.102,0.502,0.248,0.615
		c0.011,0.309,0.102,0.5,0.248,0.611c0.011,0.309,0.102,0.5,0.248,0.611c0.011,0.311,0.101,0.502,0.248,0.615
		c0.011,0.31,0.101,0.502,0.248,0.612c0.011,0.31,0.102,0.501,0.248,0.613c0.011,0.312,0.101,0.502,0.249,0.614
		c0.01,0.311,0.101,0.502,0.248,0.615c0.011,0.31,0.102,0.502,0.248,0.613c0.011,0.311,0.102,0.502,0.248,0.614
		c0.011,0.31,0.102,0.501,0.248,0.612c0.011,0.31,0.102,0.502,0.248,0.614c0.011,0.31,0.102,0.501,0.248,0.613
		c0.011,0.31,0.102,0.502,0.249,0.614c0.011,0.308,0.101,0.498,0.248,0.611c0.011,0.31,0.101,0.502,0.248,0.613
		c0.011,0.311,0.101,0.502,0.248,0.613c0.011,0.311,0.101,0.502,0.248,0.613c0.011,0.311,0.102,0.502,0.248,0.613
		c0.003,0.082,0.025,0.137,0.039,0.202C50.337,126.872,57.035,128,64,128C86.715,128,106.65,116.154,118.012,98.314z"/>
	<path fill="#263740" d="M75.417,46.458C72.167,42.833,69,38.958,64,40.583s-14.083,7.163-14.416,8.583
		c-0.042,1.958-0.084,3.25-0.501,6.125C55.667,51.833,75.417,46.458,75.417,46.458z"/>
	<path fill="#1E2C33" d="M64.755,40.384c2.994,0.703,5.31,3.449,7.662,6.074c0,0-14.914,4.06-23.142,7.393
		c-0.055,0.439-0.115,0.905-0.192,1.44c6.584-3.458,26.334-8.833,26.334-8.833C72.334,43.02,69.323,39.365,64.755,40.384z"/>
	<path fill="#263740" d="M62.833,75.333c-1.166,2.542-4.083,5.281-3.208,6.594c2.906,1.75,10.688,1.97,13.25,1.781
		c1.537-0.112,1.208-7.209,2.625-8.667C72.667,75.666,62.833,75.333,62.833,75.333z"/>
	<path fill="#1E2C33" d="M72.271,75.354c-1.155,1.947-0.948,8.25-2.396,8.354c-0.141,0.011-0.305,0.019-0.477,0.026
		c1.449,0.049,2.703,0.029,3.477-0.026c1.537-0.112,1.208-7.209,2.625-8.667C74.782,75.199,73.615,75.296,72.271,75.354z"/>
	<path fill="#CC584C" d="M41.416,58.129c2.334-1.609,5.973-4.32,9.425-6.312c5.534-3.192,15.201-6.276,23.56-6.627
		c11.726-0.492,21.813,6.356,29.207,17.509c0.373,0.561,0.486,1.255,0.313,1.906s-0.618,1.194-1.221,1.498l-0.496,0.248L102.7,66.6
		c0.715,0.359,1.198,1.057,1.286,1.853c0.088,0.795-0.236,1.522-0.856,2.024c-0.338,0.274-7.629,6.991-22.514,7.522
		c-4.261,0.151-12.521,0.25-17.056-0.19c-6.746-0.653-13.783-2.791-21.294-5.832L41.416,58.129z"/>
	<path fill="#E67368" d="M47.632,59.612c-0.32,0-0.635-0.153-0.829-0.438c-0.31-0.457-0.191-1.079,0.266-1.389
		c8.147-5.528,19.188-9.385,27.473-9.6c0.549-0.028,1.01,0.423,1.024,0.976c0.015,0.552-0.422,1.011-0.976,1.024
		c-7.934,0.204-18.543,3.924-26.4,9.254C48.021,59.557,47.825,59.612,47.632,59.612z"/>
	<path fill="#BF5347" d="M102.699,66.602l-0.496-0.248l0.496-0.248c0.603-0.304,1.048-0.847,1.221-1.498
		c0.174-0.651,0.061-1.348-0.313-1.906C96.211,51.55,86.124,44.7,74.398,45.192c-0.131,0.006-0.269,0.018-0.399,0.023
		c10.616,0.545,19.767,7.167,26.608,17.484c0.371,0.561,0.484,1.255,0.313,1.906c-0.173,0.651-0.618,1.194-1.221,1.498l-0.496,0.248
		l0.496,0.248c0.715,0.358,1.199,1.055,1.287,1.852c0.087,0.795-0.237,1.523-0.857,2.025c-0.338,0.273-7.629,6.99-22.514,7.521
		c-1.598,0.057-3.756,0.105-6.069,0.123c3.379,0.023,6.794-0.042,9.069-0.123c14.885-0.531,22.176-7.248,22.514-7.521
		c0.62-0.502,0.944-1.23,0.857-2.025C103.898,67.655,103.414,66.96,102.699,66.602z"/>
	<path fill="#263740" d="M103.986,68.451c-0.088-0.796-0.572-1.491-1.287-1.852l-0.496-0.248l0.496-0.248
		c0.603-0.304,1.048-0.847,1.221-1.498c0.174-0.651,0.061-1.348-0.313-1.906c-4.604-6.939-10.248-12.211-16.684-15.086
		c-3.676,2.438-7.256,8.059-7.551,14.034c-0.303,6.096,0.335,11.601,5.848,15.96c11.776-1.545,17.605-6.888,17.906-7.133
		C103.749,69.977,104.073,69.246,103.986,68.451z"/>
	<path fill="#1E2C33" d="M102.699,66.602l-0.496-0.248l0.496-0.248c0.603-0.304,1.048-0.847,1.221-1.498
		c0.174-0.651,0.061-1.348-0.313-1.906c-4.604-6.939-10.248-12.211-16.684-15.086c-0.396,0.265-0.795,0.572-1.188,0.908
		c5.683,3.008,10.705,7.899,14.867,14.178c0.373,0.561,0.486,1.255,0.313,1.906s-0.618,1.194-1.222,1.498L99.2,66.354l0.495,0.248
		c0.716,0.358,1.199,1.056,1.287,1.852c0.088,0.795-0.236,1.523-0.856,2.023c-0.278,0.229-5.306,4.814-15.39,6.725
		c0.16,0.136,0.312,0.273,0.479,0.408c11.778-1.545,17.607-6.887,17.908-7.133c0.62-0.5,0.942-1.229,0.856-2.023
		C103.898,67.655,103.414,66.96,102.699,66.602z"/>
	<path fill="#EDEDED" d="M93.883,59.294c0,2.209-1.789,4-4.001,4c-2.211,0-3.999-1.791-3.999-4s1.788-4,3.999-4
		C92.094,55.294,93.883,57.085,93.883,59.294z"/>
	<circle fill="#242424" cx="89.883" cy="59.294" r="2"/>
	<path fill="#263740" d="M41.416,58.129c-1.314-2.37-6.832-11.888-14.749-10.383s-2.008,6.783-0.5,9.838
		c3.167,6.416,1.828,15.632,0.247,20.023c-1.581,4.393,0.836,2.777,3.169,1.795c2.333-0.984,11.531-1.531,12.682-7.426
		C43.416,66.083,41.416,58.129,41.416,58.129z"/>
	<path fill="#1E2C33" d="M41.416,58.129c-1.302-2.349-6.733-11.709-14.535-10.415c6.25,1.038,10.679,8.25,11.535,10.415
		c1.275,3.228,2.001,7.955,0.85,13.85s-10.349,6.439-12.682,7.426c-0.223,0.094-0.446,0.191-0.667,0.294
		c-0.013,1.608,1.848,0.474,3.667-0.294c2.333-0.984,11.531-1.531,12.682-7.426S41.416,58.129,41.416,58.129z"/>
</g>
</svg>
