<?xml version="1.0" encoding="utf-8"?>
<!-- Generator: Adobe Illustrator 15.1.0, SVG Export Plug-In . SVG Version: 6.00 Build 0)  -->
<!DOCTYPE svg PUBLIC "-//W3C//DTD SVG 1.1//EN" "http://www.w3.org/Graphics/SVG/1.1/DTD/svg11.dtd">
<svg version="1.1" id="Layer_1" xmlns="http://www.w3.org/2000/svg" xmlns:xlink="http://www.w3.org/1999/xlink" x="0px" y="0px"
	 width="128px" height="128px" viewBox="0 0 128 128" enable-background="new 0 0 128 128" xml:space="preserve">
<g>
	<circle fill="#C2D5D8" cx="64" cy="63.801" r="64"/>
	<path fill="#198058" d="M94,63.799H34c-0.703,0-1.375,0.298-1.848,0.82C27.047,70.227,24,77.824,24,84.932v28.813
		c10.958,8.787,24.86,14.057,40,14.057c15.141,0,29.042-5.27,40-14.057V84.93c0-7.102-3.047-14.695-8.148-20.311
		C95.377,64.098,94.705,63.799,94,63.799z"/>
	<path fill="#109963" d="M92.25,73.436V69.34c0-9.778-12.938-3.039-28.25-3.039c-15.312,0-28.25-6.739-28.25,3.039l0.004,4.094
		c-2.34,1.059-3.682,3.117-3.682,6.867l0.024,39.346l0.051,0.086l0.124,0.104c9.646,5.475,20.617,8.363,31.729,8.363
		c11.111,0,22.117-2.91,31.878-8.447l0.05-0.027V80.301C95.928,76.553,94.588,74.494,92.25,73.436z"/>
	<path fill="#1E9969" d="M28,105.801c-0.553,0-1-0.447-1-1V84.932c0-6.137,2.587-12.785,6.92-17.787
		c0.363-0.416,0.994-0.461,1.411-0.1c0.417,0.359,0.462,0.992,0.101,1.41C31.405,73.102,29,79.262,29,84.932v19.869
		C29,105.354,28.553,105.801,28,105.801z"/>
	<path fill="#146646" d="M94,63.799h-3c0.705,0,1.377,0.298,1.852,0.822C97.954,70.234,101,77.828,101,84.932v31.072
		c1.021-0.727,2.023-1.479,3-2.26V84.93c0-7.102-3.047-14.695-8.148-20.311C95.377,64.098,94.705,63.799,94,63.799z"/>
	<path fill="#198058" d="M96.236,52.682C93.613,47.438,81.833,36.299,64,36.299S34.386,47.438,31.764,52.682
		C30.69,54.562,29,58.537,29,61.299c0,12.199,16.027,22.5,35,22.5c18.973,0,35-10.303,35-22.5
		C99,58.537,97.311,54.562,96.236,52.682z"/>
	<path fill="#13B374" d="M64,83.801c11.85,0,22.55-4.02,28.914-10.01c-0.213-0.125-0.43-0.25-0.664-0.355V69.34
		c0-9.778-12.938-3.039-28.25-3.039c-15.312,0-28.25-6.739-28.25,3.039l0.004,4.094c-0.234,0.105-0.453,0.23-0.669,0.357
		C41.449,79.781,52.15,83.801,64,83.801z"/>
	<path fill="#146646" d="M96.236,52.682C93.613,47.438,81.833,36.299,64,36.299c-0.506,0-1.004,0.012-1.5,0.029
		c16.992,0.6,28.188,11.257,30.736,16.353C94.311,54.562,96,58.537,96,61.299c0,11.875-15.189,21.951-33.5,22.476
		c0.498,0.016,0.997,0.023,1.5,0.023c18.973,0,35-10.303,35-22.5C99,58.537,97.311,54.562,96.236,52.682z"/>
	<path fill="#12A66B" d="M92.914,73.791c-0.213-0.125-0.43-0.25-0.664-0.355v-2.188c-5.607,7.09-16.907,12.16-29.75,12.527
		c0.498,0.016,0.997,0.023,1.5,0.023C75.85,83.801,86.55,79.781,92.914,73.791z"/>
	<g>
		<path fill="#FFC066" d="M41.5,53.799c-5.515,0-10-4.485-10-10c0-5.515,4.485-10,10-10s10,4.485,10,10
			C51.5,49.314,47.015,53.799,41.5,53.799z"/>
		<path fill="#FFD599" d="M37.253,41.175l-2.011-2.346c-1.089,1.363-1.742,3.091-1.742,4.97c0,0.197,0.016,0.39,0.029,0.583h3.028
			c-0.021-0.193-0.058-0.383-0.058-0.583C36.5,42.834,36.776,41.937,37.253,41.175z"/>
		<path fill="#FFD599" d="M39.24,39.365c0.539-0.271,1.133-0.45,1.76-0.515v-3.024c-1.373,0.085-2.65,0.522-3.751,1.216
			L39.24,39.365z"/>
		<path fill="#242424" d="M41.5,40.189c-3.361,0-7.14,1.39-8.333,3.61c1.193,2.222,4.972,3.61,8.333,3.61
			c3.306,0,6.972-1.473,8.333-3.61C48.472,41.662,44.806,40.189,41.5,40.189z"/>
		<path fill="#333333" d="M33.523,43.265c-0.012,0.178-0.023,0.355-0.023,0.535c0,0.183,0.015,0.361,0.027,0.54
			c0.011,0.015,0.021,0.028,0.033,0.043h2.997c-0.021-0.193-0.058-0.383-0.058-0.583c0-0.965,0.276-1.863,0.753-2.624l-0.189-0.222
			C35.568,41.485,34.285,42.276,33.523,43.265z"/>
	</g>
	<path fill="#F5F5F5" d="M41.5,53.799c-5.515,0-10-4.485-10-10c0-5.515,4.485-10,10-10s10,4.485,10,10
		C51.5,49.314,47.015,53.799,41.5,53.799z"/>
	<path fill="#242424" d="M41.5,40.189c-3.361,0-7.14,1.39-8.333,3.61c1.193,2.222,4.972,3.61,8.333,3.61
		c3.306,0,6.972-1.473,8.333-3.61C48.472,41.662,44.806,40.189,41.5,40.189z"/>
	<path fill="#333333" d="M33.523,43.265c-0.012,0.178-0.023,0.355-0.023,0.535c0,0.183,0.015,0.361,0.027,0.54
		c0.011,0.015,0.021,0.028,0.033,0.043h2.997c-0.021-0.193-0.058-0.383-0.058-0.583c0-0.965,0.276-1.863,0.753-2.624l-0.189-0.222
		C35.568,41.485,34.285,42.276,33.523,43.265z"/>
	<path fill="#F5F5F5" d="M86.5,53.799c-5.516,0-10-4.485-10-10c0-5.515,4.484-10,10-10s10,4.485,10,10
		C96.5,49.314,92.016,53.799,86.5,53.799z"/>
	<path fill="#242424" d="M86.5,40.189c-3.361,0-7.141,1.39-8.333,3.61c1.192,2.222,4.972,3.61,8.333,3.61
		c3.307,0,6.973-1.473,8.333-3.61C93.473,41.662,89.807,40.189,86.5,40.189z"/>
	<path fill="#333333" d="M78.523,43.265c-0.012,0.178-0.023,0.355-0.023,0.535c0,0.183,0.016,0.361,0.027,0.54
		c0.011,0.015,0.021,0.028,0.033,0.043h2.996c-0.021-0.193-0.058-0.383-0.058-0.583c0-0.965,0.276-1.863,0.753-2.624l-0.189-0.222
		C80.568,41.485,79.285,42.276,78.523,43.265z"/>
	<path fill="#242424" d="M89.784,63.576c-2.774-1.016-6.955-0.388-12.009,0.382c-4.141,0.63-8.83,1.343-13.775,1.343
		c-4.946,0-9.637-0.713-13.775-1.343c-5.054-0.77-9.233-1.396-12.009-0.382c-0.305,0.11-0.903,0.739-0.629,1.422
		c0.122,0.303,0.917,0.615,1.163,0.514c2.252-0.928,6.427-0.299,11.174,0.424c4.209,0.641,8.979,1.365,14.076,1.365
		c5.098,0,9.867-0.727,14.076-1.365c4.746-0.723,8.922-1.352,11.174-0.424c0.246,0.104,1.041-0.211,1.163-0.514
		C90.688,64.315,90.089,63.687,89.784,63.576z"/>
</g>
</svg>
