<?xml version="1.0" encoding="utf-8"?>
<!-- Generator: Adobe Illustrator 15.1.0, SVG Export Plug-In . SVG Version: 6.00 Build 0)  -->
<!DOCTYPE svg PUBLIC "-//W3C//DTD SVG 1.1//EN" "http://www.w3.org/Graphics/SVG/1.1/DTD/svg11.dtd">
<svg version="1.1" id="Layer_1" xmlns="http://www.w3.org/2000/svg" xmlns:xlink="http://www.w3.org/1999/xlink" x="0px" y="0px"
	 width="128px" height="128px" viewBox="0 0 128 128" enable-background="new 0 0 128 128" xml:space="preserve">
<g>
	<circle fill="#2D4452" cx="64" cy="64" r="64"/>
	<path fill="#233540" d="M124.846,83.854c-0.044-0.104-0.074-0.217-0.128-0.314c-0.054-0.221-0.143-0.423-0.249-0.616
		c-0.053-0.218-0.142-0.42-0.246-0.61c-0.054-0.219-0.144-0.422-0.248-0.613c-0.054-0.221-0.144-0.422-0.248-0.614
		c-0.055-0.22-0.144-0.423-0.25-0.614c-0.053-0.22-0.142-0.422-0.246-0.611c-0.054-0.221-0.144-0.422-0.248-0.614
		c-0.055-0.222-0.145-0.425-0.252-0.618c-0.053-0.218-0.141-0.419-0.244-0.609c-0.055-0.221-0.145-0.422-0.25-0.615
		c-0.053-0.219-0.143-0.42-0.246-0.611c-0.055-0.221-0.143-0.422-0.248-0.614c-0.055-0.219-0.143-0.422-0.248-0.612
		c-0.055-0.222-0.145-0.424-0.249-0.616c-0.054-0.218-0.144-0.421-0.247-0.611c-0.055-0.219-0.143-0.422-0.248-0.612
		c-0.055-0.222-0.143-0.424-0.248-0.615c-0.055-0.219-0.143-0.422-0.249-0.614c-0.053-0.22-0.142-0.421-0.247-0.612
		c-0.054-0.22-0.143-0.422-0.248-0.613c-0.054-0.22-0.142-0.422-0.248-0.613c-0.054-0.221-0.142-0.422-0.248-0.614
		c-0.054-0.22-0.143-0.423-0.248-0.615c-0.054-0.219-0.143-0.421-0.248-0.61c-0.054-0.221-0.142-0.424-0.248-0.614
		c-0.054-0.22-0.142-0.422-0.248-0.614c-0.054-0.22-0.143-0.423-0.248-0.615c-0.054-0.219-0.143-0.421-0.248-0.61
		c-0.054-0.22-0.142-0.423-0.248-0.614c-0.053-0.221-0.142-0.422-0.246-0.614c-0.055-0.22-0.145-0.423-0.25-0.614
		c-0.053-0.22-0.143-0.421-0.246-0.611c-0.055-0.222-0.145-0.426-0.252-0.618c-0.053-0.218-0.141-0.42-0.245-0.61
		c-0.054-0.22-0.144-0.422-0.248-0.614c-0.056-0.22-0.144-0.423-0.249-0.614c-0.053-0.22-0.143-0.422-0.247-0.612
		c-0.054-0.22-0.144-0.422-0.248-0.614c-0.054-0.219-0.144-0.422-0.248-0.614c-0.054-0.22-0.144-0.423-0.249-0.615
		c-0.053-0.219-0.143-0.421-0.247-0.611c-0.053-0.219-0.144-0.422-0.248-0.614c-0.053-0.22-0.143-0.422-0.248-0.613
		c-0.054-0.221-0.143-0.424-0.249-0.615c-0.053-0.219-0.142-0.421-0.246-0.612c-0.054-0.22-0.144-0.422-0.248-0.614
		c-0.054-0.219-0.144-0.422-0.248-0.613c-0.054-0.221-0.144-0.423-0.248-0.614c-0.055-0.22-0.144-0.423-0.25-0.615
		c-0.053-0.219-0.142-0.421-0.246-0.612c-0.053-0.22-0.144-0.422-0.248-0.613c-0.053-0.22-0.144-0.423-0.248-0.614
		c-0.055-0.22-0.144-0.423-0.248-0.616c-0.055-0.218-0.143-0.42-0.247-0.611c-0.054-0.219-0.144-0.422-0.248-0.613
		c-0.054-0.221-0.144-0.422-0.248-0.614c-0.054-0.22-0.144-0.423-0.249-0.615c-0.055-0.221-0.145-0.424-0.25-0.616
		c-0.053-0.218-0.143-0.419-0.246-0.609c-0.055-0.219-0.143-0.422-0.248-0.614c-0.054-0.22-0.143-0.422-0.248-0.614
		c-0.054-0.22-0.143-0.423-0.249-0.615c-0.053-0.219-0.142-0.421-0.247-0.611c-0.054-0.221-0.142-0.422-0.248-0.614
		c-0.054-0.219-0.142-0.422-0.248-0.614c-0.054-0.22-0.143-0.423-0.248-0.615c-0.054-0.219-0.143-0.421-0.248-0.611
		c-0.054-0.219-0.142-0.422-0.248-0.614c-0.054-0.22-0.142-0.422-0.248-0.614c-0.054-0.22-0.143-0.423-0.248-0.614
		c-0.054-0.22-0.143-0.421-0.248-0.612c-0.053-0.22-0.142-0.422-0.246-0.614c-0.055-0.219-0.144-0.422-0.248-0.614
		c-0.055-0.22-0.144-0.422-0.248-0.613c-0.055-0.221-0.145-0.424-0.249-0.615c-0.054-0.219-0.144-0.421-0.247-0.612
		c-0.055-0.22-0.143-0.422-0.248-0.614c-0.055-0.219-0.143-0.422-0.248-0.613c-0.055-0.221-0.145-0.424-0.249-0.616
		c-0.054-0.218-0.144-0.42-0.247-0.611c-0.055-0.219-0.143-0.422-0.248-0.614c-0.054-0.22-0.143-0.422-0.248-0.613
		c-0.054-0.223-0.145-0.426-0.251-0.62c-0.054-0.217-0.142-0.417-0.246-0.607c-0.053-0.22-0.144-0.422-0.248-0.614
		c-0.053-0.219-0.143-0.422-0.247-0.613c-0.055-0.221-0.144-0.423-0.25-0.616c-0.053-0.218-0.142-0.42-0.246-0.611
		c-0.054-0.219-0.144-0.422-0.248-0.613c-0.054-0.221-0.144-0.423-0.248-0.614c-0.054-0.219-0.144-0.422-0.248-0.614
		c-0.055-0.22-0.144-0.423-0.248-0.616c-0.055-0.218-0.144-0.42-0.248-0.61c-0.053-0.22-0.144-0.422-0.248-0.614
		c-0.266-1.1-1.254-1.913-2.43-1.913c-0.035,0-1.004,0.002-2.49,0.053h0.002c-4.377,0.149-13.284,0.72-16.433,2.89
		c-0.458,0.315-0.788,0.776-0.954,1.301c-0.025-0.057-0.045-0.116-0.072-0.172c-0.067-0.211-0.146-0.42-0.252-0.62
		c-0.065-0.207-0.145-0.411-0.246-0.607c-0.065-0.209-0.146-0.416-0.248-0.613c-0.065-0.209-0.146-0.416-0.247-0.614
		c-0.066-0.21-0.146-0.417-0.249-0.616c-0.066-0.208-0.145-0.414-0.247-0.61c-0.065-0.209-0.146-0.416-0.248-0.614
		c-0.065-0.209-0.146-0.416-0.248-0.614c-0.065-0.209-0.146-0.416-0.248-0.614c-0.065-0.21-0.146-0.417-0.249-0.616
		c-0.066-0.207-0.145-0.413-0.247-0.61c-0.065-0.209-0.146-0.416-0.248-0.614c-0.14-0.439-0.353-0.864-0.657-1.245
		c-1.33-1.653-3.748-1.917-5.4-0.588c-1.305,1.048-1.74,2.779-1.217,4.273c0.258,0.726,0.244,1.375,0.164,2.006
		c-0.092,0.627-0.174,1.257-0.285,1.878c-0.137,0.804-0.313,1.598-0.508,2.385c-1.354-0.266-2.748-0.411-4.169-0.411
		c-0.464,0-0.92,0.039-1.378,0.069c-0.044-0.114-0.093-0.227-0.146-0.335c-0.063-0.211-0.148-0.415-0.248-0.614
		c-0.064-0.214-0.151-0.42-0.252-0.621c-0.063-0.208-0.147-0.41-0.245-0.605c-0.064-0.211-0.148-0.415-0.248-0.614
		c-0.064-0.211-0.148-0.415-0.248-0.614c-0.064-0.212-0.149-0.417-0.25-0.615c-0.063-0.211-0.146-0.413-0.246-0.611
		c-0.063-0.211-0.147-0.415-0.248-0.614c-0.063-0.211-0.147-0.415-0.248-0.614c-0.063-0.211-0.147-0.415-0.248-0.613
		c-0.063-0.213-0.148-0.417-0.25-0.616c-0.063-0.21-0.146-0.413-0.246-0.611c-0.063-0.211-0.147-0.415-0.248-0.614
		c-0.216-0.717-0.637-1.379-1.263-1.883c-1.653-1.329-4.072-1.065-5.4,0.588c-0.97,1.205-1.082,2.813-0.437,4.113
		c0.063,0.212,0.148,0.416,0.248,0.615c0.063,0.211,0.148,0.415,0.248,0.615c0.063,0.21,0.148,0.412,0.248,0.61
		c0.063,0.212,0.148,0.416,0.248,0.615c0.063,0.211,0.147,0.415,0.248,0.613c0.063,0.212,0.147,0.416,0.248,0.614
		c0.063,0.212,0.147,0.416,0.248,0.615c0.063,0.21,0.147,0.413,0.248,0.611c0.063,0.212,0.147,0.416,0.248,0.615
		c0.063,0.211,0.147,0.415,0.248,0.612c0.063,0.214,0.149,0.421,0.25,0.62c0.061,0.203,0.146,0.398,0.238,0.591
		c-1.483,0.659-2.89,1.473-4.193,2.425c-0.016-0.026-0.023-0.056-0.039-0.082c-0.06-0.216-0.138-0.424-0.248-0.614
		c-0.06-0.215-0.138-0.422-0.248-0.612c-0.06-0.216-0.137-0.424-0.248-0.614c-0.06-0.216-0.137-0.423-0.248-0.614
		c-0.059-0.216-0.137-0.424-0.248-0.613c-0.059-0.216-0.137-0.424-0.248-0.615c-0.059-0.215-0.137-0.422-0.248-0.612
		c-0.059-0.216-0.137-0.424-0.248-0.614c-0.154-0.567-0.492-1.072-0.979-1.41c-4.218-2.907-18.774-2.941-18.921-2.941
		c-0.175,0-0.344,0.02-0.508,0.053h-0.001c-1.113,0.23-1.961,1.2-1.991,2.381l-0.019,0.623c-0.074,2.366-0.192,6.183,1.392,9.831
		c0.077,0.205,0.158,0.41,0.247,0.614c0.079,0.207,0.161,0.414,0.251,0.62c0.077,0.203,0.157,0.405,0.245,0.607
		c0.078,0.204,0.159,0.409,0.248,0.613c0.078,0.205,0.159,0.41,0.248,0.614c0.078,0.205,0.159,0.41,0.248,0.614
		c0.079,0.207,0.161,0.414,0.251,0.62c0.077,0.203,0.157,0.404,0.245,0.606c0.078,0.205,0.159,0.41,0.248,0.614
		c0.078,0.205,0.159,0.41,0.248,0.614c0.081,0.212,0.165,0.424,0.258,0.636c0.075,0.197,0.153,0.396,0.239,0.592
		c0.078,0.205,0.159,0.41,0.248,0.614c0.078,0.205,0.159,0.41,0.248,0.614c0.079,0.207,0.161,0.414,0.25,0.62
		c0.078,0.203,0.158,0.405,0.246,0.606c0.077,0.205,0.158,0.41,0.248,0.614c0.077,0.205,0.158,0.41,0.247,0.614
		c0.079,0.207,0.161,0.414,0.25,0.62c0.078,0.203,0.158,0.405,0.246,0.606c0.078,0.205,0.159,0.41,0.248,0.614
		c0.078,0.205,0.159,0.41,0.248,0.614c0.078,0.205,0.159,0.41,0.248,0.614c0.079,0.207,0.161,0.413,0.25,0.62
		c0.078,0.202,0.158,0.404,0.246,0.606c0.078,0.205,0.159,0.41,0.248,0.614c0.078,0.205,0.159,0.41,0.248,0.614
		c0.079,0.207,0.161,0.413,0.25,0.62c0.078,0.202,0.158,0.404,0.246,0.606c0.078,0.205,0.159,0.41,0.248,0.614
		c0.078,0.205,0.159,0.41,0.248,0.614c0.079,0.207,0.161,0.413,0.25,0.62c0.077,0.202,0.157,0.404,0.245,0.606
		c0.078,0.205,0.159,0.41,0.248,0.614c0.078,0.205,0.159,0.41,0.248,0.614c0.08,0.21,0.164,0.42,0.256,0.629
		c0.076,0.202,0.156,0.403,0.244,0.604c0.077,0.203,0.157,0.405,0.245,0.607c0.078,0.205,0.159,0.41,0.248,0.614
		c0.078,0.204,0.159,0.409,0.248,0.613c0.079,0.207,0.161,0.414,0.251,0.62c0.077,0.203,0.157,0.405,0.245,0.607
		c0.078,0.205,0.159,0.41,0.248,0.614c0.078,0.204,0.159,0.409,0.248,0.613c0.079,0.207,0.161,0.414,0.251,0.62
		c0.077,0.204,0.157,0.405,0.245,0.607c0.078,0.205,0.159,0.41,0.248,0.614c0.078,0.203,0.159,0.408,0.248,0.613
		c0.077,0.205,0.158,0.41,0.248,0.613c0.078,0.207,0.16,0.414,0.251,0.62c0.076,0.203,0.156,0.405,0.244,0.606
		c0.078,0.205,0.159,0.41,0.248,0.613c0.078,0.205,0.159,0.41,0.248,0.614c0.079,0.207,0.161,0.414,0.251,0.62
		c0.077,0.203,0.157,0.404,0.245,0.607c0.078,0.203,0.159,0.408,0.248,0.612c0.078,0.205,0.159,0.41,0.248,0.614
		c0.079,0.207,0.161,0.414,0.251,0.62c0.077,0.203,0.157,0.405,0.245,0.606c0.078,0.205,0.159,0.409,0.248,0.613
		c0.08,0.21,0.164,0.421,0.255,0.63c0.076,0.199,0.155,0.399,0.242,0.601c0.079,0.207,0.161,0.414,0.25,0.619
		c0.078,0.203,0.158,0.405,0.246,0.606c0.078,0.205,0.159,0.41,0.248,0.614c0.077,0.205,0.158,0.41,0.248,0.613
		c0.078,0.207,0.16,0.414,0.25,0.621c0.077,0.203,0.157,0.404,0.245,0.605c0.078,0.205,0.159,0.41,0.248,0.614
		c0.078,0.204,0.159,0.409,0.248,0.614c0.079,0.207,0.161,0.414,0.25,0.619c0.078,0.203,0.158,0.405,0.246,0.606
		c0.078,0.205,0.159,0.41,0.248,0.614c0.078,0.205,0.159,0.41,0.248,0.613c0.078,0.205,0.159,0.41,0.248,0.614
		c0.079,0.207,0.161,0.413,0.25,0.62c0.078,0.202,0.158,0.404,0.246,0.605c0.078,0.205,0.159,0.41,0.248,0.614
		c0.078,0.205,0.159,0.41,0.248,0.614c0.079,0.207,0.161,0.413,0.25,0.62c0.078,0.202,0.158,0.403,0.246,0.606
		c0.078,0.205,0.158,0.409,0.248,0.613c0.077,0.205,0.158,0.41,0.248,0.614c0.078,0.207,0.16,0.413,0.25,0.62
		c0.077,0.201,0.157,0.404,0.245,0.605c0.08,0.211,0.164,0.42,0.255,0.629c0.004,0.01,0.007,0.018,0.01,0.023
		c0.204,1.29,0.551,2.499,1.025,3.618c0.077,0.209,0.162,0.411,0.248,0.612c0.077,0.211,0.163,0.414,0.249,0.617
		c0.077,0.207,0.161,0.409,0.247,0.61c0.077,0.209,0.162,0.412,0.248,0.614c0.077,0.209,0.162,0.41,0.248,0.613
		c0.077,0.209,0.162,0.412,0.248,0.613c0.077,0.21,0.163,0.414,0.249,0.617c0.077,0.207,0.161,0.409,0.247,0.609
		c0.077,0.209,0.162,0.412,0.248,0.613c0.077,0.209,0.162,0.412,0.248,0.614c0.079,0.213,0.165,0.42,0.253,0.626
		c0.076,0.204,0.159,0.402,0.244,0.602c0.077,0.209,0.162,0.412,0.248,0.614c0.077,0.209,0.162,0.412,0.248,0.614
		c0.077,0.21,0.161,0.414,0.249,0.617c0.076,0.207,0.16,0.408,0.247,0.609c0.076,0.209,0.161,0.412,0.247,0.613
		c0.077,0.209,0.162,0.412,0.248,0.614c0.078,0.21,0.162,0.414,0.249,0.616c0.077,0.207,0.161,0.408,0.247,0.609
		c0.077,0.209,0.162,0.412,0.248,0.614c0.077,0.209,0.162,0.412,0.248,0.614c0.077,0.209,0.162,0.412,0.248,0.613
		c0.078,0.209,0.162,0.414,0.249,0.616c0.077,0.207,0.161,0.409,0.247,0.61c0.077,0.209,0.162,0.412,0.248,0.613
		c0.077,0.209,0.162,0.412,0.248,0.613c0.078,0.211,0.162,0.414,0.249,0.617c0.077,0.207,0.161,0.409,0.247,0.61
		c0.077,0.209,0.162,0.411,0.248,0.612c0.077,0.209,0.162,0.412,0.248,0.614c0.078,0.21,0.162,0.414,0.249,0.617
		c0.077,0.207,0.161,0.409,0.247,0.608c0.077,0.209,0.162,0.412,0.248,0.615c0.077,0.209,0.162,0.412,0.248,0.613
		c0.078,0.212,0.164,0.418,0.252,0.623c0.077,0.207,0.161,0.408,0.246,0.607c0.076,0.207,0.16,0.41,0.246,0.609
		c0.077,0.209,0.162,0.412,0.248,0.614c0.077,0.209,0.162,0.412,0.248,0.614c0.077,0.21,0.163,0.414,0.249,0.615
		c0.077,0.207,0.161,0.41,0.247,0.61c0.077,0.209,0.162,0.412,0.248,0.614c0.077,0.209,0.162,0.412,0.248,0.613
		c0.077,0.211,0.163,0.414,0.249,0.617c0.077,0.207,0.161,0.408,0.247,0.609c0.077,0.209,0.162,0.412,0.248,0.614
		c0.077,0.209,0.162,0.411,0.248,0.612c0.077,0.209,0.162,0.412,0.248,0.614c0.077,0.21,0.163,0.414,0.249,0.617
		c0.077,0.207,0.161,0.409,0.247,0.61c0.077,0.209,0.162,0.412,0.248,0.613c0.077,0.209,0.162,0.412,0.248,0.613
		c0.077,0.21,0.163,0.414,0.249,0.617c0.077,0.207,0.161,0.409,0.247,0.609c0.077,0.209,0.162,0.412,0.248,0.613
		c0.044,0.119,0.094,0.234,0.142,0.354C92.557,127.885,116.514,109.4,124.846,83.854z"/>
	<g>
		<path fill="#B37035" d="M43.971,46.406c-0.098,0-0.194-0.005-0.295-0.018c-17.769-2.104-17.388-14.242-17.225-19.427l0.018-0.623
			c0.036-1.354,1.146-2.434,2.5-2.434c0.146,0,14.704,0.034,18.921,2.941c0.583,0.402,0.97,1.038,1.061,1.743
			c0.059,0.457,0.095,0.979,0.132,1.533c0.106,1.594,0.239,3.576,1.174,4.139c1.186,0.713,1.567,2.245,0.857,3.433
			c-0.711,1.182-4.5,5.135-4.661,6.504C46.3,45.471,45.221,46.406,43.971,46.406z"/>
		<path fill="#A66831" d="M50.255,34.262c-0.935-0.562-1.066-2.543-1.174-4.138c-0.037-0.555-0.073-1.077-0.132-1.532
			c-0.091-0.707-0.478-1.342-1.061-1.744c-4.217-2.907-18.773-2.941-18.921-2.941c-0.175,0-0.345,0.02-0.509,0.053
			c4.377,0.149,13.282,0.719,16.43,2.89c0.583,0.402,0.97,1.038,1.061,1.743c0.059,0.457,0.095,0.979,0.132,1.533
			c0.106,1.594,0.239,3.576,1.174,4.139c1.186,0.713,1.567,2.245,0.857,3.433c-0.711,1.182-4.5,5.135-4.661,6.504
			c-0.105,0.887-0.667,1.603-1.418,1.958c0.529,0.087,1.075,0.164,1.643,0.23c0.101,0.014,0.197,0.019,0.295,0.019
			c1.25,0,2.329-0.937,2.48-2.207c0.161-1.369,3.95-5.322,4.661-6.504C51.822,36.51,51.44,34.976,50.255,34.262z"/>
		<path fill="#99602D" d="M43.882,43.243c-11.337-1.764-12.556-7.937-12.453-14.319c5.682,0.115,12.192,0.849,14.623,1.912
			c0.014,0.181,0.025,0.365,0.038,0.557c0.124,1.839,0.299,4.43,1.821,6.214c-0.147,0.18-0.298,0.36-0.435,0.524
			C45.739,40.228,44.497,41.773,43.882,43.243z"/>
		<path fill="#B37035" d="M83.966,46.406c-1.25,0-2.329-0.937-2.479-2.207c-0.16-1.369-3.954-5.332-4.659-6.504
			c-0.711-1.188-0.327-2.72,0.854-3.434c0.938-0.562,1.067-2.543,1.176-4.138c0.035-0.555,0.072-1.077,0.133-1.532
			c0.09-0.707,0.476-1.342,1.06-1.744c4.216-2.907,18.774-2.941,18.921-2.941c1.354,0,2.463,1.079,2.5,2.434l0.018,0.623
			c0.164,5.185,0.546,17.322-17.225,19.427C84.164,46.401,84.063,46.406,83.966,46.406z"/>
		<path fill="#A66831" d="M101.484,26.963l-0.018-0.623c-0.037-1.354-1.146-2.434-2.5-2.434c-0.037,0-1.004,0.002-2.49,0.053
			c1.112,0.23,1.959,1.201,1.99,2.381l0.018,0.623c0.158,5.02,0.521,16.557-15.582,19.194c0.326,0.155,0.686,0.249,1.063,0.249
			c0.099,0,0.198-0.005,0.296-0.018C102.029,44.285,101.648,32.146,101.484,26.963z"/>
		<path fill="#99602D" d="M84.057,43.244c-0.615-1.471-1.859-3.021-3.604-5.125c-0.132-0.16-0.279-0.337-0.425-0.514
			c1.521-1.782,1.695-4.372,1.818-6.202c0.014-0.197,0.025-0.387,0.039-0.567c2.426-1.063,8.938-1.797,14.622-1.913
			C96.607,35.323,95.384,41.492,84.057,43.244z"/>
		<path fill="#E6A973" d="M52.874,95.089c0,7.581,4.77,12.636,11.095,12.636c6.325,0,11.095-5.055,11.095-12.636H52.874z"/>
		<path fill="#D99F6C" d="M72.063,95.089c0,6.968-4.031,11.788-9.595,12.524c0.49,0.063,0.987,0.109,1.5,0.109
			c6.325,0,11.095-5.055,11.095-12.636L72.063,95.089L72.063,95.089z"/>
		<path fill="#D99F6C" d="M53.687,100.156c2.646,2.385,6.222,3.75,10.282,3.75c4.062,0,7.636-1.365,10.282-3.75
			c0.522-1.516,0.813-3.215,0.813-5.067H52.875C52.874,96.941,53.163,98.643,53.687,100.156z"/>
		<g>
			<path fill="#665744" d="M59.17,23.049c-0.256,0.727-0.243,1.375-0.163,2.006c0.091,0.627,0.173,1.258,0.286,1.879
				c0.211,1.246,0.481,2.476,0.85,3.677c0.324,1.056-0.27,2.175-1.325,2.499c-1.058,0.323-2.176-0.271-2.5-1.326
				c-0.007-0.023-0.016-0.055-0.021-0.079c-0.319-1.215-0.736-2.401-1.213-3.573c-0.23-0.587-0.492-1.166-0.745-1.746
				c-0.264-0.578-0.595-1.138-1.194-1.619c-1.653-1.329-1.918-3.747-0.589-5.4c1.329-1.654,3.747-1.917,5.401-0.588
				C59.259,19.823,59.695,21.555,59.17,23.049z"/>
			<path fill="#665744" d="M68.768,23.049c0.258,0.727,0.244,1.375,0.164,2.006c-0.092,0.627-0.174,1.258-0.287,1.879
				c-0.211,1.246-0.479,2.476-0.85,3.677c-0.324,1.056,0.271,2.175,1.326,2.499c1.057,0.323,2.175-0.271,2.499-1.326
				c0.007-0.023,0.017-0.055,0.021-0.079c0.319-1.215,0.736-2.401,1.213-3.573c0.23-0.587,0.492-1.166,0.746-1.746
				c0.264-0.578,0.596-1.138,1.193-1.619c1.654-1.329,1.918-3.747,0.589-5.4c-1.329-1.654-3.747-1.917-5.401-0.588
				C68.68,19.823,68.242,21.555,68.768,23.049z"/>
		</g>
		<path fill="#E6A973" d="M63.969,28.906c-12.197,0-22.5,10.303-22.5,22.5v10c0,0.835,0.417,1.616,1.113,2.08
			c0,0,5.643,2.489,6.387,4.258c3.75,8.912,0,13.871,0,19.162c0,9,6.447,15,15,15c8.552,0,15-6,15-15c0-5.291-3.75-10.25,0-19.162
			c0.744-1.77,6.389-4.258,6.389-4.258c0.694-0.464,1.111-1.245,1.111-2.08v-10C86.469,39.209,76.166,28.906,63.969,28.906z"/>
		<path fill="#D99F6C" d="M63.969,28.906c-0.504,0-1.003,0.023-1.5,0.059c11.529,0.804,21,10.748,21,22.441v10
			c0,0.835-0.417,1.616-1.111,2.08c0,0-5.645,2.489-6.389,4.258c-3.75,8.912,0,13.871,0,19.162c0,8.465-5.705,14.273-13.5,14.934
			c0.492,0.042,0.992,0.066,1.5,0.066c8.552,0,15-6,15-15c0-5.291-3.75-10.25,0-19.162c0.744-1.77,6.389-4.258,6.389-4.258
			c0.694-0.464,1.111-1.245,1.111-2.08v-10C86.469,39.209,76.166,28.906,63.969,28.906z"/>
		<path fill="#805D35" d="M58.969,92.461c-1.382,0-2.5-1.117-2.5-2.5v-5c0-1.379,1.118-2.5,2.5-2.5c1.382,0,2.5,1.121,2.5,2.5v5
			C61.469,91.344,60.351,92.461,58.969,92.461z"/>
		<path fill="#805D35" d="M68.969,92.461c-1.382,0-2.5-1.117-2.5-2.5v-5c0-1.379,1.118-2.5,2.5-2.5c1.383,0,2.5,1.121,2.5,2.5v5
			C71.469,91.344,70.352,92.461,68.969,92.461z"/>
		<g>
			<path fill="#946C3D" d="M56.688,55.469c-0.824,0-1.633-0.404-2.108-1.153c-1.543-2.415-5.124-3.255-7.834-1.819
				c-1.211,0.646-2.732,0.184-3.379-1.038c-0.647-1.218-0.182-2.73,1.04-3.381c5-2.642,11.451-1.055,14.387,3.55
				c0.742,1.165,0.4,2.71-0.762,3.452C57.614,55.342,57.147,55.469,56.688,55.469z"/>
			<path fill="#805D35" d="M71.249,55.469c-0.459,0-0.925-0.127-1.343-0.391c-1.162-0.742-1.506-2.287-0.764-3.452
				c2.937-4.608,9.396-6.193,14.39-3.55c1.221,0.649,1.687,2.163,1.04,3.381c-0.647,1.221-2.166,1.684-3.381,1.038
				c-2.709-1.437-6.291-0.599-7.834,1.819C72.883,55.063,72.074,55.469,71.249,55.469z"/>
		</g>
		<g>
			<circle fill="#F5F5F5" cx="49.969" cy="57.656" r="3"/>
			<circle fill="#242424" cx="49.969" cy="57.656" r="1"/>
			<circle fill="#F5F5F5" cx="77.969" cy="57.656" r="3"/>
			<circle fill="#242424" cx="77.969" cy="57.656" r="1"/>
		</g>
	</g>
</g>
</svg>
