<?xml version="1.0" encoding="utf-8"?>
<!-- Generator: Adobe Illustrator 15.1.0, SVG Export Plug-In . SVG Version: 6.00 Build 0)  -->
<!DOCTYPE svg PUBLIC "-//W3C//DTD SVG 1.1//EN" "http://www.w3.org/Graphics/SVG/1.1/DTD/svg11.dtd">
<svg version="1.1" id="Layer_1" xmlns="http://www.w3.org/2000/svg" xmlns:xlink="http://www.w3.org/1999/xlink" x="0px" y="0px"
	 width="128px" height="128px" viewBox="0 0 128 128" enable-background="new 0 0 128 128" xml:space="preserve">
<g>
	<circle fill="#4AB8A1" cx="64" cy="64" r="64"/>
	<path fill="#43A691" d="M64,128c24.148,0,45.168-13.381,56.064-33.128c-0.135,0.021-0.269,0.049-0.401,0.073
		c0.099-0.201,0.194-0.401,0.301-0.604c-0.17,0.022-0.339,0.063-0.508,0.093c0.099-0.199,0.194-0.4,0.301-0.604
		c-0.17,0.021-0.339,0.063-0.508,0.093c0.099-0.2,0.194-0.401,0.301-0.604c-0.17,0.021-0.338,0.063-0.508,0.094
		c0.099-0.201,0.194-0.401,0.301-0.604c-0.17,0.021-0.339,0.063-0.508,0.094c0.099-0.201,0.194-0.402,0.302-0.605
		c-0.171,0.021-0.339,0.063-0.509,0.094c0.099-0.201,0.194-0.4,0.302-0.604c-0.171,0.021-0.34,0.062-0.509,0.093
		c0.099-0.201,0.194-0.4,0.302-0.604c-0.171,0.021-0.339,0.062-0.509,0.093c0.099-0.201,0.194-0.401,0.302-0.604
		c-0.17,0.021-0.339,0.063-0.508,0.094c0.098-0.201,0.194-0.401,0.301-0.604c-0.17,0.021-0.338,0.063-0.508,0.093
		c0.1-0.199,0.194-0.399,0.301-0.604c-0.17,0.021-0.338,0.063-0.508,0.093c0.098-0.201,0.193-0.401,0.301-0.604
		c-0.17,0.021-0.338,0.063-0.508,0.094c0.098-0.201,0.193-0.402,0.301-0.605c-0.17,0.021-0.338,0.063-0.508,0.094
		c0.1-0.2,0.194-0.4,0.301-0.604c-0.17,0.021-0.338,0.063-0.508,0.094c0.098-0.201,0.193-0.402,0.301-0.604
		c-0.17,0.021-0.338,0.062-0.508,0.093c0.101-0.201,0.194-0.4,0.301-0.604c-0.17,0.021-0.338,0.062-0.508,0.093
		c0.1-0.201,0.193-0.402,0.301-0.605c-0.17,0.021-0.338,0.063-0.508,0.095c0.101-0.201,0.194-0.401,0.301-0.604
		c-0.17,0.021-0.338,0.063-0.508,0.093c0.1-0.199,0.193-0.4,0.301-0.604c-0.17,0.021-0.338,0.062-0.508,0.093
		c0.101-0.201,0.194-0.399,0.301-0.604c-0.17,0.021-0.338,0.063-0.508,0.094c0.1-0.201,0.193-0.402,0.303-0.605
		c-0.172,0.021-0.34,0.063-0.51,0.094c0.1-0.201,0.193-0.401,0.303-0.604c-0.172,0.022-0.34,0.063-0.51,0.093
		c0.101-0.199,0.194-0.4,0.303-0.604c-0.172,0.021-0.34,0.062-0.51,0.093c0.1-0.201,0.193-0.401,0.303-0.604
		c-0.17,0.021-0.34,0.063-0.508,0.092c0.1-0.199,0.193-0.399,0.302-0.604c-0.17,0.021-0.339,0.063-0.509,0.094
		c0.099-0.201,0.193-0.401,0.302-0.604c-0.17,0.022-0.338,0.063-0.508,0.093c0.099-0.199,0.192-0.4,0.301-0.604
		c-0.17,0.021-0.339,0.062-0.508,0.093c0.098-0.201,0.192-0.402,0.301-0.604c-0.17,0.021-0.338,0.063-0.508,0.094
		c0.099-0.201,0.192-0.401,0.301-0.604c-0.17,0.021-0.339,0.063-0.508,0.095c0.098-0.201,0.192-0.402,0.301-0.605
		c-0.17,0.021-0.339,0.063-0.508,0.093c0.098-0.2,0.192-0.401,0.301-0.604c-0.17,0.021-0.338,0.063-0.508,0.094
		c0.101-0.201,0.192-0.4,0.301-0.604c-0.17,0.021-0.339,0.062-0.508,0.092c0.099-0.2,0.192-0.401,0.301-0.604
		c-0.17,0.022-0.338,0.063-0.508,0.095c0.101-0.201,0.192-0.402,0.301-0.604c-0.17,0.022-0.339,0.063-0.508,0.093
		c0.099-0.2,0.192-0.4,0.301-0.604c-0.17,0.021-0.338,0.062-0.508,0.093c0.101-0.201,0.192-0.401,0.302-0.604
		c-0.171,0.021-0.34,0.063-0.509,0.094c0.099-0.201,0.192-0.402,0.302-0.605c-0.171,0.021-0.339,0.063-0.509,0.094
		c0.101-0.201,0.192-0.4,0.302-0.604c-0.171,0.021-0.34,0.063-0.509,0.093c0.099-0.2,0.194-0.401,0.302-0.604
		c-0.17,0.021-0.339,0.063-0.508,0.093c0.1-0.201,0.194-0.401,0.303-0.604c-0.17,0.021-0.338,0.063-0.51,0.094
		c0.1-0.201,0.194-0.401,0.303-0.604c-0.17,0.022-0.34,0.063-0.51,0.094c0.1-0.2,0.193-0.401,0.303-0.604
		c-0.17,0.021-0.338,0.063-0.51,0.093c0.1-0.201,0.194-0.399,0.303-0.604c-0.17,0.021-0.34,0.063-0.508,0.094
		c0.098-0.201,0.191-0.402,0.301-0.604c-0.17,0.021-0.338,0.062-0.508,0.093c0.098-0.201,0.192-0.4,0.301-0.604
		c-0.17,0.021-0.34,0.063-0.508,0.094c0.098-0.201,0.191-0.402,0.301-0.605c-0.17,0.021-0.338,0.063-0.508,0.094
		c0.099-0.2,0.192-0.4,0.301-0.604c-0.17,0.021-0.34,0.062-0.508,0.092c0.098-0.2,0.191-0.401,0.301-0.604
		c-0.17,0.021-0.338,0.063-0.508,0.094c0.099-0.201,0.192-0.401,0.301-0.604c-0.17,0.022-0.34,0.063-0.508,0.094
		c0.098-0.2,0.191-0.401,0.301-0.604c-0.17,0.021-0.34,0.063-0.508,0.093c0.098-0.201,0.191-0.401,0.301-0.604
		c-0.17,0.021-0.338,0.063-0.508,0.094c0.099-0.201,0.192-0.401,0.301-0.604c-0.17,0.021-0.34,0.062-0.508,0.093
		c0.098-0.201,0.191-0.402,0.301-0.604c-0.17,0.021-0.338,0.063-0.508,0.094c0.099-0.201,0.193-0.401,0.301-0.604
		c-0.17,0.021-0.338,0.063-0.508,0.093c0.1-0.201,0.195-0.4,0.302-0.604c-0.17,0.021-0.338,0.063-0.509,0.094
		c0.1-0.201,0.195-0.401,0.302-0.604c-0.17,0.022-0.339,0.063-0.509,0.095c0.099-0.201,0.195-0.402,0.302-0.605
		c-0.17,0.021-0.338,0.063-0.509,0.094c0.1-0.201,0.195-0.4,0.302-0.604c-0.17,0.021-0.339,0.062-0.508,0.093
		c0.098-0.201,0.194-0.401,0.301-0.604c-0.17,0.021-0.339,0.063-0.508,0.094c0.098-0.201,0.194-0.402,0.301-0.605
		c-0.17,0.021-0.338,0.063-0.508,0.094c0.099-0.201,0.194-0.401,0.301-0.604c-0.17,0.021-0.339,0.063-0.508,0.093
		c0.099-0.2,0.194-0.401,0.301-0.604c-0.17,0.022-0.338,0.062-0.508,0.093c0.099-0.201,0.194-0.4,0.301-0.604
		c-0.17,0.021-0.339,0.063-0.508,0.093c0.099-0.201,0.194-0.402,0.301-0.604c-0.17,0.021-0.338,0.062-0.508,0.093
		c0.099-0.201,0.194-0.401,0.301-0.604c-0.17,0.021-0.339,0.063-0.508,0.094c0.099-0.201,0.194-0.402,0.302-0.605
		c-0.171,0.021-0.339,0.063-0.509,0.093c0.099-0.201,0.194-0.4,0.302-0.604c-0.171,0.021-0.34,0.062-0.509,0.093
		c0.099-0.201,0.194-0.402,0.302-0.605c-0.17,0.021-0.34,0.063-0.509,0.094c0.099-0.201,0.194-0.402,0.302-0.605
		c-0.17,0.021-0.338,0.063-0.508,0.092c0.1-0.199,0.194-0.399,0.301-0.604c-0.17,0.021-0.338,0.062-0.508,0.093
		c0.098-0.201,0.193-0.401,0.301-0.604c-0.17,0.021-0.338,0.062-0.508,0.093c0.1-0.201,0.194-0.401,0.301-0.604
		c-0.17,0.021-0.338,0.063-0.508,0.094c0.098-0.201,0.193-0.402,0.301-0.605c-0.17,0.022-0.338,0.063-0.508,0.093
		c0.1-0.2,0.194-0.4,0.301-0.604c-0.17,0.021-0.338,0.062-0.508,0.093c0.098-0.201,0.193-0.401,0.301-0.604
		c-0.17,0.021-0.338,0.062-0.508,0.093c0.101-0.201,0.194-0.401,0.301-0.604c-0.17,0.021-0.338,0.063-0.508,0.094
		c0.099-0.201,0.193-0.402,0.301-0.605c-0.17,0.022-0.338,0.063-0.508,0.093c0.099-0.2,0.193-0.401,0.301-0.604
		c-0.17,0.021-0.338,0.063-0.508,0.093c0.101-0.201,0.194-0.4,0.301-0.604c-0.17,0.021-0.338,0.062-0.508,0.093
		c0.1-0.201,0.193-0.402,0.301-0.605c-0.17,0.022-0.338,0.063-0.508,0.094c0.101-0.201,0.194-0.401,0.302-0.604
		c-0.171,0.022-0.339,0.063-0.509,0.093c0.1-0.2,0.193-0.401,0.302-0.604c-0.171,0.021-0.339,0.062-0.509,0.093
		c0.101-0.201,0.195-0.4,0.303-0.604c-0.171,0.021-0.34,0.062-0.51,0.093c0.1-0.201,0.193-0.402,0.303-0.605
		c-0.171,0.022-0.339,0.063-0.51,0.094c0.101-0.201,0.195-0.401,0.303-0.604c-0.17,0.021-0.339,0.063-0.508,0.093
		c0.1-0.201,0.193-0.401,0.302-0.604c-0.17,0.021-0.339,0.062-0.508,0.093c0.098-0.201,0.192-0.401,0.301-0.604
		c-0.17,0.021-0.338,0.062-0.508,0.093c0.099-0.201,0.192-0.401,0.301-0.604c-0.17,0.022-0.339,0.063-0.508,0.094
		c0.098-0.201,0.192-0.402,0.301-0.605c-0.17,0.021-0.338,0.063-0.508,0.093c0.099-0.2,0.192-0.4,0.301-0.604
		c-0.17,0.021-0.339,0.062-0.508,0.093c0.098-0.201,0.192-0.401,0.301-0.604c-0.17,0.021-0.338,0.062-0.508,0.093
		c0.099-0.201,0.192-0.401,0.301-0.604c-0.17,0.022-0.339,0.063-0.508,0.094c0.099-0.201,0.192-0.402,0.301-0.605
		c-0.17,0.021-0.338,0.063-0.508,0.093c0.101-0.2,0.192-0.4,0.301-0.604c-0.17,0.021-0.339,0.062-0.508,0.093
		c0.099-0.201,0.192-0.401,0.301-0.604c-0.17,0.021-0.338,0.062-0.508,0.093c0.101-0.201,0.192-0.401,0.302-0.604
		c-0.171,0.022-0.34,0.063-0.509,0.094c0.099-0.201,0.192-0.402,0.302-0.605c-0.171,0.021-0.34,0.063-0.509,0.093
		c0.099-0.2,0.193-0.401,0.302-0.604c-0.17,0.021-0.339,0.062-0.509,0.093c0.101-0.201,0.193-0.4,0.302-0.604
		c-0.17,0.021-0.34,0.062-0.509,0.093c0.099-0.201,0.194-0.402,0.302-0.605c-0.17,0.021-0.338,0.063-0.508,0.093
		c0.1-0.2,0.194-0.4,0.303-0.604c-0.17,0.021-0.34,0.063-0.51,0.093c0.1-0.2,0.193-0.401,0.303-0.604
		c-0.17,0.021-0.338,0.062-0.51,0.093c0.1-0.201,0.194-0.4,0.303-0.604c-0.17,0.021-0.34,0.062-0.51,0.093
		c0.1-0.201,0.193-0.402,0.303-0.605c-0.17,0.021-0.338,0.063-0.508,0.094c0.098-0.201,0.192-0.401,0.301-0.604
		c-0.17,0.021-0.34,0.063-0.508,0.093c0.098-0.2,0.191-0.401,0.301-0.604c-0.17,0.021-0.34,0.062-0.508,0.093
		c0.098-0.201,0.191-0.401,0.301-0.604c-0.17,0.021-0.338,0.062-0.508,0.093c0.098-0.201,0.192-0.401,0.301-0.604
		c-0.17,0.021-0.34,0.063-0.508,0.094c0.098-0.201,0.191-0.402,0.301-0.605c-0.17,0.022-0.338,0.063-0.508,0.093
		c0.099-0.2,0.192-0.4,0.301-0.604c-0.17,0.021-0.34,0.062-0.508,0.093c0.098-0.201,0.191-0.402,0.301-0.604
		c-0.17,0.021-0.338,0.062-0.508,0.093c0.099-0.201,0.192-0.401,0.301-0.604c-0.17,0.021-0.34,0.063-0.508,0.094
		c0.098-0.201,0.191-0.402,0.301-0.605c-0.17,0.022-0.338,0.063-0.508,0.093c0.099-0.2,0.193-0.4,0.301-0.604
		c-0.17,0.021-0.34,0.062-0.508,0.093c0.098-0.201,0.191-0.401,0.301-0.604c-0.17,0.021-0.338,0.062-0.508,0.092
		c0.1-0.201,0.195-0.401,0.302-0.604c-0.17,0.022-0.338,0.063-0.509,0.094c0.1-0.201,0.195-0.401,0.302-0.604
		c-0.17,0.022-0.339,0.063-0.509,0.093c0.099-0.2,0.195-0.401,0.302-0.604c-0.17,0.021-0.338,0.062-0.509,0.093
		c0.1-0.201,0.195-0.401,0.302-0.604c-0.17,0.021-0.339,0.062-0.508,0.093c0.098-0.201,0.194-0.402,0.301-0.605
		c-0.17,0.022-0.338,0.063-0.508,0.094c0.099-0.201,0.194-0.401,0.301-0.604c-0.17,0.022-0.339,0.063-0.508,0.093
		c0.099-0.201,0.194-0.401,0.301-0.604c-0.17,0.021-0.338,0.062-0.508,0.093c0.099-0.201,0.194-0.401,0.301-0.604
		c-0.17,0.021-0.339,0.062-0.508,0.093c0.099-0.201,0.194-0.402,0.301-0.605c-0.17,0.022-0.339,0.063-0.508,0.094
		c0.099-0.201,0.194-0.402,0.302-0.604c-0.171,0.021-0.339,0.063-0.509,0.093c0.099-0.201,0.194-0.4,0.302-0.604
		c-0.171,0.021-0.34,0.062-0.509,0.093c0.099-0.201,0.194-0.402,0.302-0.604c-0.171,0.021-0.339,0.062-0.509,0.093
		c0.099-0.201,0.194-0.401,0.302-0.604c-0.17,0.022-0.34,0.063-0.509,0.094c0.099-0.201,0.194-0.402,0.302-0.605
		c-0.17,0.021-0.338,0.063-0.509,0.093c0.099-0.2,0.194-0.4,0.302-0.604c-0.17,0.021-0.338,0.062-0.508,0.092
		c0.098-0.201,0.194-0.401,0.301-0.604c-0.17,0.022-0.338,0.063-0.508,0.094c0.1-0.201,0.194-0.401,0.301-0.604
		c-0.17,0.022-0.338,0.063-0.508,0.093c0.098-0.2,0.193-0.401,0.301-0.604c-0.17,0.021-0.338,0.062-0.508,0.093
		c0.1-0.201,0.194-0.4,0.301-0.604c-0.17,0.021-0.338,0.062-0.508,0.093c0.098-0.201,0.193-0.402,0.301-0.604
		c-0.17,0.021-0.338,0.062-0.508,0.093c0.099-0.201,0.193-0.402,0.301-0.605c-0.17,0.021-0.338,0.063-0.508,0.093
		c0.101-0.2,0.194-0.4,0.301-0.604c-0.361,0.047-0.725,0.117-1.084,0.197c-0.137,0.028-0.271,0.063-0.407,0.098
		c-0.211,0.055-0.423,0.113-0.634,0.178c-3.491,1.051-6.713,3.396-9.092,5.556c-20.878-4.861-62.584,28.48-65.269,30.494
		c-1.788,1.34-2.051,2.684-1.331,4.162c0.056,0.168,0.123,0.338,0.206,0.51c0.056,0.169,0.123,0.339,0.206,0.512
		c0.038,0.114,0.069,0.229,0.121,0.348c-5.086,3.586-9.673,6.953-13.397,9.796C7.393,106.162,33.144,128,64,128z"/>
	<g>
		<g>
			<g>
				<defs>
					<circle id="SVGID_1_" cx="64" cy="64" r="64"/>
				</defs>
				<clipPath id="SVGID_2_">
					<use xlink:href="#SVGID_1_"  overflow="visible"/>
				</clipPath>
				<g clip-path="url(#SVGID_2_)">
					<path fill="#242424" d="M16.237,68.553c-2.607-2.604-3.476-4.692-0.695-6.777c2.781-2.086,47.452-37.808,67.442-29.896
						c-3.217,8.43-12.342,13.558-12.342,13.558L16.237,68.553z"/>
					<path fill="#F2B255" d="M69.6,70.553c-3.216,4.172-11.471,16.426-13.645,23.465c1.824,8.779,2.955,21.729-6.084,33.982
						c-6.205,3.834-22.929,3.139-33.538-3.999c-15.393-10.354-23.551-36.09-23.5-40c9.039-8.433,69.167-52,84.501-49.169
						c1.825-2.259,7.996-8.777,14.688-9.646c-2.605,4.954-2.521,9.388-5.91,11.994c5.563,5.736,22.945,38.24,25.813,44.671
						c-0.174,6.778-0.692,10.776-6.343,11.123c-2.521,2-10.434,0.176-9.996-4.69c-4.434-1.911-12.775-7.822-13.729-8.778
						C77.074,79.766,71.252,74.984,69.6,70.553z"/>
					<path fill="#E6A951" d="M69.563,70.553c-0.287-1.059-0.75-3.72-0.646-5.136c-3.216,4.172-13.788,21.562-15.962,28.601
						c1.824,8.779,2.955,21.729-6.084,33.982c-2.164,1.337-5.609,2.121-9.626,2.275c5.28,0.191,9.939-0.615,12.626-2.275
						c9.039-12.254,7.908-25.203,6.084-33.982C57.807,88.025,65.758,75.9,69.563,70.553z"/>
					<path fill="#E6A951" d="M86.111,37.18c3.391-2.606,3.305-7.04,5.912-11.994c-1.181,0.153-2.34,0.488-3.467,0.938
						c-2.146,4.572-2.271,8.614-5.445,11.056c5.563,5.736,22.945,38.24,25.813,44.671c-0.174,6.778-0.693,10.776-6.343,11.123
						c-0.394,0.313-0.925,0.521-1.524,0.647c1.783,0.319,3.555,0.122,4.524-0.647c5.647-0.347,6.169-4.345,6.343-11.123
						C109.059,75.42,91.675,42.916,86.111,37.18z"/>
					<path fill="#A67C43" d="M110.207,78.293c-6.425,0.251-11.938,4.25-14.631,9.984c0.003,0,0.007,0.004,0.01,0.005
						c-0.436,4.866,7.475,6.69,9.996,4.69c5.648-0.347,6.169-4.345,6.343-11.123C111.564,81.042,110.975,79.82,110.207,78.293z"/>
					<path fill="#99723E" d="M110.352,78.581c-0.047-0.093-0.088-0.176-0.137-0.271c-0.002-0.006-0.005-0.013-0.008-0.018
						c-0.963,0.037-1.9,0.169-2.816,0.368c0.676,1.351,1.205,2.448,1.534,3.188c-0.174,6.778-0.694,10.776-6.343,11.123
						c-0.393,0.313-0.925,0.521-1.525,0.647c0.17,0.03,0.34,0.052,0.51,0.073c0.082,0.01,0.166,0.021,0.248,0.026
						c0.156,0.017,0.313,0.026,0.47,0.033c0.099,0.004,0.194,0.005,0.293,0.006c0.142,0.002,0.282,0.005,0.421-0.002
						c0.216-0.01,0.428-0.024,0.632-0.055c0.087-0.013,0.168-0.031,0.252-0.046c0.146-0.026,0.285-0.057,0.42-0.09
						c0.08-0.021,0.156-0.047,0.233-0.07c0.136-0.043,0.266-0.094,0.39-0.146c0.062-0.025,0.121-0.052,0.181-0.08
						c0.174-0.088,0.338-0.186,0.479-0.299c5.646-0.347,6.169-4.345,6.343-11.123C111.588,81.096,111.045,79.97,110.352,78.581z"/>
					<ellipse fill="#242424" cx="108.014" cy="85.457" rx="1.738" ry="4.042"/>
					<g>
						<path fill="#F5F5F5" d="M90.902,57.533c-0.563,0.92-3.319,0.256-6.158-1.48c-2.836-1.735-4.68-3.892-4.116-4.813
							c0.562-0.92,3.317-0.256,6.157,1.479C89.621,54.458,91.468,56.613,90.902,57.533z"/>
						
							<ellipse transform="matrix(-0.8532 -0.5216 0.5216 -0.8532 130.5913 145.5656)" fill="#242424" cx="85.781" cy="54.405" rx="1.398" ry="1.419"/>
					</g>
				</g>
			</g>
		</g>
	</g>
</g>
</svg>
