<?xml version="1.0" encoding="utf-8"?>
<!-- Generator: Adobe Illustrator 15.1.0, SVG Export Plug-In . SVG Version: 6.00 Build 0)  -->
<!DOCTYPE svg PUBLIC "-//W3C//DTD SVG 1.1//EN" "http://www.w3.org/Graphics/SVG/1.1/DTD/svg11.dtd">
<svg version="1.1" id="Layer_1" xmlns="http://www.w3.org/2000/svg" xmlns:xlink="http://www.w3.org/1999/xlink" x="0px" y="0px"
	 width="128px" height="128px" viewBox="0 0 128 128" enable-background="new 0 0 128 128" xml:space="preserve">
<g>
	<circle fill="#C2D5D8" cx="64" cy="64" r="64"/>
	<path fill="#B7C9CC" d="M126.291,78.671c-0.044-0.11-0.086-0.223-0.133-0.326c-0.065-0.177-0.135-0.348-0.205-0.509
		c-0.066-0.178-0.135-0.352-0.207-0.513c-0.066-0.179-0.137-0.354-0.209-0.517c-0.064-0.178-0.135-0.349-0.205-0.51
		c-0.066-0.179-0.137-0.354-0.209-0.516c-0.064-0.178-0.135-0.35-0.205-0.51c-0.066-0.18-0.136-0.354-0.209-0.517
		c-0.064-0.177-0.134-0.348-0.205-0.509c-0.066-0.18-0.136-0.354-0.209-0.516c-0.064-0.179-0.134-0.35-0.205-0.51
		c-0.064-0.176-0.133-0.346-0.203-0.505c-0.068-0.183-0.138-0.356-0.212-0.522c-0.065-0.178-0.134-0.349-0.204-0.51
		c-0.068-0.18-0.137-0.354-0.21-0.517c-0.065-0.177-0.134-0.349-0.204-0.509c-0.066-0.18-0.137-0.354-0.209-0.516
		c-0.064-0.178-0.135-0.35-0.205-0.51c-0.066-0.18-0.137-0.354-0.209-0.517c-0.064-0.177-0.135-0.349-0.205-0.509
		c-0.066-0.18-0.137-0.354-0.209-0.517c-0.064-0.178-0.135-0.349-0.205-0.51c-0.065-0.179-0.135-0.351-0.207-0.513
		c-0.066-0.18-0.137-0.354-0.209-0.517c-0.064-0.177-0.135-0.349-0.205-0.509c-0.066-0.18-0.137-0.354-0.209-0.518
		c-0.063-0.174-0.131-0.342-0.2-0.5c-0.068-0.183-0.14-0.356-0.214-0.522c-0.063-0.178-0.133-0.349-0.203-0.51
		c-0.067-0.179-0.137-0.353-0.209-0.516c-0.065-0.177-0.135-0.348-0.205-0.509c-0.066-0.178-0.137-0.352-0.207-0.513
		c-0.066-0.18-0.137-0.354-0.209-0.517c-0.064-0.177-0.135-0.348-0.205-0.509c-0.066-0.179-0.137-0.353-0.209-0.516
		c-0.064-0.178-0.135-0.349-0.205-0.51c-0.066-0.179-0.137-0.353-0.209-0.516c-0.064-0.177-0.134-0.348-0.205-0.509
		c-0.066-0.179-0.136-0.354-0.209-0.516c-0.064-0.178-0.134-0.349-0.205-0.51c-0.064-0.178-0.135-0.351-0.207-0.513
		c-0.064-0.176-0.133-0.347-0.205-0.507c-0.064-0.18-0.136-0.354-0.208-0.519c-0.065-0.179-0.136-0.353-0.209-0.516
		c-0.063-0.177-0.134-0.348-0.204-0.509c-0.066-0.18-0.137-0.354-0.209-0.517c-0.064-0.177-0.135-0.348-0.205-0.509
		c-0.066-0.179-0.137-0.353-0.209-0.516c-0.064-0.177-0.135-0.348-0.205-0.509c-0.065-0.179-0.136-0.352-0.207-0.514
		c-0.066-0.179-0.137-0.353-0.209-0.516c-0.064-0.177-0.135-0.348-0.205-0.509c-0.066-0.18-0.135-0.354-0.209-0.517
		c-0.064-0.177-0.133-0.348-0.205-0.509c-0.066-0.179-0.135-0.353-0.209-0.516c-0.064-0.177-0.133-0.348-0.205-0.509
		c-0.066-0.18-0.135-0.354-0.209-0.517c-0.063-0.174-0.131-0.342-0.2-0.5c-0.067-0.182-0.138-0.355-0.21-0.521
		c-0.067-0.179-0.137-0.354-0.209-0.517c-0.065-0.177-0.135-0.348-0.205-0.509c-0.066-0.179-0.137-0.353-0.209-0.516
		c-0.064-0.177-0.135-0.349-0.205-0.509c-0.066-0.18-0.137-0.354-0.209-0.517c-0.064-0.177-0.135-0.348-0.205-0.509
		c-0.066-0.179-0.137-0.353-0.209-0.516c-0.064-0.178-0.135-0.349-0.205-0.509c-0.066-0.18-0.136-0.354-0.209-0.517
		c-0.064-0.177-0.134-0.348-0.205-0.509c-0.066-0.178-0.135-0.351-0.207-0.513c-0.066-0.18-0.136-0.354-0.209-0.517
		c-0.064-0.177-0.134-0.348-0.205-0.509c-0.066-0.176-0.133-0.347-0.205-0.507c-0.066-0.18-0.136-0.354-0.207-0.519
		c-0.068-0.179-0.137-0.353-0.209-0.516c-0.066-0.177-0.135-0.348-0.205-0.509c-0.066-0.179-0.137-0.354-0.209-0.516
		c-0.064-0.178-0.135-0.349-0.205-0.51c-0.065-0.178-0.136-0.351-0.207-0.513c-0.066-0.179-0.137-0.353-0.209-0.516
		c-0.064-0.178-0.135-0.349-0.205-0.51c-0.066-0.179-0.137-0.353-0.209-0.516c-0.064-0.177-0.135-0.348-0.205-0.509
		c-0.066-0.179-0.137-0.354-0.209-0.516c-0.064-0.178-0.135-0.349-0.205-0.51c-0.066-0.179-0.137-0.353-0.209-0.516
		c-0.064-0.177-0.135-0.348-0.205-0.509c-0.064-0.175-0.133-0.345-0.202-0.504c-0.068-0.184-0.14-0.358-0.214-0.524
		c-0.063-0.177-0.133-0.348-0.203-0.509c-0.067-0.179-0.137-0.354-0.209-0.516c-0.064-0.178-0.135-0.349-0.205-0.51
		c-0.066-0.179-0.137-0.353-0.209-0.516c-0.064-0.177-0.135-0.348-0.205-0.509c-0.066-0.179-0.137-0.354-0.209-0.517
		c-0.064-0.177-0.135-0.348-0.205-0.509c-0.064-0.178-0.135-0.351-0.207-0.513c-0.066-0.179-0.136-0.354-0.209-0.516
		c-0.064-0.178-0.134-0.349-0.205-0.51c-0.066-0.179-0.136-0.353-0.209-0.516c-0.064-0.177-0.134-0.348-0.205-0.509
		c-0.066-0.179-0.136-0.354-0.209-0.517c-0.063-0.174-0.131-0.342-0.199-0.5c-0.068-0.183-0.14-0.357-0.213-0.523
		c-0.064-0.177-0.135-0.348-0.205-0.509c-0.066-0.18-0.137-0.354-0.209-0.517c-0.064-0.177-0.135-0.348-0.205-0.509
		c-0.065-0.178-0.136-0.351-0.207-0.513c-0.066-0.18-0.137-0.354-0.209-0.517c-0.351-0.938-0.779-1.67-1.283-2.116
		c-1.438-1.279-3.645-1.871-6.18-1.889c-0.033,0-0.063-0.003-0.099-0.003c-0.349,0-0.702,0.018-1.063,0.038
		c-0.136,0.008-0.271,0.017-0.408,0.027c-0.34,0.026-0.68,0.063-1.025,0.108c-0.162,0.021-0.325,0.05-0.486,0.074
		c-0.345,0.054-0.687,0.108-1.031,0.181c-0.148,0.029-0.299,0.068-0.447,0.104c-0.6,0.135-1.201,0.294-1.807,0.479
		c-0.248,0.075-0.496,0.147-0.744,0.23c-0.27,0.091-0.534,0.192-0.801,0.292c-0.281,0.104-0.563,0.213-0.843,0.328
		c-0.247,0.102-0.491,0.207-0.737,0.317c-0.313,0.141-0.623,0.288-0.934,0.441c-0.21,0.104-0.421,0.204-0.628,0.313
		c-0.476,0.25-0.94,0.515-1.399,0.794c-0.076,0.048-0.151,0.095-0.229,0.143c-0.456,0.285-0.899,0.586-1.334,0.899
		c-0.153,0.109-0.302,0.227-0.45,0.341c-0.322,0.246-0.643,0.498-0.947,0.761c-0.156,0.132-0.31,0.267-0.461,0.401
		c-0.304,0.271-0.595,0.555-0.879,0.844c-0.127,0.128-0.256,0.253-0.378,0.384c-0.396,0.422-0.771,0.855-1.118,1.309
		c-5.293,6.898-6.205,18.098-5.41,25.063c-2.666-1.207-5.601-1.879-8.684-1.879c-1.283,0-2.538,0.123-3.763,0.346
		c-0.021-0.053-0.045-0.104-0.064-0.156c-0.064-0.172-0.138-0.339-0.205-0.508c-0.066-0.175-0.14-0.345-0.209-0.518
		c-0.064-0.171-0.138-0.338-0.205-0.507c-0.064-0.173-0.139-0.342-0.207-0.514c-0.066-0.175-0.14-0.345-0.209-0.518
		c-0.064-0.171-0.138-0.338-0.205-0.507c-0.065-0.175-0.14-0.345-0.209-0.519c-0.064-0.171-0.138-0.338-0.205-0.507
		c-0.065-0.175-0.14-0.345-0.209-0.518c-0.064-0.171-0.138-0.338-0.205-0.507c-0.065-0.176-0.14-0.346-0.209-0.519
		c-0.064-0.171-0.138-0.338-0.205-0.507c-0.063-0.168-0.133-0.331-0.2-0.498c-0.067-0.18-0.144-0.354-0.214-0.532
		c-0.065-0.171-0.137-0.338-0.205-0.507c-0.066-0.175-0.141-0.345-0.209-0.518c-0.065-0.171-0.137-0.339-0.205-0.508
		c-0.066-0.175-0.141-0.345-0.209-0.518c-0.065-0.171-0.137-0.338-0.205-0.507c-0.066-0.175-0.141-0.345-0.209-0.52
		c-0.065-0.171-0.137-0.338-0.205-0.507c-0.064-0.173-0.139-0.342-0.207-0.513c-0.066-0.175-0.141-0.345-0.209-0.519
		c-0.064-0.171-0.137-0.338-0.205-0.507c-0.066-0.175-0.141-0.345-0.209-0.518c-0.064-0.171-0.137-0.338-0.205-0.507
		c-0.066-0.176-0.141-0.346-0.209-0.519c-0.063-0.166-0.133-0.328-0.199-0.492c-0.066-0.18-0.143-0.354-0.214-0.531
		c-0.065-0.171-0.138-0.339-0.205-0.508c-0.065-0.175-0.14-0.345-0.209-0.518c-0.065-0.171-0.138-0.338-0.204-0.507
		c-0.066-0.173-0.14-0.342-0.207-0.514c-0.066-0.175-0.141-0.345-0.209-0.518c-0.824-2.17-1.885-4.203-3.229-5.957
		c-0.349-0.452-0.726-0.886-1.118-1.308c-0.122-0.131-0.251-0.256-0.378-0.384c-0.284-0.289-0.575-0.571-0.879-0.845
		c-0.151-0.136-0.304-0.27-0.459-0.4c-0.31-0.264-0.626-0.516-0.949-0.762c-0.149-0.113-0.297-0.229-0.45-0.341
		c-0.433-0.313-0.876-0.611-1.331-0.896c-0.077-0.049-0.155-0.099-0.235-0.146c-0.457-0.278-0.924-0.542-1.396-0.792
		c-0.207-0.108-0.418-0.21-0.628-0.313c-0.309-0.153-0.618-0.302-0.932-0.442c-0.246-0.109-0.491-0.216-0.739-0.316
		c-0.279-0.115-0.56-0.224-0.841-0.328c-0.268-0.101-0.533-0.201-0.801-0.292c-0.248-0.083-0.496-0.155-0.746-0.23
		c-0.604-0.185-1.205-0.344-1.805-0.479c-0.148-0.034-0.3-0.073-0.447-0.104c-0.348-0.071-0.688-0.126-1.031-0.18
		c-0.163-0.025-0.326-0.053-0.488-0.074c-0.347-0.046-0.688-0.082-1.027-0.109c-0.138-0.012-0.271-0.02-0.408-0.026
		c-0.358-0.021-0.713-0.038-1.062-0.038c-0.032,0-0.063,0.003-0.098,0.003c-2.536,0.017-4.74,0.608-6.181,1.888
		c-2.854,2.537-3.502,13.744,1.056,24.844c0.067,0.169,0.135,0.337,0.204,0.505c0.066,0.171,0.137,0.342,0.207,0.513
		c0.068,0.174,0.139,0.347,0.209,0.52c0.068,0.17,0.136,0.338,0.205,0.506c0.067,0.173,0.139,0.347,0.209,0.521
		c0.064,0.161,0.13,0.322,0.195,0.483c0.071,0.181,0.146,0.359,0.219,0.54c0.066,0.169,0.135,0.337,0.203,0.505
		c0.068,0.173,0.14,0.347,0.211,0.521c0.066,0.168,0.135,0.336,0.203,0.504c0.068,0.175,0.14,0.348,0.211,0.521
		c0.066,0.169,0.135,0.337,0.203,0.505c0.067,0.171,0.137,0.342,0.207,0.513c0.068,0.174,0.139,0.348,0.211,0.521
		c0.066,0.169,0.135,0.337,0.203,0.505c0.068,0.173,0.139,0.347,0.211,0.521c0.066,0.168,0.135,0.336,0.203,0.505
		c0.068,0.174,0.139,0.347,0.21,0.52c0.067,0.169,0.136,0.337,0.204,0.505c0.068,0.173,0.139,0.347,0.21,0.521
		c0.063,0.161,0.129,0.321,0.195,0.482c0.069,0.178,0.142,0.355,0.215,0.533c0.067,0.173,0.14,0.347,0.21,0.521
		c0.066,0.169,0.135,0.337,0.204,0.505c0.067,0.174,0.14,0.347,0.21,0.52c0.066,0.169,0.135,0.337,0.204,0.505
		c0.067,0.173,0.139,0.348,0.21,0.521c0.066,0.168,0.135,0.336,0.204,0.504c0.067,0.174,0.139,0.347,0.21,0.52
		c0.066,0.169,0.135,0.337,0.204,0.506c0.067,0.171,0.137,0.342,0.206,0.513c0.068,0.174,0.14,0.347,0.211,0.52
		c0.066,0.169,0.135,0.337,0.203,0.505c0.068,0.174,0.14,0.348,0.211,0.521c0.066,0.168,0.135,0.336,0.203,0.504
		c0.066,0.167,0.134,0.333,0.203,0.5c0.067,0.175,0.14,0.35,0.211,0.523c0.067,0.174,0.139,0.348,0.209,0.521
		c0.067,0.168,0.136,0.336,0.205,0.504c0.066,0.171,0.137,0.342,0.207,0.514c0.067,0.174,0.139,0.348,0.209,0.521
		c0.067,0.168,0.135,0.336,0.205,0.504c0.067,0.174,0.139,0.347,0.209,0.521c0.067,0.168,0.135,0.336,0.205,0.504
		c0.067,0.174,0.139,0.348,0.209,0.521c0.067,0.168,0.135,0.336,0.204,0.504c0.068,0.176,0.14,0.348,0.21,0.521
		c0.067,0.168,0.135,0.337,0.204,0.505c0.068,0.173,0.14,0.347,0.21,0.521c0.067,0.168,0.135,0.336,0.204,0.504
		c0.065,0.164,0.131,0.328,0.198,0.492c0.07,0.182,0.145,0.359,0.218,0.541c0.067,0.168,0.136,0.336,0.204,0.504
		c0.068,0.174,0.139,0.348,0.21,0.521c0.067,0.169,0.135,0.337,0.204,0.505c0.068,0.173,0.139,0.348,0.21,0.521
		c0.067,0.168,0.135,0.336,0.204,0.504c0.068,0.174,0.139,0.347,0.21,0.52c0.067,0.169,0.135,0.337,0.204,0.505
		c0.066,0.172,0.137,0.343,0.207,0.515c0.068,0.174,0.139,0.346,0.21,0.52c0.067,0.169,0.135,0.337,0.204,0.505
		c0.068,0.174,0.139,0.349,0.209,0.521c0.068,0.168,0.136,0.336,0.205,0.504c0.067,0.175,0.139,0.348,0.209,0.521
		c0.067,0.169,0.136,0.337,0.205,0.505c0.065,0.167,0.133,0.333,0.201,0.5c0.068,0.175,0.141,0.351,0.211,0.523
		c0.067,0.171,0.138,0.342,0.207,0.514c0.068,0.173,0.14,0.347,0.211,0.521c0.066,0.168,0.135,0.336,0.203,0.504
		c0.068,0.175,0.139,0.349,0.211,0.521c0.066,0.169,0.135,0.338,0.203,0.506c0.068,0.172,0.139,0.346,0.211,0.521
		c0.008,0.021,0.017,0.043,0.024,0.063c0.169,3.892,1.028,7.562,2.437,10.834c0.059,0.146,0.113,0.291,0.174,0.435
		c0.069,0.17,0.137,0.345,0.207,0.513c0.07,0.174,0.139,0.35,0.211,0.521c0.068,0.168,0.134,0.338,0.203,0.504
		c0.07,0.173,0.139,0.349,0.211,0.52c0.133,0.346,0.27,0.688,0.414,1.025c0.067,0.168,0.133,0.338,0.203,0.504
		c0.069,0.174,0.137,0.35,0.211,0.521c0.067,0.168,0.133,0.338,0.203,0.502c0.069,0.174,0.137,0.351,0.211,0.521
		c0.067,0.168,0.133,0.338,0.202,0.504c0.069,0.17,0.136,0.344,0.207,0.512c0.07,0.174,0.138,0.351,0.211,0.521
		c0.068,0.169,0.134,0.339,0.203,0.505c0.07,0.173,0.138,0.349,0.211,0.521c0.068,0.168,0.134,0.338,0.203,0.504
		c0.07,0.174,0.138,0.35,0.211,0.521c0.068,0.168,0.134,0.338,0.203,0.504c0.069,0.173,0.138,0.349,0.211,0.519
		c0.131,0.344,0.267,0.686,0.409,1.021c0.07,0.173,0.138,0.349,0.211,0.521c0.068,0.168,0.133,0.338,0.203,0.504
		c0.07,0.174,0.138,0.351,0.211,0.521c0.068,0.168,0.133,0.339,0.203,0.504c0.07,0.173,0.138,0.349,0.211,0.521
		c0.068,0.168,0.133,0.338,0.203,0.503c0.07,0.175,0.138,0.351,0.211,0.521c0.068,0.168,0.133,0.338,0.203,0.504
		c0.068,0.17,0.136,0.344,0.207,0.512c0.07,0.175,0.138,0.351,0.211,0.521c0.068,0.169,0.133,0.339,0.203,0.505
		c0.069,0.172,0.138,0.348,0.211,0.521c0.067,0.168,0.133,0.339,0.203,0.504c0.066,0.166,0.131,0.336,0.201,0.5
		c0.07,0.176,0.139,0.353,0.211,0.524c0.07,0.172,0.139,0.349,0.211,0.521c0.068,0.168,0.133,0.338,0.203,0.503
		c0.069,0.171,0.137,0.346,0.207,0.514c0.07,0.174,0.139,0.35,0.211,0.521c0.068,0.169,0.133,0.339,0.203,0.503
		c0.07,0.175,0.139,0.351,0.211,0.521c0.068,0.168,0.133,0.338,0.203,0.504c0.07,0.174,0.139,0.351,0.211,0.521
		c0.068,0.168,0.133,0.338,0.203,0.503c0.07,0.175,0.139,0.351,0.211,0.521c0.068,0.168,0.133,0.339,0.203,0.505
		c0.07,0.173,0.139,0.35,0.211,0.521c0.066,0.168,0.133,0.338,0.203,0.502c0.133,0.35,0.271,0.693,0.417,1.035
		c0.067,0.168,0.133,0.338,0.203,0.503c0.069,0.175,0.138,0.351,0.211,0.521c0.067,0.168,0.133,0.338,0.203,0.504
		c0.069,0.174,0.138,0.35,0.211,0.521c0.067,0.168,0.133,0.338,0.202,0.504c0.07,0.174,0.139,0.35,0.212,0.521
		c0.067,0.168,0.133,0.339,0.202,0.505c0.07,0.17,0.137,0.344,0.207,0.512c0.07,0.174,0.139,0.351,0.211,0.521
		c0.068,0.168,0.134,0.338,0.203,0.504c0.07,0.174,0.139,0.35,0.211,0.521c0.068,0.168,0.134,0.338,0.203,0.502
		c0.059,0.145,0.115,0.287,0.174,0.431c2.074,0.202,4.177,0.313,6.305,0.313C94.295,128,119.656,106.941,126.291,78.671z"/>
	<g>
		<path fill="#E6C08A" d="M86.16,74.684c0-12.985-9.922-23.515-22.16-23.515c-12.239,0-22.16,10.527-22.16,23.515
			c0,1.217,0.114,2.4,0.282,3.567c-0.168,1.323-0.282,2.669-0.282,4.05C41.84,97.047,51.761,109,64,109
			c12.238,0,22.16-11.953,22.16-26.699c0-1.381-0.114-2.727-0.282-4.05C86.046,77.084,86.16,75.898,86.16,74.684z"/>
		<path fill="#D9B582" d="M86.16,74.684c0-12.985-9.922-23.515-22.16-23.515c-0.505,0-1.004,0.024-1.5,0.06
			c11.539,0.819,20.66,11.004,20.66,23.455c0,1.217-0.114,2.4-0.282,3.567c0.168,1.323,0.282,2.669,0.282,4.05
			c0,14.139-9.121,25.701-20.66,26.633C62.996,108.973,63.495,109,64,109c12.238,0,22.16-11.953,22.16-26.699
			c0-1.381-0.114-2.727-0.282-4.05C86.046,77.084,86.16,75.898,86.16,74.684z"/>
		<ellipse fill="#FFE0B3" cx="64" cy="99.568" rx="8.16" ry="9.432"/>
		<path fill="#E6C08A" d="M54.878,55.601c1.406-6.377,1.082-19.89-4.972-27.778c-6.055-7.892-19.564-11.241-24.43-6.918
			c-4.865,4.322-3.352,33.834,19.457,45.073C49.041,62.087,54.878,55.601,54.878,55.601z"/>
		<path fill="#D9B582" d="M49.906,27.821c-4.85-6.321-14.475-9.716-20.617-8.6c5.514,0.797,11.805,3.875,15.429,8.6
			c6.054,7.89,7.068,24.537,5.662,30.914c0,0-0.555,1.329-1.437,3.23c3.104-3.223,5.935-6.366,5.935-6.366
			C56.284,49.224,55.96,35.711,49.906,27.821z"/>
		<path fill="#E6C08A" d="M73.122,55.601c-1.406-6.377-1.082-19.89,4.972-27.778c6.055-7.892,19.564-11.241,24.43-6.918
			c4.865,4.322,3.353,33.834-19.457,45.073C78.959,62.087,73.122,55.601,73.122,55.601z"/>
		<path fill="#D9B582" d="M78.094,27.821c4.85-6.321,14.475-9.716,20.617-8.6c-5.514,0.797-11.805,3.875-15.429,8.6
			c-6.054,7.89-7.068,24.537-5.662,30.914c0,0,0.555,1.329,1.437,3.23c-3.104-3.223-5.935-6.366-5.935-6.366
			C71.716,49.224,72.04,35.711,78.094,27.821z"/>
		<path fill="#D9B582" d="M64,51.007c-9.984,0-18.421,7.009-21.191,16.644c2.74,1.629,5.904,2.744,8.33,3.248
			c6.269,1.297,8.106,4.431,7.133,9.836c-0.973,5.404-1.621,16.861,5.729,14.701c7.351,2.16,6.701-9.297,5.729-14.701
			c-0.976-5.405,0.865-8.539,7.133-9.836c2.426-0.504,5.59-1.619,8.33-3.248C82.421,58.016,73.984,51.007,64,51.007z"/>
		<path fill="#CCAA7A" d="M82.49,69.035c0.906-0.405,1.807-0.858,2.667-1.367C82.344,58.107,73.936,51.169,64,51.169
			c-0.505,0-1.004,0.024-1.5,0.06C72.23,51.92,80.219,59.28,82.49,69.035z"/>
		<path fill="#242424" d="M68.271,93.448c-0.752,0-3.101,0-4.271,0s-3.521,0-4.271,0s-0.984,1.173-0.422,1.924
			c0.563,0.751,2.252,4.317,4.693,4.317c2.441,0,4.13-3.566,4.693-4.317C69.256,94.621,69.021,93.448,68.271,93.448z"/>
		<rect x="63.352" y="97.38" fill="#242424" width="1.296" height="9.892"/>
		<path fill="#242424" d="M64,109c2.213,0,4.346-0.402,6.363-1.13c-0.701-2.095-3.273-3.653-6.363-3.653s-5.662,1.561-6.363,3.653
			C59.654,108.598,61.787,109,64,109z"/>
		<g>
			<ellipse fill="#242424" cx="56.191" cy="75.772" rx="3" ry="4.878"/>
			<ellipse fill="#242424" cx="71.809" cy="75.772" rx="3" ry="4.878"/>
		</g>
	</g>
</g>
</svg>
