<?xml version="1.0" encoding="utf-8"?>
<!-- Generator: Adobe Illustrator 15.1.0, SVG Export Plug-In . SVG Version: 6.00 Build 0)  -->
<!DOCTYPE svg PUBLIC "-//W3C//DTD SVG 1.1//EN" "http://www.w3.org/Graphics/SVG/1.1/DTD/svg11.dtd">
<svg version="1.1" id="Layer_1" xmlns="http://www.w3.org/2000/svg" xmlns:xlink="http://www.w3.org/1999/xlink" x="0px" y="0px"
	 width="128px" height="128px" viewBox="0 0 128 128" enable-background="new 0 0 128 128" xml:space="preserve">
<g>
	<circle fill="#2D4452" cx="64" cy="64" r="64"/>
	<path fill="#233540" d="M122.751,89.396c-0.035-0.084-0.067-0.17-0.103-0.254c-0.078-0.209-0.164-0.41-0.248-0.613
		c-0.08-0.211-0.166-0.412-0.25-0.617c-0.077-0.208-0.164-0.407-0.246-0.61c-0.078-0.209-0.164-0.409-0.248-0.614
		c-0.08-0.213-0.168-0.416-0.254-0.625c-0.076-0.205-0.161-0.4-0.243-0.604c-0.079-0.21-0.165-0.412-0.25-0.617
		c-0.077-0.208-0.163-0.406-0.246-0.609c-0.078-0.209-0.164-0.409-0.248-0.613c-0.078-0.209-0.164-0.41-0.248-0.614
		c-0.079-0.21-0.165-0.412-0.25-0.616c-0.077-0.207-0.163-0.406-0.246-0.609c-0.078-0.209-0.164-0.41-0.248-0.614
		c-0.077-0.209-0.164-0.41-0.248-0.614c-0.079-0.21-0.165-0.412-0.25-0.617c-0.077-0.207-0.163-0.406-0.245-0.608
		c-0.078-0.209-0.164-0.41-0.248-0.614c-0.078-0.209-0.164-0.41-0.248-0.613c-0.078-0.209-0.164-0.41-0.248-0.613
		c-0.078-0.211-0.164-0.412-0.25-0.617c-0.076-0.208-0.162-0.407-0.246-0.61c-0.078-0.209-0.164-0.409-0.248-0.614
		c-0.078-0.209-0.164-0.41-0.248-0.612c-0.078-0.212-0.164-0.412-0.25-0.617c-0.076-0.208-0.162-0.407-0.246-0.61
		c-0.077-0.209-0.163-0.408-0.247-0.613c-0.078-0.209-0.164-0.41-0.248-0.613c-0.079-0.211-0.165-0.412-0.25-0.617
		c-0.077-0.208-0.163-0.406-0.246-0.609c-0.08-0.213-0.168-0.418-0.253-0.625c-0.077-0.205-0.162-0.401-0.244-0.604
		c-0.078-0.209-0.164-0.41-0.248-0.614c-0.079-0.21-0.165-0.412-0.25-0.617c-0.077-0.207-0.163-0.406-0.245-0.608
		c-0.077-0.209-0.164-0.41-0.248-0.614c-0.077-0.209-0.163-0.41-0.248-0.613c-0.079-0.211-0.165-0.412-0.25-0.617
		c-0.077-0.207-0.163-0.406-0.245-0.609c-0.078-0.209-0.164-0.41-0.248-0.614c-0.078-0.209-0.164-0.409-0.248-0.614
		c-0.08-0.209-0.166-0.412-0.25-0.617c-0.078-0.207-0.164-0.406-0.246-0.609c-0.078-0.209-0.164-0.41-0.248-0.614
		c-0.078-0.209-0.164-0.41-0.248-0.614c-0.078-0.209-0.164-0.41-0.248-0.613c-0.079-0.211-0.166-0.412-0.25-0.617
		c-0.077-0.208-0.163-0.407-0.246-0.61c-0.078-0.209-0.164-0.409-0.248-0.614c-0.078-0.209-0.165-0.41-0.248-0.613
		c-0.078-0.211-0.164-0.412-0.25-0.616c-0.076-0.209-0.162-0.408-0.245-0.611c-0.078-0.209-0.164-0.409-0.248-0.614
		c-0.078-0.209-0.165-0.41-0.248-0.613c-0.079-0.211-0.165-0.412-0.25-0.616c-0.078-0.212-0.166-0.416-0.251-0.622
		c-0.077-0.206-0.162-0.402-0.244-0.604c-0.078-0.209-0.165-0.41-0.249-0.614c-0.077-0.209-0.163-0.41-0.247-0.613
		c-0.078-0.211-0.164-0.413-0.248-0.616c-0.078-0.21-0.164-0.408-0.248-0.611c-0.078-0.209-0.164-0.41-0.248-0.614
		c-0.078-0.209-0.164-0.411-0.248-0.615c-0.078-0.209-0.164-0.409-0.248-0.614c-0.078-0.209-0.164-0.408-0.248-0.613
		c-0.078-0.209-0.164-0.408-0.248-0.612c-0.078-0.209-0.164-0.411-0.248-0.616c-0.078-0.209-0.164-0.41-0.248-0.614
		c-0.078-0.209-0.164-0.41-0.248-0.614c-0.078-0.209-0.164-0.409-0.247-0.613c-0.078-0.209-0.165-0.411-0.249-0.616
		c-0.077-0.208-0.164-0.409-0.247-0.612c-0.077-0.21-0.164-0.411-0.249-0.616c-0.077-0.209-0.163-0.41-0.247-0.614
		c-0.078-0.209-0.164-0.409-0.247-0.613c-0.078-0.209-0.165-0.411-0.249-0.616c-0.078-0.209-0.164-0.41-0.248-0.614
		c-0.078-0.209-0.164-0.41-0.248-0.614c-0.077-0.209-0.164-0.409-0.247-0.613c-0.078-0.21-0.164-0.412-0.248-0.616
		c-0.08-0.212-0.168-0.416-0.253-0.623c-0.077-0.207-0.161-0.404-0.245-0.605c-0.078-0.208-0.164-0.409-0.246-0.612
		c-0.078-0.21-0.166-0.412-0.25-0.616c-0.078-0.208-0.164-0.409-0.246-0.612c-0.078-0.209-0.164-0.41-0.248-0.614
		c-0.078-0.21-0.166-0.412-0.25-0.616c-0.078-0.208-0.164-0.409-0.246-0.612c-0.078-0.21-0.166-0.412-0.25-0.616
		c-0.077-0.208-0.164-0.409-0.246-0.612c-0.078-0.21-0.165-0.412-0.249-0.616c-0.078-0.208-0.164-0.409-0.247-0.612
		C98,27.713,93.869,24,89,24c-0.29,0-0.575,0.017-0.857,0.043c-5.582,0.436-10.058,5.073-11.299,11.381C72.459,34,68.172,34,64,34
		c-4.078,0-8.268,0.009-12.549,1.339c-0.052-0.126-0.104-0.252-0.156-0.375c-0.081-0.208-0.162-0.416-0.249-0.617
		c-0.08-0.206-0.161-0.412-0.247-0.611c-0.081-0.208-0.162-0.415-0.249-0.617c-0.077-0.2-0.155-0.399-0.239-0.593
		c-1.888-4.929-5.72-8.01-10.16-8.464c-0.017-0.001-0.03-0.005-0.047-0.007C39.739,24.02,39.371,24,39,24
		c-0.354,0-0.701,0.03-1.047,0.072C31.453,24.795,26.5,32.181,26.5,41.5c0,2.827,0.549,5.561,1.53,8.007
		c0.076,0.209,0.166,0.41,0.248,0.615c0.075,0.21,0.166,0.41,0.249,0.614c0.074,0.209,0.165,0.408,0.247,0.613
		c0.075,0.209,0.166,0.408,0.248,0.613c0.075,0.209,0.166,0.409,0.247,0.614c0.076,0.209,0.166,0.409,0.248,0.614
		c0.076,0.209,0.167,0.41,0.249,0.615c0.076,0.209,0.165,0.407,0.247,0.611c0.076,0.209,0.166,0.409,0.248,0.614
		c0.076,0.209,0.166,0.409,0.248,0.614c0.077,0.213,0.169,0.416,0.253,0.625c0.075,0.205,0.163,0.4,0.244,0.603
		c0.076,0.209,0.166,0.409,0.248,0.614c0.003,0.008,0.005,0.018,0.009,0.025c-0.302,4.875-0.317,14.146,0.276,16.935
		c0.871,4.755,2.211,8.953,3.993,12.589c0.058,0.146,0.122,0.284,0.181,0.428c0.081,0.207,0.165,0.411,0.248,0.614
		c0.082,0.209,0.166,0.414,0.25,0.619c0.081,0.205,0.163,0.406,0.246,0.606c0.081,0.207,0.165,0.411,0.248,0.614
		c0.081,0.207,0.165,0.411,0.248,0.613c0.084,0.214,0.17,0.423,0.256,0.632c0.079,0.2,0.16,0.397,0.241,0.597
		c0.081,0.207,0.165,0.411,0.248,0.614c0.081,0.207,0.165,0.411,0.248,0.612c0.082,0.209,0.166,0.414,0.25,0.619
		c0.081,0.205,0.163,0.408,0.246,0.608c0.08,0.207,0.164,0.411,0.247,0.614c0.081,0.207,0.165,0.41,0.248,0.613
		c0.082,0.209,0.166,0.414,0.25,0.619c0.081,0.205,0.163,0.406,0.246,0.607c0.081,0.207,0.165,0.411,0.248,0.613
		c0.081,0.207,0.165,0.41,0.248,0.613c0.081,0.207,0.165,0.412,0.248,0.615c0.082,0.209,0.166,0.413,0.25,0.618
		c0.081,0.205,0.163,0.407,0.246,0.608c0.081,0.207,0.165,0.41,0.248,0.613c0.081,0.207,0.165,0.411,0.248,0.613
		c0.082,0.209,0.166,0.414,0.25,0.619c0.081,0.205,0.163,0.406,0.246,0.607c0.081,0.207,0.165,0.41,0.248,0.613
		c0.081,0.207,0.165,0.411,0.248,0.614c0.081,0.209,0.166,0.414,0.25,0.619c0.081,0.204,0.163,0.407,0.245,0.608
		c0.081,0.207,0.165,0.409,0.248,0.612c0.081,0.207,0.165,0.411,0.248,0.614c0.083,0.211,0.168,0.419,0.254,0.627
		c0.08,0.204,0.163,0.404,0.245,0.605c0.081,0.205,0.163,0.406,0.246,0.607c0.081,0.207,0.165,0.411,0.248,0.614
		c0.081,0.206,0.165,0.411,0.248,0.614c0.082,0.209,0.166,0.414,0.25,0.619c0.081,0.204,0.163,0.405,0.246,0.606
		c0.081,0.207,0.165,0.411,0.248,0.614c0.081,0.207,0.165,0.41,0.248,0.613c0.082,0.209,0.166,0.414,0.25,0.619
		c0.081,0.205,0.163,0.406,0.246,0.607c0.081,0.207,0.165,0.41,0.248,0.613c0.081,0.207,0.165,0.412,0.248,0.615
		c0.081,0.206,0.165,0.409,0.247,0.612c0.082,0.209,0.166,0.414,0.25,0.619c0.081,0.205,0.163,0.407,0.246,0.608
		c0.081,0.205,0.165,0.41,0.248,0.613c0.081,0.207,0.165,0.41,0.248,0.613c0.082,0.209,0.166,0.414,0.25,0.619
		c0.081,0.205,0.163,0.406,0.246,0.607c0.081,0.207,0.165,0.411,0.248,0.614c0.081,0.207,0.165,0.41,0.248,0.613
		c0.082,0.209,0.166,0.413,0.25,0.618c0.081,0.205,0.163,0.408,0.246,0.607c0.081,0.207,0.165,0.412,0.248,0.615
		c0.083,0.211,0.168,0.418,0.254,0.627c0.079,0.201,0.161,0.4,0.243,0.602c0.082,0.209,0.166,0.414,0.25,0.619
		c0.081,0.205,0.163,0.406,0.246,0.607c0.081,0.207,0.165,0.411,0.248,0.613c0.081,0.207,0.165,0.412,0.247,0.615
		c0.082,0.209,0.166,0.414,0.25,0.618c0.081,0.205,0.163,0.406,0.246,0.607c0.081,0.207,0.165,0.411,0.248,0.614
		c0.003,0.009,0.008,0.017,0.012,0.023C55.615,127.577,59.758,128,64,128C90.32,128,112.92,112.105,122.751,89.396z"/>
	<path fill="#F2B255" d="M101.5,41.5c0-9.814-5.49-17.5-12.5-17.5c-5.979,0-10.852,4.795-12.156,11.424C72.459,34,68.172,34,64,34
		s-8.459,0-12.844,1.424C49.852,28.795,44.979,24,39,24c-7.01,0-12.5,7.686-12.5,17.5c0,5.266,1.851,10.239,5,13.553
		C31,58,30.815,71.049,31.541,74.449C35.082,93.779,46.305,104,64,104c17.695,0,28.918-10.221,32.459-29.551
		C97.186,71.049,97,58,96.5,55.053C99.648,51.739,101.5,46.766,101.5,41.5z"/>
	<g>
		<path fill="#E6A951" d="M101.5,41.5c0-9.814-5.49-17.5-12.5-17.5c-0.525,0-1.038,0.05-1.545,0.122
			C93.754,25.102,99.5,32.377,99.5,41.5c0,5.266-2.852,10.239-6,13.553C94,58,94.186,71.049,93.459,74.449
			c-3.439,18.777-14.13,28.957-30.959,29.523c0.495,0.017,0.994,0.025,1.5,0.025c17.695,0,28.918-10.221,32.459-29.551
			C97.186,71.049,97,58,96.5,55.053C99.648,51.739,101.5,46.766,101.5,41.5z"/>
		<path fill="#E6A951" d="M48.709,36.833c0.813-0.813,1.508-1.221,2.447-1.41C49.729,28.333,44.756,24,39,24
			c-0.494,0-0.979,0.047-1.455,0.122C42.804,24.87,47.519,30.787,48.709,36.833z"/>
	</g>
	<path fill="#F2CB91" d="M34.399,52.297C31.958,49.729,30.5,45.692,30.5,41.5c0-7.444,3.813-13.5,8.5-13.5
		c3.896,0,7.281,3.371,8.231,8.196C44,39,37.799,45.594,34.399,52.297z"/>
	<path fill="#E6C18A" d="M32.5,41.5c0-6.93,3.307-12.652,7.545-13.409C39.701,28.037,39.354,28,39,28c-4.688,0-8.5,6.056-8.5,13.5
		c0,4.192,1.458,8.229,3.899,10.797c0.255-0.503,0.529-1.004,0.813-1.504C33.501,48.285,32.5,44.952,32.5,41.5z"/>
	<path fill="#F2CB91" d="M94.102,52.297C96.542,49.729,98,45.692,98,41.5c0-7.444-3.813-13.5-8.5-13.5
		c-3.896,0-7.281,3.371-8.23,8.196C84.5,39,90.701,45.594,94.102,52.297z"/>
	<path fill="#E6C18A" d="M83.27,36.196c0.863-4.388,3.742-7.563,7.188-8.105C90.143,28.035,89.823,28,89.5,28
		c-3.896,0-7.281,3.371-8.23,8.196C84.5,39,90.702,45.593,94.102,52.297c0.432-0.453,0.818-0.967,1.187-1.504
		C91.783,44.627,86.258,38.79,83.27,36.196z"/>
	<path fill="#FFD464" d="M48.861,61.744c-2.796,0-5.247-2.018-5.83-4.793c-0.678-3.254,1.381-6.467,4.582-7.168
		c0.655-0.139,1.336-0.018,1.895,0.345c0.56,0.362,0.952,0.935,1.086,1.587l1.448,6.938c0.28,1.339-0.569,2.654-1.904,2.949
		C49.718,61.697,49.288,61.744,48.861,61.744z"/>
	<circle fill="#242424" cx="49" cy="56.5" r="2.5"/>
	<path fill="#FFD464" d="M79.139,61.744L79.139,61.744c-0.427,0-0.854-0.047-1.275-0.143c-1.334-0.295-2.186-1.61-1.903-2.949
		l1.448-6.938c0.134-0.652,0.525-1.226,1.086-1.587c0.559-0.36,1.24-0.483,1.895-0.345c3.201,0.701,5.26,3.914,4.586,7.16
		C84.387,59.729,81.936,61.744,79.139,61.744z"/>
	<circle fill="#242424" cx="79" cy="56.5" r="2.5"/>
	<path fill="#F2CB91" d="M82.618,49.646C83.854,49.007,84,47.328,84,44.735c0-0.903-1.99-5.818-7.217-9.329
		C72.42,34.002,68.152,34,64,34c-4.152,0-8.42,0.002-12.783,1.407C45.99,38.917,44,43.832,44,44.735
		c0,2.593,0.146,4.272,1.382,4.912c6.624,3.435,4.038,12.965,0.547,23.264c-0.277,0.823-0.547,1.612-0.788,2.353
		c-1.719,5.262-1.17,10.682,1.47,14.5c1.86,2.691,4.556,4.236,7.39,4.236c5.132,0,8.186-1.453,10-3.389
		c1.813,1.936,4.868,3.389,10,3.389c2.834,0,5.528-1.545,7.392-4.238c2.64-3.818,3.188-9.238,1.469-14.5
		c-0.24-0.738-0.51-1.525-0.787-2.352C78.58,62.611,75.994,53.081,82.618,49.646z"/>
	<path fill="#E6C18A" d="M62.516,89.375c-1.574,1.68-5.604,4.229-9.596,4.548C53.276,93.973,53.637,94,54,94
		c3.928,0,7.391-0.672,10-3.389C63.427,90.225,62.941,89.829,62.516,89.375z"/>
	<path fill="#E6C18A" d="M82.07,72.91c-3.49-10.299-6.076-19.829,0.548-23.264C83.854,49.007,84,47.328,84,44.735
		c0-0.903-1.99-5.818-7.217-9.329C72.42,34.002,68.152,34,64,34c-0.493,0-0.987,0-1.484,0.003c3.675,0.019,7.435,0.169,11.269,1.404
		c5.227,3.511,7.217,8.425,7.217,9.329c0,2.593-0.146,4.272-1.382,4.913c-6.624,3.434-4.038,12.965-0.547,23.263
		c0.276,0.824,0.547,1.611,0.788,2.354c1.719,5.262,1.17,10.682-1.471,14.5c-1.623,2.348-3.879,3.82-6.311,4.159
		c0.605,0.05,1.243,0.077,1.92,0.077c2.834,0,5.529-1.545,7.391-4.236c2.641-3.818,3.188-9.238,1.471-14.5
		C82.618,74.523,82.35,73.734,82.07,72.91z"/>
	<path fill="#242424" d="M64,89c-0.786,0-1.528-0.371-2-1.001l-7.5-10c-0.568-0.757-0.658-1.771-0.236-2.617
		C54.688,74.535,55.553,74,56.5,74h15c0.947,0,1.813,0.535,2.236,1.382c0.422,0.847,0.332,1.86-0.236,2.617l-7.5,10
		C65.527,88.629,64.786,89,64,89z"/>
	<g>
		<g>
			<ellipse fill="#242424" cx="35.741" cy="64.334" rx="1.392" ry="2.277"/>
			<ellipse fill="#242424" cx="38.844" cy="75.938" rx="1.393" ry="2.277"/>
			<ellipse fill="#242424" cx="35.741" cy="70.61" rx="0.926" ry="1.515"/>
			<ellipse fill="#242424" cx="40.917" cy="68.771" rx="1.583" ry="2.854"/>
		</g>
		<g>
			<ellipse fill="#242424" cx="92.259" cy="64.334" rx="1.394" ry="2.277"/>
			<ellipse fill="#242424" cx="89.156" cy="75.938" rx="1.392" ry="2.277"/>
			<ellipse fill="#242424" cx="92.259" cy="70.61" rx="0.927" ry="1.515"/>
			<ellipse fill="#242424" cx="87.083" cy="68.771" rx="1.583" ry="2.854"/>
		</g>
	</g>
	<g>
		<g>
			<ellipse fill="#242424" cx="54.074" cy="89.375" rx="0.926" ry="1.516"/>
			<ellipse fill="#242424" cx="50.154" cy="86.75" rx="0.926" ry="1.516"/>
			<ellipse fill="#242424" cx="48.386" cy="81.5" rx="0.927" ry="1.516"/>
			<ellipse fill="#242424" cx="53.25" cy="82.667" rx="0.926" ry="1.515"/>
		</g>
		<g>
			<ellipse fill="#242424" cx="73.926" cy="89.375" rx="0.926" ry="1.516"/>
			<ellipse fill="#242424" cx="77.846" cy="86.75" rx="0.928" ry="1.516"/>
			<ellipse fill="#242424" cx="79.613" cy="81.5" rx="0.927" ry="1.516"/>
			<ellipse fill="#242424" cx="74.75" cy="82.667" rx="0.926" ry="1.515"/>
		</g>
	</g>
	<g>
		<g>
			
				<ellipse transform="matrix(-0.9567 0.2911 -0.2911 -0.9567 120.8371 55.6633)" fill="#242424" cx="56.278" cy="36.821" rx="2.094" ry="1.114"/>
			
				<ellipse transform="matrix(-0.9566 0.2913 -0.2913 -0.9566 113.6691 63.7285)" fill="#242424" cx="52.09" cy="40.327" rx="1.309" ry="0.697"/>
			
				<ellipse transform="matrix(-0.9567 0.2911 -0.2911 -0.9567 129.7246 59.7734)" fill="#242424" cx="60.416" cy="39.537" rx="1.658" ry="0.882"/>
		</g>
		<g>
			
				<ellipse transform="matrix(0.9567 0.2912 -0.2912 0.9567 13.8301 -19.288)" fill="#242424" cx="71.722" cy="36.824" rx="2.094" ry="1.114"/>
			
				<ellipse transform="matrix(0.9566 0.2915 -0.2915 0.9566 15.047 -20.3732)" fill="#242424" cx="75.909" cy="40.321" rx="1.309" ry="0.697"/>
			
				<ellipse transform="matrix(0.9567 0.2912 -0.2912 0.9567 14.4417 -17.967)" fill="#242424" cx="67.587" cy="39.538" rx="1.657" ry="0.882"/>
		</g>
	</g>
</g>
</svg>
