<?xml version="1.0" encoding="utf-8"?>
<!-- Generator: Adobe Illustrator 15.1.0, SVG Export Plug-In . SVG Version: 6.00 Build 0)  -->
<!DOCTYPE svg PUBLIC "-//W3C//DTD SVG 1.1//EN" "http://www.w3.org/Graphics/SVG/1.1/DTD/svg11.dtd">
<svg version="1.1" id="Layer_1" xmlns="http://www.w3.org/2000/svg" xmlns:xlink="http://www.w3.org/1999/xlink" x="0px" y="0px"
	 width="128px" height="128px" viewBox="0 0 128 128" enable-background="new 0 0 128 128" xml:space="preserve">
<g>
	<circle fill="#2D4452" cx="64" cy="64" r="64"/>
	<path fill="#233540" d="M121.54,92.038c-0.026-0.065-0.052-0.132-0.08-0.197c-0.081-0.202-0.161-0.405-0.245-0.604
		c-0.082-0.206-0.163-0.412-0.248-0.615c-0.082-0.205-0.162-0.41-0.248-0.613c-0.082-0.208-0.164-0.416-0.251-0.621
		c-0.081-0.203-0.161-0.404-0.245-0.605c-0.082-0.205-0.162-0.41-0.248-0.613c-0.082-0.206-0.162-0.412-0.248-0.615
		c-0.082-0.207-0.164-0.414-0.25-0.619c-0.082-0.203-0.162-0.406-0.246-0.605c-0.082-0.206-0.162-0.412-0.248-0.615
		c-0.082-0.208-0.164-0.416-0.252-0.622c-0.08-0.202-0.16-0.405-0.244-0.604c-0.084-0.207-0.166-0.416-0.252-0.62
		c-0.08-0.203-0.159-0.406-0.243-0.606c-0.082-0.206-0.163-0.412-0.248-0.615c-0.082-0.203-0.163-0.408-0.248-0.611
		c-0.083-0.208-0.165-0.416-0.251-0.621c-0.081-0.203-0.161-0.406-0.245-0.607c-0.082-0.205-0.163-0.41-0.248-0.611
		c-0.082-0.207-0.163-0.412-0.248-0.615c-0.083-0.207-0.165-0.415-0.251-0.62c-0.081-0.203-0.161-0.406-0.245-0.606
		c-0.082-0.205-0.163-0.412-0.248-0.613c-0.083-0.209-0.165-0.416-0.252-0.622c-0.081-0.202-0.161-0.405-0.245-0.606
		c-0.082-0.207-0.164-0.415-0.251-0.619c-0.079-0.203-0.159-0.406-0.243-0.605c-0.082-0.206-0.164-0.412-0.248-0.615
		c-0.082-0.205-0.164-0.41-0.248-0.613c-0.084-0.207-0.166-0.416-0.252-0.621c-0.08-0.201-0.16-0.404-0.244-0.605
		c-0.082-0.205-0.164-0.41-0.248-0.613c-0.082-0.206-0.164-0.412-0.248-0.615c-0.084-0.207-0.166-0.414-0.252-0.619
		c-0.08-0.203-0.16-0.405-0.244-0.605c-0.082-0.206-0.163-0.412-0.248-0.615c-0.082-0.205-0.163-0.41-0.248-0.613
		c-0.083-0.209-0.165-0.416-0.252-0.623c-0.082-0.203-0.162-0.408-0.248-0.61c-0.081-0.203-0.161-0.406-0.245-0.606
		c-0.082-0.205-0.163-0.412-0.248-0.613c-0.082-0.205-0.163-0.41-0.248-0.613c-0.083-0.208-0.165-0.416-0.251-0.621
		c-0.081-0.203-0.161-0.406-0.245-0.607c-0.082-0.205-0.163-0.41-0.248-0.612c-0.082-0.205-0.163-0.411-0.248-0.614
		c-0.083-0.207-0.165-0.415-0.251-0.62c-0.08-0.203-0.16-0.406-0.244-0.606c-0.082-0.206-0.164-0.411-0.248-0.614
		c-0.082-0.205-0.164-0.41-0.248-0.613c-0.082-0.206-0.164-0.412-0.248-0.615c-0.084-0.21-0.168-0.421-0.256-0.629
		c-0.08-0.2-0.158-0.4-0.242-0.598c-0.082-0.206-0.162-0.412-0.248-0.615c-0.082-0.205-0.162-0.41-0.248-0.613
		c-0.082-0.208-0.164-0.416-0.25-0.621c-0.082-0.203-0.161-0.406-0.246-0.606c-0.081-0.205-0.161-0.41-0.247-0.613
		c-0.081-0.206-0.162-0.412-0.247-0.615c-0.083-0.207-0.165-0.415-0.251-0.62c-0.081-0.203-0.161-0.406-0.245-0.605
		c-0.082-0.206-0.163-0.412-0.248-0.615c-0.082-0.205-0.163-0.41-0.248-0.613c-0.082-0.206-0.163-0.412-0.248-0.615
		c-0.084-0.209-0.167-0.421-0.255-0.629c-0.08-0.199-0.159-0.399-0.242-0.598c-0.082-0.206-0.163-0.412-0.248-0.615
		c-0.082-0.205-0.163-0.41-0.247-0.613c-0.084-0.207-0.166-0.416-0.252-0.62c-0.08-0.203-0.16-0.406-0.244-0.607
		c-0.082-0.205-0.162-0.41-0.248-0.613c-0.082-0.206-0.162-0.412-0.248-0.614c-0.082-0.207-0.164-0.416-0.25-0.62
		c-0.082-0.203-0.162-0.406-0.246-0.606c-0.082-0.206-0.162-0.412-0.248-0.615c-0.082-0.205-0.162-0.41-0.248-0.612
		c-0.082-0.208-0.164-0.416-0.25-0.621c-0.082-0.203-0.162-0.406-0.246-0.607c-0.082-0.208-0.164-0.416-0.252-0.622
		c-0.08-0.202-0.16-0.404-0.244-0.605c-0.082-0.205-0.163-0.41-0.248-0.613c-0.083-0.208-0.165-0.416-0.252-0.621
		c-0.08-0.203-0.16-0.406-0.244-0.607c-0.082-0.204-0.163-0.409-0.248-0.612C95.574,27.644,84.216,19.02,64.001,19.02
		c-29.085,0-39.849,17.842-39.849,39.851c0,3.691,0.701,6.952,1.93,9.922c0.079,0.207,0.164,0.411,0.248,0.614
		c0.08,0.209,0.166,0.413,0.251,0.62c0.078,0.203,0.162,0.404,0.245,0.605c0.079,0.207,0.164,0.411,0.248,0.614
		c0.08,0.21,0.166,0.417,0.252,0.624c0.078,0.203,0.162,0.402,0.245,0.604c0.08,0.209,0.166,0.416,0.251,0.621
		c0.078,0.204,0.162,0.405,0.245,0.605c0.079,0.207,0.164,0.41,0.248,0.613c0.079,0.207,0.164,0.412,0.248,0.615
		c0.08,0.209,0.166,0.414,0.251,0.62c0.078,0.204,0.162,0.405,0.245,0.605c0.079,0.206,0.164,0.411,0.248,0.614
		c0.079,0.207,0.164,0.41,0.248,0.613c0.08,0.209,0.166,0.415,0.251,0.621c0.078,0.204,0.162,0.404,0.245,0.605
		c0.079,0.207,0.164,0.41,0.248,0.613c0.079,0.207,0.164,0.411,0.248,0.614c0.081,0.213,0.168,0.422,0.255,0.631
		c0.077,0.201,0.16,0.397,0.242,0.597c0.079,0.207,0.164,0.412,0.248,0.615c0.079,0.206,0.164,0.41,0.248,0.613
		c0.079,0.207,0.164,0.411,0.248,0.614c0.08,0.209,0.166,0.413,0.251,0.62c0.078,0.203,0.162,0.404,0.245,0.605
		c0.079,0.207,0.164,0.411,0.248,0.614c0.079,0.207,0.164,0.411,0.248,0.612c0.08,0.209,0.166,0.416,0.251,0.621
		c0.078,0.205,0.162,0.405,0.245,0.606c0.079,0.207,0.164,0.411,0.248,0.613c0.079,0.207,0.164,0.411,0.248,0.614
		c0.081,0.213,0.168,0.422,0.255,0.631c0.077,0.201,0.16,0.397,0.242,0.598c0.079,0.207,0.164,0.411,0.248,0.614
		c0.079,0.207,0.164,0.409,0.248,0.612c0.079,0.207,0.164,0.412,0.248,0.614c0.08,0.209,0.166,0.415,0.251,0.621
		c0.078,0.204,0.162,0.405,0.245,0.604c0.079,0.207,0.164,0.412,0.248,0.615c0.079,0.207,0.164,0.41,0.248,0.613
		c0.08,0.209,0.166,0.415,0.251,0.621c0.078,0.204,0.162,0.405,0.245,0.605c0.079,0.207,0.164,0.41,0.248,0.613
		c0.079,0.207,0.164,0.411,0.248,0.614c0.08,0.209,0.166,0.415,0.251,0.621c0.08,0.207,0.164,0.411,0.249,0.614
		c0.078,0.203,0.162,0.404,0.245,0.604c0.079,0.207,0.164,0.411,0.248,0.614c0.079,0.207,0.164,0.411,0.248,0.613
		c0.08,0.209,0.166,0.414,0.251,0.621c0.078,0.203,0.162,0.404,0.245,0.605c0.079,0.207,0.164,0.411,0.248,0.613
		c0.079,0.207,0.164,0.41,0.248,0.613c0.08,0.209,0.166,0.416,0.251,0.621c0.078,0.205,0.162,0.405,0.245,0.606
		c0.079,0.207,0.164,0.41,0.248,0.612c0.079,0.207,0.164,0.412,0.248,0.615c0.08,0.209,0.166,0.414,0.251,0.621
		c0.078,0.203,0.162,0.404,0.245,0.605c0.08,0.209,0.166,0.416,0.252,0.623c0.078,0.203,0.162,0.404,0.245,0.604
		c0.079,0.207,0.164,0.411,0.248,0.614c0.08,0.209,0.166,0.415,0.251,0.621c0.078,0.203,0.162,0.403,0.245,0.604
		c0.079,0.207,0.164,0.412,0.248,0.614c0.079,0.207,0.164,0.411,0.248,0.614c0.08,0.209,0.166,0.415,0.251,0.621
		c0.078,0.203,0.162,0.404,0.245,0.605c0.079,0.207,0.164,0.41,0.248,0.613c0.079,0.207,0.164,0.411,0.248,0.614
		c0.08,0.209,0.166,0.414,0.251,0.62c0.078,0.203,0.162,0.404,0.245,0.605c0.081,0.211,0.166,0.418,0.252,0.624
		c0.078,0.203,0.162,0.404,0.245,0.604c0.079,0.207,0.164,0.41,0.248,0.613c0.08,0.209,0.166,0.416,0.251,0.621
		c0.078,0.205,0.162,0.405,0.245,0.605c0.079,0.207,0.164,0.411,0.248,0.613c0.079,0.207,0.164,0.412,0.248,0.615
		c0.08,0.209,0.166,0.414,0.251,0.621c0.078,0.203,0.162,0.404,0.245,0.604c0.079,0.207,0.164,0.411,0.248,0.614
		c0.079,0.207,0.164,0.41,0.248,0.613c0.08,0.209,0.166,0.415,0.251,0.621c0.078,0.204,0.162,0.404,0.245,0.605
		c0.079,0.207,0.164,0.41,0.248,0.613c0.08,0.211,0.166,0.418,0.252,0.625c0.078,0.203,0.162,0.403,0.245,0.604
		c0.08,0.209,0.166,0.416,0.251,0.621c0.078,0.203,0.162,0.404,0.245,0.605c0.079,0.207,0.164,0.411,0.248,0.614
		c0.079,0.207,0.164,0.41,0.248,0.613c0.08,0.209,0.166,0.415,0.251,0.62c0.052,0.138,0.108,0.271,0.164,0.404
		c4.716,1.107,9.626,1.713,14.681,1.713C89.289,128,111.145,113.329,121.54,92.038z"/>
	<path fill="#CC803D" d="M64,19c-29.085,0-39.849,17.842-39.849,39.85c0,22.007,24.698,28.83,39.849,48.22
		c15.15-19.391,39.85-26.213,39.85-48.221S93.085,19,64,19z"/>
	<path fill="#BF7839" d="M64,19c-0.57,0-1.122,0.02-1.678,0.033c27.813,0.68,38.17,18.24,38.17,39.815
		c0,21.214-22.946,28.322-38.17,46.175c0.569,0.668,1.131,1.347,1.678,2.045c15.15-19.391,39.85-26.213,39.85-48.22S93.085,19,64,19
		z"/>
	<circle fill="#E6BF5A" cx="84.257" cy="43.611" r="11.331"/>
	<circle fill="#E6BF5A" cx="43.743" cy="43.611" r="11.331"/>
	<path fill="#D9B455" d="M84.256,32.281c-0.377,0-0.75,0.021-1.119,0.057C88.87,32.9,93.35,37.733,93.35,43.611
		c0,5.881-4.479,10.714-10.213,11.274c0.368,0.036,0.741,0.058,1.119,0.058c6.258,0,11.332-5.073,11.332-11.332
		C95.588,37.354,90.516,32.281,84.256,32.281z"/>
	<path fill="#D9B455" d="M43.743,32.281c-0.377,0-0.75,0.021-1.119,0.057c5.733,0.563,10.213,5.396,10.213,11.273
		c0,5.881-4.48,10.714-10.213,11.274c0.368,0.036,0.741,0.058,1.119,0.058c6.259,0,11.332-5.073,11.332-11.332
		C55.075,37.354,50.001,32.281,43.743,32.281z"/>
	<path fill="#CCA950" d="M84.256,50.959c-4.051,0-7.346-3.297-7.346-7.348c0-4.052,3.295-7.347,7.346-7.347s7.348,3.296,7.348,7.347
		C91.604,47.662,88.307,50.959,84.256,50.959z"/>
	<path fill="#CCA950" d="M43.743,50.959c-4.05,0-7.346-3.297-7.346-7.348c0-4.052,3.296-7.347,7.346-7.347
		c4.051,0,7.348,3.296,7.348,7.347C51.091,47.662,47.794,50.959,43.743,50.959z"/>
	<path fill="#E6BF5A" d="M64,35.352c-17.973,0-26.95,10.162-26.95,30.979c0,11.271,2.639,16.462,7.906,18.854
		C45.706,100.551,51.873,109,63.999,109s18.293-8.449,19.043-23.814c5.269-2.395,7.906-7.584,7.906-18.854
		C90.95,45.514,81.973,35.352,64,35.352z"/>
	<path fill="#D9B455" d="M64,35.352c-0.577,0-1.119,0.041-1.678,0.063c16.836,0.632,25.271,10.77,25.271,30.916
		c0,11.271-2.638,16.462-7.905,18.854c-0.715,14.637-6.354,22.979-17.366,23.739C62.872,108.963,63.423,109,64,109
		c12.126,0,18.293-8.449,19.043-23.814c5.268-2.395,7.906-7.584,7.906-18.854C90.95,45.514,81.973,35.352,64,35.352z"/>
	<path fill="#D9B455" d="M64,60.09c-5.556,0-10.395,1.128-12.996,2.799v3.181v2.43v15.915h25.991V68.5v-2.432v-3.18
		C74.395,61.218,69.557,60.09,64,60.09z"/>
	<path fill="#E6BF5A" d="M77.322,83.999c-6.086,0-11.262,3.837-13.28,9.218c-0.014,0-0.028-0.003-0.042-0.003
		s-0.028,0.003-0.042,0.003c-2.018-5.381-7.195-9.218-13.28-9.218c-2.036,0-3.971,0.433-5.72,1.204
		C45.712,100.557,51.879,109,64,109s18.289-8.441,19.042-23.797C81.293,84.432,79.359,83.999,77.322,83.999z"/>
	<path fill="#D9B455" d="M66.686,108.833c0.537-0.063,1.073-0.126,1.584-0.228c0.127-0.023,0.242-0.064,0.367-0.094
		c0.531-0.113,1.059-0.236,1.559-0.395c0.197-0.063,0.379-0.146,0.57-0.217c0.412-0.146,0.83-0.286,1.221-0.463
		c0.203-0.092,0.389-0.209,0.584-0.309c0.361-0.182,0.729-0.354,1.068-0.561c0.18-0.109,0.34-0.241,0.514-0.356
		c0.34-0.228,0.685-0.444,1.002-0.698c0.188-0.146,0.357-0.322,0.541-0.481c0.283-0.248,0.576-0.484,0.844-0.757
		c0.193-0.195,0.365-0.422,0.552-0.629c0.233-0.263,0.478-0.513,0.697-0.793c0.192-0.246,0.362-0.521,0.546-0.781
		c0.189-0.272,0.391-0.53,0.568-0.818c0.197-0.316,0.371-0.668,0.557-1.005c0.143-0.261,0.294-0.503,0.428-0.772
		c0.184-0.373,0.344-0.778,0.512-1.175c0.11-0.262,0.233-0.509,0.34-0.78c0.162-0.426,0.303-0.881,0.449-1.328
		c0.088-0.27,0.188-0.521,0.271-0.799c0.151-0.514,0.28-1.06,0.411-1.6c0.058-0.234,0.126-0.458,0.179-0.697
		c0.129-0.584,0.233-1.199,0.339-1.813c0.038-0.222,0.088-0.431,0.122-0.654c0.103-0.657,0.181-1.345,0.257-2.035
		c0.022-0.202,0.055-0.393,0.075-0.598c0.07-0.705,0.116-1.44,0.16-2.179c0.013-0.207,0.035-0.404,0.045-0.616
		c-0.661-0.291-1.354-0.517-2.063-0.707c-0.414,0.249-0.838,0.483-1.291,0.688c-0.715,14.635-6.354,22.978-17.364,23.738
		c0.55,0.038,1.101,0.075,1.678,0.075c0.759,0,1.492-0.033,2.204-0.099C66.37,108.887,66.521,108.852,66.686,108.833z"/>
	<path fill="#242424" d="M75.452,83.377c1.644,0,2.038,0.951,0.875,2.112L66.111,95.705c-1.161,1.161-3.063,1.161-4.225,0
		L51.671,85.489c-1.162-1.161-0.768-2.112,0.875-2.112H75.452z"/>
	<g>
		<g>
			<circle fill="#F5F5F5" cx="52.045" cy="68.06" r="4.981"/>
			<circle fill="#242424" cx="52.045" cy="68.06" r="1.993"/>
		</g>
		<g>
			<circle fill="#F5F5F5" cx="75.955" cy="68.06" r="4.981"/>
			<circle fill="#242424" cx="75.955" cy="68.06" r="1.993"/>
		</g>
	</g>
	<path fill="#242424" d="M72.012,95.975c-1.101,0-1.992,0.894-1.992,1.993c0,1.109-0.903,2.013-2.015,2.013
		c-1.11,0-2.013-0.901-2.013-2.013v-4.256c0-1.101-0.893-1.991-1.993-1.991c-1.1,0-1.993,0.894-1.993,1.991v4.256
		c0,1.109-0.902,2.013-2.013,2.013c-1.11,0-2.013-0.901-2.013-2.013c0-1.102-0.892-1.993-1.992-1.993
		c-1.101,0-1.993,0.894-1.993,1.993c0,3.308,2.69,5.997,5.998,5.997c1.541,0,2.942-0.589,4.005-1.546
		c1.063,0.957,2.465,1.546,4.005,1.546c3.308,0,5.998-2.689,5.998-5.997C74.003,96.866,73.111,95.975,72.012,95.975z"/>
</g>
</svg>
