<?xml version="1.0" encoding="utf-8"?>
<!-- Generator: Adobe Illustrator 15.1.0, SVG Export Plug-In . SVG Version: 6.00 Build 0)  -->
<!DOCTYPE svg PUBLIC "-//W3C//DTD SVG 1.1//EN" "http://www.w3.org/Graphics/SVG/1.1/DTD/svg11.dtd">
<svg version="1.1" id="Layer_1" xmlns="http://www.w3.org/2000/svg" xmlns:xlink="http://www.w3.org/1999/xlink" x="0px" y="0px"
	 width="128px" height="128px" viewBox="0 0 128 128" enable-background="new 0 0 128 128" xml:space="preserve">
<g>
	<circle fill="#E16B5A" cx="64" cy="64" r="64"/>
	<path fill="#D16354" d="M123.568,87.393c-0.006-0.015-0.01-0.029-0.019-0.045c-0.079-0.207-0.157-0.416-0.248-0.613
		c-0.079-0.207-0.157-0.416-0.247-0.613c-0.08-0.208-0.158-0.418-0.248-0.617c-0.082-0.205-0.158-0.413-0.248-0.609
		c-0.08-0.207-0.158-0.416-0.248-0.613c-0.08-0.207-0.158-0.416-0.248-0.614c-0.08-0.208-0.158-0.418-0.248-0.617
		c-0.082-0.204-0.158-0.413-0.248-0.608c-0.08-0.207-0.158-0.416-0.248-0.614c-0.08-0.207-0.158-0.416-0.248-0.614
		c-0.08-0.207-0.158-0.416-0.248-0.613c-0.08-0.209-0.158-0.418-0.248-0.617c-0.081-0.205-0.158-0.412-0.247-0.609
		c-0.081-0.207-0.159-0.416-0.248-0.614c-0.081-0.207-0.159-0.416-0.248-0.614c-0.081-0.207-0.159-0.418-0.249-0.615
		c-0.081-0.205-0.158-0.413-0.247-0.61c-0.081-0.207-0.159-0.416-0.248-0.614c-0.081-0.207-0.159-0.416-0.248-0.613
		c-0.081-0.209-0.159-0.418-0.249-0.616c-0.08-0.205-0.158-0.413-0.246-0.61c-0.082-0.209-0.162-0.421-0.253-0.621
		c-0.079-0.203-0.157-0.41-0.245-0.605c-0.08-0.207-0.158-0.416-0.248-0.614c-0.08-0.208-0.158-0.418-0.248-0.617
		c-0.082-0.205-0.158-0.413-0.248-0.61c-0.08-0.207-0.158-0.416-0.248-0.612c-0.08-0.207-0.156-0.416-0.248-0.614
		c-0.08-0.208-0.158-0.418-0.248-0.617c-0.082-0.205-0.157-0.412-0.248-0.609c-0.08-0.206-0.156-0.416-0.246-0.613
		c-0.082-0.207-0.158-0.416-0.248-0.614c-0.081-0.208-0.159-0.418-0.249-0.616c-0.081-0.205-0.158-0.414-0.247-0.609
		c-0.081-0.207-0.158-0.416-0.248-0.614c-0.081-0.207-0.158-0.416-0.248-0.614c-0.081-0.207-0.158-0.416-0.248-0.613
		c-0.081-0.208-0.159-0.418-0.249-0.616c-0.081-0.205-0.158-0.413-0.247-0.61c-0.081-0.207-0.156-0.416-0.248-0.614
		c-0.081-0.207-0.156-0.416-0.247-0.613c-0.082-0.208-0.159-0.418-0.25-0.617c-0.08-0.205-0.157-0.413-0.245-0.61
		c-0.082-0.207-0.158-0.416-0.248-0.613c-0.082-0.207-0.158-0.416-0.248-0.614c-0.082-0.208-0.16-0.418-0.25-0.617
		c-0.082-0.208-0.16-0.418-0.25-0.617c-0.08-0.204-0.158-0.411-0.246-0.606c-0.08-0.207-0.158-0.416-0.248-0.614
		c-0.08-0.207-0.158-0.416-0.248-0.614c-0.08-0.208-0.158-0.418-0.248-0.617c-0.082-0.205-0.158-0.412-0.248-0.609
		c-0.08-0.207-0.158-0.416-0.248-0.614c-0.08-0.207-0.158-0.416-0.247-0.614c-0.081-0.208-0.159-0.418-0.249-0.617
		c-0.081-0.204-0.158-0.412-0.247-0.609c-0.081-0.207-0.159-0.416-0.248-0.614c-0.081-0.207-0.159-0.416-0.248-0.614
		c-0.081-0.208-0.159-0.418-0.249-0.616c-0.081-0.205-0.158-0.413-0.247-0.61c-0.081-0.207-0.159-0.416-0.248-0.614
		c-0.081-0.207-0.159-0.416-0.248-0.614c-0.081-0.207-0.159-0.416-0.247-0.613c-0.082-0.208-0.16-0.418-0.25-0.617
		c-0.08-0.205-0.158-0.413-0.246-0.61c-0.082-0.207-0.16-0.416-0.248-0.613c-0.082-0.207-0.16-0.416-0.248-0.614
		c-0.082-0.208-0.16-0.418-0.25-0.617c-0.08-0.205-0.158-0.413-0.246-0.609c-0.082-0.207-0.158-0.416-0.248-0.614
		c-0.082-0.207-0.158-0.416-0.248-0.614c-0.082-0.21-0.162-0.423-0.254-0.624c-0.08-0.203-0.154-0.408-0.244-0.604
		c-0.08-0.207-0.156-0.416-0.246-0.613c-0.081-0.207-0.158-0.416-0.248-0.614c-0.081-0.208-0.159-0.418-0.249-0.617
		c-0.081-0.205-0.158-0.413-0.247-0.609c-0.081-0.207-0.158-0.416-0.248-0.614c-0.081-0.207-0.158-0.416-0.248-0.614
		c-0.081-0.207-0.158-0.416-0.248-0.614c-0.081-0.208-0.159-0.418-0.249-0.616c-0.081-0.205-0.158-0.413-0.247-0.61
		c-0.081-0.207-0.156-0.416-0.248-0.614c-2.215-5.675-7.76-8.104-14.271-8.104c-0.401,0-0.799,0.035-1.192,0.071
		c-3.132,0.286-5.997,1.682-8.315,3.862c-4.44-2.53-9.632-3.935-15.182-3.935c-5.549,0-10.739,1.402-15.18,3.935
		c-2.613-2.457-5.914-3.935-9.512-3.935c-0.611,0-1.211,0.027-1.804,0.07h-0.001C29.9,28.905,24,33.077,24,42.354
		c0,5.104,0.748,9.227,2.039,12.48c0.078,0.214,0.167,0.407,0.248,0.614c0.078,0.215,0.167,0.41,0.25,0.617
		c0.077,0.213,0.165,0.405,0.246,0.609c0.078,0.215,0.167,0.411,0.25,0.618c0.077,0.213,0.167,0.407,0.248,0.613
		c0.077,0.212,0.166,0.405,0.247,0.61c0.078,0.215,0.167,0.411,0.25,0.618c0.077,0.212,0.166,0.405,0.247,0.609
		c0.078,0.214,0.167,0.407,0.248,0.614c0.078,0.214,0.167,0.407,0.248,0.613c0.078,0.215,0.167,0.411,0.25,0.618
		c0.077,0.212,0.166,0.405,0.247,0.609c0.078,0.214,0.167,0.407,0.248,0.614c0.078,0.214,0.167,0.407,0.248,0.613
		c0.078,0.215,0.167,0.411,0.25,0.618c0.077,0.212,0.166,0.405,0.247,0.609c0.078,0.215,0.167,0.41,0.25,0.617
		c0.077,0.213,0.166,0.404,0.247,0.609c0.078,0.216,0.168,0.412,0.25,0.621c0.077,0.211,0.165,0.402,0.246,0.605
		c0.078,0.215,0.167,0.407,0.248,0.613c0.078,0.215,0.167,0.408,0.248,0.614c0.078,0.214,0.167,0.408,0.248,0.614
		c0.078,0.215,0.167,0.41,0.25,0.617c0.077,0.213,0.165,0.404,0.246,0.608c0.078,0.214,0.167,0.408,0.248,0.614
		c0.078,0.214,0.167,0.408,0.248,0.613c0.078,0.216,0.167,0.412,0.25,0.619c0.077,0.211,0.165,0.403,0.246,0.607
		c0.078,0.216,0.167,0.411,0.25,0.618c0.077,0.212,0.166,0.405,0.247,0.61c0.078,0.215,0.168,0.412,0.25,0.621
		c0.077,0.211,0.165,0.401,0.246,0.604c0.078,0.214,0.167,0.407,0.248,0.614c0.078,0.214,0.167,0.408,0.248,0.613
		c0.078,0.215,0.167,0.407,0.248,0.614c0.078,0.215,0.167,0.41,0.25,0.617c0.077,0.213,0.166,0.405,0.247,0.608
		c0.078,0.215,0.167,0.408,0.248,0.614c0.078,0.214,0.167,0.407,0.248,0.614c0.078,0.215,0.167,0.41,0.25,0.617
		c0.078,0.213,0.167,0.406,0.248,0.613c0.077,0.211,0.166,0.404,0.247,0.609c0.077,0.214,0.166,0.407,0.248,0.614
		c0.078,0.215,0.167,0.409,0.25,0.616c0.077,0.214,0.166,0.406,0.248,0.613c0.077,0.211,0.166,0.405,0.247,0.61
		c0.078,0.214,0.167,0.407,0.248,0.614c0.078,0.214,0.167,0.406,0.248,0.613c0.078,0.215,0.167,0.41,0.25,0.617
		c0.077,0.213,0.165,0.405,0.246,0.609c0.078,0.214,0.167,0.406,0.248,0.613c0.078,0.215,0.167,0.408,0.248,0.613
		c0.078,0.215,0.167,0.411,0.25,0.618c0.077,0.214,0.166,0.407,0.248,0.613c0.077,0.213,0.166,0.405,0.248,0.61
		c0.077,0.213,0.166,0.408,0.248,0.613c0.078,0.215,0.167,0.41,0.25,0.618c0.077,0.211,0.166,0.404,0.247,0.609
		c0.078,0.214,0.167,0.409,0.249,0.614c0.077,0.213,0.166,0.406,0.248,0.611c0.078,0.214,0.167,0.408,0.248,0.614
		c0.078,0.215,0.167,0.411,0.25,0.618c0.077,0.212,0.166,0.404,0.247,0.609c0.078,0.213,0.167,0.406,0.248,0.612
		c0.078,0.214,0.167,0.408,0.248,0.614c0.079,0.217,0.168,0.412,0.251,0.621c0.076,0.212,0.164,0.402,0.245,0.604
		c0.077,0.214,0.166,0.408,0.248,0.614c0.077,0.214,0.166,0.408,0.248,0.613c0.078,0.216,0.167,0.412,0.25,0.619
		c0.077,0.211,0.166,0.403,0.247,0.607c0.077,0.214,0.167,0.409,0.249,0.616c0.077,0.213,0.166,0.407,0.248,0.612
		c0.077,0.213,0.167,0.408,0.248,0.613c0.078,0.215,0.167,0.41,0.25,0.617c0.077,0.213,0.166,0.405,0.247,0.609
		c0.077,0.214,0.167,0.408,0.248,0.613c0.077,0.215,0.167,0.408,0.248,0.614c0.079,0.218,0.169,0.414,0.252,0.624
		c0.076,0.21,0.164,0.4,0.245,0.604c0.078,0.215,0.167,0.41,0.249,0.615c0.077,0.213,0.166,0.407,0.248,0.612
		c0.078,0.215,0.167,0.41,0.25,0.617c0.077,0.213,0.166,0.405,0.247,0.608c0.078,0.215,0.167,0.408,0.248,0.614
		c0.078,0.214,0.167,0.408,0.248,0.614c0.078,0.214,0.167,0.407,0.248,0.613c0.078,0.215,0.167,0.41,0.25,0.617
		c0.077,0.213,0.166,0.405,0.247,0.609c0.078,0.214,0.167,0.408,0.248,0.614c0.078,0.214,0.167,0.407,0.248,0.612
		c0.079,0.219,0.168,0.414,0.251,0.623c0.076,0.211,0.164,0.401,0.245,0.604c0.077,0.214,0.166,0.407,0.248,0.614
		c0.077,0.214,0.166,0.406,0.248,0.613c0.078,0.215,0.167,0.41,0.25,0.617c0.075,0.213,0.165,0.405,0.246,0.609
		c0.077,0.214,0.166,0.406,0.248,0.613c0.077,0.215,0.165,0.408,0.247,0.613c0.078,0.215,0.168,0.411,0.25,0.618
		c0.076,0.212,0.166,0.405,0.246,0.609c0.078,0.214,0.166,0.407,0.248,0.614c0.078,0.213,0.166,0.406,0.248,0.612
		c0.078,0.214,0.166,0.408,0.248,0.614c0.078,0.215,0.168,0.411,0.25,0.618c0.076,0.212,0.166,0.405,0.246,0.608
		c0.078,0.215,0.168,0.41,0.25,0.617c0.076,0.213,0.166,0.405,0.246,0.61c0.078,0.215,0.168,0.411,0.25,0.618
		c0.076,0.212,0.165,0.404,0.246,0.609c0.078,0.215,0.169,0.412,0.252,0.62c0.076,0.212,0.164,0.403,0.245,0.606
		c0.078,0.215,0.167,0.41,0.25,0.617c0.076,0.213,0.165,0.404,0.246,0.608c0.077,0.214,0.166,0.408,0.248,0.614
		c0.077,0.214,0.166,0.408,0.248,0.613c0.078,0.216,0.167,0.412,0.25,0.619c0.015,0.037,0.028,0.071,0.044,0.107
		c2.828,0.382,5.708,0.598,8.641,0.598C91.087,128,114.227,111.163,123.568,87.393z"/>
	<path fill="#FFC066" d="M54.617,46.386c0,10-6.854,18.107-15.309,18.107S24,57.909,24,42.354c0-10,6.854-14.073,15.309-14.073
		S54.617,36.386,54.617,46.386z"/>
	<path fill="#F2B661" d="M39.309,28.278c-0.612,0-1.212,0.028-1.806,0.071c7.895,0.724,14.114,8.513,14.114,18.035
		c0,9.441-6.112,17.188-13.911,18.023c0.527,0.055,1.061,0.084,1.603,0.084c8.455,0,15.309-8.107,15.309-18.107
		S47.764,28.278,39.309,28.278z"/>
	<path fill="#BF8F4D" d="M39.309,60.493C29.469,60.493,28,49.128,28,42.353c0-6.685,3.805-10.074,11.309-10.074
		c6.235,0,11.309,6.328,11.309,14.106C50.617,54.165,45.544,60.493,39.309,60.493z"/>
	<path fill="#FFC066" d="M73.383,46.386c0,10,6.854,18.107,15.309,18.107s15.311-6.584,15.311-22.141
		c0-10-6.854-14.073-15.311-14.073C80.236,28.279,73.383,36.386,73.383,46.386z"/>
	<path fill="#F2B661" d="M88.691,28.278c-0.403,0-0.799,0.035-1.194,0.071C95.1,28.907,101,33.077,101,42.353
		c0,14.561-6.005,21.259-13.706,22.057c0.461,0.05,0.927,0.084,1.397,0.084c8.455,0,15.309-6.584,15.309-22.141
		C104,32.354,97.146,28.278,88.691,28.278z"/>
	<path fill="#BF8F4D" d="M88.691,60.493c-6.235,0-11.311-6.328-11.311-14.107c0-7.778,5.073-14.104,11.311-14.104
		c7.504,0,11.309,3.39,11.309,10.073C100,49.128,98.531,60.493,88.691,60.493z"/>
	<path fill="#D9A357" d="M93.63,57.909c0-17.455-13.267-29.631-29.63-29.631c-16.364,0-29.63,12.176-29.63,29.631
		c0,8.672,3.276,14.817,8.578,18.813C43.317,89.493,52.596,99.721,64,99.721c11.404,0,20.684-10.228,21.052-22.998
		C90.354,72.729,93.63,66.581,93.63,57.909z"/>
	<path fill="#CC9952" d="M64,28.278c-0.503,0-1.003,0.013-1.5,0.035c15.667,0.72,28.13,12.678,28.13,29.596
		c0,8.672-3.276,14.817-8.578,18.813C81.7,88.928,73.206,98.803,62.5,99.654c0.496,0.039,0.995,0.066,1.5,0.066
		c11.402,0,20.684-10.229,21.052-23c5.302-3.992,8.578-10.141,8.578-18.813C93.63,40.454,80.363,28.278,64,28.278z"/>
	<circle fill="#F5F5F5" cx="53" cy="54.001" r="5"/>
	<circle fill="#242424" cx="53" cy="54.001" r="2"/>
	<circle fill="#F5F5F5" cx="75" cy="54.001" r="5"/>
	<circle fill="#242424" cx="75" cy="54.001" r="2"/>
	<path fill="#FFE399" d="M64,93.721c-8.311,0-15.068-7.979-15.068-17.785c0-9.808,6.76-17.786,15.068-17.786
		c8.309,0,15.068,7.979,15.068,17.786S72.311,93.721,64,93.721z"/>
	<path fill="#F2D891" d="M64,58.149c-0.506,0-1.006,0.032-1.5,0.09c7.607,0.893,13.568,8.485,13.568,17.694
		c0,9.211-5.961,16.806-13.568,17.696c0.494,0.058,0.994,0.09,1.5,0.09c8.311,0,15.068-7.979,15.068-17.786
		C79.068,66.127,72.311,58.149,64,58.149z"/>
	<g>
		<path fill="#242424" d="M64.001,66.188c-0.364,0-0.715-0.197-0.892-0.545c-0.338-0.66-0.973-0.896-1.446-0.979
			c-0.81-0.146-1.74,0.087-2.25,0.563c-0.404,0.377-1.037,0.355-1.413-0.049c-0.377-0.404-0.355-1.037,0.048-1.413
			c0.968-0.904,2.521-1.325,3.962-1.071c1.303,0.229,2.326,0.954,2.881,2.042c0.252,0.49,0.058,1.095-0.437,1.346
			C64.309,66.152,64.152,66.188,64.001,66.188z"/>
		<path fill="#242424" d="M63.999,66.188c-0.151,0-0.308-0.035-0.453-0.107c-0.491-0.251-0.688-0.854-0.437-1.346
			c0.555-1.088,1.579-1.813,2.881-2.042c1.439-0.254,2.992,0.167,3.962,1.071c0.403,0.376,0.425,1.008,0.048,1.413
			c-0.376,0.404-1.009,0.426-1.413,0.049c-0.51-0.477-1.442-0.707-2.25-0.563c-0.474,0.083-1.108,0.319-1.446,0.979
			C64.714,65.986,64.363,66.188,63.999,66.188z"/>
	</g>
	<path fill="#242424" d="M64,70.25c-0.553,0-1-0.447-1-1v-4.208c0-0.553,0.447-1,1-1c0.553,0,1,0.447,1,1v4.208
		C65,69.803,64.553,70.25,64,70.25z"/>
	<ellipse fill="#242424" cx="66.896" cy="84.959" rx="3.896" ry="1.208"/>
</g>
</svg>
