<?xml version="1.0" encoding="utf-8"?>
<!-- Generator: Adobe Illustrator 15.1.0, SVG Export Plug-In . SVG Version: 6.00 Build 0)  -->
<!DOCTYPE svg PUBLIC "-//W3C//DTD SVG 1.1//EN" "http://www.w3.org/Graphics/SVG/1.1/DTD/svg11.dtd">
<svg version="1.1" id="Layer_1" xmlns="http://www.w3.org/2000/svg" xmlns:xlink="http://www.w3.org/1999/xlink" x="0px" y="0px"
	 width="128px" height="128px" viewBox="0 0 128 128" enable-background="new 0 0 128 128" xml:space="preserve">
<g>
	<circle fill="#E16B5A" cx="64" cy="64" r="64"/>
	<path fill="#D16354" d="M45.585,125.298C51.418,127.048,57.598,128,64,128c26.503,0,49.244-16.109,58.963-39.072
		c-0.063-0.158-0.124-0.316-0.191-0.476c-0.08-0.206-0.16-0.411-0.248-0.614c-0.08-0.208-0.162-0.416-0.25-0.621
		c-0.08-0.203-0.158-0.406-0.246-0.605c-0.078-0.205-0.159-0.41-0.246-0.613c-0.08-0.206-0.161-0.411-0.248-0.614
		c-0.081-0.208-0.163-0.416-0.25-0.62c-0.08-0.203-0.16-0.406-0.246-0.605c-0.08-0.206-0.161-0.411-0.248-0.614
		c-0.08-0.206-0.161-0.411-0.248-0.614c-0.08-0.205-0.161-0.41-0.248-0.613c-0.081-0.207-0.163-0.416-0.25-0.621
		c-0.08-0.202-0.16-0.405-0.246-0.605c-0.079-0.206-0.161-0.41-0.248-0.613c-0.078-0.205-0.16-0.41-0.247-0.613
		c-0.081-0.208-0.163-0.416-0.25-0.621c-0.079-0.203-0.159-0.406-0.245-0.606c-0.08-0.206-0.162-0.411-0.248-0.612
		c-0.08-0.207-0.162-0.412-0.248-0.614c-0.082-0.208-0.164-0.416-0.25-0.621c-0.08-0.203-0.16-0.406-0.246-0.604
		c-0.082-0.214-0.166-0.425-0.256-0.633c-0.078-0.199-0.156-0.398-0.24-0.598c-0.082-0.206-0.162-0.411-0.248-0.614
		c-0.082-0.208-0.164-0.416-0.252-0.621c-0.08-0.202-0.159-0.405-0.244-0.604c-0.081-0.206-0.162-0.411-0.248-0.614
		c-0.081-0.206-0.162-0.411-0.248-0.614c-0.082-0.208-0.164-0.416-0.251-0.621c-0.08-0.201-0.16-0.404-0.245-0.604
		c-0.081-0.206-0.162-0.411-0.248-0.614c-0.081-0.206-0.162-0.411-0.248-0.613c-0.082-0.207-0.164-0.416-0.251-0.621
		c-0.079-0.203-0.159-0.406-0.245-0.605c-0.08-0.206-0.162-0.411-0.248-0.614c-0.08-0.206-0.162-0.411-0.248-0.612
		c-0.08-0.207-0.162-0.412-0.248-0.614c-0.082-0.208-0.164-0.416-0.25-0.621c-0.08-0.203-0.16-0.406-0.246-0.604
		c-0.08-0.207-0.162-0.412-0.248-0.615c-0.08-0.206-0.16-0.411-0.248-0.613c-0.08-0.208-0.162-0.416-0.25-0.621
		c-0.08-0.203-0.16-0.406-0.244-0.605c-0.082-0.206-0.162-0.411-0.248-0.614c-0.082-0.206-0.162-0.411-0.248-0.614
		c-0.082-0.208-0.164-0.416-0.252-0.621c-0.082-0.209-0.164-0.417-0.252-0.623c-0.08-0.199-0.157-0.399-0.242-0.598
		c-0.08-0.206-0.161-0.411-0.248-0.614c-0.08-0.206-0.161-0.411-0.248-0.614c-0.081-0.208-0.163-0.416-0.25-0.621
		c-0.08-0.202-0.159-0.405-0.246-0.605c-0.079-0.206-0.161-0.411-0.247-0.614c-0.08-0.206-0.162-0.411-0.248-0.614
		c-0.082-0.207-0.164-0.416-0.25-0.62c-0.08-0.203-0.16-0.406-0.246-0.606c-0.08-0.206-0.161-0.411-0.248-0.614
		c-0.079-0.206-0.161-0.411-0.247-0.613c-0.082-0.208-0.164-0.416-0.25-0.621c-0.08-0.203-0.16-0.406-0.246-0.606
		c-0.08-0.206-0.162-0.411-0.248-0.613c-0.08-0.207-0.162-0.411-0.248-0.614c-0.08-0.206-0.162-0.411-0.248-0.614
		c-0.082-0.208-0.164-0.416-0.25-0.621c-0.08-0.203-0.16-0.406-0.246-0.605c-0.08-0.206-0.162-0.411-0.248-0.614
		c-0.08-0.206-0.161-0.411-0.248-0.614c-0.082-0.208-0.163-0.416-0.25-0.621c-0.08-0.203-0.16-0.406-0.246-0.605
		c-0.08-0.206-0.16-0.411-0.248-0.614c-0.08-0.206-0.16-0.411-0.248-0.614c-0.082-0.214-0.168-0.427-0.258-0.638
		c-0.078-0.197-0.156-0.396-0.238-0.59c-0.08-0.206-0.162-0.411-0.248-0.614c-0.08-0.206-0.162-0.411-0.248-0.614
		c-0.082-0.208-0.164-0.416-0.25-0.62c-0.08-0.203-0.16-0.406-0.246-0.605c-0.08-0.206-0.16-0.411-0.248-0.614
		c-0.08-0.206-0.16-0.411-0.246-0.613c-0.082-0.207-0.162-0.411-0.248-0.614c-0.082-0.208-0.164-0.416-0.252-0.621
		c-0.08-0.203-0.16-0.406-0.244-0.606c-0.082-0.206-0.162-0.41-0.248-0.613c-3.266-8.34-11.299-14.103-20.932-14.103
		c-5.803,0-11.629,2.736-16.143,7.542c-0.449-0.025-0.9-0.042-1.357-0.042c-0.455,0-0.907,0.017-1.356,0.042
		c-4.514-4.806-10.339-7.542-16.144-7.542c-12.616,0-22.5,9.883-22.5,22.5c0,3.624,0.742,7.005,2.082,9.991
		c0.084,0.204,0.158,0.414,0.248,0.614c0.086,0.204,0.16,0.417,0.25,0.618c0.084,0.201,0.158,0.41,0.246,0.608
		c0.084,0.204,0.158,0.414,0.248,0.614c0.084,0.204,0.158,0.414,0.248,0.614c0.084,0.204,0.158,0.413,0.248,0.613
		c0.086,0.205,0.159,0.417,0.25,0.618c0.084,0.202,0.157,0.411,0.246,0.609c0.084,0.204,0.158,0.414,0.248,0.614
		c0.084,0.204,0.158,0.413,0.248,0.613c0.086,0.209,0.162,0.423,0.255,0.628c0.082,0.199,0.154,0.404,0.242,0.601
		c0.085,0.204,0.158,0.414,0.248,0.614c0.085,0.203,0.157,0.414,0.248,0.613c0.085,0.205,0.159,0.417,0.25,0.617
		c0.084,0.203,0.157,0.412,0.246,0.609c0.085,0.204,0.157,0.414,0.247,0.614c0.086,0.203,0.158,0.414,0.248,0.613
		c0.086,0.204,0.16,0.417,0.25,0.618c0.084,0.201,0.158,0.41,0.246,0.608c0.086,0.204,0.158,0.414,0.248,0.614
		c0.086,0.203,0.158,0.414,0.248,0.613c0.086,0.203,0.158,0.414,0.248,0.613c0.086,0.205,0.159,0.418,0.25,0.618
		c0.084,0.202,0.157,0.411,0.246,0.609c0.086,0.203,0.158,0.414,0.248,0.612c0.085,0.205,0.158,0.414,0.248,0.615
		c0.085,0.204,0.159,0.416,0.25,0.617c0.084,0.202,0.157,0.411,0.246,0.609c0.085,0.203,0.158,0.414,0.248,0.613
		c0.085,0.203,0.158,0.414,0.248,0.613c0.085,0.205,0.159,0.417,0.25,0.618c0.084,0.202,0.156,0.411,0.246,0.608
		c0.085,0.203,0.158,0.414,0.248,0.613c0.085,0.204,0.158,0.414,0.248,0.614c0.086,0.207,0.16,0.421,0.253,0.624
		c0.084,0.202,0.157,0.41,0.245,0.607c0.084,0.203,0.158,0.412,0.246,0.608c0.084,0.204,0.158,0.414,0.248,0.614
		c0.084,0.204,0.158,0.414,0.248,0.613c0.058,0.139,0.105,0.281,0.166,0.418l-5.938,1.648c-0.533,0.147-0.845,0.698-0.697,1.23
		L45.585,125.298z"/>
	<g>
		<path fill="#B3B3B3" d="M44.002,69c-0.063,0-0.124-0.002-0.188-0.008C32.332,68.136,24,58.673,24,46.5
			C24,33.883,33.883,24,46.5,24c6.128,0,12.283,3.047,16.891,8.364c0.902,1.04,0.791,2.622-0.252,3.524
			c-1.043,0.901-16.543,29.418-16.646,30.797C46.395,67.999,45.299,69,44.002,69z"/>
		<path fill="#A6A6A6" d="M63.391,32.364C58.784,27.047,52.628,24,46.5,24c-0.536,0-1.064,0.024-1.592,0.061
			c5.654,0.427,11.229,3.395,15.48,8.305c0.903,1.04,0.791,2.622-0.25,3.525c-1.044,0.9-16.544,29.417-16.646,30.796
			c-0.07,0.943-0.661,1.722-1.469,2.086c0.59,0.094,1.184,0.176,1.791,0.221c0.063,0.006,0.125,0.008,0.188,0.008
			c1.297,0,2.393-1.001,2.49-2.313c0.104-1.377,15.604-29.896,16.646-30.796C64.182,34.986,64.293,33.404,63.391,32.364z"/>
		<path fill="#999999" d="M42.896,64.867C34.166,63.583,28,56.061,28,46.5C28,36.126,36.126,28,46.5,28
			c4.615,0,9.307,2.197,13.031,6.068c-1.045,1.545-3.246,5.282-8.586,15.135C45.457,59.332,43.566,63.159,42.896,64.867z"/>
		<path fill="#B3B3B3" d="M83.998,69c-1.297,0-2.393-1.001-2.49-2.314c-0.104-1.377-15.604-29.895-16.646-30.795
			c-1.041-0.902-1.152-2.484-0.25-3.524c4.605-5.317,10.763-8.364,16.891-8.364c12.617,0,22.5,9.883,22.5,22.5
			c0,12.173-8.332,21.637-19.813,22.492C84.122,68.998,84.061,69,83.998,69z"/>
		<path fill="#A6A6A6" d="M81.5,24c-0.471,0-0.939,0.024-1.408,0.061C91.938,24.852,101,34.419,101,46.5
			c0,11.529-7.479,20.614-18.023,22.271C83.29,68.914,83.635,69,83.998,69c0.063,0,0.124-0.002,0.188-0.008
			C95.668,68.136,104,58.673,104,46.5C104,33.883,94.117,24,81.5,24z"/>
		<path fill="#999999" d="M85.105,64.871c-0.672-1.708-2.562-5.535-8.054-15.668c-5.337-9.848-7.538-13.587-8.585-15.135
			C72.195,30.196,76.885,28,81.499,28c10.374,0,18.5,8.126,18.5,18.5C100,56.084,93.807,63.618,85.105,64.871z"/>
		<path fill="#CCCCCC" d="M64,104c-14.048,0-22.5-39.648-22.5-50c0-12.617,9.883-22.5,22.5-22.5S86.5,41.383,86.5,54
			C86.5,64.352,78.048,104,64,104z"/>
		<path fill="#BFBFBF" d="M64,31.5c-0.676,0-1.341,0.034-2,0.09C73.646,32.572,82.5,42.059,82.5,54
			c0,9.851-7.654,46.229-20.5,49.727c0.652,0.18,1.32,0.273,2,0.273c14.048,0,22.5-39.648,22.5-50C86.5,41.383,76.617,31.5,64,31.5z
			"/>
		<path fill="#242424" d="M64,104c4.243,0,7.971-3.628,11.115-8.965c-0.799-1.686-1.674-2.629-1.848-2.803
			C70.035,89,66.688,89,64,89c-2.688,0-6.035,0-9.268,3.232c-0.174,0.174-1.051,1.117-1.849,2.803C56.029,100.372,59.757,104,64,104
			z"/>
		<path fill="#1A1A1A" d="M64.953,103.932c0.17-0.021,0.34-0.048,0.509-0.08c0.08-0.017,0.161-0.035,0.241-0.054
			c0.167-0.039,0.334-0.083,0.5-0.134c0.07-0.021,0.141-0.041,0.211-0.064c0.199-0.064,0.396-0.14,0.593-0.221
			c0.033-0.014,0.066-0.025,0.099-0.039c0.49-0.21,0.972-0.466,1.441-0.766c0.006-0.004,0.012-0.008,0.018-0.012
			c0.233-0.149,0.468-0.312,0.697-0.48c0.004-0.003,0.01-0.007,0.014-0.012c2.123-1.578,4.074-4.037,5.842-7.035
			c-0.799-1.686-1.676-2.629-1.85-2.803c-0.143-0.145-0.285-0.271-0.43-0.402c-2.999,6.084-6.634,10.742-10.824,11.893
			c0.041,0.012,0.08,0.021,0.121,0.031c0.23,0.061,0.463,0.105,0.697,0.145c0.079,0.014,0.158,0.027,0.236,0.039
			C63.377,103.975,63.686,104,64,104c0.246,0,0.489-0.016,0.73-0.039C64.807,103.954,64.879,103.941,64.953,103.932z"/>
		<g>
			<g>
				<path fill="#F5F5F5" d="M54,61.5c-2.756,0-5-2.241-5-5s2.244-5,5-5s5,2.241,5,5S56.756,61.5,54,61.5z"/>
				<circle fill="#242424" cx="54" cy="56.5" r="2"/>
			</g>
			<g>
				<path fill="#F5F5F5" d="M74,61.5c-2.756,0-5-2.241-5-5s2.244-5,5-5s5,2.241,5,5S76.756,61.5,74,61.5z"/>
				<circle fill="#242424" cx="74" cy="56.5" r="2"/>
			</g>
		</g>
		<g>
			<g>
				<path fill="#E6E6E6" d="M35,97.5c-0.342,0-0.674-0.175-0.861-0.49c-0.281-0.475-0.125-1.089,0.353-1.369l18-10.668
					c0.475-0.281,1.088-0.125,1.368,0.353c0.281,0.475,0.125,1.089-0.35,1.37l-18,10.666C35.35,97.455,35.174,97.5,35,97.5z"/>
				<path fill="#E6E6E6" d="M32.916,91.416c-0.389,0-0.758-0.229-0.92-0.607c-0.217-0.508,0.02-1.095,0.527-1.313l20.084-8.583
					c0.502-0.215,1.094,0.019,1.313,0.526c0.217,0.509-0.02,1.096-0.527,1.313l-20.084,8.583
					C33.18,91.391,33.047,91.416,32.916,91.416z"/>
				<path fill="#E6E6E6" d="M30.498,85.083c-0.438,0-0.84-0.29-0.963-0.731c-0.146-0.531,0.164-1.084,0.697-1.23l22.5-6.25
					c0.533-0.146,1.082,0.164,1.229,0.695s-0.164,1.084-0.694,1.23l-22.5,6.25C30.678,85.07,30.588,85.083,30.498,85.083z"/>
			</g>
			<g>
				<path fill="#E6E6E6" d="M93,97.5c0.342,0,0.674-0.175,0.861-0.49c0.281-0.475,0.125-1.089-0.354-1.369l-18-10.668
					c-0.475-0.281-1.088-0.125-1.367,0.353c-0.281,0.475-0.125,1.089,0.35,1.37l18,10.666C92.65,97.455,92.826,97.5,93,97.5z"/>
				<path fill="#E6E6E6" d="M95.084,91.416c0.389,0,0.758-0.229,0.92-0.607c0.217-0.508-0.02-1.095-0.527-1.313l-20.084-8.583
					c-0.502-0.215-1.094,0.019-1.313,0.526c-0.217,0.509,0.02,1.096,0.527,1.313l20.084,8.583
					C94.82,91.391,94.953,91.416,95.084,91.416z"/>
				<path fill="#E6E6E6" d="M97.502,85.083c0.438,0,0.84-0.29,0.963-0.731c0.146-0.531-0.164-1.084-0.697-1.23l-22.5-6.25
					c-0.533-0.146-1.082,0.164-1.229,0.695s0.164,1.084,0.693,1.23l22.5,6.25C97.322,85.07,97.412,85.083,97.502,85.083z"/>
			</g>
		</g>
	</g>
</g>
</svg>
