<?xml version="1.0" encoding="utf-8"?>
<!-- Generator: Adobe Illustrator 15.1.0, SVG Export Plug-In . SVG Version: 6.00 Build 0)  -->
<!DOCTYPE svg PUBLIC "-//W3C//DTD SVG 1.1//EN" "http://www.w3.org/Graphics/SVG/1.1/DTD/svg11.dtd">
<svg version="1.1" id="Layer_1" xmlns="http://www.w3.org/2000/svg" xmlns:xlink="http://www.w3.org/1999/xlink" x="0px" y="0px"
	 width="128px" height="128px" viewBox="0 0 128 128" enable-background="new 0 0 128 128" xml:space="preserve">
<g>
	<circle fill="#88C5CC" cx="64" cy="64" r="64"/>
	<g>
		<g>
			<g>
				<defs>
					<circle id="SVGID_1_" cx="64" cy="64" r="64"/>
				</defs>
				<clipPath id="SVGID_2_">
					<use xlink:href="#SVGID_1_"  overflow="visible"/>
				</clipPath>
				<g clip-path="url(#SVGID_2_)">
					<path fill="#242424" d="M108.503,89.441c-4.136-5.161-12.407-12.713-18.338-15.977c-8.198-4.51-17.296-5.668-26.165-5.668
						s-17.967,1.158-26.165,5.669c-5.93,3.263-14.202,10.813-18.338,15.976c-4.027,5.024-7.83,12.939-7.83,20.875
						c0,23.047,23.966,42.518,52.333,42.518s52.333-19.471,52.333-42.518C116.333,102.382,112.529,94.467,108.503,89.441z"/>
					<path fill="#242424" d="M34.825,24.48c-1.307,0-2.62,0.24-3.912,0.718c-3.196,1.181-5.762,3.714-7.223,7.128
						c-1.462,3.413-1.652,7.325-0.542,11.016c1.088,3.603,3.543,6.371,6.869,7.909c2.535-4.469,13.634-17.471,16.481-19.349
						C44.49,26.714,39.66,24.48,34.825,24.48z"/>
					<path fill="#B3B3B3" d="M30.966,47.675c-0.907-0.964-1.58-2.138-1.987-3.489c-0.841-2.791-0.702-5.734,0.39-8.283
						c1.024-2.397,2.776-4.155,4.932-4.951c0.845-0.313,1.695-0.471,2.526-0.471c1.443,0,4.52,0.299,6.581,2.606
						C39.702,36.757,34.298,43.148,30.966,47.675z"/>
					<path fill="#242424" d="M93.175,24.48c1.308,0,2.62,0.24,3.912,0.718c3.196,1.181,5.763,3.714,7.224,7.128
						c1.461,3.413,1.651,7.325,0.541,11.016c-1.088,3.603-3.543,6.371-6.869,7.909c-2.534-4.469-13.633-17.471-16.48-19.349
						C83.51,26.714,88.34,24.48,93.175,24.48z"/>
					<path fill="#B3B3B3" d="M97.034,47.675c-3.332-4.525-8.736-10.918-12.44-14.588c2.063-2.309,5.139-2.605,6.581-2.605
						c0.831,0,1.683,0.157,2.528,0.471c2.152,0.795,3.904,2.553,4.929,4.948c1.093,2.551,1.229,5.494,0.392,8.29
						C98.613,45.539,97.941,46.712,97.034,47.675z"/>
					<path fill="#E6E6E6" d="M97.625,46.001c-3.125-4.5-9.375-11.083-13.855-13.928C77.576,28.14,70.702,27.131,64,27.131
						s-13.575,1.01-19.77,4.942c-4.48,2.845-10.73,9.428-13.855,13.928c-3.043,4.382-5.916,11.282-5.916,18.199
						c0,20.094,18.107,37.067,39.541,37.067c21.434,0,39.541-16.976,39.541-37.067C103.541,57.283,100.668,50.383,97.625,46.001z"/>
					<path fill="#242424" d="M37.092,69.143L37.092,69.143c-3.17,0-5.219-1.892-5.219-4.823c0-5.864,8.006-17.3,14.828-17.3
						c8.637,0,14.182,8.168,14.412,8.516c0.369,0.555,0.5,1.234,0.358,1.887c-0.137,0.654-0.534,1.219-1.1,1.576
						C58.723,60.035,44.041,69.143,37.092,69.143z"/>
					<path fill="#F5F5F5" d="M46.701,61.787c-2.756,0-5.001-2.241-5.001-5.001c0-2.757,2.245-4.999,5.001-4.999
						c2.757,0,4.999,2.242,4.999,4.999C51.7,59.546,49.458,61.787,46.701,61.787z"/>
					<path fill="#242424" d="M46.7,58.787c-1.103,0-2-0.896-2-2s0.897-2,2-2c1.104,0,2,0.896,2,2S47.804,58.787,46.7,58.787z"/>
					<path fill="#242424" d="M90.912,69.143L90.912,69.143c3.166,0,5.217-1.892,5.217-4.823c0-5.864-8.008-17.3-14.828-17.3
						c-8.639,0-14.18,8.168-14.412,8.516c-0.371,0.555-0.502,1.234-0.359,1.887c0.139,0.654,0.533,1.219,1.1,1.576
						C69.277,60.035,83.961,69.143,90.912,69.143z"/>
					<path fill="#F5F5F5" d="M81.301,61.787c2.754,0,5.001-2.242,5.001-5.001c0-2.756-2.247-4.999-5.001-4.999
						c-2.759,0-4.999,2.243-4.999,4.999C76.302,59.545,78.542,61.787,81.301,61.787z"/>
					<path fill="#242424" d="M81.302,58.787c1.103,0,2-0.896,2-2s-0.897-2-2-2c-1.104,0-2,0.896-2,2S80.198,58.787,81.302,58.787z"
						/>
					<path fill="#242424" d="M66.43,81.294c4.783-0.799,7.393-4.022,9.666-8.574c0.393-0.782,0.34-1.714-0.135-2.446
						c-1.711-2.644-7.994-3.602-11.797-3.602h-0.328c-3.803,0-10.086,0.958-11.797,3.602c-0.475,0.732-0.525,1.664-0.135,2.446
						c2.274,4.552,4.883,7.775,9.666,8.574H62v3.131l-6.701,5.464c-0.855,0.696-0.983,1.956-0.286,2.813
						c0.697,0.855,1.957,0.982,2.813,0.285L64,87.955l6.174,5.031c0.371,0.304,0.818,0.449,1.264,0.449
						c0.58,0,1.155-0.25,1.551-0.734c0.697-0.856,0.57-2.116-0.285-2.813l-6.701-5.464v-3.131H66.43z"/>
				</g>
			</g>
		</g>
	</g>
</g>
</svg>
