<?xml version="1.0" encoding="utf-8"?>
<!-- Generator: Adobe Illustrator 15.1.0, SVG Export Plug-In . SVG Version: 6.00 Build 0)  -->
<!DOCTYPE svg PUBLIC "-//W3C//DTD SVG 1.1//EN" "http://www.w3.org/Graphics/SVG/1.1/DTD/svg11.dtd">
<svg version="1.1" id="Layer_1" xmlns="http://www.w3.org/2000/svg" xmlns:xlink="http://www.w3.org/1999/xlink" x="0px" y="0px"
	 width="128px" height="128px" viewBox="0 0 128 128" enable-background="new 0 0 128 128" xml:space="preserve">
<g>
	<circle fill="#E16B5A" cx="64" cy="64" r="64"/>
	<g>
		<g>
			<g>
				<defs>
					<circle id="SVGID_1_" cx="64" cy="64" r="64"/>
				</defs>
				<clipPath id="SVGID_2_">
					<use xlink:href="#SVGID_1_"  overflow="visible"/>
				</clipPath>
				<g clip-path="url(#SVGID_2_)">
					<path fill="#FFD464" d="M84.723,145.667c-0.313,0-0.627-0.038-0.941-0.112c-1.828-0.461-3.068-2.164-2.936-4.049l3.672-51.365
						l-8.793-2.93c-1.463-0.488-2.498-1.797-2.641-3.336l-3.445-37.938c-0.949,0.171-1.979,0.28-3.047,0.28
						c-3.893,0-12.941-1.662-12.941-17.067c0-4.823,5.075-9.676,12.125-9.676c7.045,0,15.146,5.246,24.763,16.028
						c8.644,9.697,13.604,24.369,13.604,40.253c0,31.466-15.223,66.142-15.869,67.601C87.639,144.788,86.229,145.667,84.723,145.667
						z"/>
					<path fill="#F2C95F" d="M90.536,35.504C80.92,24.722,72.818,19.477,65.773,19.477c-0.601,0-1.181,0.047-1.75,0.112
						c6.636,0.778,14.195,6,23.039,15.915c8.643,9.697,13.604,24.369,13.604,40.253c0,31.466-15.224,66.142-15.87,67.601
						c-0.376,0.852-1.027,1.498-1.811,1.892c0.25,0.126,0.513,0.235,0.793,0.308c0.314,0.074,0.631,0.112,0.939,0.112
						c1.51,0,2.918-0.879,3.551-2.312c0.647-1.459,15.869-36.135,15.869-67.601C104.141,59.873,99.18,45.201,90.536,35.504z"/>
					<path fill="#2995CC" d="M99.204,110.917c2.75-10.86,4.937-23.239,4.937-35.16c0-15.884-4.961-30.556-13.604-40.253
						c-3.283-3.681-6.384-6.7-9.332-9.104l-3.005,7.827c3.568-0.194,9.938,8.723,5.885,14.396
						c-6.945,0.752-8.973,11.076-5.885,17.154C81.285,71.855,100.868,85.359,99.204,110.917z"/>
					<path fill="#268CBF" d="M87.829,32.584c-0.656-0.683-1.306-1.343-1.947-1.971c-0.063-0.065-0.131-0.132-0.194-0.197
						c-1.529-1.486-3.02-2.819-4.47-4.003c-0.005-0.004-0.009-0.008-0.014-0.013l-0.865,2.252c2.158,1.963,4.396,4.239,6.726,6.852
						c8.643,9.697,13.604,24.369,13.604,40.253c0,7.687-0.912,15.562-2.293,23.099c0.769,3.688,1.114,7.694,0.83,12.063
						c0.325-1.283,0.642-2.59,0.946-3.911c0.039-0.173,0.078-0.348,0.119-0.521c0.295-1.291,0.582-2.594,0.854-3.912
						c0.004-0.024,0.012-0.047,0.016-0.069c0.271-1.315,0.524-2.647,0.77-3.989c0.046-0.252,0.09-0.509,0.136-0.763
						c0.229-1.285,0.442-2.579,0.64-3.882c0.01-0.057,0.019-0.111,0.026-0.169c0.197-1.327,0.373-2.665,0.535-4.003
						c0.036-0.305,0.071-0.608,0.106-0.913c0.146-1.297,0.281-2.599,0.391-3.897c0.006-0.055,0.013-0.105,0.018-0.162
						c0.107-1.328,0.188-2.658,0.252-3.986c0.016-0.323,0.028-0.647,0.041-0.973c0.053-1.34,0.09-2.678,0.09-4.008
						c0-15.884-4.961-30.556-13.604-40.253c-0.751-0.842-1.489-1.638-2.222-2.411C88.15,32.921,87.99,32.754,87.829,32.584z"/>
					<path fill="#2995CC" d="M81.203,26.4c-5.688-4.635-10.789-6.926-15.43-6.926c-7.049,0-12.125,4.853-12.125,9.676
						c0,0.166,0.007,0.318,0.01,0.481C59.335,26.517,69.227,23.071,81.203,26.4z"/>
					<path fill="#268CBF" d="M64.033,19.588c-0.002,0.001-0.006,0.001-0.008,0.001c3.823,0.449,7.956,2.381,12.459,5.826
						c1.531,0.22,3.104,0.536,4.719,0.985c-2.107-1.718-4.135-3.108-6.087-4.187c-0.056-0.03-0.11-0.06-0.166-0.09
						c-0.585-0.317-1.163-0.604-1.735-0.865c-0.059-0.027-0.117-0.057-0.178-0.083c-1.205-0.537-2.379-0.939-3.525-1.222
						c-0.144-0.035-0.283-0.064-0.427-0.095c-0.424-0.095-0.843-0.168-1.259-0.227c-0.151-0.021-0.305-0.046-0.453-0.062
						c-0.539-0.061-1.071-0.099-1.6-0.099c-0.34,0-0.67,0.021-1,0.043C64.525,19.537,64.278,19.561,64.033,19.588z"/>
					<path fill="#F5F5F5" d="M66.87,34.216c-0.902,0-1.808-0.386-2.467-1.013c-0.627-0.664-1.008-1.573-1.008-2.482
						c0-0.908,0.381-1.813,1.008-2.48c1.287-1.293,3.646-1.293,4.932,0c0.625,0.667,1.009,1.572,1.009,2.48
						c0,0.909-0.384,1.818-1.009,2.482C68.675,33.83,67.771,34.216,66.87,34.216z"/>
					<path fill="#242424" d="M66.87,33.058c-0.603,0-1.205-0.255-1.646-0.675c-0.418-0.443-0.672-1.049-0.672-1.655
						c0-0.604,0.254-1.21,0.672-1.653c0.857-0.862,2.43-0.862,3.287,0c0.416,0.443,0.672,1.05,0.672,1.653
						c0,0.606-0.256,1.212-0.672,1.655C68.074,32.803,67.473,33.058,66.87,33.058z"/>
					<path fill="#242424" d="M81.203,26.399c-5.286,13.896-11.737,15.547-19.89,12.99c-8.443-2.646-6.822-13.575-4.801-16.37
						c0.012-0.009,0.021-0.021,0.032-0.032c-1.98,0.935-4.509,2.386-7.142,4.587c-2.677,2.229-4.235,5.172-4.509,8.51
						c-0.604,7.35,3.946,14.896,8.754,16.369c3.264-0.189,4.465-6.181,5.104-8.255c2.724,2.255,5.709,2.451,7.627,2.451
						c1.067,0,2.347-0.143,3.292-0.313C74.688,42.925,78.075,40.018,81.203,26.399L81.203,26.399z"/>
					<path fill="#99602E" d="M3.163,118.479c-1.396,0-2.743-0.75-3.439-2.069c-1.002-1.896-0.272-4.247,1.625-5.248
						c2.205-1.162,54.705-28.317,119.063-15.916c2.104,0.409,3.48,2.442,3.079,4.553c-0.409,2.101-2.438,3.479-4.552,3.079
						C57.246,90.989,5.488,117.76,4.972,118.031C4.396,118.336,3.774,118.479,3.163,118.479z"/>
				</g>
			</g>
		</g>
	</g>
</g>
</svg>
