<?xml version="1.0" encoding="utf-8"?>
<!-- Generator: Adobe Illustrator 15.1.0, SVG Export Plug-In . SVG Version: 6.00 Build 0)  -->
<!DOCTYPE svg PUBLIC "-//W3C//DTD SVG 1.1//EN" "http://www.w3.org/Graphics/SVG/1.1/DTD/svg11.dtd">
<svg version="1.1" id="Layer_1" xmlns="http://www.w3.org/2000/svg" xmlns:xlink="http://www.w3.org/1999/xlink" x="0px" y="0px"
	 width="128px" height="128px" viewBox="0 0 128 128" enable-background="new 0 0 128 128" xml:space="preserve">
<g>
	<circle fill="#B2E3FF" cx="64" cy="64" r="64"/>
	<path fill="#A9D8F2" d="M102.616,115.031c-0.019-0.047-0.037-0.092-0.056-0.139c-0.086-0.217-0.17-0.425-0.256-0.635
		c-0.08-0.201-0.16-0.396-0.24-0.594c-0.084-0.209-0.166-0.411-0.248-0.614c-0.084-0.209-0.166-0.411-0.248-0.612
		c-0.086-0.217-0.17-0.426-0.256-0.635c-0.08-0.201-0.16-0.396-0.24-0.595c-0.084-0.209-0.165-0.411-0.248-0.614
		c-0.083-0.209-0.165-0.41-0.248-0.613c-0.083-0.209-0.165-0.41-0.248-0.613c-0.085-0.215-0.17-0.424-0.256-0.633
		c-0.08-0.202-0.16-0.398-0.24-0.596c-0.083-0.209-0.165-0.412-0.248-0.613c-0.086-0.219-0.172-0.43-0.258-0.641
		c-0.082-0.207-0.164-0.406-0.246-0.607c-0.08-0.201-0.16-0.396-0.24-0.596c-0.083-0.209-0.165-0.41-0.248-0.613
		c-0.083-0.209-0.165-0.41-0.248-0.613c-0.085-0.215-0.17-0.424-0.256-0.633c-0.08-0.202-0.16-0.398-0.24-0.596
		c-0.082-0.209-0.164-0.412-0.248-0.613c-0.082-0.209-0.164-0.411-0.248-0.614c-0.084-0.216-0.17-0.424-0.256-0.634
		c-0.08-0.201-0.16-0.396-0.24-0.596c-0.082-0.209-0.164-0.41-0.248-0.613c-0.082-0.209-0.164-0.41-0.248-0.613
		c-0.082-0.209-0.164-0.411-0.248-0.613c-0.088-0.225-0.176-0.441-0.266-0.658c-0.076-0.192-0.154-0.381-0.229-0.568
		c-0.084-0.209-0.165-0.411-0.248-0.614c-0.083-0.209-0.165-0.411-0.248-0.614c-0.085-0.215-0.17-0.424-0.257-0.633
		c-0.079-0.201-0.159-0.398-0.239-0.595c-0.083-0.209-0.165-0.411-0.248-0.614c-0.083-0.209-0.165-0.41-0.248-0.613
		c-0.085-0.217-0.17-0.425-0.256-0.635c-0.08-0.201-0.16-0.396-0.24-0.594c-0.083-0.209-0.165-0.411-0.248-0.614
		c-0.083-0.209-0.165-0.411-0.247-0.614c-0.086-0.215-0.171-0.424-0.257-0.633c-0.08-0.201-0.159-0.396-0.239-0.595
		c-0.086-0.218-0.173-0.429-0.259-0.64c-0.079-0.2-0.157-0.396-0.237-0.59c-0.082-0.209-0.164-0.412-0.248-0.614
		c-0.084-0.216-0.17-0.425-0.256-0.634c-0.08-0.201-0.16-0.396-0.24-0.594c-0.082-0.209-0.164-0.412-0.248-0.615
		c-0.082-0.209-0.164-0.41-0.248-0.613c-0.084-0.215-0.17-0.424-0.256-0.633c-0.08-0.202-0.16-0.396-0.24-0.596
		c-0.082-0.209-0.164-0.41-0.247-0.613c-0.083-0.209-0.165-0.411-0.248-0.614c-0.085-0.215-0.171-0.425-0.257-0.634
		c-0.08-0.201-0.159-0.396-0.239-0.594c-0.083-0.209-0.165-0.412-0.248-0.615c-0.086-0.217-0.172-0.428-0.258-0.639
		c-0.08-0.199-0.159-0.396-0.239-0.59c-0.085-0.215-0.17-0.424-0.256-0.634c-0.08-0.202-0.16-0.396-0.24-0.595
		c-0.083-0.209-0.164-0.411-0.248-0.614c-0.082-0.209-0.164-0.411-0.248-0.613c-0.084-0.216-0.17-0.425-0.256-0.634
		c-0.08-0.201-0.16-0.396-0.24-0.595c-0.082-0.209-0.164-0.411-0.248-0.614c-0.082-0.209-0.164-0.41-0.248-0.613
		c-0.084-0.215-0.17-0.424-0.256-0.634c-0.08-0.202-0.16-0.396-0.24-0.595c-0.082-0.209-0.164-0.411-0.248-0.614
		c-0.086-0.217-0.172-0.428-0.258-0.639c-0.078-0.2-0.158-0.396-0.237-0.591c-0.084-0.215-0.171-0.424-0.257-0.633
		c-0.08-0.201-0.159-0.396-0.239-0.596c-0.082-0.209-0.164-0.411-0.247-0.613c-0.083-0.209-0.165-0.41-0.248-0.613
		c-0.085-0.215-0.171-0.424-0.257-0.633c-0.079-0.203-0.159-0.397-0.239-0.597c-0.083-0.209-0.165-0.41-0.248-0.612
		c-0.083-0.209-0.165-0.412-0.248-0.615c-0.085-0.215-0.17-0.424-0.256-0.633c-0.08-0.201-0.16-0.396-0.24-0.596
		c-0.082-0.209-0.164-0.41-0.248-0.613c-0.082-0.209-0.164-0.41-0.248-0.613c-0.086-0.217-0.172-0.428-0.258-0.639
		c-0.082-0.208-0.165-0.408-0.247-0.608c-0.079-0.202-0.159-0.397-0.239-0.595c-0.082-0.209-0.164-0.411-0.248-0.614
		c-0.082-0.209-0.164-0.411-0.248-0.614c-0.084-0.215-0.17-0.424-0.256-0.633c-0.08-0.202-0.16-0.397-0.24-0.595
		c-0.082-0.209-0.164-0.411-0.248-0.614c-0.082-0.209-0.164-0.411-0.248-0.614c-0.084-0.215-0.17-0.424-0.256-0.633
		c-0.08-0.202-0.16-0.397-0.24-0.595c-0.082-0.209-0.164-0.411-0.248-0.614c-0.082-0.209-0.164-0.411-0.247-0.614
		c-0.083-0.209-0.165-0.411-0.248-0.614c-0.089-0.224-0.177-0.439-0.267-0.657c-0.076-0.193-0.154-0.381-0.23-0.569
		c-0.083-0.209-0.165-0.411-0.248-0.614c-0.083-0.209-0.165-0.411-0.248-0.613c-0.085-0.216-0.17-0.425-0.256-0.634
		c-0.08-0.202-0.16-0.396-0.24-0.595c-0.082-0.209-0.164-0.411-0.248-0.614c-0.082-0.209-0.164-0.411-0.248-0.614
		c-0.084-0.215-0.17-0.424-0.256-0.633c-0.08-0.202-0.16-0.396-0.24-0.595c-0.082-0.209-0.164-0.411-0.248-0.614
		c-0.082-0.209-0.164-0.411-0.248-0.613c-0.082-0.209-0.164-0.411-0.248-0.614c-0.088-0.225-0.176-0.44-0.266-0.658
		c-0.076-0.193-0.154-0.38-0.23-0.569c-0.084-0.209-0.165-0.41-0.247-0.613c-0.084-0.209-0.166-0.411-0.248-0.614
		c-0.086-0.215-0.17-0.424-0.257-0.633c-0.079-0.202-0.159-0.397-0.239-0.596c-0.084-0.209-0.166-0.411-0.248-0.613
		c-0.084-0.209-0.165-0.411-0.248-0.614c-0.086-0.215-0.17-0.424-0.256-0.633c-0.08-0.202-0.16-0.397-0.24-0.596
		c-0.083-0.209-0.165-0.41-0.248-0.613c-0.083-0.209-0.165-0.411-0.248-0.614c-0.085-0.215-0.17-0.424-0.256-0.633
		c-0.08-0.202-0.16-0.397-0.239-0.596c-0.086-0.217-0.173-0.428-0.259-0.639c-0.079-0.2-0.159-0.396-0.237-0.59
		c-0.084-0.209-0.166-0.411-0.248-0.614c-0.086-0.215-0.17-0.424-0.256-0.633c-0.08-0.202-0.16-0.396-0.24-0.595
		c-0.082-0.209-0.164-0.411-0.248-0.614c-1.611-4.074-3.244-7.085-4.93-8.703c-2.383-2.284-5.777-3.595-9.476-3.595
		c-0.002,0-0.005,0-0.005,0c-6.733,0.078-11.645,5.618-11.852,5.853c-0.344,0.398-0.557,0.895-0.605,1.416
		c-0.042,0.453-0.073,0.89-0.112,1.337c-0.014,0.009-0.029,0.017-0.042,0.024c-0.06,0.034-0.119,0.068-0.181,0.104
		c-0.141,0.082-0.289,0.168-0.444,0.259c-0.027,0.016-0.051,0.028-0.078,0.045c-0.195,0.114-0.401,0.235-0.615,0.36
		c-0.031,0.019-0.063,0.037-0.094,0.057c-0.188,0.109-0.381,0.226-0.581,0.344c-0.024,0.016-0.045,0.026-0.069,0.041
		c-4.032,2.404-10.165,6.294-10.165,7.715c0,0.098,0.113,0.221,0.308,0.362c-0.034,0.09-0.06,0.176-0.06,0.252
		c0,0.097,0.113,0.22,0.308,0.362c-0.034,0.09-0.06,0.176-0.06,0.252c0,0.097,0.113,0.22,0.308,0.361
		c-0.034,0.09-0.06,0.177-0.06,0.252c0,0.097,0.113,0.22,0.308,0.361c-0.034,0.09-0.06,0.176-0.06,0.252
		c0,0.098,0.113,0.221,0.308,0.362c-0.034,0.09-0.06,0.176-0.06,0.252c0,0.097,0.113,0.22,0.308,0.363
		c-0.034,0.089-0.06,0.175-0.06,0.251c0,0.097,0.113,0.22,0.308,0.361c-0.034,0.091-0.06,0.177-0.06,0.252
		c0,0.098,0.113,0.221,0.308,0.362c-0.034,0.089-0.06,0.177-0.06,0.251c0,0.098,0.113,0.221,0.308,0.362
		c-0.034,0.09-0.06,0.176-0.06,0.252c0,0.097,0.113,0.22,0.308,0.362c-0.034,0.09-0.06,0.176-0.06,0.252
		c0,0.097,0.113,0.22,0.308,0.361c-0.034,0.091-0.06,0.177-0.06,0.252c0,0.098,0.113,0.221,0.308,0.362
		c-0.034,0.089-0.06,0.177-0.06,0.251c0,0.098,0.113,0.221,0.308,0.362c-0.034,0.09-0.06,0.176-0.06,0.252
		c0,0.097,0.113,0.22,0.308,0.362c-0.034,0.09-0.06,0.176-0.06,0.252c0,0.097,0.113,0.22,0.308,0.361
		c-0.034,0.091-0.06,0.177-0.06,0.252c0,0.098,0.113,0.221,0.308,0.362c-0.034,0.089-0.06,0.177-0.06,0.251
		c0,0.098,0.113,0.221,0.308,0.362c-0.034,0.09-0.06,0.176-0.06,0.252c0,0.097,0.113,0.22,0.308,0.362
		c-0.034,0.09-0.06,0.176-0.06,0.252c0,0.097,0.113,0.22,0.308,0.361c-0.034,0.091-0.06,0.177-0.06,0.252
		c0,0.098,0.113,0.221,0.308,0.363c-0.034,0.089-0.06,0.176-0.06,0.25c0,0.098,0.113,0.221,0.308,0.362
		c-0.034,0.09-0.06,0.176-0.06,0.252c0,0.097,0.113,0.22,0.308,0.362c-0.034,0.09-0.06,0.176-0.06,0.252
		c0,0.097,0.113,0.22,0.308,0.361c-0.034,0.091-0.06,0.177-0.06,0.252c0,0.098,0.113,0.221,0.308,0.362
		c-0.034,0.09-0.06,0.177-0.06,0.252c0,0.098,0.113,0.22,0.308,0.362c-0.034,0.089-0.06,0.176-0.06,0.251
		c0,0.097,0.113,0.22,0.308,0.362c-0.034,0.09-0.06,0.176-0.06,0.252c0,0.097,0.113,0.22,0.308,0.361
		c-0.034,0.091-0.06,0.177-0.06,0.252c0,0.098,0.113,0.221,0.308,0.362c-0.034,0.09-0.06,0.177-0.06,0.252
		c0,0.098,0.113,0.22,0.308,0.362c-0.034,0.089-0.06,0.176-0.06,0.251c0,0.097,0.113,0.22,0.308,0.362
		c-0.034,0.09-0.06,0.176-0.06,0.252c0,0.097,0.113,0.22,0.308,0.361c-0.034,0.091-0.06,0.177-0.06,0.252
		c0,0.098,0.113,0.221,0.308,0.362c-0.034,0.09-0.06,0.177-0.06,0.252c0,0.098,0.113,0.22,0.308,0.363
		c-0.034,0.089-0.06,0.175-0.06,0.25c0,0.097,0.113,0.22,0.308,0.362c-0.034,0.09-0.06,0.176-0.06,0.252
		c0,0.097,0.113,0.22,0.308,0.361c-0.034,0.091-0.06,0.177-0.06,0.252c0,0.098,0.113,0.221,0.308,0.362
		c-0.034,0.09-0.06,0.177-0.06,0.252c0,0.098,0.113,0.22,0.308,0.362c-0.034,0.09-0.06,0.176-0.06,0.252
		c0,0.097,0.113,0.22,0.308,0.362c-0.034,0.089-0.06,0.176-0.06,0.251c0,0.097,0.113,0.22,0.308,0.36
		c-0.034,0.092-0.06,0.178-0.06,0.252c0,0.099,0.113,0.222,0.308,0.363c-0.034,0.09-0.06,0.176-0.06,0.252
		c0,0.098,0.113,0.219,0.308,0.361c-0.034,0.09-0.06,0.176-0.06,0.252c0,0.098,0.113,0.221,0.308,0.362
		c-0.034,0.089-0.06,0.176-0.06,0.251c0,0.097,0.113,0.22,0.308,0.361c-0.034,0.09-0.06,0.176-0.06,0.252
		c0,0.098,0.113,0.221,0.308,0.361c-0.034,0.09-0.06,0.178-0.06,0.252c0,0.098,0.113,0.221,0.308,0.362
		c-0.034,0.09-0.06,0.176-0.06,0.252c0,0.097,0.113,0.22,0.308,0.362c-0.034,0.089-0.06,0.176-0.06,0.25
		c0,0.098,0.113,0.221,0.308,0.363c-0.034,0.09-0.06,0.176-0.06,0.25c0,0.099,0.113,0.221,0.308,0.362
		c-0.034,0.09-0.06,0.177-0.06,0.252c0,0.099,0.113,0.22,0.308,0.362c-0.034,0.09-0.06,0.176-0.06,0.252
		c0,0.097,0.113,0.22,0.308,0.361c-0.034,0.09-0.06,0.177-0.06,0.252c0,0.098,0.113,0.221,0.308,0.362
		c-0.034,0.089-0.06,0.177-0.06,0.25c0,0.099,0.113,0.222,0.308,0.362c-0.034,0.09-0.06,0.177-0.06,0.252
		c0,0.084,0.083,0.188,0.232,0.309c0.013,0.067,0.026,0.14,0.04,0.207c-0.005,0.031-0.023,0.068-0.023,0.101
		c0,0.044,0.028,0.094,0.07,0.147c0.845,4.241,1.972,8.02,3.4,11.313c0.084,0.201,0.162,0.415,0.248,0.613
		c0.085,0.205,0.164,0.42,0.25,0.621c0.083,0.198,0.16,0.41,0.246,0.605c0.084,0.202,0.162,0.415,0.248,0.614
		c0.085,0.204,0.164,0.42,0.251,0.62c0.083,0.201,0.16,0.412,0.246,0.606c0.085,0.205,0.164,0.42,0.25,0.62
		c0.083,0.2,0.16,0.411,0.246,0.607c0.084,0.201,0.162,0.414,0.248,0.613c0.084,0.203,0.162,0.416,0.248,0.613
		c0.085,0.204,0.164,0.42,0.25,0.62c0.083,0.2,0.16,0.411,0.246,0.606c0.084,0.203,0.162,0.416,0.248,0.614
		c0.084,0.202,0.162,0.415,0.248,0.613c0.029,0.071,0.056,0.146,0.086,0.217l-0.071,0.054l0,0l-6.735,5.053
		c-0.861,0.646-1.213,1.771-0.874,2.789c0.053,0.158,0.126,0.309,0.207,0.447c0.014,0.057,0.022,0.112,0.041,0.168
		c0.053,0.158,0.126,0.306,0.207,0.446c0.014,0.056,0.022,0.111,0.041,0.167c0.053,0.159,0.126,0.307,0.208,0.447
		c0.014,0.056,0.022,0.109,0.041,0.165c0.053,0.157,0.126,0.308,0.207,0.446c0.014,0.058,0.022,0.112,0.041,0.168
		c0.053,0.158,0.126,0.306,0.207,0.447c0.014,0.055,0.022,0.111,0.041,0.166c0.053,0.159,0.126,0.307,0.208,0.449
		c0.014,0.055,0.022,0.109,0.041,0.165c0.053,0.159,0.126,0.306,0.207,0.446c0.014,0.057,0.023,0.111,0.041,0.167
		c0.053,0.159,0.126,0.308,0.208,0.448c0.014,0.055,0.022,0.109,0.041,0.164c0.053,0.158,0.126,0.309,0.207,0.447
		c0.014,0.057,0.023,0.112,0.041,0.167c0.053,0.159,0.126,0.306,0.207,0.447c0.014,0.056,0.023,0.11,0.041,0.167
		c0.053,0.156,0.126,0.307,0.207,0.445c0.014,0.058,0.023,0.113,0.041,0.168c0.053,0.158,0.126,0.308,0.208,0.447
		c0.014,0.055,0.022,0.11,0.041,0.166c0.053,0.158,0.126,0.305,0.207,0.446c0.014,0.056,0.023,0.112,0.041,0.167
		c0.053,0.158,0.126,0.307,0.207,0.447c0.014,0.056,0.023,0.111,0.041,0.167c0.053,0.159,0.126,0.306,0.207,0.446
		c0.014,0.057,0.023,0.111,0.041,0.166c0.053,0.16,0.126,0.309,0.208,0.449c0.014,0.055,0.022,0.109,0.041,0.164
		c0.053,0.158,0.126,0.309,0.207,0.447c0.014,0.057,0.023,0.111,0.041,0.167c0.053,0.159,0.126,0.306,0.207,0.446
		c0.014,0.057,0.023,0.111,0.041,0.168c0.053,0.156,0.126,0.307,0.207,0.445c0.014,0.058,0.023,0.112,0.041,0.168
		c0.053,0.158,0.126,0.309,0.208,0.448c0.014,0.056,0.022,0.11,0.041,0.164c0.053,0.159,0.126,0.306,0.207,0.447
		c0.014,0.056,0.022,0.112,0.041,0.167c0.053,0.158,0.126,0.307,0.207,0.447c0.014,0.056,0.022,0.111,0.041,0.166
		c0.053,0.158,0.126,0.307,0.207,0.447c0.014,0.057,0.022,0.111,0.041,0.166c0.053,0.158,0.126,0.309,0.207,0.447
		c0.014,0.057,0.022,0.112,0.041,0.167c0.053,0.159,0.126,0.308,0.208,0.448c0.014,0.055,0.022,0.109,0.041,0.165
		c0.053,0.159,0.126,0.306,0.207,0.446c0.014,0.057,0.022,0.111,0.041,0.166c0.053,0.158,0.126,0.309,0.207,0.447
		c0.014,0.057,0.022,0.112,0.041,0.167c0.053,0.159,0.126,0.308,0.207,0.447c0.014,0.056,0.022,0.112,0.041,0.167
		c0.053,0.159,0.126,0.307,0.208,0.447c0.014,0.056,0.022,0.109,0.041,0.166c0.053,0.158,0.126,0.307,0.207,0.447
		c0.014,0.056,0.022,0.11,0.041,0.166c0.053,0.158,0.126,0.307,0.207,0.446c0.014,0.058,0.022,0.112,0.041,0.167
		c0.053,0.158,0.126,0.309,0.207,0.447c0.014,0.056,0.022,0.111,0.041,0.167c0.054,0.159,0.126,0.308,0.208,0.448
		c0.014,0.056,0.022,0.109,0.041,0.164c0.053,0.158,0.126,0.307,0.207,0.446c0.014,0.058,0.023,0.112,0.041,0.167
		c0.053,0.158,0.126,0.309,0.207,0.447c0.014,0.057,0.023,0.111,0.041,0.167c0.053,0.159,0.126,0.306,0.207,0.446
		c0.014,0.057,0.023,0.113,0.041,0.168c0.053,0.158,0.126,0.307,0.207,0.447c0.014,0.056,0.023,0.11,0.041,0.166
		c0.053,0.16,0.126,0.308,0.208,0.447c0.014,0.057,0.022,0.11,0.041,0.165c0.053,0.159,0.126,0.308,0.207,0.447
		c0.014,0.057,0.023,0.112,0.041,0.167c0.053,0.158,0.126,0.309,0.207,0.447c0.014,0.056,0.023,0.111,0.041,0.166
		c0.05,0.148,0.119,0.287,0.194,0.42c3.204,0.494,6.485,0.752,9.826,0.752C78.507,128,91.882,123.166,102.616,115.031z"/>
	<g>
		<path fill="#FFD464" d="M43.93,46.493c-0.22,0-0.446-0.029-0.671-0.093c0,0-11.7-3.844-11.7-4.848
			c0-2.115,13.611-9.714,13.611-9.714c1.19-0.698,2.721-0.296,3.417,0.897c0.697,1.19,0.295,2.722-0.898,3.417l-3.088,5.434
			c1.331,0.37,2.106,1.747,1.735,3.077C46.028,45.771,45.023,46.493,43.93,46.493z"/>
		<path fill="#E6BF5A" d="M45.17,31.84c0,0-1.473,0.822-3.446,1.999c-0.339,4.14-0.567,8.063-0.696,11.808
			c1.317,0.453,2.231,0.755,2.231,0.755c0.225,0.063,0.451,0.093,0.671,0.093c1.094,0,2.099-0.723,2.406-1.828
			c0.371-1.33-0.404-2.707-1.735-3.077l3.088-5.434c1.193-0.695,1.596-2.227,0.898-3.417C47.891,31.544,46.36,31.142,45.17,31.84z"
			/>
		<path fill="#FFD464" d="M73.921,103.977H46.429c-1.076,0-2.03-0.688-2.372-1.709c-0.339-1.021,0.013-2.144,0.874-2.789
			l9.997-7.498l2.997,3.998l15.996,3V103.977L73.921,103.977z"/>
		<path fill="#E6BF5A" d="M54.928,91.979l-3.262,2.446c1.957,2.226,4.18,4.046,6.685,5.464c5.733,3.247,11.254,3.959,14.149,4.086
			h1.421v-4.998l-15.996-3L54.928,91.979z"/>
		<path fill="none" stroke="#000000" stroke-width="2" stroke-linecap="round" stroke-linejoin="round" stroke-miterlimit="10" d="
			M45.089,83.188"/>
		<path fill="#F5F5F5" d="M75.57,104c-2.396,0-8.67-0.4-15.22-4.109c-12.598-7.139-18.208-24.276-17.365-53.126
			c0.058-1.969,12.243-4.264,19.807,7.111c14,13.625,19.124,50.102,19.124,50.102h-5.447C76.43,103.98,76.091,104,75.57,104z"/>
		<path fill="#242424" d="M95.063,99.23c-2.988-2.08-7.791-5.541-9.227-6.873c-0.777-1.604-2.624-9.58-4.257-16.642
			c-0.054-0.229-0.106-0.448-0.161-0.684c0.003,0.003,0.003,0.003,0.003,0.003c-0.461-1.984-0.915-3.932-1.369-5.854
			c-0.065-0.279-0.132-0.563-0.198-0.843c-4.713-19.931-9.129-36.093-13.978-40.747c-2.382-2.284-5.776-3.595-9.475-3.595
			c-0.002,0-0.005,0-0.005,0c-6.733,0.078-11.645,5.618-11.852,5.854c-0.344,0.397-0.557,0.894-0.605,1.416
			c-0.505,5.521-0.811,10.654-0.954,15.494c0.942-0.165,2.072-0.271,3.443-0.271c3.22,0,7.498,1.035,7.498,9.997
			c0,0.137,0.01,0.272,0.034,0.41c1.23,7.385,5.89,31.688,14.171,34.451c0.26,0.084,0.523,0.127,0.79,0.127
			c0.468,0,0.929-0.132,1.333-0.386c0.635-0.399,1.055-1.06,1.146-1.804c1.06-8.486,1.24-13.887,1.086-17.702
			c1.465,9.406,2.877,25.962,9.429,32.388h11.999c0.01,0,0.018,0,0.023,0c1.375,0.021,2.522-1.109,2.522-2.498
			C96.463,100.49,95.893,99.636,95.063,99.23z"/>
		<path fill="#1A1A1A" d="M72.5,71.914c0.152,3.814-3.039,8.891-4.098,17.376c-0.088,0.705-0.478,1.325-1.055,1.729
			c0.258,0.133,0.519,0.242,0.783,0.332c0.26,0.082,0.523,0.127,0.79,0.127c0.468,0,0.929-0.133,1.333-0.387
			c0.637-0.398,1.057-1.06,1.146-1.804C71.533,88.24,73.668,79.78,72.5,71.914z"/>
		<path fill="#1A1A1A" d="M95.063,99.23c-2.988-2.08-7.791-5.541-9.227-6.873c-0.777-1.604-2.624-9.58-4.257-16.642
			c-0.054-0.229-0.106-0.448-0.161-0.684c0.003,0.003,0.003,0.003,0.003,0.003c-0.461-1.984-0.915-3.932-1.369-5.854
			c-0.065-0.279-0.132-0.563-0.198-0.843c-4.713-19.931-9.129-36.093-13.978-40.747c-2.382-2.284-5.776-3.595-9.475-3.595
			c-0.002,0-0.005,0-0.005,0c-0.465,0.006-0.918,0.042-1.365,0.096c3.056,0.326,5.818,1.557,7.844,3.499
			c4.848,4.654,9.266,20.816,13.979,40.747c0.065,0.278,0.131,0.563,0.197,0.843c0.454,1.924,0.908,3.868,1.369,5.854
			c0,0,0,0-0.003-0.003c0.054,0.233,0.106,0.454,0.161,0.684c1.633,7.062,3.479,15.037,4.257,16.642
			c1.437,1.332,6.235,4.793,9.226,6.873c0.83,0.403,1.401,1.26,1.401,2.244c0,1.391-1.149,2.521-2.522,2.5h2.977
			c0.01,0,0.018,0,0.023,0c1.373,0.021,2.522-1.109,2.522-2.5C96.463,100.49,95.893,99.636,95.063,99.23z"/>
		<path fill="#F5F5F5" d="M51.428,39.513c-0.809,0-1.56-0.3-2.13-0.874c-0.571-0.547-0.87-1.33-0.87-2.146
			c0-0.785,0.299-1.567,0.87-2.146c1.109-1.116,3.15-1.116,4.26,0.031c0.542,0.548,0.87,1.33,0.87,2.115
			c0,0.815-0.328,1.569-0.899,2.146C52.985,39.213,52.207,39.513,51.428,39.513z"/>
		<path fill="#242424" d="M51.428,38.513c-0.539,0-1.04-0.2-1.42-0.583c-0.381-0.363-0.58-0.887-0.58-1.431
			c0-0.523,0.199-1.045,0.58-1.431c0.74-0.744,2.1-0.744,2.84,0.021c0.361,0.365,0.58,0.887,0.58,1.41
			c0,0.544-0.219,1.047-0.6,1.431C52.466,38.313,51.947,38.513,51.428,38.513z"/>
	</g>
</g>
</svg>
