<?xml version="1.0" encoding="utf-8"?>
<!-- Generator: Adobe Illustrator 15.1.0, SVG Export Plug-In . SVG Version: 6.00 Build 0)  -->
<!DOCTYPE svg PUBLIC "-//W3C//DTD SVG 1.1//EN" "http://www.w3.org/Graphics/SVG/1.1/DTD/svg11.dtd">
<svg version="1.1" id="Layer_1" xmlns="http://www.w3.org/2000/svg" xmlns:xlink="http://www.w3.org/1999/xlink" x="0px" y="0px"
	 width="128px" height="128px" viewBox="0 0 128 128" enable-background="new 0 0 128 128" xml:space="preserve">
<g>
	<circle fill="#C2D5D8" cx="64" cy="64" r="64"/>
	<g>
		<path fill="#406A80" d="M55.107,31.506c7.347-2.31,32.834-5.156,41.536,5.498c-9.297-0.552-18.482,1.762-22.203,8.136
			C69.068,42.697,55.107,31.506,55.107,31.506z"/>
		<path fill="#395F73" d="M71.169,43.293c1.253,0.788,2.386,1.445,3.271,1.847c3.063-5.243,9.82-7.734,17.302-8.147
			C83.507,36.556,75.42,38.383,71.169,43.293z"/>
		<path fill="#406A80" d="M0,26.9c1.145,4.824,3.012,9.055,5.404,12.833c6.498-0.132,14.492,1.056,19.457,4.034
			c-3.489,1.872-8.416,3.329-12.857,4.071c21.232,20.826,61.721,24.15,75.072,42.077l7.458-16.044
			C60.984,11.507,18.921,19.095,0,26.9z"/>
		<path fill="#395F73" d="M92.723,77.771l1.813-3.898c-26.938-50.081-59.37-55.051-80.898-51.024
			C35.82,21.438,67.491,31.076,92.723,77.771z"/>
		<path fill="#406A80" d="M34.167,56.749c-5.513,1.837-9.554,9.431-10.166,14.328c4.042-1.593,12.981-8.571,17.515-7.163
			C37.717,58.954,34.167,56.749,34.167,56.749z"/>
		<path fill="#395F73" d="M34.167,56.749c-0.953,0.318-1.858,0.817-2.713,1.437c1.388,1.154,3.366,3.016,5.444,5.729
			c-3.035-0.943-8.051,1.88-12.246,4.323c-0.317,0.998-0.541,1.964-0.651,2.84c4.042-1.594,12.981-8.571,17.515-7.163
			C37.717,58.954,34.167,56.749,34.167,56.749z"/>
		<path fill="#F5F5F5" d="M87.076,89.917l1.533-3.297c-3.271-12.179-54.442-29.871-59.692-40.341
			c5.894-8.357-16.761-9.931-24.464-8.188c0.314,0.55,0.615,1.109,0.951,1.643c6.498-0.132,14.492,1.056,19.457,4.034
			c-3.489,1.872-8.416,3.329-12.857,4.071C33.236,68.666,73.725,71.99,87.076,89.917z"/>
		<path fill="#406A80" d="M94.534,73.873c3.926-4.266,18.007-10.389,28.539-10.021c-2.571,4.776-6.858,8.88-10.747,7.41
			c-3.43,3.063-11.741,8.016-13.898,14.706c-2.107,6.529-2.945,22.399-1.783,27.726c-3.49-3.12-10.172-17.731-9.566-23.774
			S94.534,73.873,94.534,73.873z"/>
		<path fill="#395F73" d="M95.352,85.968c-1.625,5.034-2.49,15.601-2.271,22.625c1.284,2.328,2.558,4.199,3.563,5.101
			c-1.16-5.324-0.322-21.194,1.783-27.726c2.125-6.592,10.213-11.491,13.732-14.563C111.188,71.645,97.508,79.275,95.352,85.968z"/>
		<path fill="#395F73" d="M119.95,63.936c-1.868,3.438-4.622,6.498-7.468,7.371c3.847,1.307,8.054-2.74,10.591-7.455
			C122.063,63.816,121.014,63.857,119.95,63.936z"/>
		<path fill="#F5F5F5" d="M30.387,34.445c-0.764,0-1.525-0.328-2.09-0.856c-0.553-0.563-0.849-1.331-0.849-2.101
			c0-0.798,0.296-1.567,0.849-2.104c1.119-1.09,3.061-1.09,4.146,0c0.561,0.536,0.882,1.307,0.882,2.104
			c0,0.77-0.321,1.538-0.882,2.068C31.915,34.117,31.148,34.445,30.387,34.445z"/>
		<path fill="#242424" d="M30.387,32.975c-0.382,0-0.764-0.162-1.044-0.427c-0.278-0.281-0.426-0.666-0.426-1.05
			c0-0.4,0.147-0.785,0.426-1.054c0.56-0.546,1.529-0.546,2.073,0c0.279,0.269,0.439,0.652,0.439,1.054
			c0,0.384-0.16,0.769-0.439,1.033C31.148,32.813,30.77,32.975,30.387,32.975z"/>
		<path fill="#406A80" d="M40.167,54.729c-2.472,9.186,8.813,24.553,7.101,29.696c3.188-3.797,10.897-14.729,8.817-21.219
			C54.004,56.717,40.167,54.729,40.167,54.729z"/>
		<path fill="#395F73" d="M56.085,63.207c-2.081-6.49-15.918-8.479-15.918-8.479c-0.051,0.189-0.063,0.396-0.103,0.592
			c4.187,0.981,11.478,3.313,12.942,7.887c1.585,4.939-2.506,12.449-5.956,17.432c0.4,1.539,0.53,2.84,0.215,3.787
			C50.454,80.629,58.165,69.695,56.085,63.207z"/>
	</g>
</g>
</svg>
