<?xml version="1.0" encoding="utf-8"?>
<!-- Generator: Adobe Illustrator 15.1.0, SVG Export Plug-In . SVG Version: 6.00 Build 0)  -->
<!DOCTYPE svg PUBLIC "-//W3C//DTD SVG 1.1//EN" "http://www.w3.org/Graphics/SVG/1.1/DTD/svg11.dtd">
<svg version="1.1" id="Layer_1" xmlns="http://www.w3.org/2000/svg" xmlns:xlink="http://www.w3.org/1999/xlink" x="0px" y="0px"
	 width="128px" height="128px" viewBox="0 0 128 128" enable-background="new 0 0 128 128" xml:space="preserve">
<g>
	<circle fill="#F2CF61" cx="64" cy="64" r="64"/>
	<path fill="#E6C45C" d="M118.334,97.813c-0.035-0.086-0.053-0.178-0.104-0.256c-0.035-0.182-0.104-0.354-0.207-0.512
		c-0.035-0.182-0.104-0.354-0.207-0.514c-0.037-0.182-0.105-0.354-0.207-0.512c-0.036-0.183-0.105-0.354-0.207-0.514
		c-0.036-0.182-0.105-0.354-0.209-0.514c-0.035-0.182-0.104-0.354-0.205-0.51c-0.036-0.185-0.105-0.355-0.209-0.516
		c-0.035-0.182-0.104-0.354-0.206-0.512c-0.036-0.182-0.106-0.354-0.208-0.514c-0.036-0.183-0.105-0.354-0.207-0.512
		c-0.036-0.184-0.106-0.354-0.208-0.514c-0.036-0.182-0.104-0.354-0.207-0.512c-0.036-0.184-0.104-0.354-0.207-0.512
		c-0.036-0.185-0.104-0.355-0.208-0.516c-0.036-0.182-0.105-0.354-0.207-0.512c-0.036-0.182-0.105-0.354-0.208-0.514
		c-0.036-0.183-0.104-0.354-0.207-0.513c-0.036-0.183-0.104-0.354-0.208-0.513c-0.036-0.182-0.105-0.354-0.207-0.512
		c-0.036-0.184-0.105-0.354-0.208-0.516c-0.036-0.181-0.104-0.352-0.206-0.51c-0.036-0.184-0.105-0.354-0.208-0.514
		c-0.036-0.183-0.104-0.354-0.207-0.512c-0.036-0.184-0.104-0.354-0.207-0.515c-0.036-0.183-0.106-0.354-0.208-0.513
		c-0.036-0.182-0.105-0.354-0.207-0.512c-0.035-0.184-0.105-0.354-0.208-0.516c-0.036-0.182-0.104-0.352-0.206-0.51
		c-0.035-0.184-0.105-0.354-0.208-0.514c-0.036-0.183-0.104-0.354-0.207-0.513c-0.036-0.183-0.104-0.354-0.208-0.515
		c-0.035-0.182-0.105-0.354-0.207-0.512c-0.035-0.182-0.104-0.354-0.207-0.513c-0.035-0.183-0.104-0.354-0.207-0.515
		c-0.037-0.182-0.104-0.352-0.207-0.51c-0.035-0.184-0.104-0.354-0.207-0.515c-0.037-0.183-0.104-0.354-0.207-0.512
		c-0.037-0.183-0.105-0.354-0.209-0.515c-0.035-0.182-0.104-0.354-0.207-0.512c-0.035-0.184-0.104-0.354-0.207-0.513
		c-0.037-0.183-0.104-0.354-0.207-0.513c-0.037-0.182-0.104-0.354-0.207-0.512c-0.037-0.184-0.104-0.354-0.209-0.515
		c-0.035-0.183-0.104-0.354-0.207-0.512c-0.035-0.183-0.104-0.354-0.207-0.515c-0.035-0.182-0.104-0.354-0.207-0.512
		c-0.035-0.184-0.104-0.354-0.209-0.513c-0.034-0.183-0.104-0.354-0.207-0.513c-0.034-0.183-0.104-0.354-0.207-0.515
		c-0.035-0.181-0.104-0.352-0.205-0.51c-0.036-0.183-0.104-0.354-0.207-0.515c-0.036-0.183-0.106-0.354-0.208-0.514
		c-0.036-0.182-0.105-0.354-0.207-0.512c-0.036-0.184-0.104-0.354-0.208-0.514c-0.036-0.182-0.104-0.354-0.207-0.512
		c-0.036-0.183-0.105-0.354-0.208-0.515c-0.036-0.183-0.104-0.353-0.206-0.51c-0.036-0.185-0.104-0.354-0.208-0.515
		c-0.036-0.183-0.104-0.354-0.207-0.513c-0.036-0.182-0.104-0.354-0.207-0.513c-0.036-0.184-0.104-0.354-0.208-0.514
		c-0.036-0.183-0.104-0.354-0.207-0.513c-0.036-0.182-0.104-0.354-0.208-0.514c-0.035-0.183-0.104-0.353-0.206-0.511
		c-0.036-0.184-0.104-0.354-0.208-0.514c-0.035-0.182-0.104-0.354-0.207-0.512c-0.034-0.182-0.104-0.354-0.208-0.514
		c-0.035-0.182-0.104-0.354-0.206-0.512c-0.036-0.183-0.106-0.354-0.209-0.513c-0.034-0.182-0.104-0.354-0.207-0.512
		c-0.034-0.182-0.104-0.354-0.207-0.513c-0.034-0.183-0.104-0.354-0.206-0.514c-0.035-0.181-0.104-0.354-0.207-0.512
		c-0.035-0.182-0.104-0.354-0.207-0.514c-0.037-0.182-0.105-0.354-0.207-0.511c-0.037-0.184-0.105-0.354-0.209-0.514
		c-0.035-0.182-0.104-0.354-0.207-0.512c-0.035-0.182-0.104-0.354-0.207-0.514c-0.037-0.182-0.105-0.353-0.207-0.511
		c-0.035-0.182-0.104-0.354-0.207-0.514c-0.035-0.182-0.105-0.354-0.207-0.514c-0.037-0.182-0.105-0.354-0.207-0.512
		c-0.037-0.183-0.106-0.354-0.209-0.513c-0.035-0.182-0.104-0.354-0.207-0.512c-0.035-0.182-0.105-0.354-0.207-0.514
		c-0.037-0.182-0.105-0.353-0.207-0.511c-0.035-0.183-0.104-0.354-0.207-0.514c-0.036-0.183-0.105-0.354-0.207-0.512
		c-0.036-0.183-0.105-0.354-0.207-0.514c-0.036-0.183-0.105-0.354-0.209-0.513c-0.035-0.182-0.104-0.354-0.207-0.512
		c-0.035-0.182-0.104-0.354-0.207-0.514c-0.036-0.182-0.105-0.353-0.206-0.511c-0.036-0.183-0.104-0.354-0.208-0.514
		c-0.036-0.183-0.105-0.354-0.207-0.512c-0.036-0.183-0.105-0.354-0.208-0.515c-0.036-0.181-0.104-0.353-0.207-0.511
		c-0.036-0.182-0.104-0.354-0.207-0.513c-0.036-0.183-0.106-0.354-0.208-0.515c-0.035-0.181-0.105-0.352-0.206-0.51
		c-0.036-0.183-0.104-0.354-0.208-0.514c-0.035-0.183-0.105-0.354-0.207-0.513c-0.035-0.182-0.105-0.354-0.207-0.514
		c-0.037-0.181-0.105-0.353-0.207-0.511c-0.037-0.183-0.105-0.354-0.209-0.513c-0.035-0.183-0.104-0.354-0.207-0.513
		c-0.035-0.182-0.104-0.354-0.207-0.514c-0.037-0.181-0.105-0.353-0.207-0.51c-0.035-0.183-0.104-0.354-0.207-0.515
		c-0.035-0.182-0.105-0.354-0.207-0.514c-0.045-0.226-0.136-0.441-0.281-0.629c-0.246-0.315-0.6-0.518-0.996-0.566
		c-0.063-0.008-0.129-0.012-0.191-0.012c-0.491,0-0.915,0.254-1.188,0.629c-0.025-0.05-0.056-0.096-0.084-0.142
		c-0.037-0.186-0.106-0.356-0.207-0.513c-0.037-0.185-0.107-0.356-0.207-0.513c-0.037-0.185-0.107-0.356-0.207-0.513
		c-0.037-0.186-0.107-0.355-0.207-0.512c-0.039-0.186-0.108-0.357-0.209-0.514c-0.037-0.185-0.106-0.354-0.205-0.51
		c-0.037-0.187-0.107-0.358-0.209-0.515c-0.037-0.186-0.105-0.356-0.207-0.512c-0.037-0.186-0.107-0.357-0.207-0.514
		c-0.039-0.185-0.107-0.355-0.207-0.512c-0.038-0.185-0.107-0.356-0.207-0.513c-0.038-0.187-0.107-0.357-0.209-0.513
		c-0.036-0.186-0.105-0.355-0.205-0.511c-0.037-0.187-0.107-0.358-0.208-0.515c-0.037-0.185-0.106-0.356-0.207-0.512
		c-0.038-0.186-0.108-0.357-0.208-0.513c-0.037-0.186-0.107-0.356-0.207-0.513c-0.037-0.185-0.107-0.356-0.208-0.513
		c-0.036-0.186-0.106-0.355-0.207-0.512c-0.038-0.186-0.108-0.357-0.208-0.514c-0.037-0.185-0.107-0.354-0.205-0.51
		c-0.037-0.186-0.107-0.358-0.207-0.515c-0.039-0.186-0.109-0.357-0.209-0.513c-0.127-0.629-0.643-1.131-1.307-1.197
		c-0.051-0.005-0.103-0.007-0.15-0.007c-0.777,0-1.42,0.58-1.5,1.349l-2.468,24.684l-2.948,5.16
		c-0.029-0.066-0.061-0.134-0.095-0.196c-0.052-0.183-0.12-0.354-0.208-0.515c-0.053-0.181-0.119-0.352-0.207-0.511
		c-0.053-0.181-0.119-0.353-0.207-0.513c-0.053-0.183-0.119-0.354-0.208-0.515c-0.052-0.18-0.118-0.35-0.206-0.509
		c-0.053-0.182-0.119-0.354-0.207-0.516c-0.053-0.182-0.119-0.353-0.207-0.512c-0.053-0.182-0.121-0.354-0.209-0.514
		c-0.053-0.181-0.119-0.352-0.207-0.511c-0.053-0.183-0.119-0.354-0.207-0.515c-0.053-0.181-0.119-0.352-0.207-0.511
		c-0.053-0.182-0.121-0.354-0.209-0.514c-0.051-0.181-0.119-0.351-0.205-0.509c-0.053-0.183-0.119-0.354-0.209-0.516
		c-0.052-0.182-0.119-0.354-0.207-0.514c-0.34-1.184-1.498-1.97-2.756-1.785c-1.041,0.154-1.838,0.932-2.066,1.893
		c-0.373,0.476-1.338,1.368-2.461,2.305c-1.486-1.06-3.236-1.684-5.16-1.723c-0.278,0.006-0.551,0.03-0.821,0.064
		c-0.223,0.023-0.441,0.062-0.659,0.103c-0.003,0-0.006,0.001-0.009,0.001l0,0c-1.307,0.247-2.515,0.773-3.586,1.54
		c-1.091-0.909-2.019-1.77-2.408-2.25c-0.021-0.045-0.042-0.09-0.065-0.134c-0.258-0.916-1.03-1.649-2.038-1.799
		c-1.114-0.163-2.144,0.435-2.604,1.391c-0.033-0.074-0.075-0.138-0.118-0.205c-0.039-0.188-0.108-0.358-0.208-0.513
		c-0.039-0.188-0.107-0.358-0.207-0.511c-0.039-0.189-0.108-0.36-0.207-0.514c-0.039-0.188-0.107-0.359-0.207-0.513
		c-0.039-0.188-0.108-0.358-0.207-0.512c-0.039-0.188-0.108-0.36-0.208-0.514c-0.039-0.188-0.107-0.358-0.207-0.513
		c-0.039-0.188-0.108-0.358-0.208-0.513c-0.039-0.188-0.107-0.358-0.207-0.511c-0.039-0.188-0.108-0.36-0.208-0.514
		c-0.039-0.188-0.107-0.357-0.206-0.511c-0.039-0.189-0.108-0.36-0.208-0.514c-0.039-0.189-0.108-0.36-0.208-0.515
		c-0.039-0.188-0.107-0.357-0.207-0.512c-0.039-0.188-0.108-0.358-0.208-0.513c-0.039-0.188-0.107-0.358-0.207-0.511
		c-0.039-0.189-0.108-0.36-0.208-0.515c-0.039-0.188-0.107-0.356-0.206-0.51c-0.039-0.189-0.108-0.36-0.208-0.515
		c-0.039-0.188-0.107-0.358-0.207-0.512c-0.039-0.188-0.108-0.359-0.207-0.514c-0.039-0.188-0.108-0.359-0.208-0.513
		c-0.039-0.188-0.107-0.358-0.207-0.511c-0.039-0.189-0.108-0.36-0.208-0.515c-0.039-0.188-0.107-0.356-0.206-0.51
		c-0.039-0.19-0.108-0.361-0.208-0.515c-0.039-0.188-0.107-0.358-0.207-0.512c-0.039-0.188-0.108-0.359-0.208-0.514
		c-0.039-0.188-0.107-0.358-0.207-0.512c-0.039-0.188-0.108-0.359-0.207-0.512c-0.039-0.189-0.108-0.36-0.208-0.515
		c-0.039-0.188-0.107-0.356-0.206-0.51c-0.039-0.19-0.108-0.361-0.208-0.515c-0.039-0.188-0.107-0.358-0.207-0.512
		c-0.039-0.188-0.108-0.359-0.208-0.514c-0.039-0.188-0.107-0.358-0.207-0.512c-0.039-0.189-0.108-0.359-0.208-0.514
		c-0.039-0.188-0.107-0.357-0.207-0.511c-0.039-0.188-0.108-0.36-0.208-0.514c-0.039-0.188-0.107-0.357-0.206-0.511
		c-0.039-0.189-0.108-0.36-0.208-0.514c-0.039-0.188-0.108-0.359-0.208-0.514c-0.144-0.696-0.72-1.194-1.454-1.194
		c-0.05,0-0.101,0.002-0.143,0.006c-0.823,0.083-1.426,0.819-1.344,1.643l2.5,25.002c0.02,0.206,0.086,0.411,0.19,0.594l0.053,0.093
		c0.033,0.146,0.08,0.288,0.154,0.419l0.053,0.092c0.032,0.146,0.08,0.29,0.154,0.421l0.052,0.092
		c0.033,0.146,0.08,0.291,0.155,0.422l0.053,0.093c0.033,0.146,0.08,0.288,0.154,0.419l0.053,0.092
		c0.032,0.146,0.08,0.29,0.154,0.421l0.053,0.094c0.033,0.146,0.08,0.288,0.154,0.419l0.053,0.092
		c0.032,0.146,0.08,0.29,0.154,0.421l0.053,0.093c0.033,0.146,0.08,0.288,0.154,0.419l0.053,0.093
		c0.032,0.146,0.08,0.289,0.154,0.421l0.053,0.093c0.033,0.146,0.08,0.289,0.154,0.419l0.052,0.091
		c0.033,0.146,0.08,0.291,0.155,0.422l0.053,0.093c0.033,0.146,0.08,0.288,0.154,0.419l0.053,0.093
		c0.032,0.146,0.08,0.29,0.154,0.421l0.053,0.092c0.032,0.146,0.08,0.29,0.154,0.421l0.053,0.093
		c0.033,0.146,0.08,0.288,0.154,0.419l0.053,0.093c0.032,0.146,0.08,0.29,0.154,0.421l0.053,0.093
		c0.033,0.146,0.08,0.289,0.154,0.419l0.052,0.091c0.033,0.146,0.08,0.291,0.155,0.422l0.053,0.094
		c0.033,0.146,0.08,0.287,0.154,0.418l0.053,0.093c0.032,0.146,0.08,0.29,0.154,0.42l0.053,0.094
		c0.033,0.146,0.08,0.289,0.154,0.418l0.053,0.093c0.022,0.101,0.054,0.194,0.096,0.289l-2.279-1.302
		c-0.039-0.113-0.082-0.22-0.145-0.318c-0.038-0.187-0.107-0.355-0.207-0.511c-0.038-0.188-0.108-0.357-0.208-0.513
		c-0.038-0.188-0.107-0.357-0.207-0.512c-0.038-0.188-0.108-0.358-0.208-0.515c-0.038-0.188-0.107-0.355-0.207-0.511
		c-0.038-0.188-0.107-0.358-0.207-0.513c-0.038-0.188-0.107-0.357-0.207-0.512c-0.038-0.188-0.108-0.358-0.207-0.514
		c-0.038-0.188-0.108-0.357-0.208-0.513c-0.038-0.188-0.107-0.357-0.207-0.512c-0.038-0.188-0.108-0.358-0.208-0.515
		c-0.038-0.187-0.107-0.355-0.207-0.511c-0.038-0.188-0.108-0.358-0.208-0.513c-0.038-0.188-0.107-0.356-0.206-0.511
		c-0.038-0.188-0.108-0.358-0.208-0.515c-0.038-0.188-0.108-0.357-0.208-0.513c-0.038-0.188-0.107-0.357-0.207-0.512
		c-0.038-0.188-0.108-0.358-0.208-0.515c-0.038-0.187-0.107-0.355-0.207-0.511c-0.038-0.188-0.108-0.358-0.208-0.513
		c-0.038-0.188-0.107-0.356-0.206-0.511c-0.038-0.188-0.108-0.359-0.208-0.516c-0.038-0.187-0.107-0.355-0.207-0.511
		c-0.038-0.188-0.107-0.358-0.207-0.513c-0.038-0.188-0.108-0.358-0.208-0.515c-0.038-0.187-0.107-0.354-0.207-0.511
		c-0.038-0.188-0.108-0.358-0.208-0.513c-0.038-0.188-0.107-0.356-0.206-0.511c-0.038-0.188-0.108-0.359-0.208-0.516
		c-0.038-0.187-0.107-0.355-0.207-0.511c-0.038-0.188-0.108-0.358-0.208-0.513c-0.038-0.188-0.107-0.357-0.207-0.513
		c-0.038-0.188-0.107-0.357-0.207-0.513c-0.038-0.188-0.108-0.357-0.208-0.513c-0.038-0.188-0.107-0.355-0.206-0.511
		c-0.038-0.188-0.108-0.359-0.208-0.516c-0.038-0.187-0.107-0.355-0.207-0.511c-0.038-0.188-0.108-0.357-0.208-0.513
		c-0.038-0.188-0.107-0.357-0.207-0.512c-0.038-0.188-0.108-0.358-0.208-0.515c-0.038-0.187-0.107-0.355-0.207-0.511
		c-0.038-0.188-0.108-0.358-0.208-0.513c-0.038-0.188-0.107-0.356-0.206-0.512c-0.038-0.188-0.108-0.357-0.208-0.514
		c-0.038-0.188-0.108-0.357-0.208-0.513c-0.139-0.694-0.737-1.211-1.453-1.211c-0.063,0-0.126,0.004-0.189,0.012
		c-0.397,0.05-0.751,0.251-0.997,0.566s-0.354,0.709-0.305,1.105l2.5,20c0.029,0.232,0.113,0.452,0.239,0.644
		c0.04,0.183,0.105,0.356,0.207,0.511c0.04,0.183,0.105,0.356,0.206,0.511c0.04,0.186,0.105,0.36,0.208,0.516
		c0.04,0.184,0.105,0.357,0.207,0.512c0.04,0.184,0.105,0.357,0.208,0.514c0.04,0.184,0.105,0.357,0.207,0.512
		c0.04,0.185,0.105,0.359,0.208,0.515c0.04,0.183,0.105,0.356,0.207,0.511c0.04,0.185,0.105,0.358,0.208,0.514
		c0.04,0.184,0.104,0.355,0.206,0.51c0.04,0.186,0.105,0.359,0.208,0.518c0.04,0.182,0.105,0.355,0.207,0.51
		c0.04,0.185,0.105,0.358,0.207,0.514c0.04,0.186,0.105,0.359,0.208,0.515c0.039,0.179,0.103,0.351,0.202,0.501h-1.85
		c-0.4,0-0.777,0.155-1.061,0.438l-10,10c-0.506,0.507-0.547,1.274-0.176,1.854c0.035,0.183,0.104,0.351,0.207,0.513
		c0.035,0.182,0.104,0.351,0.207,0.512c0.035,0.184,0.104,0.354,0.208,0.515c0.035,0.183,0.104,0.351,0.207,0.513
		c0.035,0.183,0.104,0.352,0.208,0.513c0.035,0.183,0.104,0.351,0.207,0.512c0.035,0.185,0.104,0.353,0.208,0.515
		c0.035,0.183,0.104,0.351,0.207,0.512c0.035,0.183,0.104,0.352,0.208,0.513c0.035,0.183,0.104,0.351,0.206,0.511
		c0.035,0.184,0.104,0.354,0.208,0.516c0.035,0.183,0.104,0.351,0.207,0.512c0.035,0.184,0.104,0.352,0.207,0.513
		c0.035,0.185,0.104,0.354,0.208,0.513c0.035,0.185,0.104,0.353,0.207,0.514c0.035,0.183,0.104,0.352,0.208,0.513
		c0.035,0.183,0.104,0.351,0.206,0.511c0.035,0.185,0.104,0.354,0.208,0.516c0.035,0.183,0.104,0.351,0.207,0.512
		c0.035,0.184,0.104,0.352,0.208,0.514c0.035,0.183,0.104,0.351,0.207,0.512c0.035,0.184,0.104,0.353,0.207,0.514
		c0.035,0.184,0.104,0.352,0.208,0.514c0.035,0.182,0.104,0.35,0.206,0.51c0.035,0.184,0.104,0.354,0.208,0.516
		c0.035,0.184,0.104,0.352,0.207,0.512c0.035,0.184,0.104,0.352,0.208,0.514c0.023,0.119,0.046,0.236,0.099,0.35l-0.829,1.936
		c-0.203,0.474-0.142,0.994,0.119,1.398c0.037,0.184,0.106,0.354,0.206,0.512c0.037,0.182,0.106,0.354,0.206,0.512
		c0.037,0.183,0.107,0.356,0.208,0.516c0.038,0.184,0.107,0.354,0.207,0.512c0.037,0.184,0.107,0.356,0.208,0.514
		c0.038,0.183,0.107,0.354,0.207,0.512c0.037,0.183,0.107,0.357,0.208,0.515c0.038,0.183,0.107,0.354,0.207,0.511
		c0.037,0.184,0.107,0.356,0.208,0.515c0.037,0.181,0.106,0.354,0.206,0.509c0.037,0.184,0.107,0.357,0.208,0.518
		c0.037,0.182,0.106,0.354,0.206,0.51c0.037,0.183,0.107,0.355,0.207,0.514c0.037,0.184,0.107,0.357,0.208,0.516
		c0.037,0.182,0.106,0.354,0.206,0.51c0.037,0.184,0.107,0.356,0.208,0.515c0.037,0.183,0.106,0.354,0.205,0.509
		c0.037,0.184,0.107,0.358,0.208,0.518c0.038,0.182,0.107,0.354,0.207,0.511c0.037,0.184,0.107,0.356,0.208,0.514
		c0.038,0.183,0.107,0.354,0.207,0.513c0.037,0.182,0.107,0.354,0.207,0.513c0.037,0.183,0.107,0.356,0.208,0.514
		c0.037,0.183,0.106,0.354,0.206,0.511c0.037,0.183,0.107,0.356,0.208,0.516c0.037,0.182,0.106,0.354,0.206,0.511
		c0.037,0.185,0.107,0.356,0.208,0.515c0.037,0.183,0.106,0.354,0.206,0.512c0.037,0.183,0.107,0.356,0.208,0.514
		c0.037,0.184,0.106,0.354,0.206,0.512c0.037,0.182,0.106,0.354,0.206,0.512c0.037,0.183,0.107,0.356,0.208,0.516
		c0.038,0.184,0.107,0.354,0.207,0.511c0.037,0.185,0.107,0.357,0.208,0.515c0.038,0.183,0.107,0.354,0.207,0.512
		c0.037,0.183,0.107,0.357,0.208,0.514c0.038,0.184,0.107,0.354,0.207,0.512c0.037,0.183,0.106,0.354,0.207,0.512
		c0.037,0.183,0.107,0.355,0.207,0.514c0.037,0.184,0.107,0.355,0.207,0.514c0.037,0.184,0.107,0.356,0.208,0.514
		c0.037,0.183,0.106,0.354,0.206,0.512c0.037,0.184,0.107,0.357,0.208,0.514c0.037,0.184,0.106,0.354,0.206,0.512
		c0.037,0.184,0.107,0.356,0.208,0.515c0.025,0.124,0.086,0.235,0.141,0.349c7.496,3.081,15.699,4.791,24.306,4.791
		C86.93,128,107.033,115.934,118.334,97.813z"/>
	<g>
		<path fill="#242424" d="M58.998,59c-0.522,0-1.052-0.164-1.501-0.504c-6.35-4.783-6.121-6.332-5.969-7.361
			c0.2-1.363,1.462-2.311,2.837-2.108c1.042,0.153,1.838,0.932,2.068,1.893c0.544,0.693,2.339,2.277,4.072,3.584
			c1.104,0.83,1.323,2.397,0.493,3.502C60.504,58.658,59.757,59,58.998,59z"/>
		<path fill="#242424" d="M31.5,100.5c-0.205,0-0.401-0.041-0.586-0.12c-0.764-0.328-1.118-1.212-0.792-1.972l7.5-17.501
			c0.115-0.269,0.303-0.493,0.545-0.654L49.046,73H37.121l-9.561,9.561C27.276,82.844,26.9,83,26.499,83s-0.777-0.156-1.061-0.439
			c-0.584-0.584-0.584-1.535,0-2.121l10-10c0.284-0.281,0.66-0.438,1.061-0.438h11.853l-12.597-7.198
			c-0.408-0.232-0.686-0.649-0.744-1.117l-2.5-20c-0.049-0.396,0.059-0.789,0.305-1.105c0.246-0.314,0.6-0.517,0.997-0.566
			c0.063-0.008,0.126-0.012,0.189-0.012c0.753,0,1.392,0.564,1.486,1.313l2.408,19.256l12.072,6.896l-7.271-12.724
			c-0.104-0.183-0.17-0.388-0.19-0.594l-2.5-25.002c-0.082-0.822,0.521-1.56,1.344-1.643c0.042-0.004,0.093-0.006,0.143-0.006
			c0.791,0,1.421,0.566,1.499,1.349l2.468,24.684l9.816,17.182l0.122,0.243l0.083,0.3l0.017,0.257l-0.031,0.281l-0.086,0.282
			l-0.076,0.151l-0.063,0.104l-0.149,0.18l-0.029,0.041l-0.028,0.023h-0.058l-0.226,0.223l-14.551,9.698l-7.324,17.094
			C32.642,100.145,32.102,100.5,31.5,100.5z"/>
		<path fill="#242424" d="M96.5,100.5c-0.602,0-1.143-0.355-1.378-0.907l-7.324-17.094l-14.55-9.697l-0.225-0.222h-0.058
			l-0.212-0.249l-0.137-0.255l-0.086-0.285l-0.029-0.32l0.033-0.295l0.092-0.285l0.08-0.143l0.018-0.039l9.813-17.177l2.468-24.684
			c0.078-0.769,0.725-1.349,1.5-1.349c0.051,0,0.102,0.002,0.148,0.007c0.816,0.082,1.42,0.818,1.338,1.642l-2.5,25
			c-0.021,0.207-0.088,0.412-0.189,0.595l-7.271,12.725l12.072-6.897l2.408-19.256c0.094-0.75,0.73-1.313,1.483-1.313
			c0.063,0,0.127,0.004,0.19,0.012c0.396,0.05,0.75,0.251,0.996,0.566s0.354,0.709,0.305,1.105l-2.5,20
			c-0.059,0.468-0.336,0.885-0.742,1.117L79.648,70h11.853c0.399,0,0.776,0.156,1.062,0.438l10,10c0.584,0.586,0.584,1.537,0,2.121
			c-0.285,0.283-0.66,0.439-1.062,0.439s-0.776-0.156-1.062-0.439l-9.562-9.561H78.954l10.878,7.252
			c0.243,0.162,0.432,0.389,0.546,0.655l7.5,17.499c0.326,0.762-0.028,1.646-0.789,1.972C96.9,100.459,96.705,100.5,96.5,100.5z"/>
		<path fill="#242424" d="M69.002,59c-0.759,0-1.506-0.342-2-0.996c-0.83-1.104-0.609-2.672,0.493-3.502
			c1.733-1.307,3.528-2.891,4.071-3.584c0.229-0.961,1.024-1.738,2.067-1.893c1.372-0.201,2.638,0.746,2.839,2.108
			c0.149,1.029,0.381,2.578-5.971,7.361C70.055,58.836,69.525,59,69.002,59z"/>
		<path fill="#992B1F" d="M64,99c-0.034,0-0.068,0-0.105-0.004c-4.226-0.176-7.969-2.281-10.542-5.93
			c-3.14-4.453-4.226-10.752-2.7-15.668c1.35-6.035,2.224-9.414,3.347-11.561V64c-0.049-7.002,4.229-12.383,9.949-12.5
			C69.768,51.617,74.044,56.998,74,64.014v1.808c1.531,2.781,2.271,6.365,2.93,9.561c0.156,0.754,0.312,1.496,0.469,2.209
			c1.477,4.727,0.393,11.021-2.748,15.479c-2.572,3.646-6.317,5.934-10.543,5.934C64.068,99,64.034,99,64,99z"/>
		<path fill="#8C271C" d="M77.398,77.59c-0.16-0.713-0.313-1.455-0.469-2.209c-0.66-3.193-1.4-6.777-2.932-9.561v-1.808
			c0.044-7.016-4.232-12.396-10.051-12.514c-0.51,0.011-1.003,0.077-1.488,0.168c5.029,0.936,8.58,5.955,8.54,12.346v1.808
			c1.53,2.781,2.271,6.365,2.931,9.561c0.155,0.754,0.311,1.496,0.469,2.209c1.476,4.725,0.392,11.021-2.748,15.477
			c-2.237,3.174-5.36,5.311-8.916,5.814c0.384,0.049,0.767,0.1,1.16,0.115C63.933,99,63.967,99,64.001,99s0.068,0,0.105,0
			c4.226,0,7.971-2.285,10.544-5.934C77.789,88.611,78.873,82.314,77.398,77.59z"/>
		<path fill="#E78244" d="M63.949,69c3.744,0,7.205-1.188,10.051-3.189v-1.796c0.044-7.016-4.232-12.396-10.051-12.514
			C58.229,51.617,53.951,56.998,54,64v1.84c-0.005,0.01-0.012,0.025-0.017,0.035C56.812,67.84,60.243,69,63.949,69z"/>
		<path fill="#D97A40" d="M62.469,51.667c-0.003,0-0.005,0.001-0.008,0.001C67.49,52.605,71.04,57.623,71,64.014v1.808
			c0.241,0.438,0.457,0.9,0.661,1.376c0.817-0.403,1.601-0.866,2.339-1.388v-1.796c0.044-7.016-4.232-12.396-10.051-12.514
			c-0.278,0.006-0.55,0.034-0.821,0.063C62.906,51.592,62.687,51.626,62.469,51.667z"/>
		<g>
			<circle fill="#242424" cx="57.96" cy="59" r="1"/>
			<circle fill="#242424" cx="70.023" cy="59" r="1"/>
		</g>
		<g>
			<circle fill="#242424" cx="61.304" cy="56.25" r="2"/>
			<circle fill="#242424" cx="66.68" cy="56.25" r="2"/>
		</g>
		<path fill="#E6E6E6" d="M66.967,82.042h-1.958v-1.458c0-0.553-0.446-1-1-1c-0.552,0-1,0.447-1,1v1.458h-1.958
			c-0.553,0-1,0.447-1,1c0,0.552,0.447,1,1,1h1.958v5.459c0,0.554,0.448,1,1,1c0.554,0,1-0.446,1-1v-5.459h1.958
			c0.553,0,1-0.448,1-1C67.967,82.489,67.52,82.042,66.967,82.042z"/>
	</g>
</g>
</svg>
