<?xml version="1.0" encoding="utf-8"?>
<!-- Generator: Adobe Illustrator 15.1.0, SVG Export Plug-In . SVG Version: 6.00 Build 0)  -->
<!DOCTYPE svg PUBLIC "-//W3C//DTD SVG 1.1//EN" "http://www.w3.org/Graphics/SVG/1.1/DTD/svg11.dtd">
<svg version="1.1" id="Layer_1" xmlns="http://www.w3.org/2000/svg" xmlns:xlink="http://www.w3.org/1999/xlink" x="0px" y="0px"
	 width="128px" height="128px" viewBox="0 0 128 128" enable-background="new 0 0 128 128" xml:space="preserve">
<g>
	<circle fill="#4AB8A1" cx="64" cy="64" r="64"/>
	<path fill="#43A691" d="M122.596,91.027c-0.018,0.005-0.035,0.008-0.053,0.01c-0.007-0.219-0.014-0.434-0.021-0.648
		c-0.076,0.008-0.149,0.026-0.228,0.035c-0.007-0.217-0.013-0.432-0.021-0.648c-0.078,0.008-0.151,0.025-0.229,0.035
		c-0.007-0.218-0.013-0.434-0.021-0.648c-0.076,0.007-0.151,0.025-0.229,0.035c-0.007-0.219-0.013-0.434-0.021-0.649
		c-0.075,0.007-0.15,0.026-0.229,0.035c-0.007-0.217-0.013-0.433-0.021-0.647c-0.075,0.006-0.15,0.025-0.229,0.035
		c-0.007-0.218-0.013-0.434-0.021-0.648c-0.074,0.007-0.149,0.025-0.228,0.033c-0.007-0.217-0.013-0.432-0.021-0.647
		c-0.076,0.007-0.151,0.024-0.229,0.035c-0.007-0.218-0.013-0.435-0.021-0.649c-0.075,0.008-0.15,0.026-0.229,0.035
		c-0.007-0.217-0.013-0.432-0.021-0.646c-0.075,0.007-0.15,0.024-0.229,0.033c-0.007-0.217-0.013-0.432-0.021-0.647
		c-0.075,0.007-0.15,0.024-0.228,0.034c-0.008-0.217-0.014-0.434-0.021-0.648c-0.076,0.007-0.151,0.026-0.229,0.035
		c-0.007-0.217-0.013-0.432-0.021-0.648c-0.076,0.006-0.151,0.025-0.229,0.034c-0.008-0.217-0.014-0.433-0.021-0.649
		c-0.075,0.009-0.15,0.026-0.229,0.035c-0.007-0.217-0.013-0.432-0.021-0.646c-0.075,0.007-0.15,0.025-0.228,0.035
		c-0.008-0.219-0.014-0.434-0.021-0.649c-0.076,0.007-0.15,0.026-0.229,0.035c-0.006-0.217-0.013-0.433-0.021-0.649
		c-0.076,0.008-0.151,0.026-0.229,0.035c-0.008-0.217-0.014-0.432-0.021-0.647c-0.075,0.007-0.149,0.024-0.229,0.034
		c-0.006-0.217-0.013-0.433-0.021-0.647c-0.075,0.007-0.15,0.026-0.228,0.035c-0.008-0.218-0.014-0.433-0.021-0.649
		c-0.076,0.008-0.15,0.026-0.229,0.035c-0.006-0.217-0.012-0.432-0.021-0.648c-0.075,0.008-0.151,0.025-0.229,0.035
		c-0.008-0.218-0.014-0.434-0.021-0.648c-0.076,0.007-0.15,0.025-0.229,0.035c-0.006-0.219-0.012-0.434-0.021-0.648
		c-0.075,0.008-0.151,0.026-0.228,0.035c-0.009-0.217-0.015-0.432-0.021-0.648c-0.076,0.008-0.15,0.025-0.229,0.034
		c-0.007-0.217-0.013-0.433-0.021-0.647c-0.075,0.007-0.151,0.025-0.229,0.035c-0.008-0.219-0.014-0.434-0.021-0.649
		c-0.076,0.007-0.15,0.026-0.228,0.035c-0.008-0.218-0.014-0.433-0.021-0.648c-0.076,0.007-0.152,0.026-0.229,0.035
		c-0.009-0.217-0.015-0.433-0.021-0.649c-0.076,0.008-0.15,0.026-0.229,0.035c-0.007-0.217-0.013-0.432-0.021-0.647
		c-0.076,0.007-0.152,0.024-0.229,0.034c-0.007-0.217-0.013-0.434-0.021-0.648c-0.076,0.007-0.152,0.025-0.229,0.035
		c-0.008-0.217-0.014-0.434-0.021-0.648c-0.076,0.006-0.15,0.025-0.228,0.034c-0.008-0.217-0.014-0.432-0.021-0.647
		c-0.076,0.008-0.151,0.025-0.229,0.035c-0.008-0.218-0.015-0.434-0.021-0.648c-0.076,0.007-0.15,0.025-0.229,0.035
		c-0.007-0.217-0.013-0.434-0.021-0.649c-0.076,0.007-0.151,0.026-0.229,0.035c-0.007-0.217-0.014-0.433-0.021-0.649
		c-0.076,0.008-0.149,0.026-0.228,0.035c-0.008-0.217-0.014-0.432-0.021-0.646c-0.076,0.007-0.15,0.025-0.229,0.035
		c-0.008-0.219-0.014-0.434-0.021-0.649c-0.076,0.007-0.15,0.026-0.229,0.035c-0.006-0.218-0.013-0.435-0.021-0.649
		c-0.076,0.008-0.151,0.026-0.229,0.035c-0.006-0.217-0.013-0.432-0.021-0.648c-0.075,0.008-0.149,0.025-0.228,0.035
		c-0.008-0.218-0.014-0.433-0.021-0.647c-0.076,0.007-0.15,0.026-0.229,0.034c-0.008-0.217-0.014-0.434-0.021-0.648
		c-0.075,0.008-0.15,0.026-0.229,0.035c-0.006-0.217-0.013-0.432-0.021-0.648c-0.076,0.006-0.151,0.025-0.229,0.034
		c-0.006-0.217-0.013-0.433-0.021-0.647c-0.076,0.007-0.151,0.024-0.228,0.033c-0.008-0.217-0.015-0.432-0.021-0.647
		c-0.076,0.007-0.15,0.024-0.229,0.035c-0.008-0.217-0.014-0.433-0.021-0.648c-0.076,0.007-0.15,0.026-0.229,0.035
		c-0.008-0.217-0.014-0.433-0.021-0.648c-0.076,0.007-0.151,0.025-0.229,0.034c-0.006-0.217-0.013-0.432-0.021-0.648
		c-0.076,0.007-0.151,0.025-0.228,0.035c-0.008-0.218-0.015-0.434-0.021-0.649c-0.076,0.007-0.15,0.026-0.229,0.035
		c-0.008-0.217-0.014-0.432-0.021-0.648c-0.076,0.008-0.15,0.026-0.229,0.035c-0.008-0.217-0.014-0.432-0.021-0.648
		c-0.075,0.007-0.149,0.025-0.229,0.035c-0.006-0.218-0.012-0.434-0.021-0.649c-0.075,0.007-0.151,0.026-0.228,0.035
		c-0.008-0.218-0.014-0.433-0.021-0.649c-0.076,0.007-0.15,0.026-0.229,0.035c-0.006-0.217-0.014-0.432-0.021-0.648
		c-0.076,0.008-0.15,0.026-0.229,0.035c-0.008-0.217-0.014-0.433-0.021-0.648c-0.077,0.007-0.149,0.025-0.229,0.035
		c-0.008-0.218-0.014-0.433-0.021-0.649c-0.075,0.007-0.149,0.026-0.229,0.035c-0.006-0.217-0.012-0.433-0.021-0.649
		c-0.075,0.007-0.151,0.026-0.228,0.035c-0.008-0.217-0.014-0.432-0.021-0.648c-0.076,0.007-0.15,0.025-0.229,0.034
		c-0.006-0.217-0.012-0.432-0.021-0.647c-0.074,0.007-0.15,0.025-0.229,0.035c-0.008-0.217-0.014-0.434-0.021-0.649
		c-0.075,0.007-0.149,0.026-0.229,0.035c-0.006-0.217-0.012-0.432-0.021-0.649c-0.075,0.008-0.151,0.026-0.228,0.035
		c-0.008-0.217-0.014-0.433-0.021-0.648c-0.076,0.007-0.15,0.025-0.229,0.035c-0.006-0.218-0.012-0.433-0.021-0.648
		c-0.074,0.007-0.15,0.026-0.229,0.035c-0.008-0.217-0.014-0.432-0.021-0.649c-0.075,0.007-0.149,0.026-0.229,0.035
		c-0.006-0.217-0.012-0.433-0.021-0.649c-0.075,0.008-0.151,0.026-0.228,0.035c-0.008-0.217-0.014-0.432-0.021-0.648
		c-0.076,0.007-0.15,0.025-0.228,0.035c-0.007-0.218-0.013-0.433-0.021-0.648c-0.076,0.007-0.152,0.026-0.229,0.035
		c-0.009-0.217-0.015-0.433-0.021-0.649c-0.076,0.007-0.15,0.026-0.229,0.035c-0.008-0.217-0.014-0.432-0.021-0.648
		c-0.076,0.007-0.152,0.025-0.229,0.034c-0.008-0.217-0.014-0.433-0.021-0.648c-0.076,0.007-0.15,0.025-0.228,0.035
		c-0.007-0.217-0.013-0.433-0.021-0.649c-0.076,0.007-0.152,0.026-0.229,0.035c-0.009-0.217-0.015-0.432-0.021-0.647
		c-0.076,0.007-0.15,0.025-0.229,0.034c-0.008-0.217-0.014-0.433-0.021-0.647c-0.076,0.007-0.15,0.025-0.229,0.035
		c-0.008-0.218-0.014-0.433-0.021-0.649c-0.076,0.007-0.15,0.026-0.228,0.035c-0.007-0.217-0.013-0.434-0.021-0.649
		c-0.076,0.007-0.152,0.026-0.229,0.035c-0.007-0.217-0.015-0.432-0.021-0.647c-0.076,0.007-0.15,0.025-0.229,0.035
		c-0.008-0.218-0.014-0.433-0.021-0.649c-0.076,0.007-0.15,0.026-0.229,0.035c-0.008-0.218-0.014-0.434-0.021-0.649
		c-0.076,0.007-0.149,0.026-0.228,0.035c-0.007-0.217-0.013-0.432-0.021-0.649c-0.076,0.007-0.151,0.026-0.229,0.035
		c-0.007-0.217-0.013-0.432-0.021-0.647c-0.076,0.007-0.151,0.025-0.229,0.035c-0.007-0.218-0.013-0.434-0.021-0.649
		c-0.076,0.007-0.15,0.026-0.229,0.035c-0.007-0.217-0.014-0.433-0.021-0.649c-0.076,0.007-0.15,0.026-0.229,0.035
		c-0.007-0.217-0.014-0.433-0.021-0.648c-0.074,0.007-0.149,0.025-0.228,0.034c-0.007-0.217-0.013-0.432-0.021-0.648
		c-0.076,0.007-0.151,0.025-0.229,0.035c-0.007-0.218-0.013-0.433-0.021-0.648c-0.076,0.007-0.15,0.026-0.229,0.035
		c-0.007-0.217-0.014-0.433-0.021-0.649c-0.076,0.008-0.15,0.026-0.229,0.035c-0.007-0.217-0.014-0.432-0.021-0.648
		c-0.074,0.007-0.149,0.025-0.228,0.035c-0.007-0.218-0.013-0.434-0.021-0.649c-0.076,0.007-0.151,0.026-0.229,0.035
		c-0.007-0.218-0.013-0.433-0.021-0.648c-0.076,0.007-0.151,0.026-0.229,0.035c-0.008-0.217-0.014-0.432-0.021-0.649
		c-0.076,0.008-0.15,0.026-0.229,0.035c-0.007-0.217-0.014-0.433-0.021-0.647c-0.076,0.007-0.15,0.025-0.228,0.035
		c-0.008-0.218-0.015-0.433-0.021-0.649c-0.076,0.007-0.151,0.026-0.229,0.035c-0.007-0.217-0.013-0.433-0.021-0.648
		c-0.076,0.007-0.151,0.026-0.229,0.035c-0.008-0.217-0.014-0.433-0.021-0.648c-0.075,0.007-0.149,0.025-0.229,0.034
		c-0.007-0.217-0.013-0.432-0.021-0.648c-0.075,0.007-0.15,0.025-0.228,0.035c-0.008-0.217-0.014-0.434-0.021-0.649
		c-0.076,0.007-0.15,0.026-0.229,0.035c-0.006-0.217-0.013-0.432-0.021-0.649c-0.076,0.008-0.151,0.026-0.229,0.035
		c-0.008-0.217-0.014-0.432-0.021-0.647c-0.075,0.007-0.149,0.025-0.229,0.035c-0.006-0.218-0.013-0.434-0.021-0.649
		c-0.075,0.007-0.15,0.026-0.228,0.035c-0.008-0.217-0.014-0.432-0.021-0.649c-0.076,0.007-0.15,0.026-0.229,0.035
		c-0.006-0.217-0.013-0.433-0.021-0.649c-0.076,0.008-0.151,0.026-0.229,0.035c-0.008-0.217-0.014-0.432-0.021-0.647
		c-0.075,0.007-0.149,0.026-0.229,0.035c-0.006-0.218-0.012-0.433-0.021-0.649c-0.074,0.007-0.15,0.026-0.228,0.035
		c-0.008-0.217-0.014-0.433-0.021-0.649c-0.076,0.007-0.15,0.026-0.229,0.035c-0.006-0.217-0.012-0.432-0.021-0.648
		c-0.077,0.007-0.151,0.025-0.229,0.034c-0.006-0.216-0.012-0.432-0.021-0.647c-0.075,0.007-0.151,0.026-0.229,0.035
		c-0.008-0.217-0.014-0.433-0.021-0.649c-0.075,0.007-0.149,0.026-0.229,0.035c-0.006-0.217-0.012-0.432-0.021-0.648
		c-0.074,0.007-0.15,0.025-0.228,0.034c-0.008-0.217-0.014-0.433-0.021-0.648c-0.076,0.007-0.15,0.025-0.229,0.035
		c-0.006-0.218-0.012-0.433-0.021-0.648c-0.075,0.007-0.151,0.026-0.229,0.035c-0.008-0.217-0.014-0.432-0.021-0.649
		c-0.076,0.008-0.15,0.026-0.228,0.035c-0.008-0.217-0.014-0.433-0.021-0.648c-0.076,0.007-0.152,0.025-0.229,0.035
		c-0.009-0.218-0.015-0.433-0.021-0.649c-0.076,0.007-0.15,0.026-0.229,0.035c-0.007-0.218-0.013-0.434-0.021-0.649
		c-0.076,0.007-0.152,0.026-0.229,0.035c-0.008-0.217-0.014-0.432-0.021-0.648c-0.076,0.008-0.15,0.026-0.228,0.035
		c-0.008-0.217-0.014-0.432-0.021-0.648c-0.076,0.007-0.151,0.025-0.229,0.035c-0.009-0.218-0.015-0.434-0.021-0.649
		c-0.453,0.039-0.901,0.115-1.35,0.208c-0.101,0.021-0.199,0.042-0.299,0.064c-0.447,0.104-0.892,0.226-1.328,0.377
		c-0.002,0-0.004,0-0.004,0c-6.945,2.392-12.964,10.38-15.563,14.269c-3.271-2.687-6.896-4.343-10.873-4.343
		c-3.977,0-7.604,1.656-10.871,4.343c-2.967-4.437-10.381-14.211-18.544-14.918c-0.667,17.661,2.129,33.073,3.277,38.541
		c-3.965,9.582-6.093,18.131-6.291,18.941c-1.329,5.455-1.008,10.592,0.871,14.883c0.081,0.205,0.16,0.412,0.248,0.613
		c0.082,0.207,0.161,0.416,0.25,0.619c0.081,0.203,0.158,0.408,0.246,0.607c0.082,0.208,0.162,0.417,0.251,0.621
		c0.081,0.203,0.158,0.408,0.246,0.605c0.081,0.206,0.16,0.413,0.248,0.615c0.082,0.207,0.161,0.416,0.25,0.619
		c0.081,0.203,0.158,0.408,0.246,0.607c0.081,0.205,0.16,0.412,0.248,0.613c0.081,0.205,0.16,0.412,0.248,0.613
		c0.082,0.208,0.161,0.416,0.25,0.62c0.081,0.202,0.158,0.407,0.246,0.608c0.081,0.205,0.16,0.412,0.248,0.611
		c0.081,0.206,0.16,0.413,0.248,0.615c0.082,0.207,0.161,0.416,0.25,0.619c0.081,0.203,0.158,0.408,0.246,0.606
		c0.082,0.208,0.162,0.417,0.251,0.62c0.081,0.203,0.158,0.408,0.246,0.607c0.082,0.207,0.161,0.416,0.25,0.619
		c0.081,0.203,0.158,0.408,0.246,0.608c0.081,0.205,0.16,0.412,0.248,0.612c0.081,0.206,0.16,0.413,0.248,0.615
		c0.081,0.205,0.16,0.412,0.248,0.613c0.082,0.207,0.161,0.416,0.25,0.619c0.081,0.203,0.158,0.408,0.246,0.607
		c0.081,0.205,0.16,0.412,0.248,0.613c0.081,0.205,0.16,0.412,0.248,0.614c0.082,0.207,0.161,0.416,0.25,0.619
		c0.081,0.203,0.158,0.408,0.246,0.606c0.082,0.207,0.162,0.416,0.251,0.621c0.081,0.203,0.158,0.408,0.246,0.606
		c0.082,0.208,0.161,0.416,0.25,0.62c0.081,0.203,0.158,0.408,0.246,0.607c0.081,0.205,0.16,0.412,0.248,0.613
		c0.081,0.205,0.16,0.412,0.248,0.614c0.081,0.205,0.16,0.412,0.248,0.613c0.082,0.208,0.161,0.416,0.25,0.618
		c0.081,0.203,0.158,0.408,0.246,0.608c0.081,0.205,0.16,0.412,0.248,0.613c0.081,0.206,0.16,0.413,0.248,0.614
		c0.082,0.207,0.161,0.416,0.25,0.619c0.082,0.205,0.16,0.412,0.249,0.613c0.081,0.203,0.158,0.408,0.246,0.608
		c0.081,0.205,0.16,0.412,0.248,0.612c0.082,0.209,0.161,0.416,0.25,0.619c0.081,0.203,0.158,0.408,0.246,0.608
		c0.081,0.205,0.16,0.412,0.248,0.613c0.081,0.206,0.16,0.413,0.248,0.614c0.081,0.205,0.16,0.412,0.248,0.612
		c0.082,0.208,0.161,0.416,0.25,0.62c0.081,0.203,0.158,0.408,0.246,0.607c0.081,0.205,0.16,0.412,0.248,0.613
		c0.001,0.004,0.003,0.008,0.004,0.01c5.903,1.798,12.165,2.771,18.655,2.771C90.3,127.463,112.295,112.575,122.596,91.027z"/>
	<path fill="#CC803D" d="M54.5,38.008c0,0-9.333-16.166-19.916-17.083c-0.834,22.083,3.75,40.667,3.75,40.667L54.5,38.008z"/>
	<path fill="#BF7839" d="M34.584,20.925c-0.008,0.218-0.013,0.434-0.02,0.65C43.858,24.772,51.5,38.008,51.5,38.008L37.615,58.264
		c0.425,2.135,0.719,3.328,0.719,3.328L54.5,38.008C54.5,38.008,45.167,21.842,34.584,20.925z"/>
	<path fill="#B37035" d="M41.473,53.396c-0.971-6.245-1.986-15.133-1.99-25.015c4.521,2.6,8.841,8.004,11.229,11.536L41.473,53.396z
		"/>
	<path fill="#CC803D" d="M73.5,38.008c0,0,9.334-16.166,19.916-17.083c0.836,22.083-3.75,40.667-3.75,40.667L73.5,38.008z"/>
	<path fill="#BF7839" d="M93.416,20.925c-1.007,0.087-2.003,0.314-2.98,0.65c0.539,16.227-1.813,30.469-3.051,36.688l2.281,3.327
		C89.666,61.592,94.252,43.008,93.416,20.925z"/>
	<path fill="#B37035" d="M86.527,53.396c0.971-6.245,1.986-15.133,1.99-25.015c-4.521,2.6-8.844,8.004-11.229,11.536L86.527,53.396z
		"/>
	<path fill="#CC803D" d="M79,104c-5.866,0-11.771-0.753-15-4.537C60.771,103.247,54.866,104,49,104
		c-5.647,0-10.828-2.473-14.212-6.777c-3.84-4.888-4.982-11.568-3.218-18.813C32.037,76.494,43.245,31.501,64,31.501
		S95.963,76.494,96.43,78.41c1.766,7.242,0.622,13.926-3.218,18.813C89.828,101.527,84.646,104,79,104z"/>
	<path fill="#BF7839" d="M64,78.704h6.773c0-5.529-4.527-30.32,4.099-42.861C71.604,33.157,67.977,31.5,64,31.5
		c-3.977,0-7.604,1.657-10.872,4.343c8.626,12.541,4.099,37.332,4.099,42.861H64z"/>
	<path fill="#BF7839" d="M96.43,78.409C95.963,76.493,84.755,31.5,64,31.5c-0.506,0-1.005,0.034-1.5,0.087
		c19.794,2.09,30.475,44.953,30.93,46.822c1.766,7.243,0.622,13.926-3.218,18.813c-3.165,4.027-7.901,6.448-13.122,6.744
		c0.635,0.021,1.271,0.032,1.91,0.032c5.646,0,10.828-2.472,14.212-6.776C97.052,92.335,98.193,85.652,96.43,78.409z"/>
	<path fill="#F5F5F5" d="M64,77.55c-12.564,0-22.75,11.625-22.75,23.5c0,0.438,0.039,0.865,0.066,1.298
		C43.671,103.422,46.28,104,49,104c5.866,0,11.771-0.753,15-4.537c3.229,3.784,9.134,4.537,15,4.537
		c2.721,0,5.329-0.578,7.684-1.652c0.028-0.433,0.066-0.859,0.066-1.298C86.75,89.175,76.564,77.55,64,77.55z"/>
	<path fill="#CCCCCC" d="M81.031,103.891c0.65-0.068,1.291-0.174,1.921-0.31c0.013-0.004,0.024-0.006,0.038-0.009
		c0.638-0.139,1.264-0.311,1.877-0.514c0.003,0,0.005-0.002,0.008-0.002c0.615-0.205,1.217-0.441,1.803-0.709
		c0.002,0,0.004-0.002,0.006-0.002c0.028-0.433,0.066-0.859,0.066-1.298c0-0.17-0.01-0.34-0.014-0.509
		c-2.766,2.016-6.086,3.225-9.646,3.427c0.635,0.021,1.271,0.032,1.91,0.032c0.667,0,1.326-0.037,1.979-0.104
		C80.996,103.895,81.014,103.893,81.031,103.891z"/>
	<g>
		<path fill="#242424" d="M65.421,83.996c1.979-2.01,2.979-2.971,4.922-4.528c0.769-0.614,0.509-1.319-0.581-1.557
			c-4.555-0.986-6.969-0.986-11.523,0c-1.088,0.235-1.348,0.938-0.58,1.555c1.943,1.562,2.943,2.521,4.922,4.528
			c0.126,0.128,0.271,0.229,0.419,0.314c0,1.199-0.002,1.797-0.002,2.998c-2.563,0.534-4.498,2.983-4.495,5.726
			c0.001,0.563,0.445,1.018,0.999,1.018s1.001-0.465,1-1.039c-0.002-2.006,1.567-3.704,3.502-3.704c1.936,0,3.501,1.698,3.498,3.704
			c-0.001,0.574,0.446,1.039,1,1.039c0.555,0,0.999-0.455,1-1.018c0.003-2.74-1.936-5.188-4.497-5.726
			c0.001-1.201,0.001-1.799,0.002-2.998C65.152,84.223,65.295,84.124,65.421,83.996z"/>
	</g>
	<g>
		<g>
			<circle fill="#EDEDED" cx="74" cy="61.925" r="5"/>
			<circle fill="#242424" cx="74" cy="61.925" r="2"/>
		</g>
		<g>
			<circle fill="#EDEDED" cx="54" cy="61.925" r="5"/>
			<circle fill="#242424" cx="54" cy="61.925" r="2"/>
		</g>
	</g>
</g>
</svg>
