<?xml version="1.0" encoding="utf-8"?>
<!-- Generator: Adobe Illustrator 15.1.0, SVG Export Plug-In . SVG Version: 6.00 Build 0)  -->
<!DOCTYPE svg PUBLIC "-//W3C//DTD SVG 1.1//EN" "http://www.w3.org/Graphics/SVG/1.1/DTD/svg11.dtd">
<svg version="1.1" id="Layer_1" xmlns="http://www.w3.org/2000/svg" xmlns:xlink="http://www.w3.org/1999/xlink" x="0px" y="0px"
	 width="128px" height="128px" viewBox="0 0 128 128" enable-background="new 0 0 128 128" xml:space="preserve">
<g>
	<circle fill="#2D4452" cx="64" cy="64" r="64"/>
	<path fill="#233540" d="M118.866,96.956c-0.011-0.021-0.019-0.047-0.028-0.068c-0.004-0.016-0.005-0.029-0.01-0.045
		c-0.063-0.205-0.146-0.393-0.238-0.57c-0.004-0.015-0.005-0.026-0.01-0.043c-0.063-0.205-0.146-0.393-0.238-0.567
		c-0.004-0.017-0.005-0.03-0.01-0.045c-0.063-0.206-0.146-0.396-0.239-0.572c-0.005-0.015-0.005-0.026-0.01-0.042
		c-0.063-0.205-0.146-0.395-0.237-0.568c-0.005-0.016-0.006-0.029-0.011-0.045c-0.063-0.205-0.146-0.394-0.237-0.568
		c-0.005-0.018-0.006-0.029-0.011-0.047c-0.063-0.203-0.146-0.393-0.237-0.568c-0.004-0.016-0.006-0.028-0.011-0.043
		c-0.063-0.205-0.146-0.395-0.237-0.569c-0.004-0.015-0.006-0.03-0.011-0.045c-0.063-0.205-0.146-0.393-0.237-0.569
		c-0.004-0.016-0.006-0.027-0.011-0.045c-0.063-0.205-0.146-0.393-0.237-0.567c-0.004-0.017-0.006-0.03-0.01-0.045
		c-0.063-0.207-0.146-0.395-0.238-0.57c-0.004-0.017-0.006-0.028-0.01-0.043c-0.063-0.205-0.146-0.394-0.238-0.569
		c-0.004-0.016-0.006-0.027-0.01-0.045c-0.063-0.205-0.146-0.393-0.238-0.568c-0.004-0.016-0.006-0.028-0.01-0.045
		c-0.063-0.205-0.146-0.394-0.238-0.568c-0.004-0.018-0.006-0.029-0.01-0.045c-0.063-0.205-0.146-0.395-0.237-0.57
		c-0.005-0.015-0.007-0.027-0.011-0.043c-0.063-0.205-0.146-0.393-0.237-0.568c-0.005-0.016-0.007-0.028-0.011-0.045
		c-0.063-0.205-0.146-0.394-0.237-0.568c-0.004-0.018-0.007-0.029-0.011-0.047c-0.063-0.203-0.146-0.393-0.237-0.567
		c-0.004-0.017-0.005-0.028-0.011-0.045c-0.063-0.205-0.146-0.394-0.237-0.569c-0.004-0.016-0.005-0.029-0.011-0.045
		c-0.063-0.205-0.146-0.393-0.237-0.57c-0.004-0.015-0.005-0.026-0.01-0.043c-0.063-0.203-0.146-0.393-0.238-0.567
		c-0.004-0.017-0.005-0.029-0.01-0.045c-0.063-0.205-0.146-0.394-0.238-0.569c-0.004-0.016-0.005-0.029-0.01-0.045
		c-0.063-0.205-0.146-0.393-0.238-0.568c-0.004-0.016-0.005-0.028-0.01-0.045c-0.063-0.205-0.146-0.394-0.238-0.57
		c-0.004-0.016-0.005-0.027-0.01-0.043c-0.063-0.205-0.146-0.394-0.238-0.568c-0.004-0.018-0.005-0.029-0.01-0.045
		c-0.063-0.205-0.146-0.395-0.237-0.569c-0.005-0.015-0.006-0.028-0.011-0.045c-0.063-0.205-0.146-0.393-0.237-0.569
		c-0.005-0.016-0.006-0.027-0.011-0.045c-0.063-0.205-0.146-0.393-0.237-0.568c-0.004-0.016-0.006-0.028-0.011-0.043
		c-0.063-0.206-0.146-0.396-0.237-0.572c-0.004-0.014-0.006-0.027-0.012-0.042c-0.063-0.205-0.146-0.394-0.236-0.569
		c-0.004-0.016-0.006-0.029-0.012-0.045c-0.063-0.205-0.146-0.393-0.236-0.568c-0.004-0.016-0.006-0.028-0.012-0.045
		c-0.063-0.205-0.146-0.394-0.236-0.568c-0.004-0.018-0.006-0.029-0.01-0.045c-0.063-0.205-0.146-0.395-0.238-0.57
		c-0.004-0.015-0.006-0.027-0.01-0.043c-0.063-0.205-0.146-0.393-0.238-0.568c-0.004-0.016-0.006-0.028-0.01-0.045
		c-0.063-0.205-0.146-0.394-0.238-0.568c-0.004-0.018-0.006-0.029-0.01-0.045c-0.063-0.205-0.146-0.395-0.238-0.569
		c-0.004-0.015-0.006-0.028-0.01-0.045c-0.063-0.205-0.146-0.394-0.238-0.57c-0.004-0.015-0.006-0.028-0.01-0.043
		c-0.063-0.204-0.146-0.393-0.238-0.569c-0.004-0.016-0.006-0.027-0.01-0.045c-0.063-0.205-0.146-0.393-0.238-0.567
		c-0.004-0.017-0.005-0.029-0.01-0.045c-0.063-0.205-0.146-0.394-0.238-0.569c-0.004-0.016-0.005-0.029-0.01-0.045
		c-0.063-0.205-0.146-0.395-0.238-0.57c-0.004-0.015-0.005-0.027-0.01-0.043c-0.063-0.205-0.146-0.393-0.238-0.568
		c-0.004-0.016-0.005-0.028-0.01-0.045c-0.063-0.205-0.146-0.394-0.238-0.568c-0.004-0.016-0.005-0.029-0.01-0.045
		c-0.063-0.205-0.146-0.395-0.238-0.569c-0.004-0.015-0.005-0.028-0.01-0.045c-0.063-0.205-0.146-0.393-0.238-0.569
		c-0.004-0.016-0.005-0.027-0.01-0.045c-0.063-0.205-0.146-0.393-0.238-0.568c-0.004-0.016-0.005-0.028-0.01-0.043
		c-0.063-0.205-0.146-0.395-0.238-0.569c-0.004-0.015-0.005-0.028-0.01-0.045c-0.063-0.205-0.146-0.394-0.238-0.569
		c-0.004-0.016-0.005-0.027-0.01-0.045c-0.063-0.205-0.146-0.393-0.238-0.568c-0.004-0.016-0.005-0.028-0.01-0.045
		c-0.063-0.205-0.146-0.394-0.238-0.569c-0.004-0.017-0.004-0.028-0.01-0.043c-0.063-0.205-0.146-0.394-0.238-0.569
		c-0.004-0.016-0.004-0.029-0.01-0.045c-0.063-0.205-0.146-0.393-0.238-0.568c-0.004-0.016-0.004-0.028-0.01-0.045
		c-0.063-0.205-0.146-0.394-0.238-0.568c-0.004-0.018-0.004-0.029-0.01-0.047c-0.063-0.207-0.146-0.395-0.24-0.57
		c-0.004-0.015-0.004-0.027-0.008-0.041c-0.063-0.205-0.146-0.394-0.238-0.569c-0.004-0.015-0.006-0.029-0.01-0.045
		c-0.063-0.205-0.146-0.393-0.238-0.569c-0.004-0.016-0.006-0.028-0.01-0.045c-0.063-0.205-0.146-0.393-0.238-0.568
		c-0.004-0.016-0.006-0.029-0.01-0.046c-0.063-0.204-0.146-0.393-0.237-0.569c-0.005-0.015-0.007-0.028-0.011-0.043
		c-0.063-0.205-0.146-0.394-0.237-0.569c-0.005-0.016-0.007-0.029-0.011-0.045c-0.063-0.205-0.146-0.393-0.237-0.568
		c-0.004-0.016-0.007-0.029-0.011-0.046c-0.063-0.204-0.146-0.393-0.237-0.568c-0.004-0.017-0.005-0.029-0.011-0.045
		c-0.063-0.205-0.146-0.394-0.237-0.569c-0.004-0.015-0.005-0.029-0.011-0.045c-0.063-0.205-0.146-0.393-0.237-0.57
		c-0.004-0.015-0.005-0.027-0.01-0.043c-0.063-0.205-0.146-0.393-0.238-0.568c-0.004-0.017-0.005-0.029-0.01-0.045
		c-0.063-0.205-0.146-0.394-0.238-0.569c-0.004-0.015-0.005-0.029-0.01-0.045c-0.894-2.882-4.771-2.882-6.427-2.882h-4h-9.836
		c-1.278,0-2.67-0.552-3.985-1.461c-0.009-0.017-0.015-0.031-0.021-0.048c-0.078-0.217-0.166-0.411-0.248-0.613
		c-0.078-0.218-0.166-0.411-0.248-0.614c-0.08-0.219-0.166-0.414-0.25-0.617c-0.08-0.22-0.166-0.416-0.25-0.62
		c-0.078-0.214-0.164-0.403-0.246-0.604c-0.077-0.218-0.164-0.411-0.248-0.614c-0.076-0.217-0.164-0.411-0.248-0.614
		c-0.077-0.219-0.163-0.414-0.247-0.616c-0.078-0.217-0.164-0.409-0.247-0.61c-0.078-0.217-0.165-0.411-0.248-0.614
		c-0.078-0.217-0.165-0.411-0.248-0.614c-0.079-0.219-0.165-0.413-0.249-0.616c-0.078-0.217-0.164-0.409-0.247-0.61
		c-0.078-0.217-0.165-0.411-0.248-0.614c-0.078-0.217-0.165-0.411-0.248-0.613c-0.079-0.22-0.165-0.414-0.249-0.617
		c-0.077-0.216-0.164-0.409-0.247-0.61c-0.076-0.217-0.165-0.411-0.248-0.614c-0.076-0.217-0.164-0.41-0.248-0.613
		c-0.076-0.218-0.164-0.411-0.246-0.614c-0.08-0.219-0.166-0.414-0.25-0.617c-0.078-0.216-0.164-0.409-0.246-0.61
		c-0.078-0.217-0.166-0.41-0.248-0.613c-0.078-0.217-0.166-0.411-0.248-0.614c-0.08-0.219-0.166-0.414-0.25-0.617
		c-0.078-0.216-0.164-0.409-0.246-0.609c-0.078-0.218-0.166-0.411-0.248-0.614c-0.078-0.217-0.166-0.411-0.248-0.614
		c-0.08-0.222-0.168-0.421-0.254-0.627c-0.076-0.213-0.162-0.401-0.243-0.601c-0.078-0.217-0.165-0.411-0.248-0.614
		c-0.078-0.217-0.165-0.411-0.248-0.614c-0.079-0.219-0.165-0.414-0.249-0.617c-0.078-0.216-0.164-0.408-0.247-0.609
		c-0.078-0.217-0.165-0.411-0.248-0.614c-0.078-0.217-0.165-0.411-0.248-0.614c-0.078-0.217-0.165-0.41-0.248-0.613
		c-0.079-0.22-0.165-0.414-0.249-0.617c-0.078-0.216-0.164-0.409-0.247-0.61c-0.077-0.217-0.165-0.411-0.247-0.614
		c-1.099-3.045-2.691-4.594-4.753-4.594c-0.237,0-0.468,0.031-0.692,0.075c-0.102,0.019-0.201,0.042-0.299,0.068
		c-0.082,0.021-0.164,0.056-0.244,0.085c-0.263,0.092-0.516,0.214-0.758,0.365c-0.002,0.001-0.005,0.002-0.007,0.004
		c-1.345,0.845-2.409,2.595-3.166,5.287l-4.273,15.965c-1.293,4.598-5.703,8.787-9.251,8.787H31.486c-1.511,0-5.527,0-6.433,2.892
		c-0.299,0.956-0.144,1.841,0.246,2.636c0.064,0.211,0.15,0.415,0.248,0.613c0.065,0.211,0.15,0.416,0.249,0.615
		c0.064,0.21,0.15,0.414,0.248,0.612c0.065,0.212,0.151,0.416,0.249,0.616c0.064,0.21,0.15,0.414,0.248,0.611
		c0.064,0.211,0.15,0.415,0.248,0.614c0.064,0.211,0.15,0.416,0.248,0.615c0.064,0.21,0.15,0.414,0.248,0.612
		c0.064,0.211,0.15,0.415,0.248,0.613c0.064,0.211,0.15,0.414,0.248,0.613c0.064,0.211,0.15,0.416,0.248,0.615
		c0.064,0.21,0.15,0.413,0.248,0.612c0.064,0.211,0.15,0.415,0.248,0.612c0.064,0.211,0.15,0.416,0.248,0.615
		c0.064,0.211,0.15,0.415,0.248,0.614c0.064,0.21,0.15,0.414,0.248,0.612c0.064,0.212,0.15,0.416,0.249,0.615
		c0.064,0.209,0.15,0.414,0.248,0.611c0.065,0.211,0.15,0.415,0.249,0.615c0.064,0.21,0.15,0.413,0.248,0.611
		c0.064,0.211,0.15,0.416,0.248,0.613c0.064,0.211,0.15,0.416,0.248,0.614c0.064,0.211,0.15,0.415,0.248,0.614
		c0.065,0.211,0.15,0.415,0.249,0.615c0.064,0.209,0.15,0.412,0.248,0.61c0.064,0.212,0.15,0.415,0.248,0.614
		c0.064,0.211,0.15,0.415,0.248,0.613c0.065,0.212,0.15,0.416,0.249,0.615c0.064,0.211,0.15,0.414,0.248,0.611
		c0.065,0.213,0.151,0.416,0.249,0.616c0.064,0.21,0.15,0.414,0.248,0.612c0.064,0.211,0.15,0.414,0.248,0.615
		c0.064,0.209,0.15,0.411,0.248,0.61c0.064,0.211,0.15,0.415,0.248,0.614c0.064,0.211,0.15,0.414,0.248,0.613
		c0.064,0.211,0.15,0.416,0.248,0.614c0.064,0.211,0.15,0.415,0.248,0.614c0.064,0.21,0.15,0.413,0.248,0.611
		c0.064,0.211,0.15,0.416,0.248,0.615c0.064,0.211,0.15,0.414,0.248,0.613c0.064,0.211,0.15,0.416,0.248,0.614
		c0.064,0.211,0.151,0.415,0.249,0.614c0.064,0.209,0.15,0.412,0.248,0.611c0.064,0.211,0.15,0.415,0.248,0.614
		c0.065,0.211,0.15,0.415,0.249,0.614c0.064,0.21,0.15,0.412,0.248,0.611c0.064,0.211,0.15,0.416,0.248,0.614
		c0.064,0.211,0.15,0.415,0.248,0.614c0.064,0.211,0.15,0.415,0.248,0.613c0.065,0.211,0.15,0.414,0.249,0.615
		c0.064,0.209,0.15,0.412,0.248,0.611c0.064,0.211,0.15,0.415,0.248,0.614c0.064,0.211,0.15,0.415,0.248,0.612
		c0.065,0.213,0.15,0.416,0.249,0.615c0.065,0.211,0.151,0.415,0.249,0.614c0.019,0.062,0.044,0.121,0.066,0.183
		c-0.841,2.76-0.893,4.844-0.142,6.332c0.071,0.213,0.15,0.42,0.248,0.613c0.071,0.215,0.151,0.422,0.249,0.616
		c0.071,0.213,0.15,0.419,0.247,0.61c0.071,0.215,0.151,0.422,0.25,0.615c0.07,0.213,0.15,0.42,0.247,0.612
		c0.071,0.214,0.15,0.421,0.248,0.614c0.071,0.215,0.151,0.422,0.249,0.615c0.071,0.213,0.15,0.418,0.247,0.61
		c0.071,0.214,0.15,0.421,0.248,0.614c0.071,0.214,0.15,0.421,0.248,0.613c0.071,0.215,0.151,0.422,0.249,0.615
		c0.071,0.213,0.15,0.42,0.247,0.611c0.071,0.214,0.15,0.421,0.248,0.613c0.071,0.215,0.15,0.422,0.248,0.613
		c0.071,0.217,0.151,0.424,0.249,0.616c0.071,0.214,0.15,0.419,0.247,0.611c0.071,0.215,0.151,0.423,0.25,0.614
		c0.07,0.215,0.15,0.422,0.247,0.613c0.071,0.215,0.151,0.422,0.249,0.615c0.071,0.213,0.15,0.419,0.247,0.611
		c0.071,0.214,0.15,0.421,0.248,0.613c0.071,0.215,0.15,0.422,0.248,0.613c0.071,0.215,0.15,0.422,0.248,0.614
		c0.071,0.215,0.151,0.422,0.249,0.616c0.071,0.213,0.15,0.419,0.247,0.609c0.071,0.215,0.15,0.422,0.248,0.614
		c0.071,0.214,0.15,0.421,0.248,0.614c0.071,0.215,0.151,0.422,0.249,0.615c0.071,0.213,0.15,0.42,0.247,0.61
		c0.071,0.216,0.151,0.423,0.25,0.616c0.07,0.213,0.15,0.42,0.247,0.611c0.071,0.216,0.151,0.423,0.249,0.615
		c0.071,0.213,0.15,0.42,0.247,0.611c0.071,0.215,0.15,0.421,0.248,0.614c0.071,0.214,0.15,0.421,0.248,0.614
		c0.071,0.214,0.15,0.42,0.248,0.613c0.071,0.215,0.151,0.422,0.249,0.615c0.071,0.213,0.15,0.419,0.247,0.611
		c0.071,0.214,0.151,0.422,0.249,0.613c0.071,0.213,0.15,0.42,0.248,0.612c0.071,0.216,0.151,0.423,0.25,0.616
		c0.07,0.213,0.149,0.42,0.247,0.613c0.002,0.006,0.005,0.011,0.007,0.017c4.725,1.11,9.643,1.718,14.705,1.718
		C87.29,128,107.671,115.556,118.866,96.956z"/>
	<path fill="#FFD464" d="M85.88,104c-1.496,0-3.136-0.798-5.01-2.444L69.449,91.511c-2.862-2.504-8.199-2.621-11.121-0.225
		l-11.079,9.078c-3.424,2.811-6.447,2.846-8.021,0.701c-1.13-1.539-1.184-3.859-0.166-7.1l3.694-11.75
		c1.353-4.288-0.312-9.857-3.629-12.17l-10.225-6.284c-1.506-1.04-4.759-3.3-3.849-6.209c0.905-2.892,4.922-2.892,6.433-2.892
		h13.835c3.548,0,7.958-4.189,9.251-8.787l4.269-15.99c1.101-3.916,2.836-5.886,5.166-5.886c2.328,0,4.063,1.97,5.157,5.853
		l4.279,16.054c1.287,4.567,5.695,8.758,9.244,8.758h13.838c1.654,0,5.531,0,6.425,2.882c0.897,2.896-2.367,5.14-3.761,6.097
		l-10.354,6.685c-3.305,2.268-4.998,7.645-3.719,11.939L89.1,95.508c0.963,3.229,0.891,5.521-0.225,7.011
		C88.167,103.474,87.104,104,85.88,104z"/>
	<path fill="#E6BF5A" d="M62.007,24.598c0.61-0.383,1.272-0.598,2-0.598c2.328,0,4.063,1.97,5.157,5.853l4.279,16.053
		c1.287,4.568,5.695,8.759,9.244,8.759h-4c-3.549,0-7.957-4.189-9.244-8.759l-4.279-16.053C64.412,27.183,63.35,25.44,62.007,24.598
		z M102.95,57.545c-0.894-2.882-4.771-2.882-6.425-2.882h-4c1.654,0,5.531,0,6.425,2.882c0.897,2.895-2.367,5.14-3.761,6.097
		l-10.354,6.685c-3.305,2.268-4.998,7.644-3.719,11.939L85.1,95.508c0.963,3.229,0.891,5.521-0.225,7.011
		c-0.311,0.416-0.697,0.733-1.125,0.979c0.743,0.331,1.45,0.503,2.126,0.503c1.224,0,2.287-0.527,2.999-1.48
		c1.113-1.49,1.188-3.781,0.225-7.012l-3.982-13.24c-1.279-4.299,0.414-9.675,3.719-11.94l10.354-6.685
		C100.583,62.685,103.85,60.439,102.95,57.545z M54.328,91.286l-11.079,9.078c-0.992,0.813-1.948,1.389-2.847,1.75
		c1.688,0.951,4.141,0.472,6.847-1.75l11.079-9.078c0.93-0.764,2.104-1.27,3.363-1.525C59.107,89.245,56.215,89.737,54.328,91.286z"
		/>
	<path fill="#E78244" d="M68.479,59.661c-0.677,0-1.326-0.275-1.772-0.754c-0.452-0.454-0.728-1.108-0.728-1.763
		c0-0.679,0.273-1.333,0.728-1.784c0.922-0.93,2.597-0.93,3.548,0c0.449,0.477,0.727,1.105,0.727,1.784
		c0,0.653-0.275,1.309-0.727,1.763C69.775,59.386,69.127,59.661,68.479,59.661z"/>
	<path fill="#E78244" d="M58.482,59.661c-0.676,0-1.325-0.275-1.774-0.754c-0.451-0.454-0.726-1.108-0.726-1.763
		c0-0.679,0.273-1.333,0.726-1.784c0.923-0.93,2.597-0.93,3.548,0c0.449,0.477,0.727,1.105,0.727,1.784
		c0,0.653-0.276,1.309-0.727,1.763C59.779,59.386,59.131,59.661,58.482,59.661z"/>
	<path fill="#E78244" d="M53.484,69.653c-0.674,0-1.299-0.25-1.774-0.73c-0.448-0.454-0.726-1.107-0.726-1.765
		c0-0.683,0.25-1.313,0.726-1.792c0.949-0.959,2.624-0.936,3.549,0c0.448,0.457,0.726,1.109,0.726,1.792
		c0,0.655-0.276,1.311-0.75,1.765C54.785,69.403,54.134,69.653,53.484,69.653z"/>
	<path fill="#E78244" d="M58.482,79.665c-0.649,0-1.299-0.278-1.774-0.729c-0.449-0.478-0.726-1.131-0.726-1.783
		c0-0.649,0.275-1.305,0.726-1.781c0.952-0.952,2.626-0.93,3.548,0c0.477,0.479,0.727,1.105,0.727,1.781
		c0,0.652-0.25,1.308-0.727,1.76C59.783,79.387,59.134,79.665,58.482,79.665z"/>
	<path fill="#E78244" d="M70.977,79.67c-0.646,0-1.297-0.278-1.771-0.757c-0.449-0.454-0.727-1.107-0.727-1.76
		c0-0.683,0.275-1.31,0.752-1.786c0.897-0.931,2.6-0.931,3.521,0c0.477,0.479,0.727,1.104,0.727,1.786
		c0,0.65-0.25,1.306-0.727,1.783C72.302,79.392,71.652,79.67,70.977,79.67z"/>
	<path fill="#E78244" d="M73.477,69.679c-0.675,0-1.299-0.277-1.773-0.732c-0.448-0.451-0.727-1.105-0.727-1.786
		c0-0.657,0.276-1.312,0.727-1.789c0.926-0.908,2.626-0.936,3.551,0.022c0.449,0.455,0.725,1.107,0.725,1.767
		c0,0.681-0.273,1.335-0.725,1.788C74.775,69.399,74.15,69.679,73.477,69.679z"/>
	<path fill="#E78244" d="M63.482,72.155c-2.758,0-5-2.24-5-4.995c0-2.759,2.242-5,5-5c2.752,0,4.995,2.241,4.995,5
		C68.479,69.915,66.234,72.155,63.482,72.155z"/>
</g>
</svg>
