<?xml version="1.0" encoding="utf-8"?>
<!-- Generator: Adobe Illustrator 15.1.0, SVG Export Plug-In . SVG Version: 6.00 Build 0)  -->
<!DOCTYPE svg PUBLIC "-//W3C//DTD SVG 1.1//EN" "http://www.w3.org/Graphics/SVG/1.1/DTD/svg11.dtd">
<svg version="1.1" id="Layer_1" xmlns="http://www.w3.org/2000/svg" xmlns:xlink="http://www.w3.org/1999/xlink" x="0px" y="0px"
	 width="128px" height="128px" viewBox="0 0 128 128" enable-background="new 0 0 128 128" xml:space="preserve">
<g>
	<circle fill="#E16B5A" cx="64" cy="63.983" r="64"/>
	<path fill="#CC6152" d="M120.669,93.72c-0.063-0.162-0.126-0.326-0.196-0.486c-0.065-0.172-0.133-0.342-0.205-0.51
		c-0.066-0.174-0.135-0.346-0.209-0.516c-0.065-0.172-0.133-0.342-0.205-0.51c-0.066-0.172-0.135-0.346-0.209-0.516
		c-0.065-0.172-0.133-0.343-0.205-0.511c-0.066-0.172-0.133-0.344-0.207-0.512c-0.066-0.174-0.135-0.347-0.209-0.517
		c-0.065-0.172-0.133-0.344-0.205-0.51c-0.065-0.17-0.133-0.342-0.205-0.508c-0.065-0.174-0.135-0.348-0.207-0.518
		c-0.067-0.172-0.135-0.346-0.211-0.517c-0.064-0.172-0.131-0.342-0.203-0.51c-0.067-0.172-0.135-0.346-0.209-0.517
		c-0.066-0.17-0.133-0.342-0.205-0.508c-0.067-0.172-0.135-0.346-0.207-0.514c-0.066-0.174-0.135-0.346-0.209-0.516
		c-0.064-0.172-0.133-0.342-0.205-0.51c-0.066-0.172-0.135-0.347-0.209-0.517c-0.064-0.172-0.132-0.342-0.205-0.51
		c-0.066-0.172-0.134-0.347-0.209-0.517c-0.064-0.17-0.132-0.342-0.205-0.508c-0.066-0.174-0.134-0.348-0.209-0.518
		c-0.064-0.17-0.132-0.342-0.205-0.508c-0.064-0.17-0.131-0.338-0.201-0.504c-0.068-0.176-0.138-0.354-0.214-0.525
		c-0.065-0.17-0.132-0.342-0.204-0.508c-0.066-0.174-0.135-0.346-0.21-0.516c-0.065-0.173-0.132-0.345-0.204-0.511
		c-0.066-0.174-0.135-0.346-0.209-0.516c-0.066-0.173-0.133-0.343-0.205-0.511c-0.066-0.172-0.135-0.346-0.209-0.516
		c-0.065-0.172-0.133-0.342-0.205-0.51c-0.066-0.172-0.135-0.346-0.209-0.516c-0.065-0.17-0.131-0.342-0.205-0.511
		c-0.066-0.172-0.133-0.344-0.207-0.512c-0.066-0.174-0.133-0.347-0.209-0.517c-0.065-0.172-0.131-0.342-0.205-0.51
		c-0.066-0.174-0.133-0.346-0.209-0.516c-0.064-0.168-0.129-0.336-0.2-0.5c-0.068-0.176-0.136-0.352-0.212-0.523
		c-0.066-0.172-0.133-0.344-0.205-0.51c-0.067-0.174-0.135-0.346-0.209-0.516c-0.066-0.172-0.133-0.342-0.205-0.51
		c-0.067-0.172-0.133-0.344-0.207-0.515c-0.066-0.172-0.135-0.346-0.209-0.516c-0.066-0.17-0.133-0.343-0.205-0.509
		c-0.066-0.174-0.135-0.346-0.209-0.518c-0.066-0.17-0.132-0.342-0.205-0.508c-0.066-0.174-0.134-0.346-0.209-0.516
		c-0.066-0.172-0.132-0.342-0.205-0.51c-0.066-0.175-0.134-0.347-0.209-0.517c-0.066-0.172-0.132-0.342-0.205-0.51
		c-0.066-0.173-0.133-0.345-0.207-0.513c-0.066-0.17-0.131-0.342-0.205-0.508c-0.066-0.174-0.134-0.348-0.208-0.518
		c-0.067-0.174-0.134-0.346-0.209-0.516c-0.065-0.172-0.132-0.343-0.204-0.51c-0.068-0.174-0.135-0.347-0.209-0.517
		c-0.066-0.171-0.133-0.343-0.205-0.51c-0.066-0.173-0.135-0.346-0.209-0.516c-0.065-0.172-0.133-0.343-0.205-0.51
		c-0.066-0.172-0.134-0.344-0.207-0.514c-0.066-0.173-0.135-0.346-0.209-0.516c-0.065-0.171-0.133-0.343-0.205-0.509
		c-0.066-0.174-0.135-0.347-0.209-0.518c-0.065-0.171-0.133-0.342-0.205-0.509c-0.066-0.173-0.135-0.346-0.209-0.516
		c-0.065-0.172-0.133-0.343-0.205-0.51c-0.066-0.174-0.135-0.347-0.209-0.517c-0.064-0.168-0.129-0.336-0.2-0.5
		c-0.067-0.175-0.136-0.352-0.21-0.521c-0.067-0.173-0.135-0.347-0.209-0.517c-0.066-0.171-0.133-0.342-0.205-0.509
		c-0.067-0.173-0.135-0.347-0.209-0.517c-0.066-0.171-0.133-0.342-0.205-0.509c-0.066-0.174-0.135-0.347-0.209-0.517
		c-0.064-0.171-0.133-0.343-0.205-0.509c-0.066-0.174-0.134-0.347-0.209-0.517c-0.064-0.172-0.132-0.343-0.205-0.51
		c-0.066-0.173-0.134-0.346-0.209-0.516c-0.064-0.172-0.132-0.343-0.205-0.51c-0.066-0.172-0.133-0.345-0.207-0.514
		c-0.066-0.173-0.134-0.346-0.209-0.516c-0.064-0.171-0.132-0.343-0.205-0.51c-0.064-0.17-0.131-0.341-0.203-0.507
		c-0.066-0.175-0.136-0.349-0.209-0.519c-0.066-0.173-0.135-0.346-0.209-0.516c-0.066-0.172-0.133-0.343-0.205-0.51
		c-0.066-0.174-0.135-0.347-0.209-0.517c-0.066-0.171-0.133-0.342-0.205-0.509c-0.066-0.173-0.134-0.345-0.207-0.514
		c-0.066-0.174-0.135-0.347-0.209-0.517c-0.065-0.171-0.133-0.342-0.205-0.509c-0.066-0.173-0.133-0.346-0.209-0.517
		c-0.065-0.172-0.131-0.343-0.205-0.51c-0.066-0.173-0.133-0.346-0.209-0.516c-0.065-0.171-0.131-0.342-0.205-0.51
		c-0.066-0.173-0.133-0.347-0.209-0.517c-0.065-0.171-0.131-0.342-0.205-0.509c-0.064-0.169-0.129-0.338-0.202-0.504
		c-0.068-0.177-0.136-0.353-0.212-0.524c-0.066-0.171-0.133-0.342-0.205-0.509c-0.067-0.173-0.135-0.346-0.209-0.517
		c-0.066-0.171-0.133-0.342-0.205-0.509c-0.066-0.173-0.135-0.347-0.209-0.517c-0.066-0.171-0.133-0.342-0.205-0.509
		c-0.066-0.174-0.135-0.347-0.209-0.517c-0.066-0.171-0.132-0.343-0.205-0.51c-0.066-0.172-0.133-0.344-0.207-0.513
		c-0.066-0.173-0.134-0.347-0.209-0.517c-0.066-0.171-0.132-0.342-0.205-0.509c-0.066-0.174-0.134-0.347-0.209-0.517
		c-0.066-0.171-0.132-0.343-0.205-0.509c-0.066-0.174-0.134-0.347-0.209-0.517c-0.064-0.169-0.129-0.337-0.201-0.5
		c-0.068-0.177-0.136-0.353-0.211-0.524c-0.066-0.171-0.133-0.342-0.205-0.509c-0.068-0.173-0.135-0.347-0.209-0.517
		c-0.065-0.171-0.133-0.342-0.205-0.509c-0.066-0.172-0.134-0.345-0.207-0.514c-0.066-0.173-0.135-0.347-0.209-0.517
		c-1.672-4.323-5.856-7.397-10.771-7.397c-0.387,0-0.768,0.021-1.143,0.059c-3.233,0.316-6.069,1.976-7.967,4.402L74,26.983h-3h-7
		H54l-1.549,1.328c-2.115-2.711-5.404-4.461-9.108-4.461c-0.385,0-0.766,0.021-1.141,0.059c-5.845,0.572-10.414,5.501-10.414,11.497
		c0,1.627,0.348,3.17,0.956,4.571c0.064,0.172,0.133,0.343,0.206,0.51c0.065,0.173,0.134,0.344,0.207,0.513
		c0.065,0.174,0.135,0.346,0.208,0.517c0.064,0.172,0.133,0.342,0.205,0.509c0.065,0.175,0.136,0.347,0.209,0.517
		c0.063,0.169,0.131,0.335,0.201,0.5c0.066,0.178,0.138,0.354,0.213,0.523c0.037,0.102,0.068,0.204,0.108,0.304L33,44.983v15.471
		v2.552v3.365v2.553v3.062l0.169,0.17l0.038,0.037v0.305l0.169,0.17l0.038,0.037v0.307l0.169,0.168l0.038,0.039v0.307l0.169,0.168
		l0.038,0.039v0.306l0.169,0.168l0.038,0.039v0.305l0.169,0.171l0.038,0.036v0.306l0.169,0.17l0.037,0.037v0.307l0.169,0.17
		l0.037,0.037v0.305l0.17,0.17l0.037,0.037v0.303l0.17,0.168l0.037,0.039v0.305l0.17,0.169l0.037,0.038v0.308l0.17,0.168
		l0.037,0.039v0.306l0.17,0.168l0.037,0.038v0.306l0.17,0.17l0.037,0.037v0.307l0.17,0.168l0.037,0.039v0.305l0.17,0.17l0.037,0.037
		v0.307l0.17,0.168l0.037,0.039v0.306l0.17,0.168l0.037,0.039v0.305l0.17,0.17l0.037,0.037v0.308l0.17,0.168l0.037,0.039v0.305
		l0.17,0.17l0.037,0.037v0.305l0.17,0.17l0.036,0.037v0.307l0.169,0.168l0.038,0.039v0.308l0.169,0.168l0.038,0.038v0.306
		l0.169,0.168l0.038,0.039v0.306l0.169,0.17l0.038,0.036v0.306l0.169,0.17l0.038,0.037v0.307l0.169,0.17l0.038,0.037v0.305
		l0.169,0.17L39,86.546v0.307l0.169,0.168l0.038,0.039v0.306l0.169,0.168l0.038,0.039v0.307l0.169,0.168l0.038,0.039v0.306
		l0.169,0.17l0.038,0.037v0.305l0.169,0.17l0.038,0.037v0.307l0.169,0.168l0.038,0.039v0.305l0.169,0.17l0.038,0.037v0.308
		l0.169,0.168l0.037,0.036v0.308l0.169,0.168l0.038,0.039v0.306l0.169,0.17l0.038,0.036v0.308l0.169,0.168l0.038,0.039v0.305
		l0.168,0.17l0.039,0.037v0.297l0.168,0.168l0.039,0.039v0.305l0.168,0.168l0.039,0.039v0.307l0.168,0.168l0.039,0.039v0.306
		l0.168,0.168l0.039,0.039v0.305l0.168,0.171l0.039,0.036v0.306l0.168,0.17l0.039,0.037v0.307l0.168,0.17l0.039,0.037v0.305
		l0.168,0.17l0.039,0.037v0.305l0.168,0.168l0.039,0.039v0.305l0.168,0.168l0.039,0.039v0.308l0.168,0.168l0.037,0.037v0.308
		l0.17,0.17l0.037,0.037v0.305l0.17,0.17l0.037,0.037v0.307l0.169,0.168l0.038,0.039v0.305l0.169,0.17l0.038,0.037v0.307
		l0.169,0.168l0.038,0.039v0.306l0.169,0.168L45,101.406v0.305l0.169,0.17l0.038,0.037v0.308l0.169,0.168l0.038,0.039v0.305
		l0.169,0.17l0.038,0.037v0.307l0.169,0.168l0.038,0.039v0.305l0.169,0.168l0.038,0.039v0.307l0.169,0.169l0.038,0.038v0.306
		l0.169,0.168l0.038,0.039v0.306l0.169,0.17l0.038,0.037v0.305l0.169,0.17l0.038,0.037v0.307l0.169,0.17l0.036,0.037v0.305
		l0.17,0.17l0.037,0.037v0.307l0.17,0.168l0.037,0.039v0.306l0.17,0.17l0.037,0.037v0.307l0.17,0.168l0.037,0.039v0.306l0.17,0.17
		l0.037,0.037v0.305l0.17,0.17l0.037,0.037v0.307l0.17,0.168l0.037,0.039v0.305l0.17,0.17l0.037,0.037v0.307l0.17,0.169l0.037,0.038
		v0.306l0.17,0.168l0.037,0.039v0.306l0.17,0.17l0.037,0.036v0.308l0.17,0.17l0.037,0.037v0.305l0.17,0.17l0.037,0.037v0.307
		l0.17,0.168l0.037,0.039v0.305l0.17,0.168l0.036,0.037v0.31l0.169,0.168l0.038,0.039v0.305l0.169,0.168l0.038,0.039v0.306
		l0.169,0.17l0.038,0.037v0.305l0.169,0.17L51,116.276v0.307l0.169,0.17l0.038,0.037v0.307l0.169,0.168l0.038,0.039v0.305
		l0.169,0.169l0.038,0.038v0.306l0.169,0.17l0.038,0.037v0.308L52,118.79l0.038,0.039v0.305l0.169,0.17l0.038,0.037v0.305
		l0.169,0.17l0.038,0.037v0.308l0.169,0.168l0.038,0.039v0.305l0.169,0.171l0.038,0.036v0.308l0.169,0.168l0.038,0.039v0.305
		l0.169,0.168l0.037,0.037v0.307l0.169,0.17l0.038,0.037v0.307l0.169,0.17l0.038,0.037v0.306l0.168,0.17l0.039,0.036v0.308
		l0.168,0.168l0.039,0.039v0.306l0.168,0.168l0.039,0.039v0.307l0.168,0.168l0.039,0.039v0.305l0.168,0.168l0.039,0.039v0.305
		l0.168,0.17l0.039,0.037v0.305l0.168,0.17l0.039,0.037v0.308l0.168,0.17l0.039,0.037v0.307l0.088,0.091
		c2.803,0.373,5.654,0.586,8.56,0.586C88.607,127.983,109.96,114.087,120.669,93.72z"/>
	<g>
		<g>
			<circle fill="#FFC066" cx="84.657" cy="35.406" r="11.555"/>
			<circle fill="#FFC066" cx="43.343" cy="35.406" r="11.555"/>
			<path fill="#F2B661" d="M84.656,23.851c-0.387,0-0.766,0.021-1.141,0.059c5.846,0.572,10.414,5.501,10.414,11.497
				c0,5.998-4.568,10.926-10.414,11.499c0.375,0.034,0.754,0.058,1.141,0.058c6.382,0,11.556-5.174,11.556-11.557
				C96.212,29.024,91.038,23.851,84.656,23.851z"/>
			<path fill="#F2B661" d="M43.343,23.851c-0.385,0-0.766,0.021-1.141,0.059c5.846,0.572,10.415,5.501,10.415,11.497
				c0,5.998-4.569,10.926-10.415,11.499c0.375,0.034,0.756,0.058,1.141,0.058c6.382,0,11.556-5.174,11.556-11.557
				C54.898,29.024,49.725,23.851,43.343,23.851z"/>
			<path fill="#99733D" d="M84.656,42.898c-4.131,0-7.491-3.361-7.491-7.492c0-4.132,3.36-7.49,7.491-7.49s7.492,3.358,7.492,7.49
				C92.148,39.537,88.787,42.898,84.656,42.898z"/>
			<path fill="#99733D" d="M43.343,42.898c-4.13,0-7.491-3.361-7.491-7.492c0-4.132,3.361-7.49,7.491-7.49
				c4.132,0,7.492,3.358,7.492,7.49C50.835,39.537,47.475,42.898,43.343,42.898z"/>
		</g>
		<polygon fill="#FFC066" points="74,26.983 64,26.983 54,26.983 33,44.983 33,71.983 48,86.983 48,97.983 53,102.983 64,102.983 
			75,102.983 80,97.983 80,86.983 95,71.983 95,44.983 		"/>
		<polygon fill="#F2B661" points="74,26.983 71,26.983 92,44.983 92,71.983 77,86.983 77,97.983 72,102.983 75,102.983 80,97.983 
			80,86.983 95,71.983 95,44.983 		"/>
		<polygon fill="#F5F5F5" points="80,86.983 86.557,80.429 76,75.983 64,75.983 52,75.983 41.443,80.429 48,86.983 48,97.983 
			53,102.983 64,102.983 75,102.983 80,97.983 		"/>
		<polygon fill="#E6E6E6" points="77,86.983 77,97.983 72,102.983 75,102.983 80,97.983 80,86.983 86.557,80.429 84.443,79.54 		"/>
		<g>
			<path fill="#F2B661" d="M64,52.209c-5.666,0-11,1.148-13,2.854v3.241v2.479v16.065h26V60.785v-2.479v-3.241
				C75,53.358,69.666,52.209,64,52.209z"/>
			<path fill="#242424" d="M66.154,88.536L76.57,78.124c1.186-1.184,0.783-2.141-0.894-2.141H52.32
				c-1.676,0-2.076,0.959-0.891,2.143l10.416,10.406c0.047,0.047,0.104,0.082,0.153,0.125v2.178c0,1.131-0.937,2.053-2.067,2.053
				c-1.132,0-2.063-0.922-2.063-2.053c0-1.123-0.912-2.031-2.034-2.031S53.8,89.712,53.8,90.835c0,3.373,2.743,6.115,6.116,6.115
				c1.57,0,2.999-0.6,4.083-1.574c1.086,0.977,2.515,1.574,4.084,1.574c3.373,0,6.117-2.742,6.117-6.115
				c0-1.123-0.91-2.031-2.032-2.031s-2.029,0.908-2.029,2.031c0,1.131-0.938,2.053-2.07,2.053c-1.133,0-2.067-0.922-2.067-2.053
				v-2.174C66.051,88.616,66.105,88.583,66.154,88.536z"/>
		</g>
		<g>
			<g>
				<circle fill="#F5F5F5" cx="51.809" cy="60.338" r="5.079"/>
				<circle fill="#242424" cx="51.809" cy="60.338" r="2.032"/>
			</g>
			<g>
				<circle fill="#F5F5F5" cx="76.191" cy="60.338" r="5.079"/>
				<circle fill="#242424" cx="76.191" cy="60.338" r="2.032"/>
			</g>
		</g>
		<g>
			<path fill="#242424" d="M64,33.829c-1.297,0-2.516-0.309-3.693-0.605c-1.576-0.397-2.938-0.739-4.176-0.302
				c-0.591,0.213-1.246-0.098-1.457-0.689c-0.213-0.593,0.098-1.244,0.69-1.457c1.886-0.678,3.726-0.212,5.502,0.235
				c1.091,0.276,2.12,0.536,3.134,0.536c1.014,0,2.043-0.26,3.134-0.536c1.776-0.447,3.614-0.913,5.503-0.235
				c0.594,0.213,0.902,0.864,0.689,1.457c-0.21,0.594-0.865,0.902-1.457,0.689c-1.237-0.438-2.598-0.098-4.176,0.302
				C66.516,33.521,65.297,33.829,64,33.829z"/>
			<path fill="#242424" d="M64,38.391c-1.559,0-3.052-0.302-4.494-0.593c-1.967-0.396-3.824-0.775-5.513-0.293
				c-0.601,0.168-1.237-0.176-1.411-0.783c-0.172-0.604,0.179-1.235,0.784-1.41c2.219-0.633,4.442-0.186,6.591,0.25
				c1.334,0.271,2.713,0.548,4.043,0.548s2.709-0.277,4.043-0.548c2.146-0.436,4.372-0.883,6.591-0.25
				c0.604,0.175,0.956,0.806,0.784,1.41c-0.174,0.607-0.811,0.951-1.411,0.783c-1.688-0.482-3.546-0.104-5.513,0.293
				C67.052,38.089,65.559,38.391,64,38.391z"/>
		</g>
		<g>
			<path fill="#242424" d="M87.627,54.604c-0.432-0.345-1.061-0.271-1.404,0.162c-0.344,0.434-0.27,1.063,0.162,1.404L95,63.005
				v-2.553L87.627,54.604z"/>
			<path fill="#242424" d="M87.627,60.521c-0.432-0.345-1.061-0.271-1.404,0.162c-0.343,0.434-0.27,1.063,0.162,1.403L95,68.921
				v-2.553L87.627,60.521z"/>
			<path fill="#242424" d="M87.627,66.438c-0.432-0.344-1.061-0.271-1.404,0.162c-0.343,0.434-0.27,1.063,0.162,1.403l7.022,5.57
				l1.424-1.425L87.627,66.438z"/>
			<path fill="#242424" d="M41.615,68.005c0.432-0.344,0.506-0.973,0.162-1.404c-0.344-0.431-0.973-0.506-1.404-0.162l-7.204,5.716
				l1.424,1.424L41.615,68.005z"/>
			<path fill="#242424" d="M41.615,62.087c0.432-0.343,0.506-0.972,0.162-1.403c-0.344-0.433-0.973-0.507-1.404-0.162L33,66.37
				v2.553L41.615,62.087z"/>
			<path fill="#242424" d="M41.777,54.767c-0.344-0.435-0.973-0.507-1.404-0.162L33,60.454v2.552l8.615-6.834
				C42.047,55.829,42.121,55.2,41.777,54.767z"/>
		</g>
	</g>
</g>
</svg>
