<?xml version="1.0" encoding="utf-8"?>
<!-- Generator: Adobe Illustrator 15.1.0, SVG Export Plug-In . SVG Version: 6.00 Build 0)  -->
<!DOCTYPE svg PUBLIC "-//W3C//DTD SVG 1.1//EN" "http://www.w3.org/Graphics/SVG/1.1/DTD/svg11.dtd">
<svg version="1.1" id="Layer_1" xmlns="http://www.w3.org/2000/svg" xmlns:xlink="http://www.w3.org/1999/xlink" x="0px" y="0px"
	 width="128px" height="128px" viewBox="0 0 128 128" enable-background="new 0 0 128 128" xml:space="preserve">
<g>
	<circle fill="#C2D5D8" cx="64" cy="64" r="64"/>
	<path fill="#B7C9CC" d="M121.59,91.939c-0.001-0.004-0.001-0.004-0.002-0.006c-0.083-0.205-0.154-0.416-0.248-0.613
		c-0.083-0.205-0.154-0.415-0.248-0.614c-0.083-0.205-0.152-0.415-0.248-0.614c-0.084-0.206-0.154-0.417-0.248-0.617
		c-0.084-0.203-0.152-0.412-0.248-0.608c-0.082-0.205-0.152-0.415-0.248-0.614c-0.082-0.205-0.152-0.415-0.248-0.613
		c-0.084-0.207-0.154-0.416-0.248-0.617c-0.084-0.203-0.152-0.412-0.246-0.609c-0.084-0.205-0.154-0.415-0.248-0.614
		c-0.084-0.205-0.154-0.415-0.248-0.614c-0.084-0.205-0.155-0.416-0.25-0.617c-0.082-0.201-0.152-0.41-0.246-0.608
		c-0.084-0.207-0.156-0.419-0.252-0.622c-0.082-0.202-0.152-0.409-0.244-0.605c-0.084-0.205-0.155-0.416-0.248-0.613
		c-0.084-0.206-0.156-0.417-0.25-0.617c-0.083-0.203-0.153-0.412-0.246-0.609c-0.084-0.205-0.154-0.416-0.248-0.615
		c-0.084-0.203-0.154-0.414-0.248-0.612c-0.084-0.206-0.156-0.416-0.25-0.617c-0.083-0.203-0.152-0.412-0.246-0.61
		c-0.084-0.205-0.154-0.414-0.248-0.612c-0.084-0.205-0.154-0.415-0.248-0.614c-0.084-0.206-0.154-0.417-0.25-0.617
		c-0.082-0.203-0.152-0.412-0.244-0.609c-0.084-0.205-0.156-0.416-0.248-0.613c-0.084-0.205-0.156-0.415-0.248-0.614
		c-0.084-0.205-0.155-0.415-0.248-0.614c-0.084-0.205-0.156-0.416-0.25-0.617c-0.084-0.202-0.153-0.411-0.246-0.608
		c-0.084-0.205-0.155-0.415-0.248-0.614c-0.084-0.205-0.155-0.414-0.248-0.613c-0.084-0.207-0.156-0.416-0.25-0.617
		c-0.084-0.203-0.153-0.412-0.246-0.609c-0.084-0.205-0.155-0.415-0.248-0.613c-0.084-0.205-0.155-0.416-0.248-0.615
		c-0.084-0.205-0.156-0.416-0.25-0.616c-0.084-0.206-0.156-0.417-0.25-0.617c-0.083-0.202-0.152-0.409-0.246-0.606
		c-0.083-0.205-0.152-0.414-0.248-0.613c-0.083-0.205-0.152-0.415-0.248-0.613c-0.084-0.206-0.154-0.418-0.249-0.617
		c-0.083-0.203-0.151-0.412-0.247-0.609c-0.082-0.205-0.152-0.416-0.247-0.614c-0.083-0.205-0.153-0.415-0.247-0.613
		c-0.084-0.206-0.156-0.416-0.25-0.617c-0.082-0.203-0.152-0.412-0.246-0.61c-0.084-0.205-0.154-0.415-0.248-0.614
		c-0.084-0.205-0.154-0.415-0.248-0.613c-0.084-0.206-0.155-0.417-0.25-0.617c-0.082-0.203-0.152-0.412-0.246-0.61
		c-0.084-0.205-0.154-0.415-0.248-0.614c-0.084-0.204-0.154-0.415-0.248-0.613c-0.084-0.205-0.154-0.415-0.248-0.614
		c-0.084-0.206-0.155-0.417-0.25-0.617c-0.082-0.203-0.152-0.412-0.246-0.61c-0.083-0.204-0.154-0.414-0.248-0.613
		c-0.083-0.205-0.153-0.415-0.248-0.614c-0.084-0.206-0.155-0.416-0.249-0.617c-0.083-0.203-0.151-0.412-0.247-0.609
		c-0.083-0.205-0.152-0.415-0.248-0.614c-0.083-0.205-0.152-0.415-0.248-0.614c-0.084-0.208-0.156-0.421-0.253-0.624
		c-0.082-0.201-0.149-0.407-0.242-0.604c-0.084-0.205-0.155-0.415-0.247-0.614c-0.085-0.205-0.156-0.415-0.248-0.614
		c-0.084-0.206-0.156-0.416-0.25-0.617c-0.084-0.203-0.154-0.412-0.246-0.609c-0.084-0.205-0.156-0.415-0.248-0.614
		c-0.084-0.205-0.156-0.415-0.248-0.614c-0.084-0.205-0.155-0.415-0.248-0.614c-0.084-0.206-0.156-0.416-0.25-0.616
		c-0.084-0.203-0.153-0.412-0.246-0.61c-0.084-0.205-0.155-0.415-0.248-0.614c-0.459-1.123-1.053-2.188-1.809-3.141
		c-2.973-3.748-7.029-5.984-10.851-5.984c-2.267,0-5.494,0.783-8.021,4.51c-1.271,1.878-1.942,3.765-2.596,5.591
		c-0.271,0.759-0.544,1.521-0.865,2.294c-0.039,0.095-0.084,0.189-0.125,0.285c-4.002-5.735-12.563-10.887-22.563-10.887
		c-0.67,0-1.339,0.03-2.008,0.076c-0.001,0-0.003,0-0.005,0c-3.9,0.27-7.769,1.309-11.525,3.117
		C29.441,48.121,24.143,59.91,28.481,72.84c-1.899,1.19-3.382,2.719-4.275,4.791c-0.307,0.721-0.236,1.523,0.144,2.189
		c0.054,0.215,0.137,0.418,0.248,0.613c0.054,0.215,0.137,0.42,0.249,0.613c0.054,0.217,0.136,0.418,0.247,0.613
		c0.054,0.215,0.137,0.418,0.247,0.613c0.055,0.215,0.138,0.418,0.248,0.615c0.055,0.215,0.138,0.418,0.248,0.612
		c0.055,0.216,0.138,0.419,0.249,0.614c0.055,0.215,0.137,0.418,0.247,0.613c0.055,0.215,0.138,0.418,0.248,0.613
		c0.055,0.215,0.138,0.418,0.248,0.613c0.055,0.216,0.139,0.421,0.25,0.618c0.055,0.213,0.137,0.415,0.247,0.608
		c0.054,0.215,0.137,0.418,0.248,0.614c0.054,0.216,0.137,0.418,0.248,0.613c0.054,0.215,0.137,0.419,0.248,0.614
		c0.055,0.215,0.137,0.418,0.248,0.613c0.054,0.215,0.137,0.418,0.248,0.612c0.054,0.215,0.137,0.419,0.248,0.614
		c0.054,0.215,0.137,0.419,0.248,0.613c0.055,0.215,0.137,0.418,0.248,0.613c0.054,0.215,0.137,0.418,0.248,0.613
		c0.054,0.216,0.137,0.418,0.247,0.613c0.055,0.215,0.138,0.418,0.248,0.615c0.055,0.215,0.138,0.418,0.248,0.613
		c0.056,0.215,0.138,0.418,0.248,0.612c0.055,0.215,0.138,0.418,0.248,0.614c0.055,0.215,0.138,0.418,0.248,0.613
		c0.055,0.215,0.137,0.42,0.248,0.614c0.055,0.215,0.137,0.418,0.248,0.612c0.054,0.216,0.137,0.418,0.248,0.613
		c0.054,0.215,0.137,0.418,0.248,0.614c0.054,0.216,0.137,0.419,0.248,0.614c0.055,0.215,0.137,0.418,0.248,0.611
		c0.054,0.216,0.137,0.418,0.248,0.615c0.054,0.215,0.137,0.418,0.248,0.613c0.055,0.216,0.138,0.421,0.25,0.617
		c0.054,0.214,0.137,0.417,0.248,0.609c0.054,0.217,0.136,0.418,0.247,0.613c0.054,0.215,0.137,0.418,0.247,0.614
		c0.055,0.215,0.138,0.418,0.248,0.614c0.055,0.215,0.138,0.419,0.249,0.613c0.055,0.215,0.137,0.418,0.247,0.612
		c0.055,0.215,0.138,0.418,0.248,0.614c0.055,0.214,0.138,0.418,0.248,0.613c0.055,0.216,0.138,0.42,0.249,0.613
		c0.055,0.215,0.136,0.418,0.247,0.613c0.055,0.214,0.137,0.418,0.248,0.614c0.054,0.215,0.137,0.418,0.248,0.612
		c0.054,0.215,0.137,0.42,0.248,0.614c0.054,0.216,0.137,0.419,0.249,0.614c0.054,0.215,0.136,0.418,0.247,0.613
		c0.054,0.214,0.137,0.418,0.248,0.613c0.054,0.215,0.137,0.418,0.248,0.613c0.054,0.215,0.137,0.419,0.249,0.614
		c0.054,0.215,0.136,0.418,0.247,0.612c0.054,0.215,0.137,0.418,0.248,0.613c0.054,0.215,0.137,0.418,0.248,0.614
		c0.054,0.215,0.137,0.419,0.249,0.614c0.054,0.215,0.136,0.418,0.247,0.613c0.054,0.213,0.137,0.418,0.248,0.612
		c0.055,0.218,0.138,0.422,0.25,0.617c0.054,0.214,0.136,0.416,0.246,0.61c0.055,0.216,0.138,0.42,0.248,0.615
		c0.056,0.215,0.138,0.418,0.248,0.611c0.055,0.214,0.138,0.418,0.248,0.614c0.055,0.215,0.138,0.418,0.248,0.614
		c0.055,0.215,0.137,0.418,0.248,0.613c0.055,0.215,0.137,0.418,0.248,0.612c0.054,0.215,0.137,0.418,0.248,0.614
		c0.054,0.214,0.137,0.418,0.248,0.613c0.054,0.215,0.137,0.42,0.248,0.614c0.055,0.215,0.137,0.418,0.248,0.612
		c0.02,0.078,0.063,0.148,0.091,0.225c6.777,2.443,14.084,3.781,21.704,3.781C89.327,128,111.215,113.284,121.59,91.939z"/>
	<g>
		<path fill="#45998B" d="M80.758,90.909c-7.896,0-10.77-2.697-11.794-4.939c-6.075-0.057-13.507-0.799-20.826-2.073
			c-1.237,3.062-4.507,5.024-8.775,5.024c-1.33,0-2.653-0.213-3.822-0.614c-0.877-0.3-3.203-1.097-3.658-3.252
			c-0.407-1.925,0.865-3.287,2.133-4.479c-2.105-0.023-4.468,0.112-7.254,0.444c-0.87,0.101-1.742-0.267-2.271-0.976
			c-0.527-0.705-0.637-1.639-0.289-2.451c2.627-6.094,10.236-7.541,19.048-9.215c6.861-1.305,14.635-2.78,21.884-6.559
			c11.349-5.918,12.989-10.517,14.578-14.965c0.652-1.826,1.325-3.714,2.595-5.591c2.525-3.727,5.756-4.51,8.021-4.51
			c3.818,0,7.878,2.236,10.85,5.984c2.5,3.146,3.414,7.426,2.448,11.444c-0.739,3.078-2.479,5.439-4.762,6.484
			c-1.468,0.666-2.988,1.006-4.528,1.006l0,0c-1.893,0-3.704-0.524-5.146-1.446c-3.199,3.155-4.678,6.71-6.107,10.164
			c-0.561,1.342-1.086,2.614-1.706,3.854c-0.149,3.176,1.849,5.965,3.468,8.225c1.508,2.102,2.93,4.086,1.85,6.188
			C85.672,90.639,83.236,90.909,80.758,90.909z"/>
		<path fill="#3A8074" d="M82.406,57.163c0.371-0.619,0.453-1.365,0.224-2.051c-0.669-2.007-1.985-4.056-3.786-5.962
			c-1.564,3.762-4.298,7.762-13.712,12.671c-7.249,3.777-15.021,5.254-21.884,6.559c-5.192,0.986-9.958,1.901-13.542,3.729
			c0.345,1.465,0.807,2.945,1.405,4.441c0.376,0.938,1.281,1.551,2.292,1.551C42.769,78.104,74.162,70.9,82.406,57.163z"/>
		<path fill="#3A8074" d="M44.138,83.896c-1.038,2.565-3.516,4.346-6.802,4.856c0.66,0.108,1.342,0.168,2.025,0.168
			c3.979,0,7.067-1.722,8.475-4.435C46.604,84.305,45.37,84.109,44.138,83.896z"/>
		<path fill="#3A8074" d="M81.372,74.247c0.62-1.238,1.146-2.513,1.706-3.854c1.257-3.029,2.551-6.141,5.013-8.989
			c-1.056-0.241-2.049-0.627-2.903-1.174c-3.199,3.155-4.678,6.711-6.107,10.163c-0.561,1.344-1.086,2.615-1.706,3.854
			c-0.149,3.176,1.849,5.965,3.468,8.226c1.508,2.101,2.93,4.086,1.85,6.188c-0.758,1.472-2.299,1.997-4.06,2.171
			C79.301,90.878,80,90.91,80.76,90.91c2.479,0,4.914-0.271,5.932-2.25c1.08-2.104-0.342-4.088-1.85-6.188
			C83.221,80.212,81.223,77.423,81.372,74.247z"/>
		<path fill="#3A8074" d="M101.174,42.741c-2.971-3.748-7.029-5.984-10.849-5.984c-0.612,0-1.296,0.062-2.017,0.218
			c3.197,0.619,6.403,2.663,8.863,5.768c2.5,3.146,3.415,7.426,2.449,11.444c-0.74,3.078-2.479,5.439-4.762,6.484
			c-0.813,0.369-1.644,0.627-2.48,0.793c0.635,0.126,1.284,0.213,1.952,0.213c1.54,0,3.063-0.34,4.528-1.006
			c2.283-1.045,4.021-3.406,4.762-6.484C104.589,50.167,103.674,45.888,101.174,42.741z"/>
		<path fill="#99602E" d="M31.403,76.104c-1.011,0-1.916-0.612-2.292-1.552c-5.443-13.608-0.269-26.182,13.506-32.809
			c4.401-2.119,8.957-3.193,13.538-3.193c12.119,0,22.142,7.562,24.475,14.563c0.229,0.686,0.147,1.432-0.224,2.051
			C72.162,68.9,40.769,76.104,31.403,76.104z"/>
		<path fill="#BF7839" d="M33.265,60.13c-1.394,0.883-2.4,0.263-2.238-1.379c0,0,0.55-5.577,5.002-9.703
			c2.252-2.088,4.731-3.559,7.374-4.373c3.715-1.145,6.813-0.629,6.813-0.629c1.628,0.271,1.944,1.383,0.704,2.471L33.265,60.13z"/>
		<path fill="#805026" d="M80.63,53.112c-2.333-7.002-12.354-14.563-24.475-14.563c-0.673,0-1.345,0.03-2.016,0.076
			c11.216,0.766,20.285,7.871,22.489,14.486c0.229,0.686,0.147,1.432-0.224,2.051c-7.491,12.48-34.09,19.566-45.914,20.758
			c0.285,0.114,0.592,0.182,0.911,0.182c9.364,0,40.759-7.199,49.003-20.938C80.777,54.544,80.859,53.798,80.63,53.112z"/>
		<path fill="#EDEDED" d="M94.549,47.897c0,1.659-1.347,3.002-3,3.002c-1.658,0-3-1.343-3-3.002c0-1.655,1.342-2.998,3-2.998
			C93.202,44.899,94.549,46.242,94.549,47.897z"/>
		<circle fill="#242424" cx="91.549" cy="47.898" r="1"/>
	</g>
</g>
</svg>
