<?xml version="1.0" encoding="utf-8"?>
<!-- Generator: Adobe Illustrator 15.1.0, SVG Export Plug-In . SVG Version: 6.00 Build 0)  -->
<!DOCTYPE svg PUBLIC "-//W3C//DTD SVG 1.1//EN" "http://www.w3.org/Graphics/SVG/1.1/DTD/svg11.dtd">
<svg version="1.1" id="Layer_1" xmlns="http://www.w3.org/2000/svg" xmlns:xlink="http://www.w3.org/1999/xlink" x="0px" y="0px"
	 width="128px" height="128px" viewBox="0 0 128 128" enable-background="new 0 0 128 128" xml:space="preserve">
<g>
	<circle fill="#88C5CC" cx="64" cy="64" r="64"/>
	<path fill="#80B9BF" d="M122.773,89.346c-0.028-0.063-0.047-0.135-0.08-0.197c-0.047-0.181-0.12-0.35-0.207-0.514
		c-0.047-0.18-0.12-0.348-0.207-0.511c-0.047-0.181-0.12-0.351-0.206-0.515c-0.048-0.18-0.121-0.35-0.207-0.512
		c-0.048-0.18-0.121-0.35-0.207-0.513c-0.048-0.181-0.121-0.351-0.207-0.515c-0.048-0.18-0.121-0.35-0.207-0.512
		c-0.047-0.18-0.12-0.348-0.206-0.51c-0.047-0.181-0.12-0.352-0.207-0.515c-0.047-0.183-0.121-0.353-0.207-0.515
		c-0.047-0.18-0.121-0.35-0.207-0.512c-0.047-0.181-0.121-0.35-0.207-0.514c-0.047-0.182-0.121-0.35-0.207-0.512
		c-0.047-0.182-0.12-0.351-0.207-0.514c-0.047-0.181-0.12-0.35-0.206-0.514c-0.048-0.18-0.12-0.348-0.207-0.512
		c-0.048-0.182-0.12-0.352-0.207-0.514c-0.047-0.18-0.12-0.35-0.206-0.512c-0.048-0.182-0.121-0.35-0.207-0.514
		c-0.048-0.182-0.121-0.35-0.207-0.512c-0.048-0.182-0.121-0.352-0.207-0.515c-0.048-0.179-0.121-0.349-0.207-0.511
		c-0.047-0.18-0.121-0.35-0.205-0.51c-0.047-0.184-0.121-0.354-0.209-0.519c-0.047-0.179-0.121-0.349-0.207-0.511
		c-0.047-0.182-0.121-0.352-0.207-0.516c-0.047-0.18-0.121-0.348-0.207-0.511c-0.047-0.181-0.121-0.351-0.207-0.514
		c-0.047-0.179-0.121-0.349-0.207-0.511c-0.047-0.183-0.121-0.352-0.207-0.516c-0.047-0.18-0.119-0.348-0.207-0.511
		c-0.047-0.181-0.119-0.351-0.205-0.515c-0.049-0.18-0.121-0.35-0.207-0.512c-0.049-0.18-0.121-0.35-0.207-0.513
		c-0.047-0.181-0.121-0.351-0.207-0.514c-0.047-0.179-0.121-0.351-0.207-0.511c-0.047-0.183-0.121-0.352-0.207-0.516
		c-0.047-0.178-0.12-0.346-0.205-0.508c-0.048-0.184-0.121-0.354-0.208-0.518c-0.047-0.18-0.121-0.35-0.207-0.512
		c-0.047-0.181-0.121-0.35-0.207-0.514c-0.047-0.18-0.121-0.348-0.207-0.512c-0.047-0.182-0.121-0.351-0.207-0.514
		c-0.047-0.181-0.121-0.35-0.207-0.514c-0.047-0.18-0.121-0.348-0.207-0.512c-0.047-0.182-0.12-0.352-0.207-0.514
		c-0.047-0.18-0.12-0.35-0.207-0.512c-0.047-0.182-0.12-0.35-0.206-0.514c-0.048-0.181-0.121-0.349-0.207-0.512
		c-0.048-0.181-0.121-0.351-0.207-0.514c-0.048-0.179-0.121-0.349-0.207-0.511c-0.047-0.181-0.121-0.351-0.207-0.513
		c-0.047-0.18-0.119-0.349-0.205-0.511c-0.047-0.181-0.121-0.351-0.207-0.515c-0.047-0.181-0.121-0.35-0.207-0.514
		c-0.047-0.181-0.121-0.349-0.207-0.512c-0.047-0.181-0.121-0.351-0.207-0.514c-0.047-0.179-0.121-0.349-0.207-0.511
		c-0.047-0.182-0.121-0.351-0.207-0.515c-0.047-0.18-0.121-0.348-0.207-0.511c-0.047-0.181-0.121-0.35-0.207-0.513
		c-0.047-0.182-0.121-0.35-0.207-0.514c-0.047-0.181-0.121-0.349-0.207-0.512c-0.047-0.181-0.12-0.351-0.207-0.514
		c-0.047-0.179-0.12-0.35-0.206-0.511c-0.048-0.182-0.121-0.351-0.207-0.515c-0.048-0.18-0.121-0.348-0.207-0.511
		c-0.047-0.181-0.121-0.351-0.207-0.514c-0.047-0.179-0.12-0.347-0.205-0.509c-0.047-0.181-0.121-0.352-0.208-0.516
		c-0.047-0.181-0.121-0.351-0.207-0.514c-0.047-0.18-0.121-0.35-0.207-0.512c-0.047-0.181-0.121-0.35-0.207-0.514
		c-0.047-0.18-0.121-0.348-0.207-0.511c-0.047-0.182-0.121-0.352-0.207-0.515c-0.047-0.179-0.121-0.349-0.207-0.511
		c-0.047-0.181-0.121-0.35-0.207-0.514c-0.047-0.181-0.121-0.349-0.207-0.511c-0.047-0.182-0.121-0.352-0.207-0.515
		c-0.047-0.179-0.121-0.349-0.207-0.511c-0.047-0.18-0.119-0.35-0.207-0.513c-0.047-0.182-0.119-0.352-0.205-0.515
		c-0.049-0.179-0.121-0.349-0.207-0.511c-0.049-0.18-0.121-0.348-0.207-0.51c-0.047-0.182-0.119-0.353-0.207-0.516
		c-0.047-0.181-0.121-0.351-0.207-0.514c-0.047-0.179-0.121-0.349-0.207-0.511c-0.047-0.182-0.121-0.351-0.207-0.515
		c-0.047-0.18-0.12-0.348-0.207-0.511c-0.047-0.181-0.12-0.35-0.207-0.513c-0.047-0.181-0.12-0.351-0.206-0.515
		c-0.048-0.18-0.121-0.348-0.207-0.511c-0.048-0.181-0.121-0.351-0.207-0.514c-0.048-0.179-0.121-0.349-0.207-0.511
		c-0.048-0.182-0.121-0.351-0.207-0.515c-0.047-0.18-0.121-0.348-0.207-0.511c-0.047-0.181-0.12-0.351-0.207-0.514
		c-0.047-0.18-0.12-0.35-0.206-0.512c-0.048-0.179-0.12-0.348-0.205-0.51c-0.048-0.182-0.121-0.352-0.208-0.517
		c-0.047-0.179-0.121-0.35-0.207-0.511c-0.047-0.182-0.121-0.351-0.207-0.515c-0.047-0.18-0.121-0.348-0.207-0.511
		c-0.047-0.182-0.12-0.352-0.207-0.514c-0.047-0.18-0.12-0.35-0.207-0.512c-0.047-0.181-0.12-0.35-0.206-0.514
		c-0.048-0.18-0.121-0.348-0.207-0.511c-0.048-0.182-0.121-0.351-0.207-0.514c-0.048-0.181-0.121-0.35-0.207-0.514
		c-0.048-0.18-0.121-0.348-0.207-0.511c-0.047-0.182-0.121-0.352-0.207-0.515c-0.047-0.179-0.121-0.349-0.207-0.511
		c-0.047-0.181-0.121-0.35-0.207-0.514c-0.047-0.178-0.119-0.346-0.205-0.508c-0.047-0.183-0.121-0.353-0.207-0.518
		c-0.049-0.179-0.121-0.349-0.207-0.511c-0.049-0.181-0.121-0.351-0.207-0.515c-0.047-0.18-0.121-0.348-0.207-0.511
		c-0.047-0.181-0.121-0.35-0.207-0.513c-0.047-0.181-0.121-0.35-0.207-0.514c-0.161-0.616-0.563-1.154-1.127-1.484
		c-0.748-0.438-1.672-0.438-2.42-0.008l-15.979,9.131c-0.466-0.164-0.948-0.316-1.438-0.463c-2.24-0.674-4.604-1.113-6.938-1.377
		c-0.074-0.01-0.146-0.02-0.225-0.027c-0.504-0.055-1.002-0.1-1.5-0.139c-0.15-0.012-0.301-0.026-0.452-0.037
		c-0.466-0.032-0.923-0.057-1.378-0.075c-0.18-0.008-0.357-0.02-0.537-0.024c-0.635-0.021-1.258-0.034-1.864-0.034
		c-5.294,0-10.329,0.77-14.332,2.178L33.7,26.115c-0.75-0.429-1.671-0.429-2.419,0.008s-1.208,1.232-1.208,2.097v18.783
		c-2.424,4.684-2.062,13.464-2.062,19.065c-1.795,4.485-0.37,12.177,0.665,14.434c0.069,0.191,0.139,0.361,0.205,0.509
		c0.07,0.193,0.139,0.364,0.207,0.515c0.071,0.192,0.141,0.365,0.209,0.516c0.069,0.191,0.138,0.361,0.205,0.509
		c0.071,0.194,0.14,0.366,0.209,0.517c0.067,0.188,0.135,0.354,0.2,0.5c0.072,0.197,0.143,0.373,0.213,0.523
		c0.069,0.191,0.138,0.361,0.205,0.51c0.07,0.193,0.141,0.365,0.209,0.518c0.069,0.189,0.138,0.359,0.205,0.508
		c0.07,0.193,0.141,0.367,0.209,0.516c0.069,0.191,0.138,0.361,0.205,0.51c0.069,0.192,0.139,0.363,0.207,0.514
		c0.069,0.193,0.141,0.367,0.209,0.516c0.068,0.191,0.138,0.361,0.205,0.51c0.069,0.193,0.141,0.365,0.209,0.518
		c0.068,0.189,0.138,0.359,0.205,0.508c0.069,0.194,0.141,0.367,0.209,0.518c0.068,0.189,0.138,0.359,0.205,0.509
		c0.069,0.192,0.141,0.366,0.209,0.517c0.066,0.188,0.135,0.354,0.199,0.499c0.072,0.196,0.143,0.37,0.211,0.521
		c0.071,0.193,0.141,0.365,0.209,0.518c0.069,0.189,0.139,0.359,0.205,0.508c0.071,0.194,0.141,0.367,0.209,0.518
		c0.069,0.189,0.139,0.359,0.205,0.509c0.071,0.192,0.141,0.366,0.209,0.517c0.069,0.19,0.139,0.36,0.205,0.51
		c0.071,0.192,0.141,0.365,0.209,0.516c0.069,0.191,0.139,0.361,0.205,0.509c0.07,0.192,0.14,0.364,0.207,0.513
		c0.071,0.194,0.14,0.367,0.209,0.518c0.069,0.189,0.138,0.359,0.205,0.509c0.071,0.194,0.14,0.366,0.209,0.517
		c0.069,0.19,0.138,0.36,0.205,0.51c0.069,0.188,0.137,0.357,0.204,0.507c0.071,0.194,0.141,0.368,0.209,0.518
		c0.07,0.194,0.141,0.366,0.209,0.517c0.068,0.19,0.138,0.361,0.205,0.51c0.07,0.191,0.139,0.363,0.207,0.513
		c0.069,0.194,0.141,0.366,0.209,0.517c0.068,0.19,0.138,0.36,0.205,0.51c0.069,0.193,0.141,0.365,0.209,0.516
		c0.068,0.191,0.138,0.361,0.205,0.51c0.069,0.193,0.141,0.365,0.209,0.518c0.068,0.189,0.138,0.359,0.205,0.508
		c0.069,0.193,0.141,0.367,0.209,0.516c0.068,0.191,0.138,0.361,0.205,0.51c0.069,0.193,0.141,0.365,0.209,0.518
		c0.068,0.189,0.138,0.359,0.204,0.508c0.068,0.188,0.137,0.357,0.202,0.504c0.072,0.198,0.144,0.373,0.213,0.525
		c0.069,0.189,0.139,0.359,0.205,0.508c0.071,0.194,0.141,0.367,0.209,0.516c0.069,0.191,0.139,0.361,0.205,0.511
		c0.071,0.192,0.141,0.364,0.209,0.517c0.069,0.19,0.139,0.36,0.205,0.508c0.071,0.194,0.141,0.367,0.209,0.518
		c0.069,0.189,0.139,0.359,0.205,0.509c0.07,0.192,0.139,0.364,0.207,0.513c0.071,0.194,0.141,0.367,0.209,0.518
		c0.069,0.189,0.138,0.359,0.205,0.509c0.071,0.192,0.14,0.366,0.209,0.517c0.069,0.19,0.138,0.36,0.205,0.51
		c0.071,0.192,0.14,0.365,0.209,0.516c0.069,0.191,0.138,0.361,0.205,0.509c0.069,0.19,0.137,0.359,0.204,0.507
		c0.071,0.195,0.141,0.368,0.209,0.52c0.069,0.191,0.139,0.363,0.207,0.513c0.069,0.193,0.141,0.366,0.209,0.517
		c0.068,0.19,0.138,0.36,0.205,0.51c0.069,0.193,0.141,0.365,0.209,0.516c0.068,0.191,0.138,0.361,0.205,0.51
		c0.069,0.193,0.141,0.365,0.209,0.517c0.068,0.19,0.138,0.36,0.205,0.509c0.069,0.193,0.141,0.366,0.209,0.516
		c0.068,0.191,0.138,0.361,0.204,0.51c0.07,0.192,0.14,0.363,0.207,0.514c0.07,0.193,0.142,0.365,0.209,0.516
		c0.069,0.191,0.139,0.361,0.205,0.51c0.07,0.193,0.142,0.365,0.209,0.518c0.067,0.188,0.136,0.354,0.2,0.499
		c0.072,0.196,0.144,0.373,0.213,0.522c0.069,0.191,0.139,0.361,0.205,0.51c0.071,0.193,0.141,0.365,0.209,0.518
		c0.069,0.189,0.139,0.36,0.205,0.508c0.07,0.193,0.14,0.364,0.207,0.514c0.071,0.193,0.14,0.365,0.209,0.518
		c0.002,0.006,0.004,0.01,0.007,0.018c5.45,1.508,11.186,2.332,17.115,2.332C90.34,128,112.955,112.082,122.773,89.346z"/>
	<g>
		<path fill="#808080" d="M28,66.137c0-5.602-0.363-14.383,2.061-19.063V28.289c0-0.864,0.461-1.661,1.208-2.097
			c0.748-0.438,1.669-0.438,2.419-0.009l15.98,9.131c4.003-1.407,9.038-2.178,14.332-2.178c5.293,0,10.329,0.771,14.332,2.178
			l15.979-9.131c0.748-0.429,1.672-0.429,2.42,0.009c0.748,0.436,1.207,1.231,1.207,2.097v18.783
			C100.363,51.755,100,60.536,100,66.137H28z"/>
		<g>
			<path fill="#737373" d="M77.271,35.918l1.057-0.604c-4.563-1.632-9.855-2.179-14.328-2.179c-0.504,0-1.002,0.015-1.5,0.027
				C67.238,33.295,73.648,34.645,77.271,35.918z"/>
			<path fill="#737373" d="M47.64,35.918c0.621-0.219,1.275-0.416,1.943-0.604l-15.896-9.132c-0.75-0.429-1.672-0.429-2.42,0.009
				c-0.09,0.052-0.159,0.125-0.24,0.187L47.64,35.918z"/>
			<path fill="#737373" d="M97.939,47.071V28.288c0-0.864-0.461-1.661-1.209-2.097c-0.748-0.438-1.672-0.438-2.418-0.009
				l-0.342,0.194c0.598,0.456,0.969,1.149,0.969,1.91V47.07C97.363,51.753,97,60.534,97,66.135h3
				C100,60.535,100.363,51.754,97.939,47.071z"/>
		</g>
		<path fill="#F5F5F5" d="M72.916,85.936c0,2.648-3.977,5.848-8.916,5.848c-4.939,0-8.916-3.197-8.916-5.848v-4.313h17.832V85.936z"
			/>
		<path fill="#E6E6E6" d="M100,66.137c-5-4-23-10.104-36-10.104s-31,6.105-36,10.104c-2,5,0,14,1,15c2-1,6-2,9-2c-2,2-3,9-3,12
			c4-2,8-1,10,1c3,9,16,10,19,10s16-1,19-10c2-2,5-3,10-1c0-3-1-10-3-12c3,0,7,1,9,2C100,80.137,102,71.137,100,66.137z"/>
		<g>
			<path fill="#CCCCCC" d="M85.49,78.57c1.793,1.793,3.145,8.162,3.33,11.507c1.215,0.096,2.596,0.426,4.18,1.06
				c0-2.766-0.749-8.832-2.916-12C88.539,78.797,86.904,78.57,85.49,78.57z"/>
			<path fill="#CCCCCC" d="M78.855,92.137c-2.529,7.59-12.17,9.489-16.93,9.899c0.886,0.075,1.603,0.101,2.072,0.101c3,0,16-1,19-10
				c0.843-0.843,1.865-1.504,3.141-1.842C82.721,89.57,80.463,90.529,78.855,92.137z"/>
			<path fill="#CCCCCC" d="M100,66.137c-1.16-0.929-3.027-1.971-5.365-3.021c0.551,1.145,0.938,2.146,1.215,3.019
				c0.002,0.002,0.006,0.003,0.008,0.005c0.393,0.982,0.627,2.121,0.75,3.32c0.002,0.018,0.004,0.034,0.008,0.05h-0.002
				c0.377,3.813-0.411,8.246-1.158,10.402c1.396,0.354,2.668,0.788,3.547,1.228C100,80.137,102,71.137,100,66.137z"/>
		</g>
		<g>
			<g>
				<circle fill="#F5F5F5" cx="51" cy="58.926" r="5"/>
				<circle fill="#242424" cx="51" cy="58.926" r="2"/>
			</g>
			<g>
				<circle fill="#F5F5F5" cx="77" cy="58.926" r="5"/>
				<circle fill="#242424" cx="77" cy="58.926" r="2"/>
			</g>
		</g>
		<path fill="#F5F5F5" d="M64,95.137c-7,0-10-10.378-10-13.867c0-3.487,4.46-3.832,10-3.832c5.539,0,10,0.345,10,3.832
			C74,84.759,71,95.137,64,95.137z"/>
		<g>
			<path fill="#737373" d="M74,81.621v-25c0-3.172-4.461-7-10-7c-5.54,0-10,3.828-10,7v25H74z"/>
		</g>
		<polygon fill="#B3B3B3" points="34.909,47.682 34.909,33.137 49.455,40.409 		"/>
		<polygon fill="#B3B3B3" points="93.091,47.682 93.091,33.137 78.545,40.409 		"/>
		<path fill="#242424" d="M64,92.137c-5.54,0-10-7.344-10-10.516s4.46-3.484,10-3.484c5.539,0,10,0.313,10,3.484
			S69.539,92.137,64,92.137z"/>
		<path fill="#737373" d="M64,56.03H44.458c2.709-2.334,12.459-6.409,19.542-6.409V56.03z"/>
		<path fill="#737373" d="M64,56.03h19.542C80.833,53.696,71.083,49.621,64,49.621V56.03z"/>
	</g>
</g>
</svg>
