<?xml version="1.0" encoding="utf-8"?>
<!-- Generator: Adobe Illustrator 15.1.0, SVG Export Plug-In . SVG Version: 6.00 Build 0)  -->
<!DOCTYPE svg PUBLIC "-//W3C//DTD SVG 1.1//EN" "http://www.w3.org/Graphics/SVG/1.1/DTD/svg11.dtd">
<svg version="1.1" id="Layer_1" xmlns="http://www.w3.org/2000/svg" xmlns:xlink="http://www.w3.org/1999/xlink" x="0px" y="0px"
	 width="128px" height="128px" viewBox="0 0 128 128" enable-background="new 0 0 128 128" xml:space="preserve">
<circle fill="#88C5CC" cx="64" cy="64" r="64"/>
<g>
	<g>
		<g>
			<g>
				<defs>
					<circle id="SVGID_1_" cx="64" cy="64" r="64"/>
				</defs>
				<clipPath id="SVGID_2_">
					<use xlink:href="#SVGID_1_"  overflow="visible"/>
				</clipPath>
				<path clip-path="url(#SVGID_2_)" fill="#1A1A1A" d="M26.696,84.357c-4.951-2.646-13.815-6.102-10.478-13.584
					s23.119-27.215,29.24-32.234c9.757-8.002,27.154-10.495,39.145-4.145c14.563,7.714,21.871,21.067,7.48,27.056
					C74.472,60.642,26.696,84.357,26.696,84.357z"/>
			</g>
		</g>
	</g>
	<g>
		<g>
			<g>
				<defs>
					<circle id="SVGID_3_" cx="64" cy="64" r="64"/>
				</defs>
				<clipPath id="SVGID_4_">
					<use xlink:href="#SVGID_3_"  overflow="visible"/>
				</clipPath>
				<g clip-path="url(#SVGID_4_)">
					<path fill="#F5F5F5" d="M51.185,46.619c3.652,2.743,8.396,4.229,12.939,4.395c0.249,0.01,0.465-0.029,0.652-0.106
						c1.881,0.628,4.135,0.6,5.883-0.237c1.093-0.521,0.959-1.69,0.291-2.367c-0.182-0.646-0.699-1.212-1.473-1.207
						c-1.801,0.015-3.822,0.287-5.479-0.568c-0.363-0.188-0.719-0.223-1.038-0.155c-3.505-1.459-5.913-4.786-8.028-7.791
						c-0.963-1.365-1.913-2.738-2.847-4.122c-1.031,0.478-2.024,0.997-2.978,1.56c2.308,3.773,4.989,7.642,8.252,10.418
						c-1.356-0.536-2.663-1.202-3.886-1.988c-2.559-1.646-3.971-4.954-5.141-7.943c-0.91,0.573-1.786,1.179-2.602,1.829
						C47.017,41.463,48.527,44.625,51.185,46.619z"/>
					<path fill="#F5F5F5" d="M53.085,68.717c-1.49-1.357-3.713,0.854-2.218,2.217c0.62,0.565,1.256,1.125,1.895,1.68
						c1.064-0.438,2.145-0.877,3.229-1.313C55.022,70.448,54.046,69.596,53.085,68.717z"/>
					<path fill="#F5F5F5" d="M34.687,48.931c1.6,2.604,2.412,5.814,4.425,8.155c2.979,3.468,7.207,5.06,11.42,6.539
						c4.141,1.454,8.598,2.678,12.24,5.047c1.206-0.449,2.415-0.893,3.616-1.318c-0.615-0.535-1.279-1.051-2.007-1.533
						c-4.576-3.051-10.624-4.297-15.731-6.198c-5.725-2.132-9.472-7.332-12.032-12.867c-0.66,0.655-1.341,1.333-2.023,2.023
						C34.625,48.828,34.653,48.879,34.687,48.931z"/>
					<path fill="#F5F5F5" d="M26.696,84.357c0,0,0.387-0.191,1.09-0.534c-0.292-0.494-0.598-0.979-0.939-1.446
						c-2.686-3.65-6.963-5.988-11.276-7.501c0.313,1.927,1.547,3.503,3.172,4.835c1.061,0.592,2.061,1.262,2.979,2.019
						C23.446,82.729,25.239,83.578,26.696,84.357z"/>
					<path fill="#F5F5F5" d="M42.823,67.26c1.81,0.887,3.397-1.814,1.582-2.707c-5.666-2.779-9.765-7.33-12.966-12.546
						c-0.744,0.777-1.489,1.563-2.229,2.351C32.615,59.722,36.981,64.394,42.823,67.26z"/>
					<path fill="#F5F5F5" d="M52.752,54.588c1.771,0.98,3.353-1.727,1.582-2.707c-4.732-2.623-8.328-6.835-10.953-11.545
						c-0.708,0.634-1.493,1.358-2.337,2.147C43.9,47.419,47.713,51.796,52.752,54.588z"/>
					<path fill="#F5F5F5" d="M78.104,40.041c0.209,1.989,3.348,2.009,3.135,0c-0.295-2.761-1.459-5.25-2.23-7.861
						c-1.121-0.32-2.262-0.587-3.424-0.793C76.222,34.332,77.78,37.024,78.104,40.041z"/>
					<path fill="#F5F5F5" d="M98.36,46.698c-0.488-0.913-1.088-1.825-1.785-2.729c-4.392,5.063-13.868,7.08-19.039,2.201
						c-2.779-2.625-3.44-6.696-6.68-9.086c-2.638-1.94-5.222-3.802-7.699-5.846c-1.317,0.188-2.627,0.427-3.907,0.737
						c3.523,3.029,7.4,5.487,10.854,8.606c3.813,3.449,4.047,8.199,9.141,10.381C85.347,53.579,93.798,51.533,98.36,46.698z"/>
					<path fill="#F5F5F5" d="M28.806,81.783c0.241,0.409,0.482,0.807,0.724,1.198c0.806-0.388,1.763-0.843,2.854-1.355
						c-1.104-1.755-2.135-3.581-3.265-5.396c-2.538-4.071-5.521-7.826-8.82-11.303c-0.052-0.055-0.104-0.093-0.154-0.136
						c-0.694,0.896-1.329,1.748-1.883,2.548C22.393,71.732,25.763,76.586,28.806,81.783z"/>
					<path fill="#F5F5F5" d="M36.052,71.999c1.267,1.938,2.247,4.212,3.153,6.479c0.835-0.377,1.695-0.766,2.586-1.158
						c-0.266-0.605-0.521-1.202-0.778-1.787c0.057,0.031,0.106,0.068,0.164,0.102c0.673,0.396,1.365,0.729,2.07,1.041
						c1.465-0.646,2.986-1.309,4.561-1.979c-3.578-1.453-6.795-2.949-9.957-5.207c-0.877-1.277-1.924-2.503-3.26-3.682
						c-2.241-1.97-3.383-4.6-5.23-6.856c-0.693-0.849-1.446-1.614-2.234-2.335c-0.926,1.015-1.829,2.021-2.695,3.016
						C28.265,63.997,31.665,68.335,36.052,71.999z"/>
					<path fill="#F5F5F5" d="M65.536,57.587c3.514-0.133,7.07-0.918,10.554-1.057c5.417-0.214,9.198,1.539,11.724,5.113
						c1.344-0.154,2.59-0.229,3.727-0.209c-1.547-2.988-3.924-5.799-6.939-6.921c-3.369-1.254-6.621-1.192-10.182-1.053
						c-4.417,0.175-9.07,1.735-13.4,0.612c-0.829-0.215-1.451,0.203-1.75,0.794c-1.009,0.51-1.165,2.438,0.264,3.013
						c4.479,1.798,7.937,4.66,10.608,8.181c1.015-0.338,2.019-0.664,3.011-0.977C71.089,62.188,68.599,59.624,65.536,57.587z"/>
				</g>
			</g>
		</g>
	</g>
	<g>
		<g>
			<g>
				<defs>
					<circle id="SVGID_5_" cx="64" cy="64" r="64"/>
				</defs>
				<clipPath id="SVGID_6_">
					<use xlink:href="#SVGID_5_"  overflow="visible"/>
				</clipPath>
				<path clip-path="url(#SVGID_6_)" fill="#F5F5F5" d="M95.094,96.041c-1.137-0.496-2.296-1.16-3.47-2.014
					c-5.813-4.229-22.447,0.23-24.061-13.125c-11.974,6.156-4.837,38.453-24.406,52.727c-13.586-5.523-29.472-20.722-33.616-23.021
					c8.521-18.422,39.256-81.737,70.456-66.772c3.579-2.274,6.704-3.799,7.599-3.225c0.699,0.45,0.203,8.397,0.203,10.471
					c3.768,5.802,13.809,14.65,20.294,23.07C103.616,80.958,100.243,90.584,95.094,96.041z"/>
			</g>
		</g>
	</g>
	<g>
		<g>
			<g>
				<defs>
					<circle id="SVGID_7_" cx="64" cy="64" r="64"/>
				</defs>
				<clipPath id="SVGID_8_">
					<use xlink:href="#SVGID_7_"  overflow="visible"/>
				</clipPath>
				<path clip-path="url(#SVGID_8_)" fill="#E6E6E6" d="M104.638,75.063c1.069-0.533,2.184-0.908,3.319-1.088
					C101.465,65.607,91.54,56.84,87.8,51.079c0-2.072,0.496-10.021-0.203-10.471c-0.29-0.188-0.822-0.151-1.529,0.063
					c0.604,3.479-2.408,8.744-2.408,10.406C87.559,57.092,98.194,66.374,104.638,75.063z"/>
			</g>
		</g>
	</g>
	<g>
		<g>
			<g>
				<defs>
					<circle id="SVGID_9_" cx="64" cy="64" r="64"/>
				</defs>
				<clipPath id="SVGID_10_">
					<use xlink:href="#SVGID_9_"  overflow="visible"/>
				</clipPath>
				<path clip-path="url(#SVGID_10_)" fill="#CCCCCC" d="M77.78,45.446c0.635-0.69,1.678-1.294,2.218-1.612
					c-4.229-2.203-8.728-2.455-11.813-2.162C70.733,41.912,75.308,43.775,77.78,45.446z"/>
			</g>
		</g>
	</g>
	<g>
		<g>
			<g>
				<defs>
					<circle id="SVGID_11_" cx="64" cy="64" r="64"/>
				</defs>
				<clipPath id="SVGID_12_">
					<use xlink:href="#SVGID_11_"  overflow="visible"/>
				</clipPath>
				<path clip-path="url(#SVGID_12_)" fill="#CCCCCC" d="M67.565,76.646c-16.406,11.223-9.354,41.004-27.055,55.801
					c0.891,0.43,1.772,0.826,2.646,1.184c19.569-14.271,12.435-46.57,24.405-52.727C67.219,79.998,67.219,78.371,67.565,76.646z"/>
			</g>
		</g>
	</g>
	<g>
		<g>
			<g>
				<defs>
					<circle id="SVGID_13_" cx="64" cy="64" r="64"/>
				</defs>
				<clipPath id="SVGID_14_">
					<use xlink:href="#SVGID_13_"  overflow="visible"/>
				</clipPath>
				<path clip-path="url(#SVGID_14_)" fill="#242424" d="M108.092,74.153c-5.341,0.782-10.467,6.021-12.411,13.312
					c-0.795,2.971-0.945,5.9-0.579,8.566c7.451,3.246,13.966-0.652,17.36-4.996C115.885,86.656,113.003,80.527,108.092,74.153z"/>
			</g>
		</g>
	</g>
	<g>
		<g>
			<g>
				<defs>
					<circle id="SVGID_15_" cx="64" cy="64" r="64"/>
				</defs>
				<clipPath id="SVGID_16_">
					<use xlink:href="#SVGID_15_"  overflow="visible"/>
				</clipPath>
				<g clip-path="url(#SVGID_16_)">
					<path fill="#1A1A1A" d="M49.109,127.799c1.274-1.654,2.37-3.416,3.32-5.252c-4.623-2.994-9.816-5.199-14.556-8.094
						c-4.438-2.713-7.302-7.479-10.278-11.586c-3.295-4.545-5.458-9.813-6.284-15.352c-0.792,1.397-1.558,2.779-2.292,4.135
						c1.987,7.355,6.151,13.568,10.998,19.729c0.414,0.527,0.853,1.023,1.304,1.504c-3.936-1.354-7.868-2.664-11.765-4.227
						c-3.231-1.293-4.839-3.344-6.216-6.021c-0.604,1.23-1.17,2.396-1.691,3.488c1.687,2.635,3.833,4.205,7.073,5.559
						C28.924,115.936,42.774,117.98,49.109,127.799z"/>
					<path fill="#1A1A1A" d="M70.661,50.669c1.092-0.521,0.957-1.689,0.289-2.367c-0.182-0.646-0.698-1.212-1.471-1.207
						c-1.801,0.015-7.545,0.541-9.979-2.984c-0.998,0.459-1.987,0.975-2.975,1.541c0.276,0.261,0.545,0.539,0.832,0.783
						c-0.418-0.164-0.817-0.364-1.226-0.555c-1.025,0.606-2.047,1.266-3.058,1.979c3.322,1.944,7.247,3.018,11.044,3.155
						C64.374,51.022,68.913,51.506,70.661,50.669z"/>
					<path fill="#1A1A1A" d="M92.858,64.611c-1.259-3.965-4.178-8.576-8.262-10.097c-3.367-1.254-6.62-1.192-10.182-1.053
						c-4.417,0.175-9.07,1.735-13.4,0.612c-0.829-0.215-1.451,0.203-1.75,0.794c-1.009,0.51-1.165,2.438,0.264,3.013
						c13.167,5.287,17.488,19.76,19.134,33.135c1.057,0.205,2.128,0.369,3.188,0.518c-1.545-13.016-5.43-26.703-16.313-33.946
						c3.514-0.133,7.07-0.918,10.554-1.057c7.55-0.299,11.937,3.203,14.144,10.168c2.777,8.771,0.6,17.456-1.379,26.063
						c1.067,0.313,2.016,0.717,2.771,1.268c0.032,0.021,0.063,0.041,0.095,0.064C93.837,84.246,96.091,74.821,92.858,64.611z"/>
					<path fill="#1A1A1A" d="M99.462,73.551c-1.227,1.574,0.979,3.813,2.217,2.217c1.582-2.039,2.074-4.412,2.02-6.865
						c-1.176-1.317-2.387-2.627-3.602-3.918C100.821,68.02,101.192,71.322,99.462,73.551z"/>
					<path fill="#1A1A1A" d="M64.382,65.818c-4.576-3.049-10.624-4.295-15.731-6.198c-1.985-0.74-3.729-1.858-5.271-3.224
						c-0.786,0.823-1.563,1.668-2.333,2.538c2.743,2.231,6.114,3.506,9.486,4.69c6.229,2.188,13.191,3.834,16.986,9.694
						c2.639,4.07,3.055,9.115,3.025,14.1c0.865,0.844,1.876,1.502,2.979,2.027C73.467,80.428,72.673,71.342,64.382,65.818z"/>
					<path fill="#1A1A1A" d="M50.861,49.518c-0.822,0.648-1.641,1.327-2.45,2.035c1.338,1.142,2.778,2.168,4.343,3.034
						c1.771,0.98,3.353-1.727,1.582-2.707C53.099,51.197,51.944,50.4,50.861,49.518z"/>
					<path fill="#1A1A1A" d="M79.102,69.049c3.906,7.344,5.192,14.877,5.47,22.861c1.106,0.16,2.17,0.336,3.155,0.563
						c-0.247-8.771-1.641-16.965-5.921-25.006C80.856,65.682,78.151,67.266,79.102,69.049z"/>
					<path fill="#1A1A1A" d="M51.893,83.143c-1.073-1.707-3.786-0.135-2.706,1.582c2.045,3.254,5.115,5.604,7.254,8.783
						c1.06,1.578,1.982,3.226,2.927,4.857c0.307-1.535,0.618-3.016,0.951-4.438c-0.604-1.045-1.224-2.08-1.896-3.08
						C56.531,88.033,53.709,86.029,51.893,83.143z"/>
					<path fill="#1A1A1A" d="M38.569,99.209c-0.942-1.789-3.648-0.205-2.706,1.582c2.667,5.064,4.312,10.471,8.688,14.395
						c2.6,2.328,5.602,4.123,8.536,6.023c0.486-1.037,0.944-2.09,1.356-3.162c-1.803-1.229-3.645-2.395-5.448-3.524
						C43.175,110.875,41.581,104.93,38.569,99.209z"/>
					<path fill="#1A1A1A" d="M53.085,68.717c-1.49-1.357-3.713,0.854-2.218,2.217c4.63,4.228,10.021,7.945,12.893,13.623
						c0.618-0.976,1.326-1.813,2.138-2.504C62.727,76.688,57.751,72.977,53.085,68.717z"/>
					<path fill="#1A1A1A" d="M50.586,107.57c-3.034-4.355-4.28-9.705-8.604-13.119c-1.57-1.238-3.804,0.965-2.217,2.217
						c4.779,3.773,6.38,10.387,10.063,15.113c1.471,1.885,3.23,3.447,5.179,4.734c0.382-1.086,0.728-2.188,1.048-3.289
						C54.009,111.709,52.179,109.854,50.586,107.57z"/>
					<path fill="#1A1A1A" d="M26.572,88.938c1.513,5.199,2.7,10.533,5.239,15.381c0.938,1.793,3.645,0.209,2.706-1.58
						c-3.354-6.406-3.41-14.561-7.672-20.361c-0.453-0.613-0.961-1.187-1.494-1.73c-0.595,0.974-1.175,1.938-1.745,2.904
						C24.931,85.055,25.963,86.832,26.572,88.938z"/>
					<path fill="#1A1A1A" d="M35.071,66.258c-0.719,0.95-1.425,1.914-2.123,2.887c0.99,0.984,2.012,1.943,3.104,2.854
						c2.447,3.743,3.836,8.755,5.656,12.513c4.376,9.041,8.648,16.971,15.646,23.697c0.28-1.229,0.541-2.449,0.79-3.662
						c-6.849-7.195-11.04-15.822-15.408-25.138c-0.631-1.345-1.181-2.634-1.726-3.878c0.058,0.031,0.107,0.068,0.165,0.102
						c4.024,2.365,8.766,2.963,12.794,5.482c3.881,2.426,5.67,5.909,7.153,9.715c0.468-1.609,0.997-3.092,1.622-4.416
						c-0.588-1.223-1.26-2.404-2.104-3.508c-2.294-2.995-6.031-5.541-9.521-6.9c-4.97-1.938-9.163-3.586-13.272-6.52
						C37.083,68.369,36.177,67.297,35.071,66.258z"/>
					<path fill="#1A1A1A" d="M44.405,64.553c-1.927-0.943-3.672-2.099-5.265-3.409c-0.672,0.803-1.338,1.613-1.996,2.439
						c1.723,1.418,3.608,2.66,5.679,3.677C44.633,68.146,46.222,65.443,44.405,64.553z"/>
					<path fill="#1A1A1A" d="M36.945,91.426c1.623,1.211,3.184-1.512,1.582-2.705c-4.396-3.28-6.578-7.94-9.409-12.488
						c-0.158-0.256-0.337-0.5-0.5-0.754c-0.637,0.977-1.262,1.951-1.876,2.931c0.706,1.108,1.396,2.231,2.063,3.377
						C31.064,85.639,33.341,88.736,36.945,91.426z"/>
				</g>
			</g>
		</g>
	</g>
	<g>
		<g>
			<g>
				<defs>
					<circle id="SVGID_17_" cx="64" cy="64" r="64"/>
				</defs>
				<clipPath id="SVGID_18_">
					<use xlink:href="#SVGID_17_"  overflow="visible"/>
				</clipPath>
				<circle clip-path="url(#SVGID_18_)" fill="#242424" cx="80.918" cy="59.259" r="1.381"/>
			</g>
		</g>
	</g>
</g>
</svg>
